<?xml version="1.0" encoding="UTF-8"?>
<!--Generator: Apple Native CoreSVG 123-->
<!DOCTYPE svg
PUBLIC "-//W3C//DTD SVG 1.1//EN"
       "http://www.w3.org/Graphics/SVG/1.1/DTD/svg11.dtd">
<svg version="1.1" xmlns="http://www.w3.org/2000/svg" xmlns:xlink="http://www.w3.org/1999/xlink" width="3300" height="2200">
 <!--glyph: "uni10077F.medium", point size: 100.000000, font version: "Version 15.0d7e11", template writer version: "5"-->
 <g id="Notes">
  <rect height="2200" id="artboard" style="fill:white;opacity:1" width="3300" x="0" y="0"/>
  <line id="" style="fill:none;stroke:black;opacity:1;stroke-width:0.5;" x1="263" x2="3036" y1="292" y2="292"/>
  <text style="stroke:none;fill:black;font-family:-apple-system,&quot;SF Pro Display&quot;,&quot;SF Pro Text&quot;,Helvetica,sans-serif;font-weight:bold;" transform="matrix(1 0 0 1 263 322)">Weight/Scale Variations</text>
  <text style="stroke:none;fill:black;font-family:-apple-system,&quot;SF Pro Display&quot;,&quot;SF Pro Text&quot;,Helvetica,sans-serif;text-anchor:middle;" transform="matrix(1 0 0 1 559.711 322)">Ultralight</text>
  <text style="stroke:none;fill:black;font-family:-apple-system,&quot;SF Pro Display&quot;,&quot;SF Pro Text&quot;,Helvetica,sans-serif;text-anchor:middle;" transform="matrix(1 0 0 1 856.422 322)">Thin</text>
  <text style="stroke:none;fill:black;font-family:-apple-system,&quot;SF Pro Display&quot;,&quot;SF Pro Text&quot;,Helvetica,sans-serif;text-anchor:middle;" transform="matrix(1 0 0 1 1153.13 322)">Light</text>
  <text style="stroke:none;fill:black;font-family:-apple-system,&quot;SF Pro Display&quot;,&quot;SF Pro Text&quot;,Helvetica,sans-serif;text-anchor:middle;" transform="matrix(1 0 0 1 1449.84 322)">Regular</text>
  <text style="stroke:none;fill:black;font-family:-apple-system,&quot;SF Pro Display&quot;,&quot;SF Pro Text&quot;,Helvetica,sans-serif;text-anchor:middle;" transform="matrix(1 0 0 1 1746.56 322)">Medium</text>
  <text style="stroke:none;fill:black;font-family:-apple-system,&quot;SF Pro Display&quot;,&quot;SF Pro Text&quot;,Helvetica,sans-serif;text-anchor:middle;" transform="matrix(1 0 0 1 2043.27 322)">Semibold</text>
  <text style="stroke:none;fill:black;font-family:-apple-system,&quot;SF Pro Display&quot;,&quot;SF Pro Text&quot;,Helvetica,sans-serif;text-anchor:middle;" transform="matrix(1 0 0 1 2339.98 322)">Bold</text>
  <text style="stroke:none;fill:black;font-family:-apple-system,&quot;SF Pro Display&quot;,&quot;SF Pro Text&quot;,Helvetica,sans-serif;text-anchor:middle;" transform="matrix(1 0 0 1 2636.69 322)">Heavy</text>
  <text style="stroke:none;fill:black;font-family:-apple-system,&quot;SF Pro Display&quot;,&quot;SF Pro Text&quot;,Helvetica,sans-serif;text-anchor:middle;" transform="matrix(1 0 0 1 2933.4 322)">Black</text>
  <line id="" style="fill:none;stroke:black;opacity:1;stroke-width:0.5;" x1="263" x2="3036" y1="1903" y2="1903"/>
  <g id="" transform="matrix(1 0 0 1 263 1933)">
   <path d="M 9.24805 0.830078 C 13.5547 0.830078 17.1387 -2.74414 17.1387 -7.05078 C 17.1387 -11.3574 13.5449 -14.9316 9.23828 -14.9316 C 4.94141 -14.9316 1.36719 -11.3574 1.36719 -7.05078 C 1.36719 -2.74414 4.95117 0.830078 9.24805 0.830078 Z M 9.24805 -0.654297 C 5.70312 -0.654297 2.87109 -3.49609 2.87109 -7.05078 C 2.87109 -10.6055 5.69336 -13.4473 9.23828 -13.4473 C 12.793 -13.4473 15.6348 -10.6055 15.6445 -7.05078 C 15.6543 -3.49609 12.8027 -0.654297 9.24805 -0.654297 Z M 9.22852 -3.42773 C 9.69727 -3.42773 9.9707 -3.74023 9.9707 -4.25781 L 9.9707 -6.31836 L 12.1973 -6.31836 C 12.6953 -6.31836 13.0371 -6.57227 13.0371 -7.04102 C 13.0371 -7.51953 12.7148 -7.7832 12.1973 -7.7832 L 9.9707 -7.7832 L 9.9707 -10.0098 C 9.9707 -10.5273 9.69727 -10.8496 9.22852 -10.8496 C 8.75977 -10.8496 8.50586 -10.5078 8.50586 -10.0098 L 8.50586 -7.7832 L 6.29883 -7.7832 C 5.78125 -7.7832 5.44922 -7.51953 5.44922 -7.04102 C 5.44922 -6.57227 5.80078 -6.31836 6.29883 -6.31836 L 8.50586 -6.31836 L 8.50586 -4.25781 C 8.50586 -3.75977 8.75977 -3.42773 9.22852 -3.42773 Z"/>
  </g>
  <g id="" transform="matrix(1 0 0 1 281.506 1933)">
   <path d="M 11.709 2.91016 C 17.1582 2.91016 21.6699 -1.60156 21.6699 -7.05078 C 21.6699 -12.4902 17.1484 -17.0117 11.6992 -17.0117 C 6.25977 -17.0117 1.74805 -12.4902 1.74805 -7.05078 C 1.74805 -1.60156 6.26953 2.91016 11.709 2.91016 Z M 11.709 1.25 C 7.09961 1.25 3.41797 -2.44141 3.41797 -7.05078 C 3.41797 -11.6504 7.08984 -15.3516 11.6992 -15.3516 C 16.3086 -15.3516 20 -11.6504 20.0098 -7.05078 C 20.0195 -2.44141 16.3184 1.25 11.709 1.25 Z M 11.6895 -2.41211 C 12.207 -2.41211 12.5195 -2.77344 12.5195 -3.33984 L 12.5195 -6.23047 L 15.5762 -6.23047 C 16.123 -6.23047 16.5039 -6.51367 16.5039 -7.03125 C 16.5039 -7.55859 16.1426 -7.86133 15.5762 -7.86133 L 12.5195 -7.86133 L 12.5195 -10.9277 C 12.5195 -11.5039 12.207 -11.8555 11.6895 -11.8555 C 11.1719 -11.8555 10.8789 -11.4844 10.8789 -10.9277 L 10.8789 -7.86133 L 7.83203 -7.86133 C 7.26562 -7.86133 6.89453 -7.55859 6.89453 -7.03125 C 6.89453 -6.51367 7.28516 -6.23047 7.83203 -6.23047 L 10.8789 -6.23047 L 10.8789 -3.33984 C 10.8789 -2.79297 11.1719 -2.41211 11.6895 -2.41211 Z"/>
  </g>
  <g id="" transform="matrix(1 0 0 1 304.924 1933)">
   <path d="M 14.9707 5.67383 C 21.9336 5.67383 27.6953 -0.078125 27.6953 -7.04102 C 27.6953 -14.0039 21.9238 -19.7559 14.9609 -19.7559 C 8.00781 -19.7559 2.25586 -14.0039 2.25586 -7.04102 C 2.25586 -0.078125 8.01758 5.67383 14.9707 5.67383 Z M 14.9707 3.85742 C 8.93555 3.85742 4.08203 -1.00586 4.08203 -7.04102 C 4.08203 -13.0762 8.92578 -17.9395 14.9609 -17.9395 C 21.0059 -17.9395 25.8594 -13.0762 25.8691 -7.04102 C 25.8789 -1.00586 21.0156 3.85742 14.9707 3.85742 Z M 14.9512 -1.06445 C 15.5176 -1.06445 15.8691 -1.45508 15.8691 -2.06055 L 15.8691 -6.13281 L 20.1074 -6.13281 C 20.6934 -6.13281 21.1133 -6.46484 21.1133 -7.02148 C 21.1133 -7.59766 20.7227 -7.93945 20.1074 -7.93945 L 15.8691 -7.93945 L 15.8691 -12.1875 C 15.8691 -12.8027 15.5176 -13.1934 14.9512 -13.1934 C 14.3848 -13.1934 14.0625 -12.7832 14.0625 -12.1875 L 14.0625 -7.93945 L 9.83398 -7.93945 C 9.21875 -7.93945 8.80859 -7.59766 8.80859 -7.02148 C 8.80859 -6.46484 9.23828 -6.13281 9.83398 -6.13281 L 14.0625 -6.13281 L 14.0625 -2.06055 C 14.0625 -1.47461 14.3848 -1.06445 14.9512 -1.06445 Z"/>
  </g>
  <text style="stroke:none;fill:black;font-family:-apple-system,&quot;SF Pro Display&quot;,&quot;SF Pro Text&quot;,Helvetica,sans-serif;font-weight:bold;" transform="matrix(1 0 0 1 263 1953)">Design Variations</text>
  <text style="stroke:none;fill:black;font-family:-apple-system,&quot;SF Pro Display&quot;,&quot;SF Pro Text&quot;,Helvetica,sans-serif;" transform="matrix(1 0 0 1 263 1971)">Symbols are supported in up to nine weights and three scales.</text>
  <text style="stroke:none;fill:black;font-family:-apple-system,&quot;SF Pro Display&quot;,&quot;SF Pro Text&quot;,Helvetica,sans-serif;" transform="matrix(1 0 0 1 263 1989)">For optimal layout with text and other symbols, vertically align</text>
  <text style="stroke:none;fill:black;font-family:-apple-system,&quot;SF Pro Display&quot;,&quot;SF Pro Text&quot;,Helvetica,sans-serif;" transform="matrix(1 0 0 1 263 2007)">symbols with the adjacent text.</text>
  <rect height="14" id="" style="fill:#00AEEF;stroke:none;opacity:0.4;" width="3" x="776" y="1919"/>
  <g id="" transform="matrix(1 0 0 1 779 1933)">
   <path d="M 10.5273 0 L 12.373 0 L 7.17773 -14.0918 L 5.43945 -14.0918 L 0.244141 0 L 2.08984 0 L 3.50586 -4.0332 L 9.11133 -4.0332 Z M 6.2793 -11.9531 L 6.33789 -11.9531 L 8.59375 -5.52734 L 4.02344 -5.52734 Z"/>
  </g>
  <rect height="14" id="" style="fill:#00AEEF;stroke:none;opacity:0.4;" width="3" x="791.617" y="1919"/>
  <text style="stroke:none;fill:black;font-family:-apple-system,&quot;SF Pro Display&quot;,&quot;SF Pro Text&quot;,Helvetica,sans-serif;font-weight:bold;" transform="matrix(1 0 0 1 776 1953)">Margins</text>
  <text style="stroke:none;fill:black;font-family:-apple-system,&quot;SF Pro Display&quot;,&quot;SF Pro Text&quot;,Helvetica,sans-serif;" transform="matrix(1 0 0 1 776 1971)">Leading and trailing margins on the left and right side of each symbol</text>
  <text style="stroke:none;fill:black;font-family:-apple-system,&quot;SF Pro Display&quot;,&quot;SF Pro Text&quot;,Helvetica,sans-serif;" transform="matrix(1 0 0 1 776 1989)">can be adjusted by modifying the width of the blue rectangles.</text>
  <text style="stroke:none;fill:black;font-family:-apple-system,&quot;SF Pro Display&quot;,&quot;SF Pro Text&quot;,Helvetica,sans-serif;" transform="matrix(1 0 0 1 776 2007)">Modifications are automatically applied proportionally to all</text>
  <text style="stroke:none;fill:black;font-family:-apple-system,&quot;SF Pro Display&quot;,&quot;SF Pro Text&quot;,Helvetica,sans-serif;" transform="matrix(1 0 0 1 776 2025)">scales and weights.</text>
  <g id="" transform="matrix(1 0 0 1 1289 1933)">
   <path d="M 2.83203 3.11523 L 4.375 4.6582 C 5.22461 5.48828 6.19141 5.41992 7.06055 4.46289 L 17.2754 -6.66016 C 17.7051 -6.36719 18.0957 -6.37695 18.5645 -6.47461 L 19.6094 -6.68945 L 20.3027 -5.99609 L 20.2539 -5.47852 C 20.1855 -4.95117 20.3516 -4.53125 20.8496 -4.0332 L 21.6602 -3.22266 C 22.168 -2.71484 22.8223 -2.68555 23.3008 -3.16406 L 26.5527 -6.41602 C 27.0312 -6.89453 27.0117 -7.54883 26.5039 -8.05664 L 25.6836 -8.87695 C 25.1855 -9.375 24.7754 -9.55078 24.2383 -9.47266 L 23.7109 -9.41406 L 23.0566 -10.0781 L 23.3398 -11.2207 C 23.4863 -11.7871 23.3398 -12.2559 22.7148 -12.8613 L 20.3027 -15.2539 C 16.7578 -18.7793 12.2266 -18.6719 9.11133 -15.5371 C 8.69141 -15.1074 8.64258 -14.5215 8.91602 -14.0918 C 9.15039 -13.7207 9.62891 -13.4961 10.2734 -13.6621 C 11.7871 -14.043 13.3008 -13.9258 14.7852 -12.9199 L 14.1602 -11.3379 C 13.9258 -10.752 13.9453 -10.2734 14.1797 -9.83398 L 3.01758 0.439453 C 2.08008 1.30859 1.97266 2.25586 2.83203 3.11523 Z M 10.6738 -15.1465 C 13.3398 -17.1387 16.6504 -16.8262 19.0527 -14.4141 L 21.6797 -11.8066 C 21.9141 -11.5723 21.9434 -11.3867 21.8848 -11.0938 L 21.5039 -9.53125 L 23.0762 -7.95898 L 24.043 -8.04688 C 24.3262 -8.07617 24.4141 -8.05664 24.6387 -7.83203 L 25.2637 -7.20703 L 22.5098 -4.46289 L 21.8848 -5.07812 C 21.6602 -5.30273 21.6406 -5.40039 21.6699 -5.68359 L 21.7578 -6.64062 L 20.1953 -8.20312 L 18.5742 -7.89062 C 18.291 -7.83203 18.1445 -7.83203 17.9102 -8.07617 L 15.7324 -10.2539 C 15.5078 -10.4883 15.4785 -10.625 15.6055 -10.9473 L 16.5527 -13.2227 C 14.9512 -14.7559 12.8418 -15.6055 10.8008 -14.9512 C 10.7129 -14.9219 10.6445 -14.9414 10.6152 -14.9805 C 10.5859 -15.0293 10.5859 -15.0781 10.6738 -15.1465 Z M 4.10156 2.41211 C 3.61328 1.91406 3.78906 1.61133 4.12109 1.30859 L 15.0781 -8.80859 L 16.3086 -7.57812 L 6.15234 3.34961 C 5.84961 3.68164 5.46875 3.7793 5.06836 3.37891 Z"/>
  </g>
  <text style="stroke:none;fill:black;font-family:-apple-system,&quot;SF Pro Display&quot;,&quot;SF Pro Text&quot;,Helvetica,sans-serif;font-weight:bold;" transform="matrix(1 0 0 1 1289 1953)">Exporting</text>
  <text style="stroke:none;fill:black;font-family:-apple-system,&quot;SF Pro Display&quot;,&quot;SF Pro Text&quot;,Helvetica,sans-serif;" transform="matrix(1 0 0 1 1289 1971)">Symbols should be outlined when exporting to ensure the</text>
  <text style="stroke:none;fill:black;font-family:-apple-system,&quot;SF Pro Display&quot;,&quot;SF Pro Text&quot;,Helvetica,sans-serif;" transform="matrix(1 0 0 1 1289 1989)">design is preserved when submitting to Xcode.</text>
  <text id="template-version" style="stroke:none;fill:black;font-family:-apple-system,&quot;SF Pro Display&quot;,&quot;SF Pro Text&quot;,Helvetica,sans-serif;text-anchor:end;" transform="matrix(1 0 0 1 3036 1933)">Template v.1.0</text>
  <text style="stroke:none;fill:black;font-family:-apple-system,&quot;SF Pro Display&quot;,&quot;SF Pro Text&quot;,Helvetica,sans-serif;text-anchor:end;" transform="matrix(1 0 0 1 3036 1951)">Generated from decrease.quotelevel</text>
  <text style="stroke:none;fill:black;font-family:-apple-system,&quot;SF Pro Display&quot;,&quot;SF Pro Text&quot;,Helvetica,sans-serif;text-anchor:end;" transform="matrix(1 0 0 1 3036 1969)">Typeset at 100 points</text>
  <text style="stroke:none;fill:black;font-family:-apple-system,&quot;SF Pro Display&quot;,&quot;SF Pro Text&quot;,Helvetica,sans-serif;" transform="matrix(1 0 0 1 263 726)">Small</text>
  <text style="stroke:none;fill:black;font-family:-apple-system,&quot;SF Pro Display&quot;,&quot;SF Pro Text&quot;,Helvetica,sans-serif;" transform="matrix(1 0 0 1 263 1156)">Medium</text>
  <text style="stroke:none;fill:black;font-family:-apple-system,&quot;SF Pro Display&quot;,&quot;SF Pro Text&quot;,Helvetica,sans-serif;" transform="matrix(1 0 0 1 263 1586)">Large</text>
 </g>
 <g id="Guides">
  <g id="H-reference" style="fill:#27AAE1;stroke:none;" transform="matrix(1 0 0 1 339 696)">
   <path d="M 54.9316 0 L 57.666 0 L 30.5664 -70.459 L 28.0762 -70.459 L 0.976562 0 L 3.66211 0 L 12.9395 -24.4629 L 45.7031 -24.4629 Z M 29.1992 -67.0898 L 29.4434 -67.0898 L 44.8242 -26.709 L 13.8184 -26.709 Z"/>
  </g>
  <line id="Baseline-S" style="fill:none;stroke:#27AAE1;opacity:1;stroke-width:0.577;" x1="263" x2="3036" y1="696" y2="696"/>
  <line id="Capline-S" style="fill:none;stroke:#27AAE1;opacity:1;stroke-width:0.577;" x1="263" x2="3036" y1="625.541" y2="625.541"/>
  <g id="H-reference" style="fill:#27AAE1;stroke:none;" transform="matrix(1 0 0 1 339 1126)">
   <path d="M 54.9316 0 L 57.666 0 L 30.5664 -70.459 L 28.0762 -70.459 L 0.976562 0 L 3.66211 0 L 12.9395 -24.4629 L 45.7031 -24.4629 Z M 29.1992 -67.0898 L 29.4434 -67.0898 L 44.8242 -26.709 L 13.8184 -26.709 Z"/>
  </g>
  <line id="Baseline-M" style="fill:none;stroke:#27AAE1;opacity:1;stroke-width:0.577;" x1="263" x2="3036" y1="1126" y2="1126"/>
  <line id="Capline-M" style="fill:none;stroke:#27AAE1;opacity:1;stroke-width:0.577;" x1="263" x2="3036" y1="1055.54" y2="1055.54"/>
  <g id="H-reference" style="fill:#27AAE1;stroke:none;" transform="matrix(1 0 0 1 339 1556)">
   <path d="M 54.9316 0 L 57.666 0 L 30.5664 -70.459 L 28.0762 -70.459 L 0.976562 0 L 3.66211 0 L 12.9395 -24.4629 L 45.7031 -24.4629 Z M 29.1992 -67.0898 L 29.4434 -67.0898 L 44.8242 -26.709 L 13.8184 -26.709 Z"/>
  </g>
  <line id="Baseline-L" style="fill:none;stroke:#27AAE1;opacity:1;stroke-width:0.577;" x1="263" x2="3036" y1="1556" y2="1556"/>
  <line id="Capline-L" style="fill:none;stroke:#27AAE1;opacity:1;stroke-width:0.577;" x1="263" x2="3036" y1="1485.54" y2="1485.54"/>
  <rect height="119.336" id="left-margin" style="fill:#00AEEF;stroke:none;opacity:0.4;" width="12.4512" x="1411.61" y="1030.79"/>
  <rect height="119.336" id="right-margin" style="fill:#00AEEF;stroke:none;opacity:0.4;" width="12.4512" x="1475.63" y="1030.79"/>
 </g>
 <g id="Symbols">
  <g id="Black-L" transform="matrix(1 0 0 1 2877.59 1556)">
   <path d="M 16.0645 -87.9883 L 16.0645 17.3828 C 16.0645 22.3145 20.3613 26.2695 25.1953 26.2695 C 30.2246 26.2695 34.3262 22.4121 34.3262 17.3828 L 34.3262 -87.9883 C 34.3262 -92.9199 30.0781 -96.8262 25.1953 -96.8262 C 20.5078 -96.8262 16.0645 -92.8711 16.0645 -87.9883 Z M 83.5449 -11.8164 C 89.1113 -8.05664 95.5566 -10.1562 95.5566 -16.9434 L 95.5566 -53.4668 C 95.5566 -60.4492 89.3555 -62.6953 83.5449 -58.6914 L 58.1543 -41.3574 C 53.7109 -38.3789 53.5156 -31.8848 58.1543 -28.7598 Z"/>
  </g>
  <g id="Heavy-L" transform="matrix(1 0 0 1 2582.71 1556)">
   <path d="M 16.0645 -88.3789 L 16.0645 17.7246 C 16.0645 22.0703 19.7754 25.4883 24.0234 25.4883 C 28.3691 25.4883 31.9336 22.1191 31.9336 17.7246 L 31.9336 -88.3789 C 31.9336 -92.7246 28.2715 -96.0938 24.0234 -96.0938 C 19.873 -96.0938 16.0645 -92.6758 16.0645 -88.3789 Z M 80.4688 -13.0371 C 85.7422 -9.47266 91.8945 -11.4258 91.8945 -17.9199 L 91.8945 -52.5391 C 91.8945 -59.1797 85.9863 -61.3281 80.4688 -57.5195 L 56.3965 -41.1133 C 52.1484 -38.2324 51.9531 -32.0801 56.3965 -29.1016 Z"/>
  </g>
  <g id="Bold-L" transform="matrix(1 0 0 1 2288.07 1556)">
   <path d="M 16.0645 -88.8672 L 16.0645 18.1641 C 16.0645 21.7773 19.0918 24.6582 22.6562 24.6582 C 26.3184 24.6582 29.2969 21.7773 29.2969 18.1641 L 29.2969 -88.8672 C 29.2969 -92.4805 26.2695 -95.3125 22.6562 -95.3125 C 19.1406 -95.3125 16.0645 -92.4316 16.0645 -88.8672 Z M 77.002 -14.3555 C 81.9824 -11.0352 87.7441 -12.8906 87.7441 -18.9941 L 87.7441 -51.5137 C 87.7441 -57.8125 82.2266 -59.7656 77.002 -56.2012 L 54.3457 -40.7715 C 50.3906 -38.0371 50.2441 -32.2754 54.3457 -29.4922 Z"/>
  </g>
  <g id="Semibold-L" transform="matrix(1 0 0 1 1992.78 1556)">
   <path d="M 16.0645 -89.1602 L 16.0645 18.4082 C 16.0645 21.582 18.6523 24.0723 21.7285 24.0723 C 24.9023 24.0723 27.4414 21.582 27.4414 18.4082 L 27.4414 -89.1602 C 27.4414 -92.2852 24.8535 -94.7754 21.7285 -94.7754 C 18.7012 -94.7754 16.0645 -92.2852 16.0645 -89.1602 Z M 74.6094 -15.332 C 79.3945 -12.1582 84.9121 -13.916 84.9121 -19.7266 L 84.9121 -50.8301 C 84.9121 -56.8359 79.5898 -58.6914 74.6094 -55.3223 L 52.9785 -40.5273 C 49.1699 -37.9395 49.0234 -32.4219 52.9785 -29.7852 Z"/>
  </g>
  <g id="Medium-L" transform="matrix(1 0 0 1 1697.17 1556)">
   <path d="M 16.0645 -89.4043 L 16.0645 18.6035 C 16.0645 21.3867 18.3105 23.584 21.0449 23.584 C 23.8281 23.584 26.0254 21.4355 26.0254 18.6035 L 26.0254 -89.4043 C 26.0254 -92.1875 23.8281 -94.3359 21.0449 -94.3359 C 18.3105 -94.3359 16.0645 -92.1387 16.0645 -89.4043 Z M 72.8516 -16.0156 C 77.3926 -12.9883 82.7148 -14.6484 82.7148 -20.2637 L 82.7148 -50.293 C 82.7148 -56.1035 77.6367 -57.9102 72.8516 -54.6387 L 51.9043 -40.3809 C 48.2422 -37.8418 48.0957 -32.5195 51.9043 -29.9805 Z"/>
  </g>
  <g id="Regular-L" transform="matrix(1 0 0 1 1401.87 1556)">
   <path d="M 16.0645 -89.6973 L 16.0645 18.8965 C 16.0645 21.1914 17.8223 23.0469 20.166 23.0469 C 22.4609 23.0469 24.2188 21.1914 24.2188 18.8965 L 24.2188 -89.6973 C 24.2188 -91.9922 22.4609 -93.7988 20.166 -93.7988 C 17.8223 -93.7988 16.0645 -91.9922 16.0645 -89.6973 Z M 70.459 -16.9434 C 74.8535 -14.0625 79.8828 -15.6738 79.8828 -20.9961 L 79.8828 -49.5605 C 79.8828 -55.127 75.0488 -56.8359 70.459 -53.7109 L 50.5371 -40.1367 C 47.0703 -37.7441 46.9238 -32.666 50.5371 -30.2734 Z"/>
  </g>
  <g id="Light-L" transform="matrix(1 0 0 1 1106.99 1556)">
   <path d="M 16.0645 -90.1367 L 16.0645 19.4336 C 16.0645 21.2402 17.4316 22.6562 19.2383 22.6562 C 20.9961 22.6562 22.3633 21.2402 22.3633 19.4336 L 22.3633 -90.1367 C 22.3633 -91.9434 20.9961 -93.2617 19.2383 -93.2617 C 17.4316 -93.2617 16.0645 -91.9434 16.0645 -90.1367 Z M 67.3828 -18.0664 C 71.4844 -15.332 76.2207 -16.8457 76.2207 -21.875 L 76.2207 -48.6328 C 76.2207 -53.8574 71.6797 -55.4199 67.3828 -52.4902 L 48.7305 -39.7949 C 45.459 -37.5488 45.3613 -32.8125 48.7305 -30.5664 Z"/>
  </g>
  <g id="Thin-L" transform="matrix(1 0 0 1 812.721 1556)">
   <path d="M 16.0645 -90.6738 L 16.0645 20.166 C 16.0645 21.3379 16.8457 22.1191 18.0176 22.1191 C 19.1406 22.1191 19.9219 21.3379 19.9219 20.166 L 19.9219 -90.6738 C 19.9219 -91.8457 19.1406 -92.627 18.0176 -92.627 C 16.8457 -92.627 16.0645 -91.8457 16.0645 -90.6738 Z M 63.3301 -19.5312 C 67.041 -17.041 71.3379 -18.457 71.3379 -22.998 L 71.3379 -47.3633 C 71.3379 -52.1484 67.1875 -53.5645 63.3301 -50.8789 L 46.2891 -39.3555 C 43.3105 -37.2559 43.2617 -32.959 46.2891 -30.9082 Z"/>
  </g>
  <g id="Ultralight-L" transform="matrix(1 0 0 1 517.279 1556)">
   <path d="M 16.0645 -90.9668 L 16.0645 20.5566 C 16.0645 21.3867 16.5527 21.875 17.3828 21.875 C 18.1641 21.875 18.7012 21.3867 18.7012 20.5566 L 18.7012 -90.9668 C 18.7012 -91.7969 18.1641 -92.2852 17.3828 -92.2852 C 16.5527 -92.2852 16.0645 -91.7969 16.0645 -90.9668 Z M 61.2305 -20.2637 C 64.7461 -17.9199 68.7988 -19.2383 68.7988 -23.584 L 68.7988 -46.6797 C 68.7988 -51.2695 64.8926 -52.5879 61.2305 -50.0488 L 45.0684 -39.1113 C 42.2363 -37.1094 42.1875 -33.0566 45.0684 -31.1035 Z"/>
  </g>
  <g id="Black-M" transform="matrix(1 0 0 1 2888.62 1126)">
   <path d="M 12.4512 -75.8301 L 12.4512 5.37109 C 12.4512 9.76562 16.3574 13.2324 20.6543 13.2324 C 25.0977 13.2324 28.8574 9.81445 28.8574 5.37109 L 28.8574 -75.8301 C 28.8574 -80.2246 25 -83.6914 20.6543 -83.6914 C 16.5039 -83.6914 12.4512 -80.1758 12.4512 -75.8301 Z M 67.2363 -16.0645 C 71.8262 -12.9883 77.0996 -14.6484 77.0996 -20.2148 L 77.0996 -50.0977 C 77.0996 -55.7617 72.0215 -57.6172 67.2363 -54.3457 L 46.5332 -40.1855 C 42.9199 -37.7441 42.7246 -32.4219 46.5332 -29.8828 Z"/>
  </g>
  <g id="Heavy-M" transform="matrix(1 0 0 1 2593.45 1126)">
   <path d="M 12.4512 -76.123 L 12.4512 5.61523 C 12.4512 9.47266 15.8203 12.5 19.5801 12.5 C 23.4863 12.5 26.709 9.52148 26.709 5.61523 L 26.709 -76.123 C 26.709 -79.9805 23.3887 -83.0078 19.5801 -83.0078 C 15.918 -83.0078 12.4512 -79.9316 12.4512 -76.123 Z M 64.6973 -17.0898 C 68.9941 -14.1602 74.0234 -15.7715 74.0234 -21.0449 L 74.0234 -49.3164 C 74.0234 -54.7363 69.1895 -56.4453 64.6973 -53.3691 L 45.0684 -39.9902 C 41.6016 -37.6465 41.4551 -32.6172 45.0684 -30.1758 Z"/>
  </g>
  <g id="Bold-M" transform="matrix(1 0 0 1 2298.47 1126)">
   <path d="M 12.4512 -76.5137 L 12.4512 5.85938 C 12.4512 9.13086 15.2344 11.6699 18.4082 11.6699 C 21.6797 11.6699 24.3164 9.13086 24.3164 5.85938 L 24.3164 -76.5137 C 24.3164 -79.7363 21.582 -82.2754 18.4082 -82.2754 C 15.2832 -82.2754 12.4512 -79.6875 12.4512 -76.5137 Z M 61.8164 -18.2129 C 65.8691 -15.5273 70.5566 -17.041 70.5566 -21.9727 L 70.5566 -48.4863 C 70.5566 -53.5645 66.0645 -55.1758 61.8164 -52.2949 L 43.3594 -39.6973 C 40.1367 -37.5488 39.9902 -32.8125 43.3594 -30.5664 Z"/>
  </g>
  <g id="Semibold-M" transform="matrix(1 0 0 1 2002.96 1126)">
   <path d="M 12.4512 -76.7578 L 12.4512 6.05469 C 12.4512 8.88672 14.7949 11.1328 17.5781 11.1328 C 20.4102 11.1328 22.7051 8.88672 22.7051 6.05469 L 22.7051 -76.7578 C 22.7051 -79.5898 20.3613 -81.7871 17.5781 -81.7871 C 14.8438 -81.7871 12.4512 -79.541 12.4512 -76.7578 Z M 59.8145 -19.043 C 63.7207 -16.4551 68.1641 -17.8711 68.1641 -22.6074 L 68.1641 -47.9004 C 68.1641 -52.7832 63.8672 -54.2969 59.8145 -51.5625 L 42.2363 -39.5508 C 39.1602 -37.4512 39.0137 -32.959 42.2363 -30.8105 Z"/>
  </g>
  <g id="Medium-M" transform="matrix(1 0 0 1 1707.15 1126)">
   <path d="M 12.4512 -76.9531 L 12.4512 6.20117 C 12.4512 8.69141 14.502 10.6934 16.9434 10.6934 C 19.4336 10.6934 21.4355 8.69141 21.4355 6.20117 L 21.4355 -76.9531 C 21.4355 -79.4434 19.4336 -81.3965 16.9434 -81.3965 C 14.502 -81.3965 12.4512 -79.4434 12.4512 -76.9531 Z M 58.3496 -19.6289 C 62.0605 -17.1387 66.3574 -18.5059 66.3574 -23.0957 L 66.3574 -47.4609 C 66.3574 -52.1973 62.207 -53.6621 58.3496 -50.9766 L 41.3574 -39.4043 C 38.3789 -37.3535 38.2324 -33.0566 41.3574 -31.0059 Z"/>
  </g>
  <g id="Regular-M" transform="matrix(1 0 0 1 1411.61 1126)">
   <path d="M 12.4512 -77.1973 L 12.4512 6.39648 C 12.4512 8.44727 14.0625 10.1562 16.1133 10.1562 C 18.2129 10.1562 19.8242 8.44727 19.8242 6.39648 L 19.8242 -77.1973 C 19.8242 -79.248 18.2129 -80.9082 16.1133 -80.9082 C 14.0625 -80.9082 12.4512 -79.248 12.4512 -77.1973 Z M 56.3965 -20.4102 C 59.9121 -18.0664 64.0137 -19.3848 64.0137 -23.7305 L 64.0137 -46.875 C 64.0137 -51.3672 60.1074 -52.7832 56.3965 -50.2441 L 40.2344 -39.2578 C 37.4023 -37.3047 37.2559 -33.1543 40.2344 -31.2012 Z"/>
  </g>
  <g id="Light-M" transform="matrix(1 0 0 1 1116.56 1126)">
   <path d="M 12.4512 -77.5879 L 12.4512 6.88477 C 12.4512 8.49609 13.6719 9.81445 15.332 9.81445 C 16.9434 9.81445 18.1641 8.49609 18.1641 6.88477 L 18.1641 -77.5879 C 18.1641 -79.1992 16.9434 -80.4199 15.332 -80.4199 C 13.6719 -80.4199 12.4512 -79.1992 12.4512 -77.5879 Z M 53.6133 -21.4355 C 56.8848 -19.2383 60.6934 -20.459 60.6934 -24.5117 L 60.6934 -46.0449 C 60.6934 -50.2441 57.0312 -51.5137 53.6133 -49.1699 L 38.5742 -38.916 C 35.9375 -37.1094 35.8398 -33.3008 38.5742 -31.4941 Z"/>
  </g>
  <g id="Thin-M" transform="matrix(1 0 0 1 822.023 1126)">
   <path d="M 12.4512 -78.0762 L 12.4512 7.56836 C 12.4512 8.59375 13.1836 9.32617 14.209 9.32617 C 15.2344 9.32617 15.9668 8.59375 15.9668 7.56836 L 15.9668 -78.0762 C 15.9668 -79.1016 15.2344 -79.834 14.209 -79.834 C 13.1836 -79.834 12.4512 -79.1016 12.4512 -78.0762 Z M 49.9512 -22.7539 C 52.9297 -20.752 56.3477 -21.875 56.3477 -25.4883 L 56.3477 -44.873 C 56.3477 -48.6816 53.0273 -49.8047 49.9512 -47.7051 L 36.4258 -38.5254 C 34.0332 -36.8652 33.9844 -33.4473 36.4258 -31.7871 Z"/>
  </g>
  <g id="Ultralight-M" transform="matrix(1 0 0 1 526.435 1126)">
   <path d="M 12.4512 -78.3691 L 12.4512 7.91016 C 12.4512 8.64258 12.9395 9.08203 13.6719 9.08203 C 14.3555 9.08203 14.8438 8.64258 14.8438 7.91016 L 14.8438 -78.3691 C 14.8438 -79.0527 14.3555 -79.541 13.6719 -79.541 C 12.9395 -79.541 12.4512 -79.0527 12.4512 -78.3691 Z M 48.0957 -23.3887 C 50.8789 -21.5332 54.1016 -22.6074 54.1016 -26.0254 L 54.1016 -44.3359 C 54.1016 -47.9004 50.9766 -48.9746 48.0957 -46.9727 L 35.3027 -38.2812 C 33.0566 -36.7676 33.0078 -33.5449 35.3027 -31.9824 Z"/>
  </g>
  <g id="Black-S" transform="matrix(1 0 0 1 2898.41 696)">
   <path d="M 9.76562 -67.041 L 9.76562 -3.41797 C 9.76562 0 12.793 2.68555 16.1133 2.68555 C 19.5801 2.68555 22.4609 0.0488281 22.4609 -3.41797 L 22.4609 -67.041 C 22.4609 -70.459 19.4824 -73.1445 16.1133 -73.1445 C 12.8906 -73.1445 9.76562 -70.4102 9.76562 -67.041 Z M 52.5391 -20.2637 C 56.1035 -17.8711 60.2051 -19.1895 60.2051 -23.5352 L 60.2051 -46.8262 C 60.2051 -51.2695 56.25 -52.6855 52.5391 -50.1465 L 36.377 -39.1113 C 33.5449 -37.207 33.3984 -33.0566 36.377 -31.0547 Z"/>
  </g>
  <g id="Heavy-S" transform="matrix(1 0 0 1 2602.7 696)">
   <path d="M 9.76562 -67.2363 L 9.76562 -3.27148 C 9.76562 -0.244141 12.4023 2.14844 15.3809 2.14844 C 18.457 2.14844 20.9961 -0.195312 20.9961 -3.27148 L 20.9961 -67.2363 C 20.9961 -70.3125 18.4082 -72.7051 15.3809 -72.7051 C 12.5 -72.7051 9.76562 -70.2637 9.76562 -67.2363 Z M 50.8789 -20.9473 C 54.2969 -18.6523 58.2031 -19.9219 58.2031 -24.0723 L 58.2031 -46.3379 C 58.2031 -50.5859 54.4434 -51.9531 50.8789 -49.5117 L 35.4004 -38.9648 C 32.7148 -37.1582 32.5684 -33.1543 35.4004 -31.25 Z"/>
  </g>
  <g id="Bold-S" transform="matrix(1 0 0 1 2307.09 696)">
   <path d="M 9.76562 -67.4805 L 9.76562 -3.125 C 9.76562 -0.488281 12.0117 1.5625 14.5996 1.5625 C 17.2363 1.5625 19.3848 -0.488281 19.3848 -3.125 L 19.3848 -67.4805 C 19.3848 -70.1172 17.1875 -72.168 14.5996 -72.168 C 12.0605 -72.168 9.76562 -70.0684 9.76562 -67.4805 Z M 49.0234 -21.7285 C 52.2461 -19.5312 56.0059 -20.752 56.0059 -24.707 L 56.0059 -45.8008 C 56.0059 -49.8535 52.3926 -51.123 49.0234 -48.8281 L 34.3262 -38.8184 C 31.7871 -37.0605 31.6406 -33.3008 34.3262 -31.4941 Z"/>
  </g>
  <g id="Semibold-S" transform="matrix(1 0 0 1 2011.16 696)">
   <path d="M 9.76562 -67.627 L 9.76562 -3.02734 C 9.76562 -0.683594 11.7188 1.17188 14.0137 1.17188 C 16.3574 1.17188 18.3105 -0.683594 18.3105 -3.02734 L 18.3105 -67.627 C 18.3105 -69.9707 16.3574 -71.8262 14.0137 -71.8262 C 11.7676 -71.8262 9.76562 -69.9707 9.76562 -67.627 Z M 47.7539 -22.2168 C 50.8789 -20.166 54.4434 -21.2891 54.4434 -25.0977 L 54.4434 -45.459 C 54.4434 -49.3652 50.9766 -50.5859 47.7539 -48.3887 L 33.5938 -38.7207 C 31.1523 -37.0117 31.0059 -33.3984 33.5938 -31.6895 Z"/>
  </g>
  <g id="Medium-S" transform="matrix(1 0 0 1 1715.01 696)">
   <path d="M 9.76562 -67.7734 L 9.76562 -2.97852 C 9.76562 -0.830078 11.5234 0.878906 13.623 0.878906 C 15.7227 0.878906 17.4316 -0.830078 17.4316 -2.97852 L 17.4316 -67.7734 C 17.4316 -69.873 15.7227 -71.582 13.623 -71.582 C 11.5234 -71.582 9.76562 -69.873 9.76562 -67.7734 Z M 46.7773 -22.6562 C 49.8047 -20.6055 53.3203 -21.7285 53.3203 -25.4395 L 53.3203 -45.166 C 53.3203 -48.9746 49.9512 -50.1465 46.7773 -47.998 L 33.0566 -38.623 C 30.6152 -36.9629 30.5176 -33.4961 33.0566 -31.7871 Z"/>
  </g>
  <g id="Regular-S" transform="matrix(1 0 0 1 1419.08 696)">
   <path d="M 9.76562 -67.9199 L 9.76562 -2.83203 C 9.76562 -1.02539 11.2305 0.488281 13.0371 0.488281 C 14.8926 0.488281 16.3574 -1.02539 16.3574 -2.83203 L 16.3574 -67.9199 C 16.3574 -69.7754 14.8926 -71.2402 13.0371 -71.2402 C 11.2305 -71.2402 9.76562 -69.7754 9.76562 -67.9199 Z M 45.5078 -23.1445 C 48.3887 -21.2402 51.7578 -22.2656 51.7578 -25.8301 L 51.7578 -44.7754 C 51.7578 -48.4375 48.5352 -49.6094 45.5078 -47.5586 L 32.3242 -38.5254 C 29.9805 -36.9141 29.8828 -33.5449 32.3242 -31.9824 Z"/>
  </g>
  <g id="Light-S" transform="matrix(1 0 0 1 1123.84 696)">
   <path d="M 9.76562 -68.2617 L 9.76562 -2.39258 C 9.76562 -0.976562 10.8887 0.195312 12.3047 0.195312 C 13.7695 0.195312 14.8926 -0.976562 14.8926 -2.39258 L 14.8926 -68.2617 C 14.8926 -69.7266 13.7695 -70.8008 12.3047 -70.8008 C 10.8887 -70.8008 9.76562 -69.7266 9.76562 -68.2617 Z M 43.0664 -24.0234 C 45.752 -22.2656 48.8281 -23.2422 48.8281 -26.5137 L 48.8281 -44.043 C 48.8281 -47.4121 45.8496 -48.4863 43.0664 -46.582 L 30.8594 -38.2324 C 28.7109 -36.7676 28.6621 -33.6426 30.8594 -32.1777 Z"/>
  </g>
  <g id="Thin-S" transform="matrix(1 0 0 1 829.054 696)">
   <path d="M 9.76562 -68.7012 L 9.76562 -1.85547 C 9.76562 -0.927734 10.4492 -0.244141 11.377 -0.244141 C 12.2559 -0.244141 12.9395 -0.927734 12.9395 -1.85547 L 12.9395 -68.7012 C 12.9395 -69.6289 12.2559 -70.3125 11.377 -70.3125 C 10.4492 -70.3125 9.76562 -69.6289 9.76562 -68.7012 Z M 39.8438 -25.1953 C 42.2363 -23.584 44.9707 -24.5117 44.9707 -27.3926 L 44.9707 -43.0176 C 44.9707 -46.0938 42.334 -46.9727 39.8438 -45.3125 L 28.9551 -37.8906 C 27.0508 -36.5723 27.002 -33.7891 28.9551 -32.4707 Z"/>
  </g>
  <g id="Ultralight-S" transform="matrix(1 0 0 1 533.344 696)">
   <path d="M 9.76562 -68.9453 L 9.76562 -1.51367 C 9.76562 -0.878906 10.2051 -0.439453 10.8398 -0.439453 C 11.5234 -0.439453 11.9629 -0.878906 11.9629 -1.51367 L 11.9629 -68.9453 C 11.9629 -69.5801 11.5234 -70.0195 10.8398 -70.0195 C 10.2051 -70.0195 9.76562 -69.5801 9.76562 -68.9453 Z M 38.1836 -25.7812 C 40.4297 -24.3164 42.9688 -25.1465 42.9688 -27.8809 L 42.9688 -42.4805 C 42.9688 -45.3613 40.5273 -46.2402 38.1836 -44.6289 L 27.9785 -37.6953 C 26.1719 -36.4746 26.123 -33.8867 27.9785 -32.6172 Z"/>
  </g>
 </g>
</svg>
