<?xml version="1.0" encoding="UTF-8"?>
<!--Generator: Apple Native CoreSVG 123-->
<!DOCTYPE svg
PUBLIC "-//W3C//DTD SVG 1.1//EN"
       "http://www.w3.org/Graphics/SVG/1.1/DTD/svg11.dtd">
<svg version="1.1" xmlns="http://www.w3.org/2000/svg" xmlns:xlink="http://www.w3.org/1999/xlink" width="3300" height="2200">
 <!--glyph: "uni10065A.medium", point size: 100.000000, font version: "Version 15.0d7e11", template writer version: "5"-->
 <g id="Notes">
  <rect height="2200" id="artboard" style="fill:white;opacity:1" width="3300" x="0" y="0"/>
  <line id="" style="fill:none;stroke:black;opacity:1;stroke-width:0.5;" x1="263" x2="3036" y1="292" y2="292"/>
  <text style="stroke:none;fill:black;font-family:-apple-system,&quot;SF Pro Display&quot;,&quot;SF Pro Text&quot;,Helvetica,sans-serif;font-weight:bold;" transform="matrix(1 0 0 1 263 322)">Weight/Scale Variations</text>
  <text style="stroke:none;fill:black;font-family:-apple-system,&quot;SF Pro Display&quot;,&quot;SF Pro Text&quot;,Helvetica,sans-serif;text-anchor:middle;" transform="matrix(1 0 0 1 559.711 322)">Ultralight</text>
  <text style="stroke:none;fill:black;font-family:-apple-system,&quot;SF Pro Display&quot;,&quot;SF Pro Text&quot;,Helvetica,sans-serif;text-anchor:middle;" transform="matrix(1 0 0 1 856.422 322)">Thin</text>
  <text style="stroke:none;fill:black;font-family:-apple-system,&quot;SF Pro Display&quot;,&quot;SF Pro Text&quot;,Helvetica,sans-serif;text-anchor:middle;" transform="matrix(1 0 0 1 1153.13 322)">Light</text>
  <text style="stroke:none;fill:black;font-family:-apple-system,&quot;SF Pro Display&quot;,&quot;SF Pro Text&quot;,Helvetica,sans-serif;text-anchor:middle;" transform="matrix(1 0 0 1 1449.84 322)">Regular</text>
  <text style="stroke:none;fill:black;font-family:-apple-system,&quot;SF Pro Display&quot;,&quot;SF Pro Text&quot;,Helvetica,sans-serif;text-anchor:middle;" transform="matrix(1 0 0 1 1746.56 322)">Medium</text>
  <text style="stroke:none;fill:black;font-family:-apple-system,&quot;SF Pro Display&quot;,&quot;SF Pro Text&quot;,Helvetica,sans-serif;text-anchor:middle;" transform="matrix(1 0 0 1 2043.27 322)">Semibold</text>
  <text style="stroke:none;fill:black;font-family:-apple-system,&quot;SF Pro Display&quot;,&quot;SF Pro Text&quot;,Helvetica,sans-serif;text-anchor:middle;" transform="matrix(1 0 0 1 2339.98 322)">Bold</text>
  <text style="stroke:none;fill:black;font-family:-apple-system,&quot;SF Pro Display&quot;,&quot;SF Pro Text&quot;,Helvetica,sans-serif;text-anchor:middle;" transform="matrix(1 0 0 1 2636.69 322)">Heavy</text>
  <text style="stroke:none;fill:black;font-family:-apple-system,&quot;SF Pro Display&quot;,&quot;SF Pro Text&quot;,Helvetica,sans-serif;text-anchor:middle;" transform="matrix(1 0 0 1 2933.4 322)">Black</text>
  <line id="" style="fill:none;stroke:black;opacity:1;stroke-width:0.5;" x1="263" x2="3036" y1="1903" y2="1903"/>
  <g id="" transform="matrix(1 0 0 1 263 1933)">
   <path d="M 9.24805 0.830078 C 13.5547 0.830078 17.1387 -2.74414 17.1387 -7.05078 C 17.1387 -11.3574 13.5449 -14.9316 9.23828 -14.9316 C 4.94141 -14.9316 1.36719 -11.3574 1.36719 -7.05078 C 1.36719 -2.74414 4.95117 0.830078 9.24805 0.830078 Z M 9.24805 -0.654297 C 5.70312 -0.654297 2.87109 -3.49609 2.87109 -7.05078 C 2.87109 -10.6055 5.69336 -13.4473 9.23828 -13.4473 C 12.793 -13.4473 15.6348 -10.6055 15.6445 -7.05078 C 15.6543 -3.49609 12.8027 -0.654297 9.24805 -0.654297 Z M 9.22852 -3.42773 C 9.69727 -3.42773 9.9707 -3.74023 9.9707 -4.25781 L 9.9707 -6.31836 L 12.1973 -6.31836 C 12.6953 -6.31836 13.0371 -6.57227 13.0371 -7.04102 C 13.0371 -7.51953 12.7148 -7.7832 12.1973 -7.7832 L 9.9707 -7.7832 L 9.9707 -10.0098 C 9.9707 -10.5273 9.69727 -10.8496 9.22852 -10.8496 C 8.75977 -10.8496 8.50586 -10.5078 8.50586 -10.0098 L 8.50586 -7.7832 L 6.29883 -7.7832 C 5.78125 -7.7832 5.44922 -7.51953 5.44922 -7.04102 C 5.44922 -6.57227 5.80078 -6.31836 6.29883 -6.31836 L 8.50586 -6.31836 L 8.50586 -4.25781 C 8.50586 -3.75977 8.75977 -3.42773 9.22852 -3.42773 Z"/>
  </g>
  <g id="" transform="matrix(1 0 0 1 281.506 1933)">
   <path d="M 11.709 2.91016 C 17.1582 2.91016 21.6699 -1.60156 21.6699 -7.05078 C 21.6699 -12.4902 17.1484 -17.0117 11.6992 -17.0117 C 6.25977 -17.0117 1.74805 -12.4902 1.74805 -7.05078 C 1.74805 -1.60156 6.26953 2.91016 11.709 2.91016 Z M 11.709 1.25 C 7.09961 1.25 3.41797 -2.44141 3.41797 -7.05078 C 3.41797 -11.6504 7.08984 -15.3516 11.6992 -15.3516 C 16.3086 -15.3516 20 -11.6504 20.0098 -7.05078 C 20.0195 -2.44141 16.3184 1.25 11.709 1.25 Z M 11.6895 -2.41211 C 12.207 -2.41211 12.5195 -2.77344 12.5195 -3.33984 L 12.5195 -6.23047 L 15.5762 -6.23047 C 16.123 -6.23047 16.5039 -6.51367 16.5039 -7.03125 C 16.5039 -7.55859 16.1426 -7.86133 15.5762 -7.86133 L 12.5195 -7.86133 L 12.5195 -10.9277 C 12.5195 -11.5039 12.207 -11.8555 11.6895 -11.8555 C 11.1719 -11.8555 10.8789 -11.4844 10.8789 -10.9277 L 10.8789 -7.86133 L 7.83203 -7.86133 C 7.26562 -7.86133 6.89453 -7.55859 6.89453 -7.03125 C 6.89453 -6.51367 7.28516 -6.23047 7.83203 -6.23047 L 10.8789 -6.23047 L 10.8789 -3.33984 C 10.8789 -2.79297 11.1719 -2.41211 11.6895 -2.41211 Z"/>
  </g>
  <g id="" transform="matrix(1 0 0 1 304.924 1933)">
   <path d="M 14.9707 5.67383 C 21.9336 5.67383 27.6953 -0.078125 27.6953 -7.04102 C 27.6953 -14.0039 21.9238 -19.7559 14.9609 -19.7559 C 8.00781 -19.7559 2.25586 -14.0039 2.25586 -7.04102 C 2.25586 -0.078125 8.01758 5.67383 14.9707 5.67383 Z M 14.9707 3.85742 C 8.93555 3.85742 4.08203 -1.00586 4.08203 -7.04102 C 4.08203 -13.0762 8.92578 -17.9395 14.9609 -17.9395 C 21.0059 -17.9395 25.8594 -13.0762 25.8691 -7.04102 C 25.8789 -1.00586 21.0156 3.85742 14.9707 3.85742 Z M 14.9512 -1.06445 C 15.5176 -1.06445 15.8691 -1.45508 15.8691 -2.06055 L 15.8691 -6.13281 L 20.1074 -6.13281 C 20.6934 -6.13281 21.1133 -6.46484 21.1133 -7.02148 C 21.1133 -7.59766 20.7227 -7.93945 20.1074 -7.93945 L 15.8691 -7.93945 L 15.8691 -12.1875 C 15.8691 -12.8027 15.5176 -13.1934 14.9512 -13.1934 C 14.3848 -13.1934 14.0625 -12.7832 14.0625 -12.1875 L 14.0625 -7.93945 L 9.83398 -7.93945 C 9.21875 -7.93945 8.80859 -7.59766 8.80859 -7.02148 C 8.80859 -6.46484 9.23828 -6.13281 9.83398 -6.13281 L 14.0625 -6.13281 L 14.0625 -2.06055 C 14.0625 -1.47461 14.3848 -1.06445 14.9512 -1.06445 Z"/>
  </g>
  <text style="stroke:none;fill:black;font-family:-apple-system,&quot;SF Pro Display&quot;,&quot;SF Pro Text&quot;,Helvetica,sans-serif;font-weight:bold;" transform="matrix(1 0 0 1 263 1953)">Design Variations</text>
  <text style="stroke:none;fill:black;font-family:-apple-system,&quot;SF Pro Display&quot;,&quot;SF Pro Text&quot;,Helvetica,sans-serif;" transform="matrix(1 0 0 1 263 1971)">Symbols are supported in up to nine weights and three scales.</text>
  <text style="stroke:none;fill:black;font-family:-apple-system,&quot;SF Pro Display&quot;,&quot;SF Pro Text&quot;,Helvetica,sans-serif;" transform="matrix(1 0 0 1 263 1989)">For optimal layout with text and other symbols, vertically align</text>
  <text style="stroke:none;fill:black;font-family:-apple-system,&quot;SF Pro Display&quot;,&quot;SF Pro Text&quot;,Helvetica,sans-serif;" transform="matrix(1 0 0 1 263 2007)">symbols with the adjacent text.</text>
  <rect height="14" id="" style="fill:#00AEEF;stroke:none;opacity:0.4;" width="3" x="776" y="1919"/>
  <g id="" transform="matrix(1 0 0 1 779 1933)">
   <path d="M 10.5273 0 L 12.373 0 L 7.17773 -14.0918 L 5.43945 -14.0918 L 0.244141 0 L 2.08984 0 L 3.50586 -4.0332 L 9.11133 -4.0332 Z M 6.2793 -11.9531 L 6.33789 -11.9531 L 8.59375 -5.52734 L 4.02344 -5.52734 Z"/>
  </g>
  <rect height="14" id="" style="fill:#00AEEF;stroke:none;opacity:0.4;" width="3" x="791.617" y="1919"/>
  <text style="stroke:none;fill:black;font-family:-apple-system,&quot;SF Pro Display&quot;,&quot;SF Pro Text&quot;,Helvetica,sans-serif;font-weight:bold;" transform="matrix(1 0 0 1 776 1953)">Margins</text>
  <text style="stroke:none;fill:black;font-family:-apple-system,&quot;SF Pro Display&quot;,&quot;SF Pro Text&quot;,Helvetica,sans-serif;" transform="matrix(1 0 0 1 776 1971)">Leading and trailing margins on the left and right side of each symbol</text>
  <text style="stroke:none;fill:black;font-family:-apple-system,&quot;SF Pro Display&quot;,&quot;SF Pro Text&quot;,Helvetica,sans-serif;" transform="matrix(1 0 0 1 776 1989)">can be adjusted by modifying the width of the blue rectangles.</text>
  <text style="stroke:none;fill:black;font-family:-apple-system,&quot;SF Pro Display&quot;,&quot;SF Pro Text&quot;,Helvetica,sans-serif;" transform="matrix(1 0 0 1 776 2007)">Modifications are automatically applied proportionally to all</text>
  <text style="stroke:none;fill:black;font-family:-apple-system,&quot;SF Pro Display&quot;,&quot;SF Pro Text&quot;,Helvetica,sans-serif;" transform="matrix(1 0 0 1 776 2025)">scales and weights.</text>
  <g id="" transform="matrix(1 0 0 1 1289 1933)">
   <path d="M 2.83203 3.11523 L 4.375 4.6582 C 5.22461 5.48828 6.19141 5.41992 7.06055 4.46289 L 17.2754 -6.66016 C 17.7051 -6.36719 18.0957 -6.37695 18.5645 -6.47461 L 19.6094 -6.68945 L 20.3027 -5.99609 L 20.2539 -5.47852 C 20.1855 -4.95117 20.3516 -4.53125 20.8496 -4.0332 L 21.6602 -3.22266 C 22.168 -2.71484 22.8223 -2.68555 23.3008 -3.16406 L 26.5527 -6.41602 C 27.0312 -6.89453 27.0117 -7.54883 26.5039 -8.05664 L 25.6836 -8.87695 C 25.1855 -9.375 24.7754 -9.55078 24.2383 -9.47266 L 23.7109 -9.41406 L 23.0566 -10.0781 L 23.3398 -11.2207 C 23.4863 -11.7871 23.3398 -12.2559 22.7148 -12.8613 L 20.3027 -15.2539 C 16.7578 -18.7793 12.2266 -18.6719 9.11133 -15.5371 C 8.69141 -15.1074 8.64258 -14.5215 8.91602 -14.0918 C 9.15039 -13.7207 9.62891 -13.4961 10.2734 -13.6621 C 11.7871 -14.043 13.3008 -13.9258 14.7852 -12.9199 L 14.1602 -11.3379 C 13.9258 -10.752 13.9453 -10.2734 14.1797 -9.83398 L 3.01758 0.439453 C 2.08008 1.30859 1.97266 2.25586 2.83203 3.11523 Z M 10.6738 -15.1465 C 13.3398 -17.1387 16.6504 -16.8262 19.0527 -14.4141 L 21.6797 -11.8066 C 21.9141 -11.5723 21.9434 -11.3867 21.8848 -11.0938 L 21.5039 -9.53125 L 23.0762 -7.95898 L 24.043 -8.04688 C 24.3262 -8.07617 24.4141 -8.05664 24.6387 -7.83203 L 25.2637 -7.20703 L 22.5098 -4.46289 L 21.8848 -5.07812 C 21.6602 -5.30273 21.6406 -5.40039 21.6699 -5.68359 L 21.7578 -6.64062 L 20.1953 -8.20312 L 18.5742 -7.89062 C 18.291 -7.83203 18.1445 -7.83203 17.9102 -8.07617 L 15.7324 -10.2539 C 15.5078 -10.4883 15.4785 -10.625 15.6055 -10.9473 L 16.5527 -13.2227 C 14.9512 -14.7559 12.8418 -15.6055 10.8008 -14.9512 C 10.7129 -14.9219 10.6445 -14.9414 10.6152 -14.9805 C 10.5859 -15.0293 10.5859 -15.0781 10.6738 -15.1465 Z M 4.10156 2.41211 C 3.61328 1.91406 3.78906 1.61133 4.12109 1.30859 L 15.0781 -8.80859 L 16.3086 -7.57812 L 6.15234 3.34961 C 5.84961 3.68164 5.46875 3.7793 5.06836 3.37891 Z"/>
  </g>
  <text style="stroke:none;fill:black;font-family:-apple-system,&quot;SF Pro Display&quot;,&quot;SF Pro Text&quot;,Helvetica,sans-serif;font-weight:bold;" transform="matrix(1 0 0 1 1289 1953)">Exporting</text>
  <text style="stroke:none;fill:black;font-family:-apple-system,&quot;SF Pro Display&quot;,&quot;SF Pro Text&quot;,Helvetica,sans-serif;" transform="matrix(1 0 0 1 1289 1971)">Symbols should be outlined when exporting to ensure the</text>
  <text style="stroke:none;fill:black;font-family:-apple-system,&quot;SF Pro Display&quot;,&quot;SF Pro Text&quot;,Helvetica,sans-serif;" transform="matrix(1 0 0 1 1289 1989)">design is preserved when submitting to Xcode.</text>
  <text id="template-version" style="stroke:none;fill:black;font-family:-apple-system,&quot;SF Pro Display&quot;,&quot;SF Pro Text&quot;,Helvetica,sans-serif;text-anchor:end;" transform="matrix(1 0 0 1 3036 1933)">Template v.1.0</text>
  <text style="stroke:none;fill:black;font-family:-apple-system,&quot;SF Pro Display&quot;,&quot;SF Pro Text&quot;,Helvetica,sans-serif;text-anchor:end;" transform="matrix(1 0 0 1 3036 1951)">Generated from chevron.left.slash.chevron.right</text>
  <text style="stroke:none;fill:black;font-family:-apple-system,&quot;SF Pro Display&quot;,&quot;SF Pro Text&quot;,Helvetica,sans-serif;text-anchor:end;" transform="matrix(1 0 0 1 3036 1969)">Typeset at 100 points</text>
  <text style="stroke:none;fill:black;font-family:-apple-system,&quot;SF Pro Display&quot;,&quot;SF Pro Text&quot;,Helvetica,sans-serif;" transform="matrix(1 0 0 1 263 726)">Small</text>
  <text style="stroke:none;fill:black;font-family:-apple-system,&quot;SF Pro Display&quot;,&quot;SF Pro Text&quot;,Helvetica,sans-serif;" transform="matrix(1 0 0 1 263 1156)">Medium</text>
  <text style="stroke:none;fill:black;font-family:-apple-system,&quot;SF Pro Display&quot;,&quot;SF Pro Text&quot;,Helvetica,sans-serif;" transform="matrix(1 0 0 1 263 1586)">Large</text>
 </g>
 <g id="Guides">
  <g id="H-reference" style="fill:#27AAE1;stroke:none;" transform="matrix(1 0 0 1 339 696)">
   <path d="M 54.9316 0 L 57.666 0 L 30.5664 -70.459 L 28.0762 -70.459 L 0.976562 0 L 3.66211 0 L 12.9395 -24.4629 L 45.7031 -24.4629 Z M 29.1992 -67.0898 L 29.4434 -67.0898 L 44.8242 -26.709 L 13.8184 -26.709 Z"/>
  </g>
  <line id="Baseline-S" style="fill:none;stroke:#27AAE1;opacity:1;stroke-width:0.577;" x1="263" x2="3036" y1="696" y2="696"/>
  <line id="Capline-S" style="fill:none;stroke:#27AAE1;opacity:1;stroke-width:0.577;" x1="263" x2="3036" y1="625.541" y2="625.541"/>
  <g id="H-reference" style="fill:#27AAE1;stroke:none;" transform="matrix(1 0 0 1 339 1126)">
   <path d="M 54.9316 0 L 57.666 0 L 30.5664 -70.459 L 28.0762 -70.459 L 0.976562 0 L 3.66211 0 L 12.9395 -24.4629 L 45.7031 -24.4629 Z M 29.1992 -67.0898 L 29.4434 -67.0898 L 44.8242 -26.709 L 13.8184 -26.709 Z"/>
  </g>
  <line id="Baseline-M" style="fill:none;stroke:#27AAE1;opacity:1;stroke-width:0.577;" x1="263" x2="3036" y1="1126" y2="1126"/>
  <line id="Capline-M" style="fill:none;stroke:#27AAE1;opacity:1;stroke-width:0.577;" x1="263" x2="3036" y1="1055.54" y2="1055.54"/>
  <g id="H-reference" style="fill:#27AAE1;stroke:none;" transform="matrix(1 0 0 1 339 1556)">
   <path d="M 54.9316 0 L 57.666 0 L 30.5664 -70.459 L 28.0762 -70.459 L 0.976562 0 L 3.66211 0 L 12.9395 -24.4629 L 45.7031 -24.4629 Z M 29.1992 -67.0898 L 29.4434 -67.0898 L 44.8242 -26.709 L 13.8184 -26.709 Z"/>
  </g>
  <line id="Baseline-L" style="fill:none;stroke:#27AAE1;opacity:1;stroke-width:0.577;" x1="263" x2="3036" y1="1556" y2="1556"/>
  <line id="Capline-L" style="fill:none;stroke:#27AAE1;opacity:1;stroke-width:0.577;" x1="263" x2="3036" y1="1485.54" y2="1485.54"/>
  <rect height="119.336" id="left-margin" style="fill:#00AEEF;stroke:none;opacity:0.4;" width="10.0036" x="1368.81" y="1030.79"/>
  <rect height="119.336" id="right-margin" style="fill:#00AEEF;stroke:none;opacity:0.4;" width="10.0036" x="1520.87" y="1030.79"/>
 </g>
 <g id="Symbols">
  <g id="Black-L" transform="matrix(1 0 0 1 2816.55 1556)">
   <path d="M 96.4355 34.7656 C 103.613 36.8652 110.4 33.0078 112.598 25.5859 L 145.996 -88.7207 C 148.145 -96.1426 144.434 -103.027 137.256 -105.127 C 130.127 -107.227 123.291 -103.369 121.094 -95.9473 L 87.7441 18.3105 C 85.5469 25.7812 89.2578 32.6172 96.4355 34.7656 Z M 174.463 12.5488 L 216.016 -25 C 222.412 -30.7617 222.412 -39.7461 216.016 -45.5078 L 174.463 -83.0078 C 168.75 -88.1836 160.889 -87.8906 155.859 -82.373 C 150.879 -76.7578 151.367 -68.9453 157.031 -63.8184 L 188.672 -35.2539 L 157.031 -6.68945 C 151.367 -1.51367 150.879 6.25 155.859 11.8652 C 160.889 17.4316 168.75 17.7246 174.463 12.5488 Z M 59.2773 12.6465 C 64.9414 17.8223 72.8516 17.5293 77.832 12.0117 C 82.8125 6.39648 82.373 -1.41602 76.6602 -6.5918 L 45.0684 -35.1074 L 76.6602 -63.6719 C 82.373 -68.8477 82.8125 -76.6602 77.832 -82.2266 C 72.8516 -87.793 65.0391 -88.1348 59.2773 -82.9102 L 17.6758 -45.3613 C 11.2793 -39.5996 11.3281 -30.6641 17.6758 -24.9023 Z"/>
  </g>
  <g id="Heavy-L" transform="matrix(1 0 0 1 2522.99 1556)">
   <path d="M 93.2617 34.8145 C 99.3652 36.5723 105.176 33.252 107.031 26.9531 L 141.504 -91.1621 C 143.359 -97.5098 140.234 -103.418 134.131 -105.225 C 128.027 -106.982 122.217 -103.662 120.312 -97.3633 L 85.8398 20.752 C 83.9844 27.0996 87.1582 33.0078 93.2617 34.8145 Z M 167.285 12.4512 L 210.4 -26.5137 C 215.869 -31.4453 215.82 -39.1113 210.4 -43.9941 L 167.285 -82.959 C 162.402 -87.3535 155.664 -87.1582 151.416 -82.4219 C 147.168 -77.6367 147.559 -70.9961 152.441 -66.6016 L 187.109 -35.2539 L 152.441 -3.90625 C 147.559 0.488281 147.168 7.12891 151.416 11.9141 C 155.664 16.6504 162.402 16.8457 167.285 12.4512 Z M 60.1074 12.5488 C 64.9902 16.9922 71.7285 16.748 75.9766 12.0117 C 80.2246 7.22656 79.7852 0.585938 74.9512 -3.80859 L 40.2832 -35.1562 L 74.9512 -66.5039 C 79.7852 -70.8984 80.2246 -77.5391 75.9766 -82.3242 C 71.7285 -87.0605 65.0391 -87.3047 60.1074 -82.8613 L 16.9922 -43.8965 C 11.5234 -38.9648 11.5234 -31.2988 16.9922 -26.416 Z"/>
  </g>
  <g id="Bold-L" transform="matrix(1 0 0 1 2229.85 1556)">
   <path d="M 89.6973 34.8633 C 94.5801 36.2793 99.3164 33.5938 100.83 28.4668 L 136.523 -93.9453 C 137.988 -99.0723 135.498 -103.857 130.566 -105.322 C 125.684 -106.738 120.947 -104.053 119.434 -98.9258 L 83.7402 23.4863 C 82.2754 28.6621 84.7656 33.3984 89.6973 34.8633 Z M 159.229 12.3047 L 204.053 -28.1738 C 208.496 -32.1289 208.447 -38.3789 204.053 -42.3828 L 159.229 -82.8613 C 155.273 -86.4746 149.854 -86.2793 146.436 -82.4707 C 143.018 -78.6621 143.359 -73.2422 147.266 -69.7266 L 185.352 -35.2539 L 147.266 -0.830078 C 143.359 2.73438 143.018 8.10547 146.436 11.9629 C 149.854 15.7715 155.273 15.918 159.229 12.3047 Z M 61.0352 12.4023 C 64.9902 16.0156 70.459 15.8691 73.877 12.0605 C 77.2949 8.20312 76.9043 2.83203 72.998 -0.732422 L 34.9121 -35.1562 L 72.998 -69.6289 C 76.9043 -73.1445 77.2949 -78.5645 73.877 -82.373 C 70.459 -86.1816 65.0391 -86.377 61.0352 -82.7637 L 16.2109 -42.2852 C 11.7676 -38.2812 11.8164 -32.0801 16.2109 -28.0762 Z"/>
  </g>
  <g id="Semibold-L" transform="matrix(1 0 0 1 1935.58 1556)">
   <path d="M 87.207 34.9121 C 91.3086 36.084 95.2637 33.8379 96.5332 29.541 L 133.105 -95.8496 C 134.326 -100.146 132.275 -104.15 128.174 -105.371 C 124.072 -106.543 120.117 -104.297 118.848 -100 L 82.2754 25.3906 C 81.0547 29.6875 83.1055 33.6914 87.207 34.9121 Z M 153.711 12.2559 L 199.707 -29.2969 C 203.418 -32.666 203.369 -37.8906 199.707 -41.2109 L 153.711 -82.7637 C 150.391 -85.791 145.801 -85.6934 142.969 -82.5195 C 140.137 -79.3457 140.479 -74.8047 143.701 -71.8262 L 184.131 -35.2539 L 143.701 1.31836 C 140.479 4.29688 140.137 8.78906 142.969 11.9629 C 145.801 15.1367 150.391 15.2832 153.711 12.2559 Z M 61.6699 12.3047 C 64.9902 15.332 69.5801 15.2344 72.4121 12.0605 C 75.2441 8.83789 74.9023 4.3457 71.6797 1.36719 L 31.25 -35.2051 L 71.6797 -71.7773 C 74.9023 -74.7559 75.2441 -79.248 72.4121 -82.4219 C 69.5801 -85.6445 65.0391 -85.7422 61.6699 -82.7148 L 15.6738 -41.1621 C 11.9629 -37.793 12.0117 -32.5684 15.6738 -29.248 Z"/>
  </g>
  <g id="Medium-L" transform="matrix(1 0 0 1 1640.72 1556)">
   <path d="M 85.3516 34.9121 C 88.8184 35.9375 92.1875 33.9844 93.2617 30.3223 L 130.469 -97.2656 C 131.494 -100.977 129.785 -104.346 126.318 -105.42 C 122.852 -106.396 119.482 -104.492 118.408 -100.83 L 81.2012 26.8066 C 80.1758 30.4688 81.8848 33.8867 85.3516 34.9121 Z M 149.512 12.207 L 196.436 -30.1758 C 199.609 -33.0566 199.561 -37.5 196.436 -40.3809 L 149.512 -82.7148 C 146.68 -85.3516 142.773 -85.2539 140.381 -82.5684 C 137.939 -79.834 138.232 -75.9766 141.016 -73.4863 L 183.252 -35.2539 L 141.016 2.92969 C 138.232 5.46875 137.939 9.27734 140.381 12.0117 C 142.773 14.6973 146.68 14.7949 149.512 12.207 Z M 62.1582 12.2559 C 64.9902 14.8438 68.8965 14.7949 71.3379 12.0605 C 73.7305 9.375 73.4375 5.51758 70.6543 2.97852 L 28.418 -35.2051 L 70.6543 -73.3887 C 73.4375 -75.9277 73.7305 -79.7852 71.3379 -82.4707 C 68.8965 -85.2051 65.0391 -85.2539 62.1582 -82.666 L 15.2344 -40.2832 C 12.0605 -37.4512 12.1094 -32.959 15.2344 -30.127 Z"/>
  </g>
  <g id="Regular-L" transform="matrix(1 0 0 1 1346.43 1556)">
   <path d="M 82.9102 34.9609 C 85.5957 35.7422 88.1836 34.2285 89.0137 31.3477 L 127.1 -99.1699 C 127.881 -102.002 126.562 -104.639 123.926 -105.469 C 121.24 -106.25 118.652 -104.736 117.822 -101.855 L 79.7363 28.6621 C 78.9551 31.543 80.2734 34.1309 82.9102 34.9609 Z M 144.043 12.1094 L 192.139 -31.3477 C 194.58 -33.5449 194.531 -37.0117 192.139 -39.2578 L 144.043 -82.666 C 141.797 -84.7168 138.818 -84.668 136.963 -82.6172 C 135.107 -80.5176 135.4 -77.5391 137.5 -75.5859 L 182.031 -35.3027 L 137.5 5.0293 C 135.4 6.98242 135.107 9.96094 136.963 12.0117 C 138.818 14.1113 141.797 14.1602 144.043 12.1094 Z M 62.793 12.1582 C 64.9902 14.209 68.0176 14.1602 69.873 12.1094 C 71.7285 10.0098 71.4355 7.03125 69.3359 5.07812 L 24.8047 -35.2051 L 69.3359 -75.5371 C 71.4355 -77.4902 71.7285 -80.4688 69.873 -82.5195 C 68.0176 -84.6191 64.9902 -84.6191 62.793 -82.6172 L 14.6973 -39.1602 C 12.2559 -36.9629 12.3047 -33.4473 14.6973 -31.25 Z"/>
  </g>
  <g id="Light-L" transform="matrix(1 0 0 1 1051.25 1556)">
   <path d="M 81.4453 34.7656 C 83.4473 35.3516 85.4004 34.2285 86.0352 32.0801 L 124.707 -100.635 C 125.293 -102.734 124.316 -104.688 122.314 -105.322 C 120.312 -105.908 118.359 -104.785 117.725 -102.637 L 79.0527 30.0293 C 78.4668 32.1777 79.4434 34.1309 81.4453 34.7656 Z M 140.479 11.9141 L 189.551 -32.373 C 191.357 -34.0332 191.309 -36.6211 189.551 -38.2812 L 140.479 -82.6172 C 138.818 -84.1309 136.523 -84.082 135.156 -82.5195 C 133.789 -80.957 134.033 -78.7109 135.596 -77.2949 L 181.934 -35.3516 L 135.596 6.64062 C 134.033 8.05664 133.789 10.3027 135.156 11.8652 C 136.523 13.3789 138.818 13.4277 140.479 11.9141 Z M 63.2812 12.0117 C 64.9414 13.5254 67.2363 13.4766 68.6035 11.9629 C 69.9707 10.4004 69.7754 8.1543 68.1641 6.73828 L 21.8262 -35.2539 L 68.1641 -77.1973 C 69.7754 -78.6133 69.9707 -80.8594 68.6035 -82.4219 C 67.2363 -83.9844 64.9414 -84.0332 63.2812 -82.5195 L 14.2578 -38.1836 C 12.4512 -36.5234 12.4512 -33.9355 14.2578 -32.2754 Z"/>
  </g>
  <g id="Thin-L" transform="matrix(1 0 0 1 756.569 1556)">
   <path d="M 79.4922 34.4727 C 80.6152 34.8145 81.7383 34.2285 82.0312 33.0078 L 121.533 -102.539 C 121.875 -103.711 121.338 -104.736 120.215 -105.127 C 119.092 -105.518 118.018 -104.883 117.676 -103.662 L 78.1738 31.8848 C 77.8809 33.0078 78.3691 34.082 79.4922 34.4727 Z M 135.791 11.6699 L 186.133 -33.7891 C 187.061 -34.7168 187.061 -36.1328 186.133 -37.0605 L 135.791 -82.5195 C 134.863 -83.3496 133.545 -83.252 132.812 -82.4219 C 132.08 -81.5918 132.227 -80.2734 133.057 -79.541 L 181.787 -35.4004 L 133.057 8.74023 C 132.227 9.47266 132.08 10.791 132.812 11.6211 C 133.545 12.4512 134.863 12.5 135.791 11.6699 Z M 63.916 11.8164 C 64.8438 12.6465 66.1621 12.5977 66.8945 11.7676 C 67.627 10.9375 67.5293 9.61914 66.6504 8.88672 L 17.9199 -35.2539 L 66.6504 -79.3945 C 67.5293 -80.127 67.627 -81.4453 66.8945 -82.2754 C 66.1621 -83.1055 64.8438 -83.2031 63.916 -82.373 L 13.623 -36.9141 C 12.6465 -35.9863 12.6465 -34.5215 13.623 -33.6426 Z"/>
  </g>
  <g id="Ultralight-L" transform="matrix(1 0 0 1 460.883 1556)">
   <path d="M 78.5156 34.2773 C 79.1504 34.5703 79.834 34.2285 79.9805 33.4961 L 119.922 -103.564 C 120.117 -104.199 119.824 -104.785 119.141 -105.029 C 118.506 -105.273 117.822 -104.932 117.627 -104.199 L 77.6855 32.8125 C 77.5391 33.4473 77.832 34.0332 78.5156 34.2773 Z M 133.398 11.5723 L 184.375 -34.4727 C 184.863 -35.0098 184.863 -35.8887 184.375 -36.4258 L 133.398 -82.4707 C 132.861 -82.9102 132.031 -82.8613 131.641 -82.373 C 131.25 -81.8848 131.299 -81.1035 131.738 -80.7129 L 181.738 -35.4492 L 131.738 9.81445 C 131.299 10.2051 131.25 10.9863 131.641 11.4746 C 132.031 11.9629 132.861 12.0117 133.398 11.5723 Z M 64.2578 11.7188 C 64.7949 12.207 65.625 12.1094 66.0156 11.6699 C 66.4062 11.1816 66.3574 10.3516 65.918 9.96094 L 15.918 -35.2539 L 65.918 -80.5176 C 66.3574 -80.9082 66.4062 -81.7383 66.0156 -82.1777 C 65.625 -82.666 64.7949 -82.7637 64.2578 -82.2754 L 13.2812 -36.2305 C 12.7441 -35.6934 12.7441 -34.8633 13.2812 -34.3262 Z"/>
  </g>
  <g id="Black-M" transform="matrix(1 0 0 1 2839.36 1126)">
   <path d="M 78.2715 18.7988 C 84.9121 20.8008 91.1621 17.2363 93.1641 10.4492 L 117.871 -74.1211 C 119.922 -80.957 116.455 -87.2559 109.814 -89.209 C 103.174 -91.1621 96.9238 -87.6465 94.9219 -80.8105 L 70.2148 3.71094 C 68.1641 10.5469 71.6309 16.8457 78.2715 18.7988 Z M 143.018 1.80664 L 173.682 -25.8789 C 179.541 -31.1523 179.541 -39.3555 173.682 -44.6777 L 143.018 -72.3633 C 137.793 -77.0996 130.518 -76.7578 125.879 -71.6309 C 121.289 -66.4551 121.68 -59.2773 126.904 -54.541 L 148.291 -35.2539 L 126.904 -15.9668 C 121.68 -11.2305 121.289 -4.05273 125.879 1.12305 C 130.518 6.25 137.793 6.54297 143.018 1.80664 Z M 45.0684 1.95312 C 50.293 6.68945 57.5684 6.34766 62.207 1.26953 C 66.7969 -3.90625 66.4062 -11.1328 61.1816 -15.8691 L 39.7949 -35.1562 L 61.1816 -54.3945 C 66.4062 -59.1309 66.7969 -66.3574 62.207 -71.5332 C 57.5684 -76.6602 50.3906 -77.002 45.0684 -72.2168 L 14.4043 -44.5312 C 8.54492 -39.2578 8.54492 -31.0547 14.4043 -25.7324 Z"/>
  </g>
  <g id="Heavy-M" transform="matrix(1 0 0 1 2545.72 1126)">
   <path d="M 75.1953 18.9453 C 80.8105 20.6055 86.1816 17.5781 87.8906 11.7188 L 113.623 -76.4648 C 115.332 -82.2754 112.402 -87.6953 106.787 -89.3555 C 101.123 -91.0156 95.8008 -87.9883 94.043 -82.1289 L 68.3105 6.05469 C 66.6016 11.8652 69.5312 17.2852 75.1953 18.9453 Z M 136.084 1.75781 L 168.164 -27.1973 C 173.193 -31.7383 173.193 -38.7695 168.164 -43.3105 L 136.084 -72.2656 C 131.592 -76.3184 125.391 -76.0742 121.484 -71.7285 C 117.529 -67.334 117.92 -61.1816 122.363 -57.1289 L 146.582 -35.2539 L 122.363 -13.3789 C 117.92 -9.32617 117.529 -3.17383 121.484 1.2207 C 125.391 5.56641 131.592 5.81055 136.084 1.75781 Z M 45.8496 1.85547 C 50.3418 5.9082 56.543 5.66406 60.4492 1.31836 C 64.4043 -3.07617 64.0625 -9.22852 59.5703 -13.2812 L 35.3516 -35.1562 L 59.5703 -57.0312 C 64.0625 -61.084 64.4043 -67.2363 60.4492 -71.6309 C 56.543 -75.9766 50.3906 -76.2695 45.8496 -72.168 L 13.7695 -43.2129 C 8.74023 -38.6719 8.74023 -31.6406 13.7695 -27.0996 Z"/>
  </g>
  <g id="Bold-M" transform="matrix(1 0 0 1 2252.43 1126)">
   <path d="M 71.6797 19.043 C 76.2207 20.3613 80.5664 17.9199 81.9336 13.1836 L 108.887 -79.0527 C 110.254 -83.7891 107.91 -88.1348 103.369 -89.502 C 98.8281 -90.8203 94.5312 -88.3301 93.1152 -83.6426 L 66.2109 8.59375 C 64.8438 13.3301 67.1387 17.7246 71.6797 19.043 Z M 128.32 1.70898 L 162.012 -28.7109 C 166.113 -32.373 166.064 -38.0859 162.012 -41.748 L 128.32 -72.2168 C 124.707 -75.4883 119.678 -75.3418 116.553 -71.8262 C 113.379 -68.2617 113.672 -63.3301 117.285 -60.0586 L 144.727 -35.2539 L 117.285 -10.4492 C 113.672 -7.17773 113.379 -2.24609 116.553 1.31836 C 119.678 4.83398 124.707 4.98047 128.32 1.70898 Z M 46.7285 1.75781 C 50.3906 5.07812 55.3711 4.88281 58.5449 1.36719 C 61.7188 -2.14844 61.377 -7.12891 57.8125 -10.4004 L 30.3711 -35.1562 L 57.8125 -59.9609 C 61.377 -63.2324 61.7188 -68.2129 58.5449 -71.7285 C 55.3711 -75.2441 50.3906 -75.4395 46.7285 -72.1191 L 13.0371 -41.6992 C 8.98438 -38.0371 8.98438 -32.3242 13.0371 -28.6621 Z"/>
  </g>
  <g id="Semibold-M" transform="matrix(1 0 0 1 1958.09 1126)">
   <path d="M 69.2871 19.1406 C 73.0957 20.2148 76.709 18.1641 77.8809 14.209 L 105.615 -80.8105 C 106.738 -84.8145 104.834 -88.4766 101.025 -89.5996 C 97.2656 -90.6738 93.6523 -88.5742 92.4805 -84.668 L 64.7461 10.4004 C 63.623 14.3555 65.5273 18.0176 69.2871 19.1406 Z M 122.998 1.66016 L 157.764 -29.7852 C 161.182 -32.8613 161.182 -37.6465 157.764 -40.7227 L 122.998 -72.1191 C 119.922 -74.9023 115.771 -74.8047 113.135 -71.875 C 110.498 -68.9453 110.791 -64.7949 113.77 -62.0605 L 143.408 -35.2539 L 113.77 -8.44727 C 110.791 -5.71289 110.498 -1.5625 113.135 1.36719 C 115.771 4.29688 119.922 4.44336 122.998 1.66016 Z M 47.3633 1.70898 C 50.3906 4.49219 54.5898 4.39453 57.2266 1.41602 C 59.8633 -1.51367 59.5703 -5.66406 56.543 -8.39844 L 26.9043 -35.2051 L 56.543 -61.9629 C 59.5703 -64.7461 59.8633 -68.8477 57.2266 -71.8262 C 54.5898 -74.7559 50.4395 -74.8535 47.3633 -72.0703 L 12.5488 -40.6738 C 9.13086 -37.5977 9.17969 -32.7637 12.5488 -29.7363 Z"/>
  </g>
  <g id="Medium-M" transform="matrix(1 0 0 1 1663.18 1126)">
   <path d="M 67.4805 19.1895 C 70.7031 20.1172 73.7793 18.3594 74.7559 14.9902 L 103.125 -82.1777 C 104.053 -85.5469 102.441 -88.6719 99.2676 -89.6484 C 96.0449 -90.5762 92.9688 -88.7695 91.9922 -85.4492 L 63.6719 11.7188 C 62.6953 15.1367 64.3066 18.2617 67.4805 19.1895 Z M 118.945 1.61133 L 154.59 -30.5664 C 157.471 -33.2031 157.471 -37.3047 154.59 -39.8926 L 118.945 -72.1191 C 116.357 -74.4629 112.744 -74.4141 110.547 -71.9238 C 108.301 -69.4336 108.594 -65.918 111.133 -63.5742 L 142.432 -35.2539 L 111.133 -6.93359 C 108.594 -4.58984 108.301 -1.07422 110.547 1.41602 C 112.744 3.90625 116.357 4.00391 118.945 1.61133 Z M 47.8027 1.66016 C 50.4395 4.05273 54.0039 3.95508 56.2012 1.46484 C 58.4473 -1.02539 58.1543 -4.54102 55.6152 -6.88477 L 24.3164 -35.2051 L 55.6152 -63.5254 C 58.1543 -65.8691 58.4473 -69.3848 56.2012 -71.875 C 54.0039 -74.3652 50.4395 -74.4629 47.8027 -72.0703 L 12.207 -39.8926 C 9.27734 -37.2559 9.32617 -33.1543 12.207 -30.5176 Z"/>
  </g>
  <g id="Regular-M" transform="matrix(1 0 0 1 1368.81 1126)">
   <path d="M 65.1367 19.2871 C 67.5781 19.9707 69.9707 18.6035 70.752 15.9668 L 99.8535 -83.9355 C 100.586 -86.5723 99.4141 -89.0137 96.9727 -89.7461 C 94.5312 -90.4297 92.1387 -89.0625 91.3574 -86.4258 L 62.207 13.4766 C 61.4746 16.1133 62.6953 18.5547 65.1367 19.2871 Z M 113.672 1.5625 L 150.391 -31.5918 C 152.637 -33.6426 152.588 -36.8652 150.391 -38.8672 L 113.672 -72.0215 C 111.621 -73.9258 108.887 -73.877 107.178 -71.9727 C 105.469 -70.0684 105.713 -67.334 107.666 -65.5273 L 141.162 -35.2539 L 107.666 -4.93164 C 105.713 -3.125 105.469 -0.390625 107.178 1.51367 C 108.887 3.41797 111.621 3.41797 113.672 1.5625 Z M 48.4375 1.61133 C 50.4395 3.4668 53.2227 3.41797 54.9316 1.51367 C 56.6406 -0.390625 56.3477 -3.07617 54.3945 -4.88281 L 20.8984 -35.2051 L 54.3945 -65.5273 C 56.3477 -67.334 56.6406 -70.0195 54.9316 -71.9727 C 53.2227 -73.877 50.4395 -73.877 48.4375 -72.0215 L 11.6699 -38.8672 C 9.42383 -36.8164 9.47266 -33.5938 11.6699 -31.5918 Z"/>
  </g>
  <g id="Light-M" transform="matrix(1 0 0 1 1073.47 1126)">
   <path d="M 63.8184 19.0918 C 65.625 19.6289 67.4805 18.6035 68.0176 16.6016 L 97.7051 -85.2539 C 98.2422 -87.207 97.3633 -89.0625 95.5078 -89.5996 C 93.7012 -90.1367 91.8457 -89.1113 91.3086 -87.1094 L 61.6211 14.7461 C 61.084 16.6992 61.9629 18.5059 63.8184 19.0918 Z M 110.498 1.41602 L 148.047 -32.5684 C 149.756 -34.082 149.707 -36.4746 148.047 -38.0371 L 110.498 -71.9727 C 108.936 -73.3887 106.836 -73.3398 105.566 -71.9238 C 104.297 -70.459 104.492 -68.4082 105.957 -67.0898 L 141.064 -35.3027 L 105.957 -3.51562 C 104.492 -2.14844 104.297 -0.0976562 105.566 1.31836 C 106.836 2.7832 108.936 2.7832 110.498 1.41602 Z M 48.877 1.46484 C 50.3906 2.88086 52.4902 2.83203 53.7598 1.41602 C 55.0293 -0.0488281 54.834 -2.09961 53.3691 -3.4668 L 18.2617 -35.2051 L 53.3691 -66.9922 C 54.834 -68.3594 55.0293 -70.4102 53.7598 -71.875 C 52.4902 -73.291 50.3906 -73.291 48.877 -71.9238 L 11.2793 -37.9883 C 9.57031 -36.4258 9.61914 -34.0332 11.2793 -32.4707 Z"/>
  </g>
  <g id="Thin-M" transform="matrix(1 0 0 1 778.566 1126)">
   <path d="M 62.0605 18.8477 C 63.0859 19.1895 64.1602 18.6035 64.4531 17.4316 L 94.9219 -86.9629 C 95.2148 -88.0859 94.7266 -89.1113 93.6523 -89.4531 C 92.5781 -89.7949 91.5527 -89.209 91.2109 -88.0371 L 60.791 16.3574 C 60.498 17.4805 60.9863 18.5059 62.0605 18.8477 Z M 106.25 1.17188 L 145.02 -33.7891 C 145.898 -34.668 145.898 -36.0352 145.02 -36.9141 L 106.25 -71.875 C 105.42 -72.6562 104.199 -72.6074 103.467 -71.8262 C 102.783 -71.0449 102.881 -69.8242 103.662 -69.0918 L 140.918 -35.3516 L 103.662 -1.61133 C 102.881 -0.878906 102.783 0.341797 103.467 1.12305 C 104.199 1.9043 105.42 1.95312 106.25 1.17188 Z M 49.4141 1.26953 C 50.293 2.05078 51.5137 2.00195 52.2461 1.2207 C 52.9297 0.439453 52.832 -0.78125 52.002 -1.51367 L 14.7461 -35.2539 L 52.002 -68.9941 C 52.832 -69.7266 52.9297 -70.8984 52.2461 -71.7285 C 51.5137 -72.5098 50.293 -72.5586 49.4141 -71.7773 L 10.6934 -36.8164 C 9.76562 -35.9375 9.76562 -34.5703 10.6934 -33.6914 Z"/>
  </g>
  <g id="Ultralight-M" transform="matrix(1 0 0 1 482.782 1126)">
   <path d="M 61.1328 18.7012 C 61.8164 18.9453 62.4512 18.6035 62.6465 17.8711 L 93.457 -87.8906 C 93.6523 -88.5254 93.3594 -89.1113 92.6758 -89.3555 C 92.041 -89.5996 91.3574 -89.2578 91.2109 -88.5254 L 60.4004 17.2363 C 60.2051 17.8711 60.498 18.457 61.1328 18.7012 Z M 104.102 1.07422 L 143.408 -34.4238 C 143.945 -34.9609 143.945 -35.791 143.408 -36.3281 L 104.102 -71.8262 C 103.564 -72.3145 102.832 -72.2656 102.393 -71.7773 C 102.002 -71.2891 102.051 -70.5566 102.49 -70.1172 L 140.869 -35.4004 L 102.49 -0.634766 C 102.051 -0.244141 102.002 0.537109 102.393 1.02539 C 102.832 1.46484 103.564 1.5625 104.102 1.07422 Z M 49.707 1.17188 C 50.2441 1.66016 51.0254 1.61133 51.416 1.12305 C 51.8555 0.634766 51.8066 -0.0976562 51.3184 -0.537109 L 12.9883 -35.2539 L 51.3184 -69.9707 C 51.8066 -70.4102 51.8555 -71.1914 51.416 -71.6309 C 51.0254 -72.1191 50.2441 -72.168 49.707 -71.7285 L 10.4004 -36.2305 C 9.86328 -35.6934 9.86328 -34.8633 10.4004 -34.3262 Z"/>
  </g>
  <g id="Black-S" transform="matrix(1 0 0 1 2859.96 696)">
   <path d="M 61.084 7.12891 C 66.2109 8.64258 71.0449 5.9082 72.6074 0.634766 L 92.041 -65.8691 C 93.6035 -71.1426 90.918 -76.0254 85.791 -77.5391 C 80.6641 -79.0527 75.8301 -76.3184 74.2676 -71.0449 L 54.834 -4.54102 C 53.2715 0.732422 55.957 5.61523 61.084 7.12891 Z M 111.523 -6.20117 L 135.645 -27.9785 C 140.186 -32.0801 140.186 -38.4277 135.645 -42.5293 L 111.523 -64.3066 C 107.471 -67.9688 101.855 -67.7246 98.291 -63.7695 C 94.7266 -59.7656 95.0195 -54.1992 99.0723 -50.5371 L 116.016 -35.2539 L 99.0723 -19.9707 C 95.0195 -16.3086 94.7266 -10.7422 98.291 -6.73828 C 101.855 -2.7832 107.471 -2.53906 111.523 -6.20117 Z M 35.3516 -6.10352 C 39.4043 -2.44141 45.0195 -2.68555 48.584 -6.64062 C 52.1484 -10.6445 51.8555 -16.2109 47.8027 -19.873 L 30.8594 -35.1562 L 47.8027 -50.4395 C 51.8555 -54.1016 52.1484 -59.668 48.584 -63.6719 C 45.0195 -67.627 39.4531 -67.9199 35.3516 -64.209 L 11.2305 -42.4316 C 6.68945 -38.3301 6.68945 -31.9824 11.2305 -27.8809 Z"/>
  </g>
  <g id="Heavy-S" transform="matrix(1 0 0 1 2565.45 696)">
   <path d="M 58.8379 7.22656 C 63.2812 8.54492 67.4805 6.15234 68.8477 1.5625 L 89.0137 -67.4805 C 90.3809 -72.0703 88.0371 -76.3184 83.5938 -77.6367 C 79.1992 -78.9551 75 -76.5625 73.6328 -71.9727 L 53.4668 -2.92969 C 52.0996 1.66016 54.3945 5.9082 58.8379 7.22656 Z M 106.543 -6.25 L 131.689 -28.9062 C 135.645 -32.4707 135.645 -37.9883 131.689 -41.5527 L 106.543 -64.2578 C 103.027 -67.4316 98.1445 -67.2852 95.0684 -63.8184 C 91.9922 -60.3516 92.2852 -55.5176 95.8008 -52.3438 L 114.746 -35.2539 L 95.8008 -18.1152 C 92.2852 -14.9414 91.9922 -10.1074 95.0684 -6.64062 C 98.1445 -3.22266 103.027 -3.02734 106.543 -6.25 Z M 35.8887 -6.15234 C 39.4043 -2.97852 44.2871 -3.125 47.3633 -6.5918 C 50.4883 -10.0586 50.1953 -14.8926 46.6797 -18.0664 L 27.7344 -35.1562 L 46.6797 -52.2949 C 50.1953 -55.4688 50.4883 -60.3027 47.3633 -63.7695 C 44.2871 -67.1875 39.4531 -67.4316 35.8887 -64.1602 L 10.791 -41.5039 C 6.83594 -37.9395 6.83594 -32.4219 10.791 -28.8574 Z"/>
  </g>
  <g id="Bold-S" transform="matrix(1 0 0 1 2271.2 696)">
   <path d="M 56.3477 7.37305 C 60.0098 8.39844 63.5254 6.39648 64.6484 2.58789 L 85.6445 -69.3359 C 86.7676 -73.1445 84.8633 -76.709 81.2012 -77.7832 C 77.5391 -78.8574 74.0234 -76.8555 72.9004 -73.0469 L 51.9043 -1.12305 C 50.8301 2.73438 52.6855 6.25 56.3477 7.37305 Z M 101.025 -6.25 L 127.295 -29.9805 C 130.566 -32.9102 130.566 -37.5488 127.295 -40.5273 L 101.025 -64.209 C 98.0957 -66.8945 94.043 -66.748 91.5039 -63.916 C 88.916 -61.0352 89.209 -57.0312 92.0898 -54.3945 L 113.33 -35.2539 L 92.0898 -16.0645 C 89.209 -13.4277 88.916 -9.42383 91.5039 -6.54297 C 94.043 -3.71094 98.0957 -3.61328 101.025 -6.25 Z M 36.5234 -6.20117 C 39.4531 -3.51562 43.5059 -3.66211 46.0449 -6.49414 C 48.6328 -9.375 48.3398 -13.3789 45.459 -16.0156 L 24.2188 -35.2051 L 45.459 -54.3457 C 48.3398 -56.9824 48.6328 -60.9863 46.0449 -63.8672 C 43.5059 -66.6992 39.502 -66.8457 36.5234 -64.1602 L 10.3027 -40.4785 C 6.98242 -37.5 6.98242 -32.8613 10.3027 -29.8828 Z"/>
  </g>
  <g id="Semibold-S" transform="matrix(1 0 0 1 1976.18 696)">
   <path d="M 54.6387 7.42188 C 57.7637 8.34961 60.791 6.5918 61.7676 3.32031 L 83.3008 -70.5566 C 84.2285 -73.877 82.666 -76.9043 79.541 -77.8809 C 76.416 -78.7598 73.3887 -77.002 72.4121 -73.7305 L 50.8789 0.146484 C 49.9023 3.4668 51.5137 6.49414 54.6387 7.42188 Z M 97.2168 -6.29883 L 124.219 -30.6641 C 127.1 -33.2031 127.051 -37.207 124.219 -39.7949 L 97.2168 -64.1602 C 94.6777 -66.5039 91.2109 -66.4062 89.0137 -63.9648 C 86.8164 -61.5234 87.0605 -58.0566 89.5996 -55.8105 L 112.305 -35.2051 L 89.5996 -14.6484 C 87.0605 -12.3535 86.8164 -8.93555 89.0137 -6.49414 C 91.2109 -4.05273 94.6777 -3.95508 97.2168 -6.29883 Z M 36.9629 -6.25 C 39.502 -3.95508 42.9688 -4.00391 45.166 -6.44531 C 47.3145 -8.88672 47.0703 -12.3535 44.5801 -14.5996 L 21.8262 -35.2051 L 44.5801 -55.7617 C 47.0703 -58.0566 47.3145 -61.4746 45.166 -63.916 C 42.9688 -66.3574 39.502 -66.4551 36.9629 -64.1113 L 9.96094 -39.7461 C 7.08008 -37.207 7.12891 -33.2031 9.96094 -30.6641 Z"/>
  </g>
  <g id="Medium-S" transform="matrix(1 0 0 1 1680.76 696)">
   <path d="M 53.3203 7.51953 C 56.0547 8.30078 58.6914 6.73828 59.5703 3.85742 L 81.543 -71.5332 C 82.373 -74.4141 81.0059 -77.0996 78.2715 -77.9297 C 75.5371 -78.7109 72.9004 -77.1484 72.0215 -74.3164 L 50.0488 1.12305 C 49.2188 4.00391 50.5859 6.68945 53.3203 7.51953 Z M 94.3359 -6.29883 L 121.924 -31.2012 C 124.414 -33.4473 124.365 -36.9629 121.924 -39.209 L 94.3359 -64.1602 C 92.0898 -66.1621 89.0625 -66.1133 87.1582 -64.0137 C 85.2539 -61.8652 85.498 -58.8379 87.6465 -56.8359 L 111.572 -35.2051 L 87.6465 -13.5742 C 85.498 -11.5723 85.2539 -8.59375 87.1582 -6.44531 C 89.0625 -4.29688 92.0898 -4.24805 94.3359 -6.29883 Z M 37.2559 -6.29883 C 39.502 -4.24805 42.5293 -4.29688 44.4336 -6.39648 C 46.3867 -8.54492 46.1426 -11.5723 43.9453 -13.5742 L 20.0195 -35.2051 L 43.9453 -56.8359 C 46.1426 -58.8379 46.3867 -61.8164 44.4336 -63.9648 C 42.5293 -66.1133 39.502 -66.1621 37.2559 -64.1113 L 9.66797 -39.209 C 7.17773 -36.9629 7.22656 -33.4473 9.66797 -31.2012 Z"/>
  </g>
  <g id="Regular-S" transform="matrix(1 0 0 1 1385.71 696)">
   <path d="M 51.6113 7.56836 C 53.8574 8.20312 56.0059 6.93359 56.6895 4.58984 L 79.248 -72.7539 C 79.8828 -75.1465 78.8086 -77.3438 76.6113 -78.0273 C 74.4141 -78.6133 72.2656 -77.3438 71.5332 -75 L 49.0234 2.34375 C 48.3398 4.73633 49.4141 6.93359 51.6113 7.56836 Z M 90.5762 -6.34766 L 118.896 -31.9336 C 120.947 -33.7402 120.898 -36.6699 118.896 -38.4766 L 90.5762 -64.1113 C 88.7207 -65.7715 86.2305 -65.7715 84.7168 -64.0625 C 83.1543 -62.3047 83.3984 -59.8633 85.1562 -58.252 L 110.596 -35.2051 L 85.1562 -12.1582 C 83.3984 -10.5469 83.1543 -8.10547 84.7168 -6.39648 C 86.2305 -4.63867 88.7207 -4.63867 90.5762 -6.34766 Z M 37.6953 -6.29883 C 39.502 -4.63867 41.9922 -4.63867 43.5547 -6.34766 C 45.1172 -8.10547 44.873 -10.5469 43.0664 -12.1582 L 17.627 -35.2051 L 43.0664 -58.252 C 44.873 -59.8633 45.1172 -62.3047 43.5547 -64.0625 C 41.9922 -65.7715 39.502 -65.7715 37.6953 -64.1113 L 9.32617 -38.4766 C 7.27539 -36.6699 7.32422 -33.7402 9.32617 -31.9336 Z"/>
  </g>
  <g id="Light-S" transform="matrix(1 0 0 1 1090.22 696)">
   <path d="M 50.4395 7.42188 C 52.1484 7.91016 53.7598 6.93359 54.2969 5.12695 L 77.3438 -73.9258 C 77.832 -75.7324 77.0508 -77.3926 75.3418 -77.8809 C 73.6816 -78.3691 72.0215 -77.3926 71.5332 -75.6348 L 48.4863 3.41797 C 47.9492 5.22461 48.7793 6.88477 50.4395 7.42188 Z M 87.7441 -6.49414 L 116.846 -32.7637 C 118.408 -34.1797 118.359 -36.377 116.846 -37.7441 L 87.7441 -64.0625 C 86.377 -65.332 84.4727 -65.2832 83.3008 -64.0137 C 82.1289 -62.6953 82.3242 -60.8398 83.6426 -59.5703 L 110.547 -35.2539 L 83.6426 -10.9375 C 82.3242 -9.7168 82.1289 -7.8125 83.3008 -6.54297 C 84.4727 -5.22461 86.377 -5.17578 87.7441 -6.49414 Z M 38.0859 -6.44531 C 39.4531 -5.17578 41.3574 -5.17578 42.5293 -6.49414 C 43.7012 -7.8125 43.5059 -9.66797 42.1875 -10.8887 L 15.2832 -35.2051 L 42.1875 -59.5703 C 43.5059 -60.791 43.7012 -62.6465 42.5293 -63.9648 C 41.3574 -65.2832 39.4531 -65.2832 38.0859 -64.0137 L 8.93555 -37.6953 C 7.42188 -36.3281 7.42188 -34.1309 8.93555 -32.7148 Z"/>
  </g>
  <g id="Thin-S" transform="matrix(1 0 0 1 795.119 696)">
   <path d="M 48.9258 7.17773 C 49.9023 7.4707 50.8301 6.93359 51.123 5.85938 L 74.8535 -75.4395 C 75.1465 -76.4648 74.6582 -77.3926 73.6816 -77.7344 C 72.7051 -78.0273 71.7285 -77.4902 71.4355 -76.416 L 47.7539 4.88281 C 47.4609 5.9082 47.9492 6.88477 48.9258 7.17773 Z M 84.0332 -6.64062 L 114.16 -33.8867 C 114.99 -34.668 114.99 -35.9375 114.16 -36.7676 L 84.0332 -63.9648 C 83.2031 -64.6973 82.0801 -64.6484 81.4453 -63.916 C 80.7617 -63.1836 80.8594 -62.0605 81.6406 -61.377 L 110.4 -35.3027 L 81.6406 -9.27734 C 80.8594 -8.59375 80.7617 -7.4707 81.4453 -6.68945 C 82.0801 -5.95703 83.2031 -5.9082 84.0332 -6.64062 Z M 38.5742 -6.5918 C 39.4043 -5.85938 40.5273 -5.9082 41.1621 -6.64062 C 41.8457 -7.37305 41.748 -8.49609 40.9668 -9.17969 L 12.207 -35.2539 L 40.9668 -61.2793 C 41.748 -61.9629 41.8457 -63.0859 41.1621 -63.8672 C 40.5273 -64.5996 39.4043 -64.6484 38.5742 -63.916 L 8.44727 -36.6699 C 7.56836 -35.8887 7.61719 -34.6191 8.44727 -33.7891 Z"/>
  </g>
  <g id="Ultralight-S" transform="matrix(1 0 0 1 499.237 696)">
   <path d="M 48.0957 7.08008 C 48.7305 7.27539 49.3652 6.93359 49.5117 6.25 L 73.584 -76.2207 C 73.7305 -76.8555 73.4375 -77.4414 72.8516 -77.6367 C 72.2168 -77.8809 71.582 -77.5391 71.4355 -76.8555 L 47.3633 5.61523 C 47.2168 6.25 47.5098 6.83594 48.0957 7.08008 Z M 82.1289 -6.78711 L 112.744 -34.4238 C 113.281 -34.9609 113.281 -35.7422 112.744 -36.2305 L 82.1289 -63.916 C 81.5918 -64.3555 80.8594 -64.3555 80.4688 -63.8672 C 80.0781 -63.4277 80.127 -62.6953 80.6152 -62.3047 L 110.352 -35.3516 L 80.6152 -8.39844 C 80.127 -8.00781 80.0781 -7.27539 80.4688 -6.83594 C 80.8594 -6.34766 81.5918 -6.29883 82.1289 -6.78711 Z M 38.8672 -6.68945 C 39.3555 -6.20117 40.0879 -6.25 40.4785 -6.73828 C 40.8691 -7.17773 40.8203 -7.91016 40.3809 -8.30078 L 10.5957 -35.2539 L 40.3809 -62.207 C 40.8203 -62.5977 40.8691 -63.3301 40.4785 -63.7695 C 40.0879 -64.2578 39.3555 -64.3066 38.8672 -63.8184 L 8.20312 -36.1328 C 7.66602 -35.6445 7.66602 -34.8633 8.20312 -34.3262 Z"/>
  </g>
 </g>
</svg>
