<?xml version="1.0" encoding="UTF-8"?>
<!--Generator: Apple Native CoreSVG 123-->
<!DOCTYPE svg
PUBLIC "-//W3C//DTD SVG 1.1//EN"
       "http://www.w3.org/Graphics/SVG/1.1/DTD/svg11.dtd">
<svg version="1.1" xmlns="http://www.w3.org/2000/svg" xmlns:xlink="http://www.w3.org/1999/xlink" width="3300" height="2200">
 <!--glyph: "uni100579.medium", point size: 100.000000, font version: "Version 15.0d7e11", template writer version: "5"-->
 <g id="Notes">
  <rect height="2200" id="artboard" style="fill:white;opacity:1" width="3300" x="0" y="0"/>
  <line id="" style="fill:none;stroke:black;opacity:1;stroke-width:0.5;" x1="263" x2="3036" y1="292" y2="292"/>
  <text style="stroke:none;fill:black;font-family:-apple-system,&quot;SF Pro Display&quot;,&quot;SF Pro Text&quot;,Helvetica,sans-serif;font-weight:bold;" transform="matrix(1 0 0 1 263 322)">Weight/Scale Variations</text>
  <text style="stroke:none;fill:black;font-family:-apple-system,&quot;SF Pro Display&quot;,&quot;SF Pro Text&quot;,Helvetica,sans-serif;text-anchor:middle;" transform="matrix(1 0 0 1 559.711 322)">Ultralight</text>
  <text style="stroke:none;fill:black;font-family:-apple-system,&quot;SF Pro Display&quot;,&quot;SF Pro Text&quot;,Helvetica,sans-serif;text-anchor:middle;" transform="matrix(1 0 0 1 856.422 322)">Thin</text>
  <text style="stroke:none;fill:black;font-family:-apple-system,&quot;SF Pro Display&quot;,&quot;SF Pro Text&quot;,Helvetica,sans-serif;text-anchor:middle;" transform="matrix(1 0 0 1 1153.13 322)">Light</text>
  <text style="stroke:none;fill:black;font-family:-apple-system,&quot;SF Pro Display&quot;,&quot;SF Pro Text&quot;,Helvetica,sans-serif;text-anchor:middle;" transform="matrix(1 0 0 1 1449.84 322)">Regular</text>
  <text style="stroke:none;fill:black;font-family:-apple-system,&quot;SF Pro Display&quot;,&quot;SF Pro Text&quot;,Helvetica,sans-serif;text-anchor:middle;" transform="matrix(1 0 0 1 1746.56 322)">Medium</text>
  <text style="stroke:none;fill:black;font-family:-apple-system,&quot;SF Pro Display&quot;,&quot;SF Pro Text&quot;,Helvetica,sans-serif;text-anchor:middle;" transform="matrix(1 0 0 1 2043.27 322)">Semibold</text>
  <text style="stroke:none;fill:black;font-family:-apple-system,&quot;SF Pro Display&quot;,&quot;SF Pro Text&quot;,Helvetica,sans-serif;text-anchor:middle;" transform="matrix(1 0 0 1 2339.98 322)">Bold</text>
  <text style="stroke:none;fill:black;font-family:-apple-system,&quot;SF Pro Display&quot;,&quot;SF Pro Text&quot;,Helvetica,sans-serif;text-anchor:middle;" transform="matrix(1 0 0 1 2636.69 322)">Heavy</text>
  <text style="stroke:none;fill:black;font-family:-apple-system,&quot;SF Pro Display&quot;,&quot;SF Pro Text&quot;,Helvetica,sans-serif;text-anchor:middle;" transform="matrix(1 0 0 1 2933.4 322)">Black</text>
  <line id="" style="fill:none;stroke:black;opacity:1;stroke-width:0.5;" x1="263" x2="3036" y1="1903" y2="1903"/>
  <g id="" transform="matrix(1 0 0 1 263 1933)">
   <path d="M 9.24805 0.830078 C 13.5547 0.830078 17.1387 -2.74414 17.1387 -7.05078 C 17.1387 -11.3574 13.5449 -14.9316 9.23828 -14.9316 C 4.94141 -14.9316 1.36719 -11.3574 1.36719 -7.05078 C 1.36719 -2.74414 4.95117 0.830078 9.24805 0.830078 Z M 9.24805 -0.654297 C 5.70312 -0.654297 2.87109 -3.49609 2.87109 -7.05078 C 2.87109 -10.6055 5.69336 -13.4473 9.23828 -13.4473 C 12.793 -13.4473 15.6348 -10.6055 15.6445 -7.05078 C 15.6543 -3.49609 12.8027 -0.654297 9.24805 -0.654297 Z M 9.22852 -3.42773 C 9.69727 -3.42773 9.9707 -3.74023 9.9707 -4.25781 L 9.9707 -6.31836 L 12.1973 -6.31836 C 12.6953 -6.31836 13.0371 -6.57227 13.0371 -7.04102 C 13.0371 -7.51953 12.7148 -7.7832 12.1973 -7.7832 L 9.9707 -7.7832 L 9.9707 -10.0098 C 9.9707 -10.5273 9.69727 -10.8496 9.22852 -10.8496 C 8.75977 -10.8496 8.50586 -10.5078 8.50586 -10.0098 L 8.50586 -7.7832 L 6.29883 -7.7832 C 5.78125 -7.7832 5.44922 -7.51953 5.44922 -7.04102 C 5.44922 -6.57227 5.80078 -6.31836 6.29883 -6.31836 L 8.50586 -6.31836 L 8.50586 -4.25781 C 8.50586 -3.75977 8.75977 -3.42773 9.22852 -3.42773 Z"/>
  </g>
  <g id="" transform="matrix(1 0 0 1 281.506 1933)">
   <path d="M 11.709 2.91016 C 17.1582 2.91016 21.6699 -1.60156 21.6699 -7.05078 C 21.6699 -12.4902 17.1484 -17.0117 11.6992 -17.0117 C 6.25977 -17.0117 1.74805 -12.4902 1.74805 -7.05078 C 1.74805 -1.60156 6.26953 2.91016 11.709 2.91016 Z M 11.709 1.25 C 7.09961 1.25 3.41797 -2.44141 3.41797 -7.05078 C 3.41797 -11.6504 7.08984 -15.3516 11.6992 -15.3516 C 16.3086 -15.3516 20 -11.6504 20.0098 -7.05078 C 20.0195 -2.44141 16.3184 1.25 11.709 1.25 Z M 11.6895 -2.41211 C 12.207 -2.41211 12.5195 -2.77344 12.5195 -3.33984 L 12.5195 -6.23047 L 15.5762 -6.23047 C 16.123 -6.23047 16.5039 -6.51367 16.5039 -7.03125 C 16.5039 -7.55859 16.1426 -7.86133 15.5762 -7.86133 L 12.5195 -7.86133 L 12.5195 -10.9277 C 12.5195 -11.5039 12.207 -11.8555 11.6895 -11.8555 C 11.1719 -11.8555 10.8789 -11.4844 10.8789 -10.9277 L 10.8789 -7.86133 L 7.83203 -7.86133 C 7.26562 -7.86133 6.89453 -7.55859 6.89453 -7.03125 C 6.89453 -6.51367 7.28516 -6.23047 7.83203 -6.23047 L 10.8789 -6.23047 L 10.8789 -3.33984 C 10.8789 -2.79297 11.1719 -2.41211 11.6895 -2.41211 Z"/>
  </g>
  <g id="" transform="matrix(1 0 0 1 304.924 1933)">
   <path d="M 14.9707 5.67383 C 21.9336 5.67383 27.6953 -0.078125 27.6953 -7.04102 C 27.6953 -14.0039 21.9238 -19.7559 14.9609 -19.7559 C 8.00781 -19.7559 2.25586 -14.0039 2.25586 -7.04102 C 2.25586 -0.078125 8.01758 5.67383 14.9707 5.67383 Z M 14.9707 3.85742 C 8.93555 3.85742 4.08203 -1.00586 4.08203 -7.04102 C 4.08203 -13.0762 8.92578 -17.9395 14.9609 -17.9395 C 21.0059 -17.9395 25.8594 -13.0762 25.8691 -7.04102 C 25.8789 -1.00586 21.0156 3.85742 14.9707 3.85742 Z M 14.9512 -1.06445 C 15.5176 -1.06445 15.8691 -1.45508 15.8691 -2.06055 L 15.8691 -6.13281 L 20.1074 -6.13281 C 20.6934 -6.13281 21.1133 -6.46484 21.1133 -7.02148 C 21.1133 -7.59766 20.7227 -7.93945 20.1074 -7.93945 L 15.8691 -7.93945 L 15.8691 -12.1875 C 15.8691 -12.8027 15.5176 -13.1934 14.9512 -13.1934 C 14.3848 -13.1934 14.0625 -12.7832 14.0625 -12.1875 L 14.0625 -7.93945 L 9.83398 -7.93945 C 9.21875 -7.93945 8.80859 -7.59766 8.80859 -7.02148 C 8.80859 -6.46484 9.23828 -6.13281 9.83398 -6.13281 L 14.0625 -6.13281 L 14.0625 -2.06055 C 14.0625 -1.47461 14.3848 -1.06445 14.9512 -1.06445 Z"/>
  </g>
  <text style="stroke:none;fill:black;font-family:-apple-system,&quot;SF Pro Display&quot;,&quot;SF Pro Text&quot;,Helvetica,sans-serif;font-weight:bold;" transform="matrix(1 0 0 1 263 1953)">Design Variations</text>
  <text style="stroke:none;fill:black;font-family:-apple-system,&quot;SF Pro Display&quot;,&quot;SF Pro Text&quot;,Helvetica,sans-serif;" transform="matrix(1 0 0 1 263 1971)">Symbols are supported in up to nine weights and three scales.</text>
  <text style="stroke:none;fill:black;font-family:-apple-system,&quot;SF Pro Display&quot;,&quot;SF Pro Text&quot;,Helvetica,sans-serif;" transform="matrix(1 0 0 1 263 1989)">For optimal layout with text and other symbols, vertically align</text>
  <text style="stroke:none;fill:black;font-family:-apple-system,&quot;SF Pro Display&quot;,&quot;SF Pro Text&quot;,Helvetica,sans-serif;" transform="matrix(1 0 0 1 263 2007)">symbols with the adjacent text.</text>
  <rect height="14" id="" style="fill:#00AEEF;stroke:none;opacity:0.4;" width="3" x="776" y="1919"/>
  <g id="" transform="matrix(1 0 0 1 779 1933)">
   <path d="M 10.5273 0 L 12.373 0 L 7.17773 -14.0918 L 5.43945 -14.0918 L 0.244141 0 L 2.08984 0 L 3.50586 -4.0332 L 9.11133 -4.0332 Z M 6.2793 -11.9531 L 6.33789 -11.9531 L 8.59375 -5.52734 L 4.02344 -5.52734 Z"/>
  </g>
  <rect height="14" id="" style="fill:#00AEEF;stroke:none;opacity:0.4;" width="3" x="791.617" y="1919"/>
  <text style="stroke:none;fill:black;font-family:-apple-system,&quot;SF Pro Display&quot;,&quot;SF Pro Text&quot;,Helvetica,sans-serif;font-weight:bold;" transform="matrix(1 0 0 1 776 1953)">Margins</text>
  <text style="stroke:none;fill:black;font-family:-apple-system,&quot;SF Pro Display&quot;,&quot;SF Pro Text&quot;,Helvetica,sans-serif;" transform="matrix(1 0 0 1 776 1971)">Leading and trailing margins on the left and right side of each symbol</text>
  <text style="stroke:none;fill:black;font-family:-apple-system,&quot;SF Pro Display&quot;,&quot;SF Pro Text&quot;,Helvetica,sans-serif;" transform="matrix(1 0 0 1 776 1989)">can be adjusted by modifying the width of the blue rectangles.</text>
  <text style="stroke:none;fill:black;font-family:-apple-system,&quot;SF Pro Display&quot;,&quot;SF Pro Text&quot;,Helvetica,sans-serif;" transform="matrix(1 0 0 1 776 2007)">Modifications are automatically applied proportionally to all</text>
  <text style="stroke:none;fill:black;font-family:-apple-system,&quot;SF Pro Display&quot;,&quot;SF Pro Text&quot;,Helvetica,sans-serif;" transform="matrix(1 0 0 1 776 2025)">scales and weights.</text>
  <g id="" transform="matrix(1 0 0 1 1289 1933)">
   <path d="M 2.83203 3.11523 L 4.375 4.6582 C 5.22461 5.48828 6.19141 5.41992 7.06055 4.46289 L 17.2754 -6.66016 C 17.7051 -6.36719 18.0957 -6.37695 18.5645 -6.47461 L 19.6094 -6.68945 L 20.3027 -5.99609 L 20.2539 -5.47852 C 20.1855 -4.95117 20.3516 -4.53125 20.8496 -4.0332 L 21.6602 -3.22266 C 22.168 -2.71484 22.8223 -2.68555 23.3008 -3.16406 L 26.5527 -6.41602 C 27.0312 -6.89453 27.0117 -7.54883 26.5039 -8.05664 L 25.6836 -8.87695 C 25.1855 -9.375 24.7754 -9.55078 24.2383 -9.47266 L 23.7109 -9.41406 L 23.0566 -10.0781 L 23.3398 -11.2207 C 23.4863 -11.7871 23.3398 -12.2559 22.7148 -12.8613 L 20.3027 -15.2539 C 16.7578 -18.7793 12.2266 -18.6719 9.11133 -15.5371 C 8.69141 -15.1074 8.64258 -14.5215 8.91602 -14.0918 C 9.15039 -13.7207 9.62891 -13.4961 10.2734 -13.6621 C 11.7871 -14.043 13.3008 -13.9258 14.7852 -12.9199 L 14.1602 -11.3379 C 13.9258 -10.752 13.9453 -10.2734 14.1797 -9.83398 L 3.01758 0.439453 C 2.08008 1.30859 1.97266 2.25586 2.83203 3.11523 Z M 10.6738 -15.1465 C 13.3398 -17.1387 16.6504 -16.8262 19.0527 -14.4141 L 21.6797 -11.8066 C 21.9141 -11.5723 21.9434 -11.3867 21.8848 -11.0938 L 21.5039 -9.53125 L 23.0762 -7.95898 L 24.043 -8.04688 C 24.3262 -8.07617 24.4141 -8.05664 24.6387 -7.83203 L 25.2637 -7.20703 L 22.5098 -4.46289 L 21.8848 -5.07812 C 21.6602 -5.30273 21.6406 -5.40039 21.6699 -5.68359 L 21.7578 -6.64062 L 20.1953 -8.20312 L 18.5742 -7.89062 C 18.291 -7.83203 18.1445 -7.83203 17.9102 -8.07617 L 15.7324 -10.2539 C 15.5078 -10.4883 15.4785 -10.625 15.6055 -10.9473 L 16.5527 -13.2227 C 14.9512 -14.7559 12.8418 -15.6055 10.8008 -14.9512 C 10.7129 -14.9219 10.6445 -14.9414 10.6152 -14.9805 C 10.5859 -15.0293 10.5859 -15.0781 10.6738 -15.1465 Z M 4.10156 2.41211 C 3.61328 1.91406 3.78906 1.61133 4.12109 1.30859 L 15.0781 -8.80859 L 16.3086 -7.57812 L 6.15234 3.34961 C 5.84961 3.68164 5.46875 3.7793 5.06836 3.37891 Z"/>
  </g>
  <text style="stroke:none;fill:black;font-family:-apple-system,&quot;SF Pro Display&quot;,&quot;SF Pro Text&quot;,Helvetica,sans-serif;font-weight:bold;" transform="matrix(1 0 0 1 1289 1953)">Exporting</text>
  <text style="stroke:none;fill:black;font-family:-apple-system,&quot;SF Pro Display&quot;,&quot;SF Pro Text&quot;,Helvetica,sans-serif;" transform="matrix(1 0 0 1 1289 1971)">Symbols should be outlined when exporting to ensure the</text>
  <text style="stroke:none;fill:black;font-family:-apple-system,&quot;SF Pro Display&quot;,&quot;SF Pro Text&quot;,Helvetica,sans-serif;" transform="matrix(1 0 0 1 1289 1989)">design is preserved when submitting to Xcode.</text>
  <text id="template-version" style="stroke:none;fill:black;font-family:-apple-system,&quot;SF Pro Display&quot;,&quot;SF Pro Text&quot;,Helvetica,sans-serif;text-anchor:end;" transform="matrix(1 0 0 1 3036 1933)">Template v.1.0</text>
  <text style="stroke:none;fill:black;font-family:-apple-system,&quot;SF Pro Display&quot;,&quot;SF Pro Text&quot;,Helvetica,sans-serif;text-anchor:end;" transform="matrix(1 0 0 1 3036 1951)">Generated from doc.text.magnifyingglass</text>
  <text style="stroke:none;fill:black;font-family:-apple-system,&quot;SF Pro Display&quot;,&quot;SF Pro Text&quot;,Helvetica,sans-serif;text-anchor:end;" transform="matrix(1 0 0 1 3036 1969)">Typeset at 100 points</text>
  <text style="stroke:none;fill:black;font-family:-apple-system,&quot;SF Pro Display&quot;,&quot;SF Pro Text&quot;,Helvetica,sans-serif;" transform="matrix(1 0 0 1 263 726)">Small</text>
  <text style="stroke:none;fill:black;font-family:-apple-system,&quot;SF Pro Display&quot;,&quot;SF Pro Text&quot;,Helvetica,sans-serif;" transform="matrix(1 0 0 1 263 1156)">Medium</text>
  <text style="stroke:none;fill:black;font-family:-apple-system,&quot;SF Pro Display&quot;,&quot;SF Pro Text&quot;,Helvetica,sans-serif;" transform="matrix(1 0 0 1 263 1586)">Large</text>
 </g>
 <g id="Guides">
  <g id="H-reference" style="fill:#27AAE1;stroke:none;" transform="matrix(1 0 0 1 339 696)">
   <path d="M 54.9316 0 L 57.666 0 L 30.5664 -70.459 L 28.0762 -70.459 L 0.976562 0 L 3.66211 0 L 12.9395 -24.4629 L 45.7031 -24.4629 Z M 29.1992 -67.0898 L 29.4434 -67.0898 L 44.8242 -26.709 L 13.8184 -26.709 Z"/>
  </g>
  <line id="Baseline-S" style="fill:none;stroke:#27AAE1;opacity:1;stroke-width:0.577;" x1="263" x2="3036" y1="696" y2="696"/>
  <line id="Capline-S" style="fill:none;stroke:#27AAE1;opacity:1;stroke-width:0.577;" x1="263" x2="3036" y1="625.541" y2="625.541"/>
  <g id="H-reference" style="fill:#27AAE1;stroke:none;" transform="matrix(1 0 0 1 339 1126)">
   <path d="M 54.9316 0 L 57.666 0 L 30.5664 -70.459 L 28.0762 -70.459 L 0.976562 0 L 3.66211 0 L 12.9395 -24.4629 L 45.7031 -24.4629 Z M 29.1992 -67.0898 L 29.4434 -67.0898 L 44.8242 -26.709 L 13.8184 -26.709 Z"/>
  </g>
  <line id="Baseline-M" style="fill:none;stroke:#27AAE1;opacity:1;stroke-width:0.577;" x1="263" x2="3036" y1="1126" y2="1126"/>
  <line id="Capline-M" style="fill:none;stroke:#27AAE1;opacity:1;stroke-width:0.577;" x1="263" x2="3036" y1="1055.54" y2="1055.54"/>
  <g id="H-reference" style="fill:#27AAE1;stroke:none;" transform="matrix(1 0 0 1 339 1556)">
   <path d="M 54.9316 0 L 57.666 0 L 30.5664 -70.459 L 28.0762 -70.459 L 0.976562 0 L 3.66211 0 L 12.9395 -24.4629 L 45.7031 -24.4629 Z M 29.1992 -67.0898 L 29.4434 -67.0898 L 44.8242 -26.709 L 13.8184 -26.709 Z"/>
  </g>
  <line id="Baseline-L" style="fill:none;stroke:#27AAE1;opacity:1;stroke-width:0.577;" x1="263" x2="3036" y1="1556" y2="1556"/>
  <line id="Capline-L" style="fill:none;stroke:#27AAE1;opacity:1;stroke-width:0.577;" x1="263" x2="3036" y1="1485.54" y2="1485.54"/>
  <rect height="119.336" id="left-margin" style="fill:#00AEEF;stroke:none;opacity:0.4;" width="12.4512" x="1392.67" y="1030.79"/>
  <rect height="119.336" id="right-margin" style="fill:#00AEEF;stroke:none;opacity:0.4;" width="11.2305" x="1495.79" y="1030.79"/>
 </g>
 <g id="Symbols">
  <g id="Black-L" transform="matrix(1 0 0 1 2855.28 1556)">
   <path d="M 39.8926 35.2539 L 78.418 35.2539 C 73.1934 29.834 69.6777 22.7539 68.7012 15.0391 L 42.7734 15.0391 C 38.2324 15.0391 36.3281 12.8906 36.3281 8.64258 L 36.3281 -79.0039 C 36.3281 -83.252 38.2324 -85.4004 42.7734 -85.4004 L 104.785 -85.4004 C 109.229 -85.4004 111.23 -83.252 111.23 -79.0039 L 111.23 -27.5391 C 118.994 -26.6602 126.025 -23.1445 131.445 -17.9199 L 131.445 -81.7383 C 131.445 -96.9727 122.852 -105.615 107.666 -105.615 L 39.8926 -105.615 C 24.707 -105.615 16.0645 -96.9727 16.0645 -81.7383 L 16.0645 11.377 C 16.0645 26.6113 24.707 35.2539 39.8926 35.2539 Z M 53.7109 -59.8633 L 93.9453 -59.8633 C 96.4844 -59.8633 98.4375 -61.8652 98.4375 -64.4531 C 98.4375 -66.9434 96.4844 -68.8965 93.9453 -68.8965 L 53.7109 -68.8965 C 51.0742 -68.8965 49.1211 -66.9434 49.1211 -64.4531 C 49.1211 -61.8652 51.0742 -59.8633 53.7109 -59.8633 Z M 53.7109 -39.8438 L 93.9453 -39.8438 C 96.4844 -39.8438 98.4375 -41.8945 98.4375 -44.4336 C 98.4375 -46.9238 96.4844 -48.877 93.9453 -48.877 L 53.7109 -48.877 C 51.0742 -48.877 49.1211 -46.9238 49.1211 -44.4336 C 49.1211 -41.8945 51.0742 -39.8438 53.7109 -39.8438 Z M 105.225 35.2539 C 109.424 35.2539 113.428 34.2285 116.992 32.4707 L 128.174 43.6523 C 129.883 45.2637 131.885 46.0449 134.082 46.0449 C 138.428 46.0449 141.748 42.6758 141.748 38.1348 C 141.748 36.1328 141.064 34.1797 139.453 32.5195 L 128.369 21.4355 C 130.371 17.7246 131.543 13.4766 131.543 8.93555 C 131.543 -5.46875 119.775 -17.334 105.225 -17.334 C 90.8691 -17.334 78.9551 -5.41992 78.9551 8.93555 C 78.9551 23.4375 90.8691 35.2539 105.225 35.2539 Z M 105.225 23.3887 C 97.2168 23.3887 90.7227 17.041 90.7227 8.93555 C 90.7227 1.02539 97.2168 -5.46875 105.225 -5.46875 C 113.184 -5.46875 119.678 1.02539 119.678 8.93555 C 119.678 17.041 113.232 23.3887 105.225 23.3887 Z"/>
  </g>
  <g id="Heavy-L" transform="matrix(1 0 0 1 2559.74 1556)">
   <path d="M 38.7207 34.5215 L 76.8555 34.5215 C 72.168 29.7852 68.8965 23.7305 67.7246 16.9922 L 41.0156 16.9922 C 35.8887 16.9922 33.5938 14.5508 33.5938 9.7168 L 33.5938 -80.0293 C 33.5938 -84.8145 35.8887 -87.3535 41.0156 -87.3535 L 104.053 -87.3535 C 109.082 -87.3535 111.475 -84.8633 111.475 -80.0293 L 111.475 -26.8066 C 118.164 -25.6348 124.268 -22.3633 128.955 -17.7246 L 128.955 -82.1289 C 128.955 -96.7773 120.898 -104.883 106.348 -104.883 L 38.7207 -104.883 C 24.1699 -104.883 16.0645 -96.7285 16.0645 -82.1289 L 16.0645 11.7676 C 16.0645 26.416 24.1699 34.5215 38.7207 34.5215 Z M 51.4648 -61.8652 L 93.7012 -61.8652 C 96.1426 -61.8652 97.9492 -63.7207 97.9492 -66.1621 C 97.9492 -68.5059 96.1426 -70.3125 93.7012 -70.3125 L 51.4648 -70.3125 C 48.9258 -70.3125 47.1191 -68.5059 47.1191 -66.1621 C 47.1191 -63.7207 48.9258 -61.8652 51.4648 -61.8652 Z M 51.4648 -41.3574 L 93.7012 -41.3574 C 96.1426 -41.3574 97.9492 -43.2617 97.9492 -45.6543 C 97.9492 -47.998 96.1426 -49.8535 93.7012 -49.8535 L 51.4648 -49.8535 C 48.9258 -49.8535 47.1191 -47.998 47.1191 -45.6543 C 47.1191 -43.2617 48.9258 -41.3574 51.4648 -41.3574 Z M 102.49 34.5215 C 107.08 34.5215 111.377 33.3496 115.137 31.2988 L 127.051 43.2129 C 128.613 44.7754 130.469 45.459 132.471 45.459 C 136.426 45.459 139.404 42.4316 139.404 38.3301 C 139.404 36.4746 138.77 34.7168 137.305 33.252 L 125.391 21.3379 C 127.686 17.4316 129.004 12.8418 129.004 8.00781 C 129.004 -6.54297 117.139 -18.5059 102.49 -18.5059 C 87.9883 -18.5059 76.0254 -6.49414 76.0254 8.00781 C 76.0254 22.6074 87.9883 34.5215 102.49 34.5215 Z M 102.49 23.6328 C 93.8477 23.6328 86.8164 16.6992 86.8164 8.00781 C 86.8164 -0.585938 93.8477 -7.61719 102.49 -7.61719 C 111.084 -7.61719 118.115 -0.585938 118.115 8.00781 C 118.115 16.6992 111.133 23.6328 102.49 23.6328 Z"/>
  </g>
  <g id="Bold-L" transform="matrix(1 0 0 1 2264.34 1556)">
   <path d="M 37.4023 33.6914 L 75.0977 33.6914 C 71.0449 29.7363 68.0176 24.7559 66.6016 19.2383 L 39.0625 19.2383 C 33.3008 19.2383 30.5176 16.3574 30.5176 10.8398 L 30.5176 -81.1523 C 30.5176 -86.5723 33.3008 -89.5996 39.0625 -89.5996 L 103.223 -89.5996 C 108.838 -89.5996 111.768 -86.6699 111.768 -81.1523 L 111.768 -25.9277 C 117.285 -24.5117 122.266 -21.5332 126.172 -17.4805 L 126.172 -82.5684 C 126.172 -96.5332 118.701 -104.053 104.883 -104.053 L 37.4023 -104.053 C 23.584 -104.053 16.0645 -96.4844 16.0645 -82.5684 L 16.0645 12.2559 C 16.0645 26.1719 23.5352 33.6914 37.4023 33.6914 Z M 48.9258 -64.0625 L 93.457 -64.0625 C 95.7031 -64.0625 97.4121 -65.8203 97.4121 -68.0664 C 97.4121 -70.2637 95.7031 -71.9238 93.457 -71.9238 L 48.9258 -71.9238 C 46.582 -71.9238 44.873 -70.2637 44.873 -68.0664 C 44.873 -65.8203 46.582 -64.0625 48.9258 -64.0625 Z M 48.9258 -43.0176 L 93.457 -43.0176 C 95.7031 -43.0176 97.4121 -44.7754 97.4121 -47.0215 C 97.4121 -49.2188 95.7031 -50.9277 93.457 -50.9277 L 48.9258 -50.9277 C 46.582 -50.9277 44.873 -49.2188 44.873 -47.0215 C 44.873 -44.7754 46.582 -43.0176 48.9258 -43.0176 Z M 99.4629 33.6914 C 104.395 33.6914 109.033 32.3242 113.037 29.9805 L 125.781 42.7246 C 127.246 44.1895 128.906 44.8242 130.713 44.8242 C 134.18 44.8242 136.816 42.1387 136.816 38.5254 C 136.816 36.8652 136.133 35.3027 134.863 34.0332 L 122.07 21.2402 C 124.707 17.0898 126.221 12.207 126.221 6.93359 C 126.221 -7.8125 114.258 -19.8242 99.4629 -19.8242 C 84.8145 -19.8242 72.7051 -7.71484 72.7051 6.93359 C 72.7051 21.6797 84.8145 33.6914 99.4629 33.6914 Z M 99.4629 23.877 C 90.1367 23.877 82.4707 16.3086 82.4707 6.93359 C 82.4707 -2.34375 90.1367 -9.96094 99.4629 -9.96094 C 108.74 -9.96094 116.406 -2.34375 116.406 6.93359 C 116.406 16.3086 108.789 23.877 99.4629 23.877 Z"/>
  </g>
  <g id="Semibold-L" transform="matrix(1 0 0 1 1968.54 1556)">
   <path d="M 36.4746 33.1055 L 73.9258 33.1055 C 70.2637 29.7363 67.4316 25.4883 65.8691 20.8008 L 37.6953 20.8008 C 31.543 20.8008 28.418 17.627 28.418 11.6699 L 28.418 -81.9336 C 28.418 -87.793 31.4941 -91.1133 37.6953 -91.1133 L 102.637 -91.1133 C 108.691 -91.1133 111.914 -87.8906 111.914 -81.9336 L 111.914 -25.3418 C 116.65 -23.7793 120.898 -20.9473 124.268 -17.334 L 124.268 -82.9102 C 124.268 -96.3867 117.236 -103.467 103.857 -103.467 L 36.4746 -103.467 C 23.1934 -103.467 16.0645 -96.3379 16.0645 -82.9102 L 16.0645 12.5488 C 16.0645 26.0254 23.1445 33.1055 36.4746 33.1055 Z M 47.168 -65.5762 L 93.2617 -65.5762 C 95.4102 -65.5762 97.0215 -67.2363 97.0215 -69.3848 C 97.0215 -71.4355 95.4102 -73.0469 93.2617 -73.0469 L 47.168 -73.0469 C 44.9707 -73.0469 43.3105 -71.4355 43.3105 -69.3848 C 43.3105 -67.2363 44.9707 -65.5762 47.168 -65.5762 Z M 47.168 -44.1406 L 93.2617 -44.1406 C 95.4102 -44.1406 97.0215 -45.8496 97.0215 -47.9492 C 97.0215 -50.0488 95.4102 -51.6602 93.2617 -51.6602 L 47.168 -51.6602 C 44.9707 -51.6602 43.3105 -50.0488 43.3105 -47.9492 C 43.3105 -45.8496 44.9707 -44.1406 47.168 -44.1406 Z M 97.4121 33.1055 C 102.588 33.1055 107.471 31.6406 111.572 29.0527 L 124.902 42.3828 C 126.318 43.7988 127.783 44.3848 129.492 44.3848 C 132.617 44.3848 134.961 41.9434 134.961 38.623 C 134.961 37.1582 134.326 35.6934 133.154 34.5215 L 119.775 21.1426 C 122.607 16.8457 124.316 11.7188 124.316 6.20117 C 124.316 -8.64258 112.207 -20.752 97.4121 -20.752 C 82.6172 -20.752 70.459 -8.54492 70.459 6.20117 C 70.459 21.0449 82.6172 33.1055 97.4121 33.1055 Z M 97.4121 24.0723 C 87.5488 24.0723 79.4922 16.0645 79.4922 6.20117 C 79.4922 -3.56445 87.5488 -11.6211 97.4121 -11.6211 C 107.129 -11.6211 115.186 -3.56445 115.186 6.20117 C 115.186 16.0645 107.178 24.0723 97.4121 24.0723 Z"/>
  </g>
  <g id="Medium-L" transform="matrix(1 0 0 1 1672.51 1556)">
   <path d="M 35.791 32.666 L 72.998 32.666 C 69.6777 29.7363 66.9922 26.0254 65.2832 21.9727 L 36.6699 21.9727 C 30.1758 21.9727 26.8066 18.6035 26.8066 12.2559 L 26.8066 -82.5195 C 26.8066 -88.7207 30.127 -92.2852 36.6699 -92.2852 L 102.197 -92.2852 C 108.594 -92.2852 112.061 -88.8672 112.061 -82.5195 L 112.061 -24.9023 C 116.162 -23.1934 119.824 -20.5078 122.803 -17.1875 L 122.803 -83.1055 C 122.803 -96.2402 116.064 -103.027 103.125 -103.027 L 35.791 -103.027 C 22.8516 -103.027 16.0645 -96.1914 16.0645 -83.1055 L 16.0645 12.793 C 16.0645 25.9277 22.8027 32.666 35.791 32.666 Z M 45.8496 -66.6992 L 93.1152 -66.6992 C 95.2148 -66.6992 96.7285 -68.3105 96.7285 -70.3613 C 96.7285 -72.3633 95.2148 -73.877 93.1152 -73.877 L 45.8496 -73.877 C 43.7012 -73.877 42.1387 -72.3633 42.1387 -70.3613 C 42.1387 -68.3105 43.7012 -66.6992 45.8496 -66.6992 Z M 45.8496 -45.0195 L 93.1152 -45.0195 C 95.2148 -45.0195 96.7285 -46.6309 96.7285 -48.6816 C 96.7285 -50.6348 95.2148 -52.1973 93.1152 -52.1973 L 45.8496 -52.1973 C 43.7012 -52.1973 42.1387 -50.6348 42.1387 -48.6816 C 42.1387 -46.6309 43.7012 -45.0195 45.8496 -45.0195 Z M 95.8008 32.666 C 101.221 32.666 106.25 31.1035 110.449 28.3691 L 124.219 42.1387 C 125.586 43.457 126.953 44.043 128.564 44.043 C 131.445 44.043 133.594 41.8457 133.594 38.7207 C 133.594 37.3535 132.959 36.0352 131.885 34.9609 L 118.018 21.0449 C 121.045 16.6504 122.852 11.377 122.852 5.66406 C 122.852 -9.27734 110.693 -21.4355 95.8008 -21.4355 C 80.957 -21.4355 68.7012 -9.17969 68.7012 5.66406 C 68.7012 20.5566 80.957 32.666 95.8008 32.666 Z M 95.8008 24.1699 C 85.5469 24.1699 77.1973 15.8691 77.1973 5.66406 C 77.1973 -4.49219 85.5469 -12.8906 95.8008 -12.8906 C 105.908 -12.8906 114.307 -4.49219 114.307 5.66406 C 114.307 15.8691 105.957 24.1699 95.8008 24.1699 Z"/>
  </g>
  <g id="Regular-L" transform="matrix(1 0 0 1 1376.7 1556)">
   <path d="M 34.9121 32.1289 L 71.8262 32.1289 C 68.8965 29.6875 66.4062 26.7578 64.502 23.4863 L 35.3516 23.4863 C 28.418 23.4863 24.7559 19.873 24.7559 13.0371 L 24.7559 -83.252 C 24.7559 -89.9414 28.3691 -93.7988 35.3516 -93.7988 L 101.66 -93.7988 C 108.447 -93.7988 112.256 -90.0879 112.256 -83.252 L 112.256 -24.3164 C 115.576 -22.4121 118.506 -19.9219 120.898 -17.041 L 120.898 -83.4473 C 120.898 -96.0938 114.6 -102.441 102.1 -102.441 L 34.9121 -102.441 C 22.4609 -102.441 16.0645 -96.0449 16.0645 -83.4473 L 16.0645 13.1348 C 16.0645 25.7324 22.4121 32.1289 34.9121 32.1289 Z M 44.0918 -68.2129 L 92.9688 -68.2129 C 94.9219 -68.2129 96.3867 -69.7266 96.3867 -71.6797 C 96.3867 -73.5352 94.9219 -75 92.9688 -75 L 44.0918 -75 C 42.0898 -75 40.625 -73.5352 40.625 -71.6797 C 40.625 -69.7266 42.0898 -68.2129 44.0918 -68.2129 Z M 44.0918 -46.1426 L 92.9688 -46.1426 C 94.9219 -46.1426 96.3867 -47.6562 96.3867 -49.6094 C 96.3867 -51.4648 94.9219 -52.9297 92.9688 -52.9297 L 44.0918 -52.9297 C 42.0898 -52.9297 40.625 -51.4648 40.625 -49.6094 C 40.625 -47.6562 42.0898 -46.1426 44.0918 -46.1426 Z M 93.75 32.1289 C 99.3652 32.1289 104.639 30.3711 108.984 27.4414 L 123.34 41.7969 C 124.658 43.0664 125.879 43.6035 127.344 43.6035 C 129.932 43.6035 131.836 41.6504 131.836 38.8672 C 131.836 37.6465 131.201 36.4258 130.225 35.498 L 115.723 20.8984 C 118.994 16.4551 120.898 10.8887 120.898 4.93164 C 120.898 -10.1562 108.74 -22.3145 93.75 -22.3145 C 78.7598 -22.3145 66.4551 -10.0098 66.4551 4.93164 C 66.4551 19.9219 78.7598 32.1289 93.75 32.1289 Z M 93.75 24.3652 C 83.0078 24.3652 74.2188 15.625 74.2188 4.93164 C 74.2188 -5.71289 83.0078 -14.502 93.75 -14.502 C 104.346 -14.502 113.086 -5.71289 113.086 4.93164 C 113.086 15.625 104.395 24.3652 93.75 24.3652 Z"/>
  </g>
  <g id="Light-L" transform="matrix(1 0 0 1 1080.84 1556)">
   <path d="M 33.9355 31.7871 L 74.1211 31.7871 C 71.7773 29.9316 69.7266 27.6855 68.1152 25.1953 L 34.2773 25.1953 C 26.6602 25.1953 22.7051 21.2402 22.7051 13.7207 L 22.7051 -83.9355 C 22.7051 -91.2598 26.6602 -95.459 34.2773 -95.459 L 101.172 -95.459 C 108.691 -95.459 112.744 -91.4551 112.744 -83.9355 L 112.744 -19.4824 C 115.234 -17.8711 117.48 -15.8203 119.385 -13.4766 L 119.385 -84.082 C 119.385 -95.9961 113.281 -102.051 101.514 -102.051 L 33.9355 -102.051 C 22.2656 -102.051 16.0645 -95.9473 16.0645 -84.082 L 16.0645 13.8184 C 16.0645 25.6836 22.168 31.7871 33.9355 31.7871 Z M 42.5781 -70.0195 L 92.9199 -70.0195 C 94.4824 -70.0195 95.6543 -71.2402 95.6543 -72.8027 C 95.6543 -74.3164 94.4824 -75.4883 92.9199 -75.4883 L 42.5781 -75.4883 C 40.9668 -75.4883 39.7949 -74.3164 39.7949 -72.8027 C 39.7949 -71.2402 40.9668 -70.0195 42.5781 -70.0195 Z M 42.5781 -47.8516 L 92.9199 -47.8516 C 94.4824 -47.8516 95.6543 -49.0723 95.6543 -50.6348 C 95.6543 -52.0996 94.4824 -53.3203 92.9199 -53.3203 L 42.5781 -53.3203 C 40.9668 -53.3203 39.7949 -52.0996 39.7949 -50.6348 C 39.7949 -49.0723 40.9668 -47.8516 42.5781 -47.8516 Z M 93.7012 31.7871 C 99.3164 31.7871 104.492 29.9805 108.691 26.9531 L 123.291 41.6016 C 124.365 42.627 125.293 43.0664 126.514 43.0664 C 128.613 43.0664 130.078 41.5039 130.078 39.3555 C 130.078 38.2812 129.59 37.4023 128.76 36.5723 L 114.014 21.7773 C 117.383 17.4316 119.385 12.0117 119.385 6.15234 C 119.385 -8.05664 107.861 -19.5801 93.7012 -19.5801 C 79.5898 -19.5801 67.9688 -7.95898 67.9688 6.15234 C 67.9688 20.2637 79.5898 31.7871 93.7012 31.7871 Z M 93.7012 25.7324 C 82.9102 25.7324 74.0723 16.9434 74.0723 6.15234 C 74.0723 -4.58984 82.9102 -13.4766 93.7012 -13.4766 C 104.443 -13.4766 113.281 -4.58984 113.281 6.15234 C 113.281 16.9434 104.492 25.7324 93.7012 25.7324 Z"/>
  </g>
  <g id="Thin-L" transform="matrix(1 0 0 1 785.28 1556)">
   <path d="M 32.666 31.3477 L 77.1973 31.3477 C 75.5859 30.2246 74.1211 28.9062 72.8516 27.4414 L 32.8613 27.4414 C 24.4141 27.4414 20.0195 23.0469 20.0195 14.5996 L 20.0195 -84.8145 C 20.0195 -92.9688 24.4141 -97.6562 32.8613 -97.6562 L 100.537 -97.6562 C 108.984 -97.6562 113.379 -93.2617 113.379 -84.8145 L 113.379 -13.1348 C 114.844 -11.8164 116.162 -10.3516 117.334 -8.74023 L 117.334 -84.9609 C 117.334 -95.8496 111.572 -101.562 100.732 -101.562 L 32.666 -101.562 C 21.9727 -101.562 16.0645 -95.8496 16.0645 -84.9609 L 16.0645 14.7461 C 16.0645 25.6348 21.8262 31.3477 32.666 31.3477 Z M 40.5762 -72.4121 L 92.8223 -72.4121 C 93.8965 -72.4121 94.7266 -73.2422 94.7266 -74.2676 C 94.7266 -75.293 93.8965 -76.123 92.8223 -76.123 L 40.5762 -76.123 C 39.502 -76.123 38.6719 -75.293 38.6719 -74.2676 C 38.6719 -73.2422 39.502 -72.4121 40.5762 -72.4121 Z M 40.5762 -50.0977 L 92.8223 -50.0977 C 93.8965 -50.0977 94.7266 -50.9277 94.7266 -51.9531 C 94.7266 -52.9785 93.8965 -53.8086 92.8223 -53.8086 L 40.5762 -53.8086 C 39.502 -53.8086 38.6719 -52.9785 38.6719 -51.9531 C 38.6719 -50.9277 39.502 -50.0977 40.5762 -50.0977 Z M 93.7012 31.3477 C 99.1699 31.3477 104.248 29.4434 108.301 26.2695 L 123.242 41.3086 C 123.975 41.9922 124.512 42.3828 125.439 42.3828 C 126.904 42.3828 127.832 41.3574 127.832 39.9902 C 127.832 39.1113 127.49 38.623 126.855 38.0371 L 111.768 22.9004 C 115.234 18.7988 117.334 13.4766 117.334 7.71484 C 117.334 -5.27344 106.689 -15.9668 93.7012 -15.9668 C 80.7129 -15.9668 70.0195 -5.27344 70.0195 7.71484 C 70.0195 20.752 80.7129 31.3477 93.7012 31.3477 Z M 93.7012 27.5391 C 82.7637 27.5391 73.8281 18.6523 73.8281 7.71484 C 73.8281 -3.17383 82.7637 -12.1582 93.7012 -12.1582 C 104.59 -12.1582 113.477 -3.17383 113.477 7.71484 C 113.477 18.6523 104.59 27.5391 93.7012 27.5391 Z"/>
  </g>
  <g id="Ultralight-L" transform="matrix(1 0 0 1 489.13 1556)">
   <path d="M 32.0312 31.1523 L 78.7598 31.1523 C 77.5391 30.3711 76.3672 29.4922 75.2441 28.5645 L 32.1289 28.5645 C 23.2422 28.5645 18.6523 23.9746 18.6523 15.0391 L 18.6523 -85.2539 C 18.6523 -93.8477 23.2422 -98.7793 32.1289 -98.7793 L 100.195 -98.7793 C 109.131 -98.7793 113.721 -94.1895 113.721 -85.2539 L 113.721 -9.86328 C 114.648 -8.74023 115.479 -7.56836 116.26 -6.34766 L 116.26 -85.4492 C 116.26 -95.8008 110.693 -101.318 100.342 -101.318 L 32.0312 -101.318 C 21.7773 -101.318 16.0645 -95.8008 16.0645 -85.4492 L 16.0645 15.2344 C 16.0645 25.5859 21.6309 31.1523 32.0312 31.1523 Z M 39.5508 -73.6816 L 92.7734 -73.6816 C 93.6523 -73.6816 94.2871 -74.2676 94.2871 -75.0488 C 94.2871 -75.8301 93.6523 -76.4648 92.7734 -76.4648 L 39.5508 -76.4648 C 38.7207 -76.4648 38.0859 -75.8301 38.0859 -75.0488 C 38.0859 -74.2676 38.7207 -73.6816 39.5508 -73.6816 Z M 39.5508 -51.2695 L 92.7734 -51.2695 C 93.6523 -51.2695 94.2871 -51.9043 94.2871 -52.6367 C 94.2871 -53.418 93.6523 -54.0527 92.7734 -54.0527 L 39.5508 -54.0527 C 38.7207 -54.0527 38.0859 -53.418 38.0859 -52.6367 C 38.0859 -51.9043 38.7207 -51.2695 39.5508 -51.2695 Z M 93.7012 31.1523 C 99.1211 31.1523 104.15 29.1992 108.057 25.9277 L 123.193 41.1133 C 123.73 41.6992 124.121 41.9922 124.854 41.9922 C 125.977 41.9922 126.66 41.2598 126.66 40.332 C 126.66 39.5508 126.367 39.2578 125.879 38.7695 L 110.645 23.4375 C 114.111 19.4336 116.26 14.2578 116.26 8.54492 C 116.26 -3.85742 106.104 -14.1113 93.7012 -14.1113 C 81.25 -14.1113 71.0449 -3.85742 71.0449 8.54492 C 71.0449 20.9961 81.25 31.1523 93.7012 31.1523 Z M 93.7012 28.4668 C 82.7148 28.4668 73.6816 19.5312 73.6816 8.54492 C 73.6816 -2.44141 82.7148 -11.4746 93.7012 -11.4746 C 104.639 -11.4746 113.623 -2.44141 113.623 8.54492 C 113.623 19.5312 104.639 28.4668 93.7012 28.4668 Z"/>
  </g>
  <g id="Black-M" transform="matrix(1 0 0 1 2871.73 1126)">
   <path d="M 31.9824 20.2148 L 64.1113 20.2148 C 59.6191 15.332 56.7871 8.93555 56.4941 1.9043 L 34.9121 1.9043 C 31.8359 1.9043 30.7617 0.585938 30.7617 -2.24609 L 30.7617 -68.1641 C 30.7617 -70.9961 31.8359 -72.3145 34.9121 -72.3145 L 81.9336 -72.3145 C 85.0586 -72.3145 86.1328 -70.9961 86.1328 -68.1641 L 86.1328 -27.7344 C 93.1152 -27.4902 99.5117 -24.6582 104.395 -20.2148 L 104.395 -71.0938 C 104.395 -83.3496 97.1191 -90.625 84.8633 -90.625 L 31.9824 -90.625 C 19.7266 -90.625 12.4512 -83.3496 12.4512 -71.0938 L 12.4512 0.683594 C 12.4512 12.9395 19.7266 20.2148 31.9824 20.2148 Z M 43.8965 -52.6367 L 73.0469 -52.6367 C 75.0488 -52.6367 76.5625 -54.1992 76.5625 -56.2012 C 76.5625 -58.1055 75.0488 -59.6191 73.0469 -59.6191 L 43.8965 -59.6191 C 41.7969 -59.6191 40.332 -58.1055 40.332 -56.2012 C 40.332 -54.1992 41.7969 -52.6367 43.8965 -52.6367 Z M 43.8965 -37.7441 L 73.0469 -37.7441 C 75.0488 -37.7441 76.5625 -39.3066 76.5625 -41.2598 C 76.5625 -43.2129 75.0488 -44.7266 73.0469 -44.7266 L 43.8965 -44.7266 C 41.7969 -44.7266 40.332 -43.2129 40.332 -41.2598 C 40.332 -39.3066 41.7969 -37.7441 43.8965 -37.7441 Z M 85.2051 20.2148 C 87.9395 20.2148 90.625 19.6289 92.9688 18.5547 L 100.83 26.3672 C 102.148 27.5879 103.857 28.2227 105.615 28.2227 C 109.277 28.2227 112.109 25.3906 112.109 21.6309 C 112.109 19.9707 111.621 18.3105 110.254 16.9434 L 102.588 9.27734 C 103.809 6.73828 104.492 3.90625 104.492 0.927734 C 104.492 -9.57031 95.8496 -18.3105 85.2051 -18.3105 C 74.707 -18.3105 65.9668 -9.57031 65.9668 0.927734 C 65.9668 11.5234 74.707 20.2148 85.2051 20.2148 Z M 85.2051 10.6445 C 79.834 10.6445 75.4395 6.39648 75.4395 0.927734 C 75.4395 -4.44336 79.834 -8.74023 85.2051 -8.74023 C 90.625 -8.74023 94.9219 -4.44336 94.9219 0.927734 C 94.9219 6.39648 90.625 10.6445 85.2051 10.6445 Z"/>
  </g>
  <g id="Heavy-M" transform="matrix(1 0 0 1 2576.07 1126)">
   <path d="M 30.957 19.4824 L 61.8164 19.4824 C 57.7637 15.2344 55.0781 9.7168 54.4922 3.66211 L 33.3008 3.66211 C 29.7363 3.66211 28.2715 2.00195 28.2715 -1.26953 L 28.2715 -69.0918 C 28.2715 -72.3633 29.7363 -74.0723 33.3008 -74.0723 L 81.25 -74.0723 C 84.7656 -74.0723 86.2793 -72.4121 86.2793 -69.0918 L 86.2793 -28.1738 C 92.334 -27.5879 97.8516 -24.9023 102.1 -20.8984 L 102.1 -71.3379 C 102.1 -83.1055 95.3613 -89.8926 83.5938 -89.8926 L 30.957 -89.8926 C 19.2383 -89.8926 12.4512 -83.1055 12.4512 -71.3379 L 12.4512 0.976562 C 12.4512 12.7441 19.2383 19.4824 30.957 19.4824 Z M 41.7969 -54.2969 L 72.8516 -54.2969 C 74.7559 -54.2969 76.2207 -55.8105 76.2207 -57.7637 C 76.2207 -59.6191 74.7559 -61.084 72.8516 -61.084 L 41.7969 -61.084 C 39.7949 -61.084 38.3301 -59.6191 38.3301 -57.7637 C 38.3301 -55.8105 39.7949 -54.2969 41.7969 -54.2969 Z M 41.7969 -38.916 L 72.8516 -38.916 C 74.7559 -38.916 76.2207 -40.4297 76.2207 -42.334 C 76.2207 -44.1895 74.7559 -45.6543 72.8516 -45.6543 L 41.7969 -45.6543 C 39.7949 -45.6543 38.3301 -44.1895 38.3301 -42.334 C 38.3301 -40.4297 39.7949 -38.916 41.7969 -38.916 Z M 82.2266 19.4824 C 85.4004 19.4824 88.3789 18.75 91.0645 17.4316 L 99.6094 25.9277 C 100.879 27.1484 102.441 27.7344 104.053 27.7344 C 107.422 27.7344 110.01 25.1465 110.01 21.7285 C 110.01 20.166 109.473 18.6523 108.252 17.4316 L 99.8047 8.93555 C 101.27 6.15234 102.148 2.97852 102.148 -0.439453 C 102.148 -11.3281 93.2129 -20.3125 82.2266 -20.3125 C 71.3867 -20.3125 62.3535 -11.2793 62.3535 -0.439453 C 62.3535 10.5469 71.3867 19.4824 82.2266 19.4824 Z M 82.2266 10.5469 C 76.1719 10.5469 71.2402 5.71289 71.2402 -0.439453 C 71.2402 -6.44531 76.1719 -11.3281 82.2266 -11.3281 C 88.2812 -11.3281 93.1641 -6.44531 93.1641 -0.439453 C 93.1641 5.71289 88.2812 10.5469 82.2266 10.5469 Z"/>
  </g>
  <g id="Bold-M" transform="matrix(1 0 0 1 2280.55 1126)">
   <path d="M 29.7852 18.7012 L 59.2285 18.7012 C 55.7129 15.1367 53.1738 10.5957 52.2461 5.61523 L 31.4453 5.61523 C 27.3926 5.61523 25.5371 3.61328 25.5371 -0.244141 L 25.5371 -70.1172 C 25.5371 -73.9258 27.3926 -75.9766 31.4453 -75.9766 L 80.5176 -75.9766 C 84.4727 -75.9766 86.4258 -73.9746 86.4258 -70.1172 L 86.4258 -28.6133 C 91.4551 -27.6855 95.9473 -25.1953 99.5117 -21.6797 L 99.5117 -71.6309 C 99.5117 -82.8613 93.3594 -89.0625 82.1777 -89.0625 L 29.7852 -89.0625 C 18.6523 -89.0625 12.4512 -82.8613 12.4512 -71.6309 L 12.4512 1.26953 C 12.4512 12.5 18.6035 18.7012 29.7852 18.7012 Z M 39.4531 -56.2012 L 72.5586 -56.2012 C 74.4141 -56.2012 75.8301 -57.666 75.8301 -59.5215 C 75.8301 -61.2793 74.4141 -62.6953 72.5586 -62.6953 L 39.4531 -62.6953 C 37.5488 -62.6953 36.1328 -61.2793 36.1328 -59.5215 C 36.1328 -57.666 37.5488 -56.2012 39.4531 -56.2012 Z M 39.4531 -40.2344 L 72.5586 -40.2344 C 74.4141 -40.2344 75.8301 -41.6992 75.8301 -43.5547 C 75.8301 -45.3125 74.4141 -46.7285 72.5586 -46.7285 L 39.4531 -46.7285 C 37.5488 -46.7285 36.1328 -45.3125 36.1328 -43.5547 C 36.1328 -41.6992 37.5488 -40.2344 39.4531 -40.2344 Z M 78.9062 18.7012 C 82.5195 18.7012 85.8887 17.7734 88.8672 16.1133 L 98.2422 25.4883 C 99.4629 26.6602 100.83 27.1973 102.393 27.1973 C 105.371 27.1973 107.617 24.9023 107.617 21.7773 C 107.617 20.4102 107.129 19.043 106.006 17.9199 L 96.6309 8.59375 C 98.4863 5.51758 99.5117 1.9043 99.5117 -1.95312 C 99.5117 -13.2812 90.2832 -22.5586 78.9062 -22.5586 C 67.627 -22.5586 58.3008 -13.2324 58.3008 -1.95312 C 58.3008 9.42383 67.627 18.7012 78.9062 18.7012 Z M 78.9062 10.4004 C 72.1191 10.4004 66.5527 4.93164 66.5527 -1.95312 C 66.5527 -8.69141 72.1191 -14.2578 78.9062 -14.2578 C 85.6934 -14.2578 91.2598 -8.69141 91.2598 -1.95312 C 91.2598 4.93164 85.7422 10.4004 78.9062 10.4004 Z"/>
  </g>
  <g id="Semibold-M" transform="matrix(1 0 0 1 1984.67 1126)">
   <path d="M 29.0039 18.1152 L 57.4707 18.1152 C 54.248 15.0879 51.8555 11.2305 50.6836 6.93359 L 30.2246 6.93359 C 25.7812 6.93359 23.6328 4.73633 23.6328 0.537109 L 23.6328 -70.8496 C 23.6328 -75 25.7812 -77.3438 30.2246 -77.3438 L 79.9805 -77.3438 C 84.2773 -77.3438 86.5234 -75.0488 86.5234 -70.8496 L 86.5234 -28.9551 C 90.8203 -27.7832 94.6777 -25.3906 97.7051 -22.2168 L 97.7051 -71.8262 C 97.7051 -82.7148 91.9434 -88.5254 81.2012 -88.5254 L 29.0039 -88.5254 C 18.2617 -88.5254 12.4512 -82.666 12.4512 -71.8262 L 12.4512 1.46484 C 12.4512 12.3535 18.2129 18.1152 29.0039 18.1152 Z M 37.8418 -57.5195 L 72.3633 -57.5195 C 74.2188 -57.5195 75.5371 -58.9355 75.5371 -60.6934 C 75.5371 -62.4512 74.2188 -63.8184 72.3633 -63.8184 L 37.8418 -63.8184 C 35.9863 -63.8184 34.6191 -62.4512 34.6191 -60.6934 C 34.6191 -58.9355 35.9863 -57.5195 37.8418 -57.5195 Z M 37.8418 -41.1621 L 72.3633 -41.1621 C 74.2188 -41.1621 75.5371 -42.5781 75.5371 -44.3359 C 75.5371 -46.0938 74.2188 -47.4609 72.3633 -47.4609 L 37.8418 -47.4609 C 35.9863 -47.4609 34.6191 -46.0938 34.6191 -44.3359 C 34.6191 -42.5781 35.9863 -41.1621 37.8418 -41.1621 Z M 76.6602 18.1152 C 80.5176 18.1152 84.1797 17.041 87.3535 15.1855 L 97.2656 25.1465 C 98.4863 26.3184 99.7559 26.8066 101.221 26.8066 C 103.955 26.8066 106.006 24.707 106.006 21.8262 C 106.006 20.5566 105.469 19.3359 104.443 18.3105 L 94.4824 8.30078 C 96.5332 5.0293 97.7539 1.17188 97.7539 -2.97852 C 97.7539 -14.5996 88.2812 -24.0723 76.6602 -24.0723 C 65.0391 -24.0723 55.5176 -14.5508 55.5176 -2.97852 C 55.5176 8.64258 65.0391 18.1152 76.6602 18.1152 Z M 76.6602 10.3027 C 69.2871 10.3027 63.3301 4.39453 63.3301 -2.97852 C 63.3301 -10.2539 69.2871 -16.2598 76.6602 -16.2598 C 83.9355 -16.2598 89.8926 -10.2539 89.8926 -2.97852 C 89.8926 4.39453 83.9355 10.3027 76.6602 10.3027 Z"/>
  </g>
  <g id="Medium-M" transform="matrix(1 0 0 1 1688.57 1126)">
   <path d="M 28.3691 17.7246 L 56.1035 17.7246 C 53.1738 15.0391 50.8789 11.6699 49.5117 7.95898 L 29.248 7.95898 C 24.5605 7.95898 22.2168 5.56641 22.2168 1.07422 L 22.2168 -71.3867 C 22.2168 -75.8301 24.5605 -78.3691 29.248 -78.3691 L 79.5898 -78.3691 C 84.1309 -78.3691 86.6211 -75.8789 86.6211 -71.3867 L 86.6211 -29.1992 C 90.332 -27.832 93.7012 -25.5371 96.3379 -22.6074 L 96.3379 -72.0215 C 96.3379 -82.6172 90.918 -88.0859 80.4199 -88.0859 L 28.3691 -88.0859 C 17.9199 -88.0859 12.4512 -82.5684 12.4512 -72.0215 L 12.4512 1.61133 C 12.4512 12.207 17.9199 17.7246 28.3691 17.7246 Z M 36.6211 -58.4961 L 72.2656 -58.4961 C 74.0234 -58.4961 75.3418 -59.8633 75.3418 -61.6211 C 75.3418 -63.3301 74.0234 -64.6484 72.2656 -64.6484 L 36.6211 -64.6484 C 34.8145 -64.6484 33.4961 -63.3301 33.4961 -61.6211 C 33.4961 -59.8633 34.8145 -58.4961 36.6211 -58.4961 Z M 36.6211 -41.8457 L 72.2656 -41.8457 C 74.0234 -41.8457 75.3418 -43.2129 75.3418 -44.9707 C 75.3418 -46.6797 74.0234 -47.998 72.2656 -47.998 L 36.6211 -47.998 C 34.8145 -47.998 33.4961 -46.6797 33.4961 -44.9707 C 33.4961 -43.2129 34.8145 -41.8457 36.6211 -41.8457 Z M 74.9023 17.7246 C 79.0527 17.7246 82.9102 16.5527 86.1816 14.502 L 96.582 24.9023 C 97.7539 26.0742 98.9258 26.5625 100.342 26.5625 C 102.832 26.5625 104.736 24.6094 104.736 21.875 C 104.736 20.7031 104.199 19.5312 103.271 18.6035 L 92.8223 8.10547 C 95.0684 4.6875 96.3867 0.634766 96.3867 -3.75977 C 96.3867 -15.625 86.7676 -25.2441 74.9023 -25.2441 C 63.0859 -25.2441 53.418 -15.5762 53.418 -3.75977 C 53.418 8.05664 63.0859 17.7246 74.9023 17.7246 Z M 74.9023 10.2539 C 67.1387 10.2539 60.8398 4.00391 60.8398 -3.75977 C 60.8398 -11.4258 67.1387 -17.7734 74.9023 -17.7734 C 82.5684 -17.7734 88.8672 -11.4258 88.8672 -3.75977 C 88.8672 4.00391 82.6172 10.2539 74.9023 10.2539 Z"/>
  </g>
  <g id="Regular-M" transform="matrix(1 0 0 1 1392.67 1126)">
   <path d="M 27.5879 17.1387 L 54.3457 17.1387 C 51.7578 14.9414 49.5605 12.3047 47.9492 9.27734 L 28.0273 9.27734 C 22.998 9.27734 20.3125 6.68945 20.3125 1.80664 L 20.3125 -72.0703 C 20.3125 -76.9043 22.9492 -79.6875 28.0273 -79.6875 L 79.0527 -79.6875 C 83.9355 -79.6875 86.7188 -76.9531 86.7188 -72.0703 L 86.7188 -29.4922 C 89.7461 -27.8809 92.3828 -25.7324 94.5801 -23.1445 L 94.5801 -72.2168 C 94.5801 -82.4219 89.5508 -87.5488 79.4434 -87.5488 L 27.5879 -87.5488 C 17.5293 -87.5488 12.4512 -82.373 12.4512 -72.2168 L 12.4512 1.85547 C 12.4512 12.0605 17.5293 17.1387 27.5879 17.1387 Z M 35.0586 -59.7656 L 72.0703 -59.7656 C 73.7793 -59.7656 75.0977 -61.1328 75.0977 -62.8418 C 75.0977 -64.502 73.7793 -65.7715 72.0703 -65.7715 L 35.0586 -65.7715 C 33.252 -65.7715 31.9824 -64.502 31.9824 -62.8418 C 31.9824 -61.1328 33.252 -59.7656 35.0586 -59.7656 Z M 35.0586 -42.7246 L 72.0703 -42.7246 C 73.7793 -42.7246 75.0977 -44.0918 75.0977 -45.8008 C 75.0977 -47.4609 73.7793 -48.7305 72.0703 -48.7305 L 35.0586 -48.7305 C 33.252 -48.7305 31.9824 -47.4609 31.9824 -45.8008 C 31.9824 -44.0918 33.252 -42.7246 35.0586 -42.7246 Z M 72.6562 17.1387 C 77.0508 17.1387 81.2012 15.8691 84.6191 13.5742 L 95.6055 24.6094 C 96.7773 25.7324 97.8516 26.1719 99.1699 26.1719 C 101.416 26.1719 103.125 24.4141 103.125 21.9238 C 103.125 20.8496 102.588 19.7754 101.758 18.9453 L 90.625 7.8125 C 93.1152 4.24805 94.5801 -0.0976562 94.5801 -4.78516 C 94.5801 -16.9434 84.7656 -26.7578 72.6562 -26.7578 C 60.5469 -26.7578 50.6348 -16.8457 50.6348 -4.78516 C 50.6348 7.32422 60.5469 17.1387 72.6562 17.1387 Z M 72.6562 10.1562 C 64.3555 10.1562 57.6172 3.4668 57.6172 -4.78516 C 57.6172 -12.9395 64.3555 -19.7266 72.6562 -19.7266 C 80.8105 -19.7266 87.5488 -12.9395 87.5488 -4.78516 C 87.5488 3.4668 80.8594 10.1562 72.6562 10.1562 Z"/>
  </g>
  <g id="Light-M" transform="matrix(1 0 0 1 1096.74 1126)">
   <path d="M 26.709 16.8457 L 56.4453 16.8457 C 54.3457 15.1367 52.5391 13.1348 51.1719 10.8398 L 27.0508 10.8398 C 21.4355 10.8398 18.5059 7.91016 18.5059 2.39258 L 18.5059 -72.6562 C 18.5059 -78.0762 21.4355 -81.1523 27.0508 -81.1523 L 78.6133 -81.1523 C 84.1309 -81.1523 87.1582 -78.1738 87.1582 -72.6562 L 87.1582 -25.1953 C 89.4531 -23.8281 91.5039 -22.0215 93.2129 -19.9707 L 93.2129 -72.8027 C 93.2129 -82.373 88.3789 -87.207 78.9551 -87.207 L 26.709 -87.207 C 17.334 -87.207 12.4512 -82.3242 12.4512 -72.8027 L 12.4512 2.49023 C 12.4512 12.0117 17.2852 16.8457 26.709 16.8457 Z M 33.6914 -61.377 L 72.0215 -61.377 C 73.3887 -61.377 74.4629 -62.4512 74.4629 -63.8184 C 74.4629 -65.1855 73.3887 -66.2109 72.0215 -66.2109 L 33.6914 -66.2109 C 32.2754 -66.2109 31.2012 -65.1855 31.2012 -63.8184 C 31.2012 -62.4512 32.2754 -61.377 33.6914 -61.377 Z M 33.6914 -44.2383 L 72.0215 -44.2383 C 73.3887 -44.2383 74.4629 -45.3613 74.4629 -46.6797 C 74.4629 -48.0469 73.3887 -49.0723 72.0215 -49.0723 L 33.6914 -49.0723 C 32.2754 -49.0723 31.2012 -48.0469 31.2012 -46.6797 C 31.2012 -45.3613 32.2754 -44.2383 33.6914 -44.2383 Z M 72.6562 16.8457 C 77.002 16.8457 81.0547 15.4785 84.375 13.1836 L 95.5566 24.4141 C 96.4844 25.293 97.3633 25.6836 98.4375 25.6836 C 100.244 25.6836 101.611 24.3164 101.611 22.3633 C 101.611 21.4355 101.172 20.6055 100.439 19.9219 L 89.1113 8.54492 C 91.6992 5.12695 93.2129 0.878906 93.2129 -3.71094 C 93.2129 -15.0879 83.9844 -24.3164 72.6562 -24.3164 C 61.3281 -24.3164 52.002 -15.0391 52.002 -3.71094 C 52.002 7.61719 61.3281 16.8457 72.6562 16.8457 Z M 72.6562 11.4258 C 64.3066 11.4258 57.4707 4.63867 57.4707 -3.71094 C 57.4707 -11.9629 64.3066 -18.8477 72.6562 -18.8477 C 80.9082 -18.8477 87.6953 -11.9629 87.6953 -3.71094 C 87.6953 4.63867 80.9082 11.4258 72.6562 11.4258 Z"/>
  </g>
  <g id="Thin-M" transform="matrix(1 0 0 1 801.027 1126)">
   <path d="M 25.5859 16.4551 L 59.1797 16.4551 C 57.7637 15.4297 56.4941 14.209 55.4199 12.8418 L 25.7812 12.8418 C 19.3848 12.8418 16.1133 9.52148 16.1133 3.17383 L 16.1133 -73.4863 C 16.1133 -79.5898 19.3848 -83.1543 25.7812 -83.1543 L 78.0273 -83.1543 C 84.375 -83.1543 87.7441 -79.7852 87.7441 -73.4863 L 87.7441 -19.4824 C 89.1113 -18.4082 90.332 -17.1387 91.3574 -15.7227 L 91.3574 -73.584 C 91.3574 -82.2266 86.8652 -86.7676 78.2227 -86.7676 L 25.5859 -86.7676 C 17.0898 -86.7676 12.4512 -82.2266 12.4512 -73.584 L 12.4512 3.32031 C 12.4512 11.9629 16.9922 16.4551 25.5859 16.4551 Z M 31.8848 -63.5254 L 71.9727 -63.5254 C 72.9004 -63.5254 73.6328 -64.2578 73.6328 -65.1855 C 73.6328 -66.0645 72.9004 -66.7969 71.9727 -66.7969 L 31.8848 -66.7969 C 30.9082 -66.7969 30.2246 -66.0645 30.2246 -65.1855 C 30.2246 -64.2578 30.9082 -63.5254 31.8848 -63.5254 Z M 31.8848 -46.2891 L 71.9727 -46.2891 C 72.9004 -46.2891 73.6328 -47.0215 73.6328 -47.9004 C 73.6328 -48.7793 72.9004 -49.5117 71.9727 -49.5117 L 31.8848 -49.5117 C 30.9082 -49.5117 30.2246 -48.7793 30.2246 -47.9004 C 30.2246 -47.0215 30.9082 -46.2891 31.8848 -46.2891 Z M 72.6074 16.4551 C 76.9043 16.4551 80.8594 15.0391 84.0332 12.5977 L 95.5078 24.1211 C 96.1426 24.7559 96.6797 25.0488 97.4609 25.0488 C 98.6816 25.0488 99.5605 24.1211 99.5605 22.9492 C 99.5605 22.2168 99.2676 21.7285 98.7305 21.2402 L 87.1094 9.57031 C 89.7461 6.34766 91.3574 2.19727 91.3574 -2.29492 C 91.3574 -12.5977 82.959 -21.0938 72.6074 -21.0938 C 62.3047 -21.0938 53.8086 -12.5977 53.8086 -2.29492 C 53.8086 8.05664 62.3047 16.4551 72.6074 16.4551 Z M 72.6074 13.0371 C 64.1602 13.0371 57.2754 6.15234 57.2754 -2.29492 C 57.2754 -10.6934 64.1602 -17.627 72.6074 -17.627 C 81.0059 -17.627 87.8906 -10.6934 87.8906 -2.29492 C 87.8906 6.15234 81.0547 13.0371 72.6074 13.0371 Z"/>
  </g>
  <g id="Ultralight-M" transform="matrix(1 0 0 1 504.853 1126)">
   <path d="M 25 16.2598 L 60.5957 16.2598 C 59.5215 15.5762 58.4961 14.7461 57.6172 13.8672 L 25.1465 13.8672 C 18.3594 13.8672 14.8438 10.3516 14.8438 3.61328 L 14.8438 -73.877 C 14.8438 -80.3711 18.3594 -84.1309 25.1465 -84.1309 L 77.7344 -84.1309 C 84.5215 -84.1309 88.0371 -80.6152 88.0371 -73.877 L 88.0371 -16.5527 C 88.916 -15.625 89.6973 -14.6484 90.4297 -13.5742 L 90.4297 -73.9746 C 90.4297 -82.1777 86.084 -86.5234 77.8809 -86.5234 L 25 -86.5234 C 16.9434 -86.5234 12.4512 -82.1777 12.4512 -73.9746 L 12.4512 3.71094 C 12.4512 11.9141 16.7969 16.2598 25 16.2598 Z M 30.957 -64.6484 L 71.9238 -64.6484 C 72.6562 -64.6484 73.1934 -65.1855 73.1934 -65.8691 C 73.1934 -66.5039 72.6562 -67.0898 71.9238 -67.0898 L 30.957 -67.0898 C 30.2246 -67.0898 29.6875 -66.5039 29.6875 -65.8691 C 29.6875 -65.1855 30.2246 -64.6484 30.957 -64.6484 Z M 30.957 -47.3145 L 71.9238 -47.3145 C 72.6562 -47.3145 73.1934 -47.8516 73.1934 -48.5352 C 73.1934 -49.1699 72.6562 -49.7559 71.9238 -49.7559 L 30.957 -49.7559 C 30.2246 -49.7559 29.6875 -49.1699 29.6875 -48.5352 C 29.6875 -47.8516 30.2246 -47.3145 30.957 -47.3145 Z M 72.6074 16.2598 C 76.8555 16.2598 80.7617 14.7461 83.8379 12.2559 L 95.459 23.9746 C 95.9473 24.4629 96.3379 24.707 96.9238 24.707 C 97.9004 24.707 98.5352 24.0723 98.5352 23.2422 C 98.5352 22.6074 98.291 22.3145 97.8516 21.875 L 86.084 10.0586 C 88.7695 6.93359 90.4297 2.88086 90.4297 -1.5625 C 90.4297 -11.3281 82.4219 -19.4336 72.6074 -19.4336 C 62.793 -19.4336 54.7363 -11.3281 54.7363 -1.5625 C 54.7363 8.25195 62.793 16.2598 72.6074 16.2598 Z M 72.6074 13.8672 C 64.1113 13.8672 57.1289 6.93359 57.1289 -1.5625 C 57.1289 -10.0098 64.1113 -16.9922 72.6074 -16.9922 C 81.1035 -16.9922 87.9883 -10.0098 87.9883 -1.5625 C 87.9883 6.93359 81.1035 13.8672 72.6074 13.8672 Z"/>
  </g>
  <g id="Black-S" transform="matrix(1 0 0 1 2885.16 696)">
   <path d="M 25 8.1543 L 50 8.1543 C 46.5332 4.39453 44.3359 -0.585938 44.043 -6.00586 L 27.2461 -6.00586 C 24.8047 -6.00586 23.9258 -7.08008 23.9258 -9.32617 L 23.9258 -61.084 C 23.9258 -63.3301 24.8047 -64.4043 27.2461 -64.4043 L 64.1602 -64.4043 C 66.6016 -64.4043 67.4805 -63.3301 67.4805 -61.084 L 67.4805 -29.4922 C 72.9004 -29.248 77.8809 -27.0508 81.6406 -23.584 L 81.6406 -63.3301 C 81.6406 -72.9004 75.9766 -78.5645 66.4062 -78.5645 L 25 -78.5645 C 15.4297 -78.5645 9.76562 -72.9004 9.76562 -63.3301 L 9.76562 -7.08008 C 9.76562 2.49023 15.4297 8.1543 25 8.1543 Z M 34.2285 -48.9746 L 57.2266 -48.9746 C 58.7891 -48.9746 59.9609 -50.1953 59.9609 -51.7578 C 59.9609 -53.2715 58.7891 -54.4434 57.2266 -54.4434 L 34.2285 -54.4434 C 32.6172 -54.4434 31.4453 -53.2715 31.4453 -51.7578 C 31.4453 -50.1953 32.6172 -48.9746 34.2285 -48.9746 Z M 34.2285 -37.2559 L 57.2266 -37.2559 C 58.7891 -37.2559 59.9609 -38.4766 59.9609 -40.0391 C 59.9609 -41.5527 58.7891 -42.7246 57.2266 -42.7246 L 34.2285 -42.7246 C 32.6172 -42.7246 31.4453 -41.5527 31.4453 -40.0391 C 31.4453 -38.4766 32.6172 -37.2559 34.2285 -37.2559 Z M 66.5039 8.1543 C 68.7012 8.1543 70.8008 7.66602 72.7051 6.83594 L 78.9062 12.9883 C 79.9316 13.9648 81.25 14.4531 82.6172 14.4531 C 85.498 14.4531 87.6953 12.2559 87.6953 9.32617 C 87.6953 8.00781 87.3047 6.73828 86.2305 5.66406 L 80.1758 -0.390625 C 81.1523 -2.39258 81.6895 -4.63867 81.6895 -7.03125 C 81.6895 -15.2832 74.9023 -22.168 66.5039 -22.168 C 58.252 -22.168 51.3672 -15.2832 51.3672 -7.03125 C 51.3672 1.31836 58.252 8.1543 66.5039 8.1543 Z M 66.5039 0.683594 C 62.2559 0.683594 58.7891 -2.68555 58.7891 -7.03125 C 58.7891 -11.2793 62.2559 -14.6973 66.5039 -14.6973 C 70.8008 -14.6973 74.2188 -11.2793 74.2188 -7.03125 C 74.2188 -2.68555 70.8008 0.683594 66.5039 0.683594 Z"/>
  </g>
  <g id="Heavy-S" transform="matrix(1 0 0 1 2589.18 696)">
   <path d="M 24.3164 7.61719 L 47.998 7.61719 C 44.8242 4.29688 42.6758 -0.0488281 42.1875 -4.83398 L 26.123 -4.83398 C 23.3887 -4.83398 22.2656 -6.10352 22.2656 -8.64258 L 22.2656 -61.7188 C 22.2656 -64.2578 23.3887 -65.5762 26.123 -65.5762 L 63.6719 -65.5762 C 66.3574 -65.5762 67.5293 -64.2578 67.5293 -61.7188 L 67.5293 -30.2734 C 72.3145 -29.7363 76.6602 -27.6367 80.0293 -24.4629 L 80.0293 -63.4766 C 80.0293 -72.7539 74.7559 -78.0273 65.4785 -78.0273 L 24.3164 -78.0273 C 15.0391 -78.0273 9.76562 -72.7539 9.76562 -63.4766 L 9.76562 -6.93359 C 9.76562 2.34375 15.0391 7.61719 24.3164 7.61719 Z M 32.7637 -50.0977 L 57.0312 -50.0977 C 58.5938 -50.0977 59.7656 -51.2695 59.7656 -52.832 C 59.7656 -54.3457 58.5938 -55.5176 57.0312 -55.5176 L 32.7637 -55.5176 C 31.2012 -55.5176 30.0293 -54.3457 30.0293 -52.832 C 30.0293 -51.2695 31.2012 -50.0977 32.7637 -50.0977 Z M 32.7637 -37.9883 L 57.0312 -37.9883 C 58.5938 -37.9883 59.7656 -39.209 59.7656 -40.7715 C 59.7656 -42.2363 58.5938 -43.4082 57.0312 -43.4082 L 32.7637 -43.4082 C 31.2012 -43.4082 30.0293 -42.2363 30.0293 -40.7715 C 30.0293 -39.209 31.2012 -37.9883 32.7637 -37.9883 Z M 64.2578 7.61719 C 66.748 7.61719 69.1406 7.03125 71.2402 6.00586 L 77.9785 12.6953 C 79.0039 13.6719 80.2246 14.1602 81.543 14.1602 C 84.2285 14.1602 86.2305 12.1094 86.2305 9.32617 C 86.2305 8.10547 85.8398 6.88477 84.8633 5.9082 L 78.1738 -0.732422 C 79.3945 -2.97852 80.0781 -5.46875 80.0781 -8.20312 C 80.0781 -16.8457 72.998 -23.9746 64.2578 -23.9746 C 55.6152 -23.9746 48.4375 -16.7969 48.4375 -8.20312 C 48.4375 0.537109 55.6152 7.61719 64.2578 7.61719 Z M 64.2578 0.439453 C 59.4727 0.439453 55.6152 -3.36914 55.6152 -8.20312 C 55.6152 -12.9395 59.4727 -16.7969 64.2578 -16.7969 C 68.9941 -16.7969 72.8516 -12.9395 72.8516 -8.20312 C 72.8516 -3.36914 69.043 0.439453 64.2578 0.439453 Z"/>
  </g>
  <g id="Bold-S" transform="matrix(1 0 0 1 2293.27 696)">
   <path d="M 23.5352 7.08008 L 45.8008 7.08008 C 42.9199 4.19922 40.8691 0.537109 40.0391 -3.56445 L 24.8047 -3.56445 C 21.7773 -3.56445 20.3613 -5.0293 20.3613 -7.91016 L 20.3613 -62.4512 C 20.3613 -65.332 21.7773 -66.8457 24.8047 -66.8457 L 63.1348 -66.8457 C 66.1133 -66.8457 67.627 -65.332 67.627 -62.4512 L 67.627 -31.1523 C 71.6797 -30.3223 75.3418 -28.3203 78.2227 -25.4395 L 78.2227 -63.623 C 78.2227 -72.5586 73.3398 -77.4414 64.4531 -77.4414 L 23.5352 -77.4414 C 14.6484 -77.4414 9.76562 -72.5586 9.76562 -63.623 L 9.76562 -6.78711 C 9.76562 2.14844 14.6484 7.08008 23.5352 7.08008 Z M 31.1523 -51.3184 L 56.8359 -51.3184 C 58.3984 -51.3184 59.5703 -52.5391 59.5703 -54.0527 C 59.5703 -55.5664 58.3984 -56.6895 56.8359 -56.6895 L 31.1523 -56.6895 C 29.5898 -56.6895 28.418 -55.5664 28.418 -54.0527 C 28.418 -52.5391 29.5898 -51.3184 31.1523 -51.3184 Z M 31.1523 -38.8184 L 56.8359 -38.8184 C 58.3984 -38.8184 59.5703 -40.0391 59.5703 -41.5527 C 59.5703 -43.0176 58.3984 -44.1895 56.8359 -44.1895 L 31.1523 -44.1895 C 29.5898 -44.1895 28.418 -43.0176 28.418 -41.5527 C 28.418 -40.0391 29.5898 -38.8184 31.1523 -38.8184 Z M 61.7188 7.08008 C 64.5508 7.08008 67.2363 6.34766 69.5801 5.0293 L 76.9043 12.3535 C 77.9297 13.3301 79.1016 13.7695 80.3223 13.7695 C 82.7637 13.7695 84.6191 11.9141 84.6191 9.32617 C 84.6191 8.20312 84.1797 7.08008 83.3008 6.20117 L 75.9766 -1.12305 C 77.3926 -3.56445 78.2227 -6.44531 78.2227 -9.47266 C 78.2227 -18.5547 70.8496 -25.9766 61.7188 -25.9766 C 52.6855 -25.9766 45.2148 -18.5059 45.2148 -9.47266 C 45.2148 -0.390625 52.6855 7.08008 61.7188 7.08008 Z M 61.7188 0.195312 C 56.3477 0.195312 52.002 -4.10156 52.002 -9.47266 C 52.002 -14.7461 56.3477 -19.1406 61.7188 -19.1406 C 67.041 -19.1406 71.3867 -14.7461 71.3867 -9.47266 C 71.3867 -4.10156 67.041 0.195312 61.7188 0.195312 Z"/>
  </g>
  <g id="Semibold-S" transform="matrix(1 0 0 1 1997.12 696)">
   <path d="M 22.998 6.64062 L 44.2383 6.64062 C 41.6016 4.10156 39.5996 0.927734 38.5742 -2.63672 L 23.9258 -2.63672 C 20.7031 -2.63672 19.0918 -4.29688 19.0918 -7.42188 L 19.0918 -62.9395 C 19.0918 -66.0645 20.6543 -67.7734 23.9258 -67.7734 L 62.793 -67.7734 C 65.9668 -67.7734 67.6758 -66.0645 67.6758 -62.9395 L 67.6758 -31.7383 C 71.2402 -30.7617 74.4141 -28.7598 76.9531 -26.123 L 76.9531 -63.7207 C 76.9531 -72.4609 72.4121 -77.0508 63.7695 -77.0508 L 22.998 -77.0508 C 14.3555 -77.0508 9.76562 -72.4121 9.76562 -63.7207 L 9.76562 -6.68945 C 9.76562 2.05078 14.3555 6.64062 22.998 6.64062 Z M 30.0781 -52.1973 L 56.7383 -52.1973 C 58.252 -52.1973 59.375 -53.3691 59.375 -54.8828 C 59.375 -56.3965 58.252 -57.5195 56.7383 -57.5195 L 30.0781 -57.5195 C 28.4668 -57.5195 27.3438 -56.3965 27.3438 -54.8828 C 27.3438 -53.3691 28.4668 -52.1973 30.0781 -52.1973 Z M 30.0781 -39.4043 L 56.7383 -39.4043 C 58.252 -39.4043 59.375 -40.5762 59.375 -42.0898 C 59.375 -43.5547 58.252 -44.7266 56.7383 -44.7266 L 30.0781 -44.7266 C 28.4668 -44.7266 27.3438 -43.5547 27.3438 -42.0898 C 27.3438 -40.5762 28.4668 -39.4043 30.0781 -39.4043 Z M 59.9609 6.64062 C 63.0371 6.64062 65.9668 5.81055 68.457 4.39453 L 76.2207 12.1582 C 77.1973 13.1348 78.3203 13.5254 79.4922 13.5254 C 81.7871 13.5254 83.4961 11.7676 83.4961 9.32617 C 83.4961 8.30078 83.0566 7.22656 82.2266 6.39648 L 74.4141 -1.41602 C 76.0254 -4.00391 77.002 -7.08008 77.002 -10.3516 C 77.002 -19.7266 69.3359 -27.3926 59.9609 -27.3926 C 50.6348 -27.3926 42.9688 -19.6777 42.9688 -10.3516 C 42.9688 -0.976562 50.6348 6.64062 59.9609 6.64062 Z M 59.9609 0.0488281 C 54.1992 0.0488281 49.5605 -4.58984 49.5605 -10.3516 C 49.5605 -16.0156 54.1992 -20.752 59.9609 -20.752 C 65.6738 -20.752 70.3613 -16.0156 70.3613 -10.3516 C 70.3613 -4.58984 65.6738 0.0488281 59.9609 0.0488281 Z"/>
  </g>
  <g id="Medium-S" transform="matrix(1 0 0 1 1700.83 696)">
   <path d="M 22.5586 6.34766 L 43.0664 6.34766 C 40.5762 4.05273 38.6719 1.2207 37.4512 -1.95312 L 23.291 -1.95312 C 19.8242 -1.95312 18.0664 -3.71094 18.0664 -7.03125 L 18.0664 -63.3301 C 18.0664 -66.6016 19.8242 -68.457 23.291 -68.457 L 62.5 -68.457 C 65.8203 -68.457 67.6758 -66.6016 67.6758 -63.3301 L 67.6758 -32.2266 C 70.8984 -31.0547 73.7305 -29.1016 76.0254 -26.6602 L 76.0254 -63.8184 C 76.0254 -72.3633 71.6797 -76.7578 63.2324 -76.7578 L 22.5586 -76.7578 C 14.1113 -76.7578 9.76562 -72.3145 9.76562 -63.8184 L 9.76562 -6.5918 C 9.76562 1.95312 14.1113 6.34766 22.5586 6.34766 Z M 29.1992 -52.832 L 56.6406 -52.832 C 58.1543 -52.832 59.2773 -54.0039 59.2773 -55.5176 C 59.2773 -56.9824 58.1543 -58.1543 56.6406 -58.1543 L 29.1992 -58.1543 C 27.6367 -58.1543 26.5137 -56.9824 26.5137 -55.5176 C 26.5137 -54.0039 27.6367 -52.832 29.1992 -52.832 Z M 29.1992 -39.7949 L 56.6406 -39.7949 C 58.1543 -39.7949 59.2773 -41.0156 59.2773 -42.5293 C 59.2773 -43.9941 58.1543 -45.1172 56.6406 -45.1172 L 29.1992 -45.1172 C 27.6367 -45.1172 26.5137 -43.9941 26.5137 -42.5293 C 26.5137 -41.0156 27.6367 -39.7949 29.1992 -39.7949 Z M 58.6426 6.34766 C 61.9141 6.34766 64.9414 5.46875 67.5781 3.90625 L 75.6348 11.9629 C 76.6602 12.9395 77.6855 13.3301 78.8574 13.3301 C 81.0059 13.3301 82.666 11.6699 82.666 9.32617 C 82.666 8.34961 82.1777 7.32422 81.3965 6.54297 L 73.2422 -1.61133 C 75 -4.3457 76.0254 -7.56836 76.0254 -11.0352 C 76.0254 -20.6543 68.2129 -28.418 58.6426 -28.418 C 49.1211 -28.418 41.2598 -20.5566 41.2598 -11.0352 C 41.2598 -1.46484 49.1211 6.34766 58.6426 6.34766 Z M 58.6426 -0.0976562 C 52.5879 -0.0976562 47.6562 -4.98047 47.6562 -11.0352 C 47.6562 -16.9922 52.5879 -21.9727 58.6426 -21.9727 C 64.5996 -21.9727 69.5312 -16.9922 69.5312 -11.0352 C 69.5312 -4.98047 64.6484 -0.0976562 58.6426 -0.0976562 Z"/>
  </g>
  <g id="Regular-S" transform="matrix(1 0 0 1 1404.68 696)">
   <path d="M 22.0215 5.95703 L 41.5527 5.95703 C 39.3066 4.00391 37.4023 1.61133 36.0352 -1.07422 L 22.4121 -1.07422 C 18.75 -1.07422 16.7969 -2.97852 16.7969 -6.49414 L 16.7969 -63.8184 C 16.7969 -67.334 18.7012 -69.3359 22.4121 -69.3359 L 62.1582 -69.3359 C 65.6738 -69.3359 67.7246 -67.334 67.7246 -63.8184 L 67.7246 -32.8125 C 70.4102 -31.4453 72.8027 -29.5898 74.8047 -27.2949 L 74.8047 -63.916 C 74.8047 -72.2656 70.7031 -76.3672 62.5 -76.3672 L 22.0215 -76.3672 C 13.8184 -76.3672 9.76562 -72.2168 9.76562 -63.916 L 9.76562 -6.49414 C 9.76562 1.85547 13.8184 5.95703 22.0215 5.95703 Z M 28.125 -53.6621 L 56.4941 -53.6621 C 58.0078 -53.6621 59.1309 -54.834 59.1309 -56.3477 C 59.1309 -57.8125 58.0078 -58.9355 56.4941 -58.9355 L 28.125 -58.9355 C 26.5625 -58.9355 25.4395 -57.8125 25.4395 -56.3477 C 25.4395 -54.834 26.5625 -53.6621 28.125 -53.6621 Z M 28.125 -40.3809 L 56.4941 -40.3809 C 58.0078 -40.3809 59.1309 -41.5527 59.1309 -43.0664 C 59.1309 -44.5312 58.0078 -45.6543 56.4941 -45.6543 L 28.125 -45.6543 C 26.5625 -45.6543 25.4395 -44.5312 25.4395 -43.0664 C 25.4395 -41.5527 26.5625 -40.3809 28.125 -40.3809 Z M 56.9336 5.95703 C 60.4004 5.95703 63.6719 4.93164 66.4062 3.22266 L 74.9512 11.7188 C 75.9277 12.7441 76.9043 13.0859 78.0762 13.0859 C 80.0293 13.0859 81.543 11.5723 81.543 9.32617 C 81.543 8.44727 81.0547 7.4707 80.3711 6.73828 L 71.7285 -1.9043 C 73.6328 -4.73633 74.8047 -8.20312 74.8047 -11.9141 C 74.8047 -21.8262 66.7969 -29.7852 56.9336 -29.7852 C 47.0703 -29.7852 39.0137 -21.7285 39.0137 -11.9141 C 39.0137 -2.05078 47.0703 5.95703 56.9336 5.95703 Z M 56.9336 -0.244141 C 50.4883 -0.244141 45.2148 -5.46875 45.2148 -11.9141 C 45.2148 -18.2617 50.4883 -23.5352 56.9336 -23.5352 C 63.2324 -23.5352 68.5059 -18.2617 68.5059 -11.9141 C 68.5059 -5.46875 63.2812 -0.244141 56.9336 -0.244141 Z"/>
  </g>
  <g id="Light-S" transform="matrix(1 0 0 1 1108.65 696)">
   <path d="M 21.2891 5.71289 L 43.4082 5.71289 C 41.6016 4.15039 40.0391 2.34375 38.8672 0.244141 L 21.582 0.244141 C 17.3828 0.244141 15.1855 -1.9043 15.1855 -5.95703 L 15.1855 -64.3555 C 15.1855 -68.3594 17.3828 -70.6543 21.582 -70.6543 L 61.7676 -70.6543 C 65.8203 -70.6543 68.1152 -68.4082 68.1152 -64.3555 L 68.1152 -29.0039 C 70.166 -27.832 72.0215 -26.3184 73.5352 -24.4629 L 73.5352 -64.4531 C 73.5352 -72.168 69.6777 -76.0742 62.0605 -76.0742 L 21.2891 -76.0742 C 13.6719 -76.0742 9.76562 -72.168 9.76562 -64.4531 L 9.76562 -5.95703 C 9.76562 1.80664 13.623 5.71289 21.2891 5.71289 Z M 26.9043 -55.127 L 56.4453 -55.127 C 57.666 -55.127 58.5938 -56.0547 58.5938 -57.2754 C 58.5938 -58.3984 57.666 -59.3262 56.4453 -59.3262 L 26.9043 -59.3262 C 25.6348 -59.3262 24.7559 -58.3984 24.7559 -57.2754 C 24.7559 -56.0547 25.6348 -55.127 26.9043 -55.127 Z M 26.9043 -41.6992 L 56.4453 -41.6992 C 57.666 -41.6992 58.5938 -42.6758 58.5938 -43.8477 C 58.5938 -45.0195 57.666 -45.9473 56.4453 -45.9473 L 26.9043 -45.9473 C 25.6348 -45.9473 24.7559 -45.0195 24.7559 -43.8477 C 24.7559 -42.6758 25.6348 -41.6992 26.9043 -41.6992 Z M 56.9336 5.71289 C 60.3516 5.71289 63.5742 4.63867 66.2109 2.83203 L 74.9023 11.5723 C 75.6836 12.3535 76.4648 12.6953 77.3926 12.6953 C 79.0039 12.6953 80.1758 11.4746 80.1758 9.7168 C 80.1758 8.93555 79.7852 8.20312 79.1992 7.61719 L 70.4102 -1.2207 C 72.3633 -3.95508 73.5352 -7.32422 73.5352 -10.9375 C 73.5352 -20.166 66.0645 -27.6367 56.9336 -27.6367 C 47.7539 -27.6367 40.2344 -20.1172 40.2344 -10.9375 C 40.2344 -1.75781 47.7539 5.71289 56.9336 5.71289 Z M 56.9336 0.830078 C 50.3906 0.830078 45.0684 -4.44336 45.0684 -10.9375 C 45.0684 -17.3828 50.3906 -22.7539 56.9336 -22.7539 C 63.3301 -22.7539 68.6523 -17.3828 68.6523 -10.9375 C 68.6523 -4.44336 63.3789 0.830078 56.9336 0.830078 Z"/>
  </g>
  <g id="Thin-S" transform="matrix(1 0 0 1 812.843 696)">
   <path d="M 20.2637 5.37109 L 45.8496 5.37109 C 44.6289 4.39453 43.5059 3.27148 42.627 2.05078 L 20.459 2.05078 C 15.5762 2.05078 13.0859 -0.488281 13.0859 -5.27344 L 13.0859 -65.0391 C 13.0859 -69.6777 15.5762 -72.3633 20.459 -72.3633 L 61.2793 -72.3633 C 66.0645 -72.3633 68.6035 -69.8242 68.6035 -65.0391 L 68.6035 -23.9746 C 69.873 -23.0469 70.9961 -21.9727 71.9238 -20.752 L 71.9238 -65.1367 C 71.9238 -72.0703 68.3594 -75.6836 61.4258 -75.6836 L 20.2637 -75.6836 C 13.4277 -75.6836 9.76562 -72.0703 9.76562 -65.1367 L 9.76562 -5.22461 C 9.76562 1.75781 13.3789 5.37109 20.2637 5.37109 Z M 25.3418 -56.9824 L 56.3965 -56.9824 C 57.2266 -56.9824 57.8613 -57.6172 57.8613 -58.4473 C 57.8613 -59.2285 57.2266 -59.8145 56.3965 -59.8145 L 25.3418 -59.8145 C 24.4629 -59.8145 23.877 -59.2285 23.877 -58.4473 C 23.877 -57.6172 24.4629 -56.9824 25.3418 -56.9824 Z M 25.3418 -43.5059 L 56.3965 -43.5059 C 57.2266 -43.5059 57.8613 -44.1406 57.8613 -44.9219 C 57.8613 -45.7031 57.2266 -46.3379 56.3965 -46.3379 L 25.3418 -46.3379 C 24.4629 -46.3379 23.877 -45.7031 23.877 -44.9219 C 23.877 -44.1406 24.4629 -43.5059 25.3418 -43.5059 Z M 56.8848 5.37109 C 60.2539 5.37109 63.3789 4.24805 65.8691 2.34375 L 74.8535 11.3281 C 75.3906 11.8652 75.8789 12.1094 76.5137 12.1094 C 77.6367 12.1094 78.3691 11.3281 78.3691 10.2051 C 78.3691 9.61914 78.125 9.17969 77.6855 8.74023 L 68.6523 -0.341797 C 70.7031 -2.88086 71.9238 -6.15234 71.9238 -9.66797 C 71.9238 -17.9688 65.1855 -24.7559 56.8848 -24.7559 C 48.6328 -24.7559 41.7969 -17.9688 41.7969 -9.66797 C 41.7969 -1.41602 48.6328 5.37109 56.8848 5.37109 Z M 56.8848 2.24609 C 50.293 2.24609 44.9219 -3.125 44.9219 -9.66797 C 44.9219 -16.2598 50.293 -21.6797 56.8848 -21.6797 C 63.4277 -21.6797 68.8477 -16.2598 68.8477 -9.66797 C 68.8477 -3.125 63.4766 2.24609 56.8848 2.24609 Z"/>
  </g>
  <g id="Ultralight-S" transform="matrix(1 0 0 1 516.596 696)">
   <path d="M 19.7266 5.17578 L 47.0703 5.17578 C 46.1426 4.54102 45.3125 3.75977 44.5312 2.97852 L 19.873 2.97852 C 14.6484 2.97852 11.9629 0.292969 11.9629 -4.93164 L 11.9629 -65.3809 C 11.9629 -70.4102 14.6484 -73.291 19.873 -73.291 L 60.9863 -73.291 C 66.1621 -73.291 68.8965 -70.6055 68.8965 -65.3809 L 68.8965 -21.3867 C 69.7266 -20.6055 70.459 -19.7754 71.0938 -18.8477 L 71.0938 -65.4785 C 71.0938 -72.0215 67.627 -75.4883 61.084 -75.4883 L 19.7266 -75.4883 C 13.3301 -75.4883 9.76562 -72.0215 9.76562 -65.4785 L 9.76562 -4.83398 C 9.76562 1.70898 13.2324 5.17578 19.7266 5.17578 Z M 24.5117 -57.959 L 56.3477 -57.959 C 56.9824 -57.959 57.4707 -58.4473 57.4707 -59.0332 C 57.4707 -59.6191 56.9824 -60.1074 56.3477 -60.1074 L 24.5117 -60.1074 C 23.877 -60.1074 23.3887 -59.6191 23.3887 -59.0332 C 23.3887 -58.4473 23.877 -57.959 24.5117 -57.959 Z M 24.5117 -44.4336 L 56.3477 -44.4336 C 56.9824 -44.4336 57.4707 -44.873 57.4707 -45.459 C 57.4707 -46.0449 56.9824 -46.5332 56.3477 -46.5332 L 24.5117 -46.5332 C 23.877 -46.5332 23.3887 -46.0449 23.3887 -45.459 C 23.3887 -44.873 23.877 -44.4336 24.5117 -44.4336 Z M 56.8848 5.17578 C 60.2051 5.17578 63.2812 4.00391 65.7227 2.05078 L 74.8047 11.2305 C 75.2441 11.6211 75.5371 11.8164 76.0742 11.8164 C 76.9043 11.8164 77.4414 11.2305 77.4414 10.498 C 77.4414 9.96094 77.2461 9.7168 76.9043 9.32617 L 67.7246 0.146484 C 69.8242 -2.34375 71.0938 -5.56641 71.0938 -9.0332 C 71.0938 -16.8457 64.6973 -23.291 56.8848 -23.291 C 49.0723 -23.291 42.627 -16.8457 42.627 -9.0332 C 42.627 -1.2207 49.0723 5.17578 56.8848 5.17578 Z M 56.8848 3.02734 C 50.2441 3.02734 44.7754 -2.39258 44.7754 -9.0332 C 44.7754 -15.6738 50.2441 -21.1426 56.8848 -21.1426 C 63.5254 -21.1426 68.9453 -15.6738 68.9453 -9.0332 C 68.9453 -2.39258 63.5254 3.02734 56.8848 3.02734 Z"/>
  </g>
 </g>
</svg>
