<?xml version="1.0" encoding="UTF-8"?>
<!--Generator: Apple Native CoreSVG 123-->
<!DOCTYPE svg
PUBLIC "-//W3C//DTD SVG 1.1//EN"
       "http://www.w3.org/Graphics/SVG/1.1/DTD/svg11.dtd">
<svg version="1.1" xmlns="http://www.w3.org/2000/svg" xmlns:xlink="http://www.w3.org/1999/xlink" width="3300" height="2200">
 <!--glyph: "uni10032E.medium", point size: 100.000000, font version: "Version 15.0d7e11", template writer version: "5"-->
 <g id="Notes">
  <rect height="2200" id="artboard" style="fill:white;opacity:1" width="3300" x="0" y="0"/>
  <line id="" style="fill:none;stroke:black;opacity:1;stroke-width:0.5;" x1="263" x2="3036" y1="292" y2="292"/>
  <text style="stroke:none;fill:black;font-family:-apple-system,&quot;SF Pro Display&quot;,&quot;SF Pro Text&quot;,Helvetica,sans-serif;font-weight:bold;" transform="matrix(1 0 0 1 263 322)">Weight/Scale Variations</text>
  <text style="stroke:none;fill:black;font-family:-apple-system,&quot;SF Pro Display&quot;,&quot;SF Pro Text&quot;,Helvetica,sans-serif;text-anchor:middle;" transform="matrix(1 0 0 1 559.711 322)">Ultralight</text>
  <text style="stroke:none;fill:black;font-family:-apple-system,&quot;SF Pro Display&quot;,&quot;SF Pro Text&quot;,Helvetica,sans-serif;text-anchor:middle;" transform="matrix(1 0 0 1 856.422 322)">Thin</text>
  <text style="stroke:none;fill:black;font-family:-apple-system,&quot;SF Pro Display&quot;,&quot;SF Pro Text&quot;,Helvetica,sans-serif;text-anchor:middle;" transform="matrix(1 0 0 1 1153.13 322)">Light</text>
  <text style="stroke:none;fill:black;font-family:-apple-system,&quot;SF Pro Display&quot;,&quot;SF Pro Text&quot;,Helvetica,sans-serif;text-anchor:middle;" transform="matrix(1 0 0 1 1449.84 322)">Regular</text>
  <text style="stroke:none;fill:black;font-family:-apple-system,&quot;SF Pro Display&quot;,&quot;SF Pro Text&quot;,Helvetica,sans-serif;text-anchor:middle;" transform="matrix(1 0 0 1 1746.56 322)">Medium</text>
  <text style="stroke:none;fill:black;font-family:-apple-system,&quot;SF Pro Display&quot;,&quot;SF Pro Text&quot;,Helvetica,sans-serif;text-anchor:middle;" transform="matrix(1 0 0 1 2043.27 322)">Semibold</text>
  <text style="stroke:none;fill:black;font-family:-apple-system,&quot;SF Pro Display&quot;,&quot;SF Pro Text&quot;,Helvetica,sans-serif;text-anchor:middle;" transform="matrix(1 0 0 1 2339.98 322)">Bold</text>
  <text style="stroke:none;fill:black;font-family:-apple-system,&quot;SF Pro Display&quot;,&quot;SF Pro Text&quot;,Helvetica,sans-serif;text-anchor:middle;" transform="matrix(1 0 0 1 2636.69 322)">Heavy</text>
  <text style="stroke:none;fill:black;font-family:-apple-system,&quot;SF Pro Display&quot;,&quot;SF Pro Text&quot;,Helvetica,sans-serif;text-anchor:middle;" transform="matrix(1 0 0 1 2933.4 322)">Black</text>
  <line id="" style="fill:none;stroke:black;opacity:1;stroke-width:0.5;" x1="263" x2="3036" y1="1903" y2="1903"/>
  <g id="" transform="matrix(1 0 0 1 263 1933)">
   <path d="M 9.24805 0.830078 C 13.5547 0.830078 17.1387 -2.74414 17.1387 -7.05078 C 17.1387 -11.3574 13.5449 -14.9316 9.23828 -14.9316 C 4.94141 -14.9316 1.36719 -11.3574 1.36719 -7.05078 C 1.36719 -2.74414 4.95117 0.830078 9.24805 0.830078 Z M 9.24805 -0.654297 C 5.70312 -0.654297 2.87109 -3.49609 2.87109 -7.05078 C 2.87109 -10.6055 5.69336 -13.4473 9.23828 -13.4473 C 12.793 -13.4473 15.6348 -10.6055 15.6445 -7.05078 C 15.6543 -3.49609 12.8027 -0.654297 9.24805 -0.654297 Z M 9.22852 -3.42773 C 9.69727 -3.42773 9.9707 -3.74023 9.9707 -4.25781 L 9.9707 -6.31836 L 12.1973 -6.31836 C 12.6953 -6.31836 13.0371 -6.57227 13.0371 -7.04102 C 13.0371 -7.51953 12.7148 -7.7832 12.1973 -7.7832 L 9.9707 -7.7832 L 9.9707 -10.0098 C 9.9707 -10.5273 9.69727 -10.8496 9.22852 -10.8496 C 8.75977 -10.8496 8.50586 -10.5078 8.50586 -10.0098 L 8.50586 -7.7832 L 6.29883 -7.7832 C 5.78125 -7.7832 5.44922 -7.51953 5.44922 -7.04102 C 5.44922 -6.57227 5.80078 -6.31836 6.29883 -6.31836 L 8.50586 -6.31836 L 8.50586 -4.25781 C 8.50586 -3.75977 8.75977 -3.42773 9.22852 -3.42773 Z"/>
  </g>
  <g id="" transform="matrix(1 0 0 1 281.506 1933)">
   <path d="M 11.709 2.91016 C 17.1582 2.91016 21.6699 -1.60156 21.6699 -7.05078 C 21.6699 -12.4902 17.1484 -17.0117 11.6992 -17.0117 C 6.25977 -17.0117 1.74805 -12.4902 1.74805 -7.05078 C 1.74805 -1.60156 6.26953 2.91016 11.709 2.91016 Z M 11.709 1.25 C 7.09961 1.25 3.41797 -2.44141 3.41797 -7.05078 C 3.41797 -11.6504 7.08984 -15.3516 11.6992 -15.3516 C 16.3086 -15.3516 20 -11.6504 20.0098 -7.05078 C 20.0195 -2.44141 16.3184 1.25 11.709 1.25 Z M 11.6895 -2.41211 C 12.207 -2.41211 12.5195 -2.77344 12.5195 -3.33984 L 12.5195 -6.23047 L 15.5762 -6.23047 C 16.123 -6.23047 16.5039 -6.51367 16.5039 -7.03125 C 16.5039 -7.55859 16.1426 -7.86133 15.5762 -7.86133 L 12.5195 -7.86133 L 12.5195 -10.9277 C 12.5195 -11.5039 12.207 -11.8555 11.6895 -11.8555 C 11.1719 -11.8555 10.8789 -11.4844 10.8789 -10.9277 L 10.8789 -7.86133 L 7.83203 -7.86133 C 7.26562 -7.86133 6.89453 -7.55859 6.89453 -7.03125 C 6.89453 -6.51367 7.28516 -6.23047 7.83203 -6.23047 L 10.8789 -6.23047 L 10.8789 -3.33984 C 10.8789 -2.79297 11.1719 -2.41211 11.6895 -2.41211 Z"/>
  </g>
  <g id="" transform="matrix(1 0 0 1 304.924 1933)">
   <path d="M 14.9707 5.67383 C 21.9336 5.67383 27.6953 -0.078125 27.6953 -7.04102 C 27.6953 -14.0039 21.9238 -19.7559 14.9609 -19.7559 C 8.00781 -19.7559 2.25586 -14.0039 2.25586 -7.04102 C 2.25586 -0.078125 8.01758 5.67383 14.9707 5.67383 Z M 14.9707 3.85742 C 8.93555 3.85742 4.08203 -1.00586 4.08203 -7.04102 C 4.08203 -13.0762 8.92578 -17.9395 14.9609 -17.9395 C 21.0059 -17.9395 25.8594 -13.0762 25.8691 -7.04102 C 25.8789 -1.00586 21.0156 3.85742 14.9707 3.85742 Z M 14.9512 -1.06445 C 15.5176 -1.06445 15.8691 -1.45508 15.8691 -2.06055 L 15.8691 -6.13281 L 20.1074 -6.13281 C 20.6934 -6.13281 21.1133 -6.46484 21.1133 -7.02148 C 21.1133 -7.59766 20.7227 -7.93945 20.1074 -7.93945 L 15.8691 -7.93945 L 15.8691 -12.1875 C 15.8691 -12.8027 15.5176 -13.1934 14.9512 -13.1934 C 14.3848 -13.1934 14.0625 -12.7832 14.0625 -12.1875 L 14.0625 -7.93945 L 9.83398 -7.93945 C 9.21875 -7.93945 8.80859 -7.59766 8.80859 -7.02148 C 8.80859 -6.46484 9.23828 -6.13281 9.83398 -6.13281 L 14.0625 -6.13281 L 14.0625 -2.06055 C 14.0625 -1.47461 14.3848 -1.06445 14.9512 -1.06445 Z"/>
  </g>
  <text style="stroke:none;fill:black;font-family:-apple-system,&quot;SF Pro Display&quot;,&quot;SF Pro Text&quot;,Helvetica,sans-serif;font-weight:bold;" transform="matrix(1 0 0 1 263 1953)">Design Variations</text>
  <text style="stroke:none;fill:black;font-family:-apple-system,&quot;SF Pro Display&quot;,&quot;SF Pro Text&quot;,Helvetica,sans-serif;" transform="matrix(1 0 0 1 263 1971)">Symbols are supported in up to nine weights and three scales.</text>
  <text style="stroke:none;fill:black;font-family:-apple-system,&quot;SF Pro Display&quot;,&quot;SF Pro Text&quot;,Helvetica,sans-serif;" transform="matrix(1 0 0 1 263 1989)">For optimal layout with text and other symbols, vertically align</text>
  <text style="stroke:none;fill:black;font-family:-apple-system,&quot;SF Pro Display&quot;,&quot;SF Pro Text&quot;,Helvetica,sans-serif;" transform="matrix(1 0 0 1 263 2007)">symbols with the adjacent text.</text>
  <rect height="14" id="" style="fill:#00AEEF;stroke:none;opacity:0.4;" width="3" x="776" y="1919"/>
  <g id="" transform="matrix(1 0 0 1 779 1933)">
   <path d="M 10.5273 0 L 12.373 0 L 7.17773 -14.0918 L 5.43945 -14.0918 L 0.244141 0 L 2.08984 0 L 3.50586 -4.0332 L 9.11133 -4.0332 Z M 6.2793 -11.9531 L 6.33789 -11.9531 L 8.59375 -5.52734 L 4.02344 -5.52734 Z"/>
  </g>
  <rect height="14" id="" style="fill:#00AEEF;stroke:none;opacity:0.4;" width="3" x="791.617" y="1919"/>
  <text style="stroke:none;fill:black;font-family:-apple-system,&quot;SF Pro Display&quot;,&quot;SF Pro Text&quot;,Helvetica,sans-serif;font-weight:bold;" transform="matrix(1 0 0 1 776 1953)">Margins</text>
  <text style="stroke:none;fill:black;font-family:-apple-system,&quot;SF Pro Display&quot;,&quot;SF Pro Text&quot;,Helvetica,sans-serif;" transform="matrix(1 0 0 1 776 1971)">Leading and trailing margins on the left and right side of each symbol</text>
  <text style="stroke:none;fill:black;font-family:-apple-system,&quot;SF Pro Display&quot;,&quot;SF Pro Text&quot;,Helvetica,sans-serif;" transform="matrix(1 0 0 1 776 1989)">can be adjusted by modifying the width of the blue rectangles.</text>
  <text style="stroke:none;fill:black;font-family:-apple-system,&quot;SF Pro Display&quot;,&quot;SF Pro Text&quot;,Helvetica,sans-serif;" transform="matrix(1 0 0 1 776 2007)">Modifications are automatically applied proportionally to all</text>
  <text style="stroke:none;fill:black;font-family:-apple-system,&quot;SF Pro Display&quot;,&quot;SF Pro Text&quot;,Helvetica,sans-serif;" transform="matrix(1 0 0 1 776 2025)">scales and weights.</text>
  <g id="" transform="matrix(1 0 0 1 1289 1933)">
   <path d="M 2.83203 3.11523 L 4.375 4.6582 C 5.22461 5.48828 6.19141 5.41992 7.06055 4.46289 L 17.2754 -6.66016 C 17.7051 -6.36719 18.0957 -6.37695 18.5645 -6.47461 L 19.6094 -6.68945 L 20.3027 -5.99609 L 20.2539 -5.47852 C 20.1855 -4.95117 20.3516 -4.53125 20.8496 -4.0332 L 21.6602 -3.22266 C 22.168 -2.71484 22.8223 -2.68555 23.3008 -3.16406 L 26.5527 -6.41602 C 27.0312 -6.89453 27.0117 -7.54883 26.5039 -8.05664 L 25.6836 -8.87695 C 25.1855 -9.375 24.7754 -9.55078 24.2383 -9.47266 L 23.7109 -9.41406 L 23.0566 -10.0781 L 23.3398 -11.2207 C 23.4863 -11.7871 23.3398 -12.2559 22.7148 -12.8613 L 20.3027 -15.2539 C 16.7578 -18.7793 12.2266 -18.6719 9.11133 -15.5371 C 8.69141 -15.1074 8.64258 -14.5215 8.91602 -14.0918 C 9.15039 -13.7207 9.62891 -13.4961 10.2734 -13.6621 C 11.7871 -14.043 13.3008 -13.9258 14.7852 -12.9199 L 14.1602 -11.3379 C 13.9258 -10.752 13.9453 -10.2734 14.1797 -9.83398 L 3.01758 0.439453 C 2.08008 1.30859 1.97266 2.25586 2.83203 3.11523 Z M 10.6738 -15.1465 C 13.3398 -17.1387 16.6504 -16.8262 19.0527 -14.4141 L 21.6797 -11.8066 C 21.9141 -11.5723 21.9434 -11.3867 21.8848 -11.0938 L 21.5039 -9.53125 L 23.0762 -7.95898 L 24.043 -8.04688 C 24.3262 -8.07617 24.4141 -8.05664 24.6387 -7.83203 L 25.2637 -7.20703 L 22.5098 -4.46289 L 21.8848 -5.07812 C 21.6602 -5.30273 21.6406 -5.40039 21.6699 -5.68359 L 21.7578 -6.64062 L 20.1953 -8.20312 L 18.5742 -7.89062 C 18.291 -7.83203 18.1445 -7.83203 17.9102 -8.07617 L 15.7324 -10.2539 C 15.5078 -10.4883 15.4785 -10.625 15.6055 -10.9473 L 16.5527 -13.2227 C 14.9512 -14.7559 12.8418 -15.6055 10.8008 -14.9512 C 10.7129 -14.9219 10.6445 -14.9414 10.6152 -14.9805 C 10.5859 -15.0293 10.5859 -15.0781 10.6738 -15.1465 Z M 4.10156 2.41211 C 3.61328 1.91406 3.78906 1.61133 4.12109 1.30859 L 15.0781 -8.80859 L 16.3086 -7.57812 L 6.15234 3.34961 C 5.84961 3.68164 5.46875 3.7793 5.06836 3.37891 Z"/>
  </g>
  <text style="stroke:none;fill:black;font-family:-apple-system,&quot;SF Pro Display&quot;,&quot;SF Pro Text&quot;,Helvetica,sans-serif;font-weight:bold;" transform="matrix(1 0 0 1 1289 1953)">Exporting</text>
  <text style="stroke:none;fill:black;font-family:-apple-system,&quot;SF Pro Display&quot;,&quot;SF Pro Text&quot;,Helvetica,sans-serif;" transform="matrix(1 0 0 1 1289 1971)">Symbols should be outlined when exporting to ensure the</text>
  <text style="stroke:none;fill:black;font-family:-apple-system,&quot;SF Pro Display&quot;,&quot;SF Pro Text&quot;,Helvetica,sans-serif;" transform="matrix(1 0 0 1 1289 1989)">design is preserved when submitting to Xcode.</text>
  <text id="template-version" style="stroke:none;fill:black;font-family:-apple-system,&quot;SF Pro Display&quot;,&quot;SF Pro Text&quot;,Helvetica,sans-serif;text-anchor:end;" transform="matrix(1 0 0 1 3036 1933)">Template v.1.0</text>
  <text style="stroke:none;fill:black;font-family:-apple-system,&quot;SF Pro Display&quot;,&quot;SF Pro Text&quot;,Helvetica,sans-serif;text-anchor:end;" transform="matrix(1 0 0 1 3036 1951)">Generated from quote.bubble</text>
  <text style="stroke:none;fill:black;font-family:-apple-system,&quot;SF Pro Display&quot;,&quot;SF Pro Text&quot;,Helvetica,sans-serif;text-anchor:end;" transform="matrix(1 0 0 1 3036 1969)">Typeset at 100 points</text>
  <text style="stroke:none;fill:black;font-family:-apple-system,&quot;SF Pro Display&quot;,&quot;SF Pro Text&quot;,Helvetica,sans-serif;" transform="matrix(1 0 0 1 263 726)">Small</text>
  <text style="stroke:none;fill:black;font-family:-apple-system,&quot;SF Pro Display&quot;,&quot;SF Pro Text&quot;,Helvetica,sans-serif;" transform="matrix(1 0 0 1 263 1156)">Medium</text>
  <text style="stroke:none;fill:black;font-family:-apple-system,&quot;SF Pro Display&quot;,&quot;SF Pro Text&quot;,Helvetica,sans-serif;" transform="matrix(1 0 0 1 263 1586)">Large</text>
 </g>
 <g id="Guides">
  <g id="H-reference" style="fill:#27AAE1;stroke:none;" transform="matrix(1 0 0 1 339 696)">
   <path d="M 54.9316 0 L 57.666 0 L 30.5664 -70.459 L 28.0762 -70.459 L 0.976562 0 L 3.66211 0 L 12.9395 -24.4629 L 45.7031 -24.4629 Z M 29.1992 -67.0898 L 29.4434 -67.0898 L 44.8242 -26.709 L 13.8184 -26.709 Z"/>
  </g>
  <line id="Baseline-S" style="fill:none;stroke:#27AAE1;opacity:1;stroke-width:0.577;" x1="263" x2="3036" y1="696" y2="696"/>
  <line id="Capline-S" style="fill:none;stroke:#27AAE1;opacity:1;stroke-width:0.577;" x1="263" x2="3036" y1="625.541" y2="625.541"/>
  <g id="H-reference" style="fill:#27AAE1;stroke:none;" transform="matrix(1 0 0 1 339 1126)">
   <path d="M 54.9316 0 L 57.666 0 L 30.5664 -70.459 L 28.0762 -70.459 L 0.976562 0 L 3.66211 0 L 12.9395 -24.4629 L 45.7031 -24.4629 Z M 29.1992 -67.0898 L 29.4434 -67.0898 L 44.8242 -26.709 L 13.8184 -26.709 Z"/>
  </g>
  <line id="Baseline-M" style="fill:none;stroke:#27AAE1;opacity:1;stroke-width:0.577;" x1="263" x2="3036" y1="1126" y2="1126"/>
  <line id="Capline-M" style="fill:none;stroke:#27AAE1;opacity:1;stroke-width:0.577;" x1="263" x2="3036" y1="1055.54" y2="1055.54"/>
  <g id="H-reference" style="fill:#27AAE1;stroke:none;" transform="matrix(1 0 0 1 339 1556)">
   <path d="M 54.9316 0 L 57.666 0 L 30.5664 -70.459 L 28.0762 -70.459 L 0.976562 0 L 3.66211 0 L 12.9395 -24.4629 L 45.7031 -24.4629 Z M 29.1992 -67.0898 L 29.4434 -67.0898 L 44.8242 -26.709 L 13.8184 -26.709 Z"/>
  </g>
  <line id="Baseline-L" style="fill:none;stroke:#27AAE1;opacity:1;stroke-width:0.577;" x1="263" x2="3036" y1="1556" y2="1556"/>
  <line id="Capline-L" style="fill:none;stroke:#27AAE1;opacity:1;stroke-width:0.577;" x1="263" x2="3036" y1="1485.54" y2="1485.54"/>
  <rect height="119.336" id="left-margin" style="fill:#00AEEF;stroke:none;opacity:0.4;" width="12.4512" x="1383.58" y="1030.79"/>
  <rect height="119.336" id="right-margin" style="fill:#00AEEF;stroke:none;opacity:0.4;" width="12.4512" x="1503.65" y="1030.79"/>
 </g>
 <g id="Symbols">
  <g id="Black-L" transform="matrix(1 0 0 1 2846.24 1556)">
   <path d="M 59.7168 38.5742 C 64.8438 38.5742 69.0918 36.5234 75.3418 31.1035 L 96.2891 12.8418 L 125.83 12.8418 C 145.703 12.8418 158.252 0.195312 158.252 -19.5801 L 158.252 -70.1172 C 158.252 -89.8926 145.703 -102.539 125.83 -102.539 L 48.4863 -102.539 C 28.6133 -102.539 16.0645 -89.8926 16.0645 -70.1172 L 16.0645 -19.5801 C 16.0645 0.195312 29.7852 12.8418 46.7285 12.8418 L 47.7051 12.8418 L 47.7051 25.3906 C 47.7051 33.5938 52.2949 38.5742 59.7168 38.5742 Z M 64.5508 16.2598 L 64.5508 -0.732422 C 64.5508 -5.56641 62.0117 -7.37305 57.8613 -7.37305 L 50 -7.37305 C 40.8203 -7.37305 36.3281 -11.8652 36.3281 -21.0938 L 36.3281 -68.6035 C 36.3281 -77.832 40.8203 -82.2754 50 -82.2754 L 124.316 -82.2754 C 133.496 -82.2754 138.037 -77.832 138.037 -68.6035 L 138.037 -21.0938 C 138.037 -11.8652 133.496 -7.37305 124.316 -7.37305 L 94.5801 -7.37305 C 89.5996 -7.37305 87.5488 -6.34766 83.8867 -2.7832 Z M 55.7617 -49.3652 C 55.7617 -41.5527 60.6934 -35.8887 67.7734 -35.8887 C 71.1914 -35.8887 74.0234 -36.8652 75.7812 -38.9648 L 77.1484 -38.9648 C 75.8789 -34.7656 71.5332 -30.8594 65.0879 -29.4434 C 63.2812 -29.0527 62.2559 -27.9297 62.2559 -26.3184 C 62.2559 -24.3164 63.916 -23.1934 65.9668 -23.1934 C 73.877 -23.1934 85.3516 -32.6172 85.3516 -45.9473 C 85.3516 -55.6641 79.6387 -63.4277 69.9219 -63.4277 C 61.7188 -63.4277 55.7617 -57.5684 55.7617 -49.3652 Z M 90.332 -49.3652 C 90.332 -41.5527 95.3125 -35.8887 102.344 -35.8887 C 105.811 -35.8887 108.594 -36.8652 110.4 -38.9648 L 111.719 -38.9648 C 110.449 -34.7656 106.104 -30.8594 99.6582 -29.4434 C 97.9004 -29.0527 96.875 -27.9297 96.875 -26.3184 C 96.875 -24.3164 98.5352 -23.1934 100.586 -23.1934 C 108.496 -23.1934 119.971 -32.6172 119.971 -45.9473 C 119.971 -55.6641 114.209 -63.4277 104.541 -63.4277 C 96.3379 -63.4277 90.332 -57.5684 90.332 -49.3652 Z"/>
  </g>
  <g id="Heavy-L" transform="matrix(1 0 0 1 2550.07 1556)">
   <path d="M 58.1543 37.2559 C 62.6953 37.2559 66.4062 35.3516 71.9238 30.5176 L 93.1152 12.0117 L 125.879 12.0117 C 145.264 12.0117 157.178 -0.0488281 157.178 -19.2383 L 157.178 -69.6289 C 157.178 -88.8184 145.264 -100.879 125.879 -100.879 L 47.3145 -100.879 C 27.9785 -100.879 16.0645 -88.8672 16.0645 -69.6289 L 16.0645 -19.2383 C 16.0645 0 28.8574 12.0117 45.9961 12.0117 L 47.5586 12.0117 L 47.5586 25.5371 C 47.5586 32.8125 51.6113 37.2559 58.1543 37.2559 Z M 62.3535 17.8711 L 62.3535 0.585938 C 62.3535 -3.80859 60.2051 -5.46875 56.2988 -5.46875 L 48.4863 -5.46875 C 38.5254 -5.46875 33.5938 -10.498 33.5938 -20.4102 L 33.5938 -68.4082 C 33.5938 -78.3691 38.5254 -83.3496 48.4863 -83.3496 L 124.707 -83.3496 C 134.668 -83.3496 139.648 -78.3691 139.648 -68.4082 L 139.648 -20.4102 C 139.648 -10.498 134.668 -5.46875 124.707 -5.46875 L 91.7969 -5.46875 C 87.2559 -5.46875 85.3027 -4.58984 81.9824 -1.31836 Z M 56.0547 -48.584 C 56.0547 -41.0645 60.8398 -35.498 67.8223 -35.498 C 71.0449 -35.498 73.7305 -36.377 75.4883 -38.4766 L 76.6602 -38.4766 C 75.1465 -34.0332 70.7031 -30.3223 64.8926 -29.0039 C 63.0371 -28.5645 62.1094 -27.4902 62.1094 -25.9277 C 62.1094 -24.0723 63.6719 -22.9492 65.625 -22.9492 C 72.998 -22.9492 84.6191 -31.7871 84.6191 -45.5078 C 84.6191 -54.7852 78.9551 -62.1582 69.8242 -62.1582 C 61.8652 -62.1582 56.0547 -56.4941 56.0547 -48.584 Z M 90.0391 -48.584 C 90.0391 -41.0645 94.8242 -35.498 101.807 -35.498 C 104.98 -35.498 107.715 -36.377 109.473 -38.4766 L 110.596 -38.4766 C 109.131 -34.0332 104.688 -30.3223 98.877 -29.0039 C 97.0215 -28.5645 96.0938 -27.4902 96.0938 -25.9277 C 96.0938 -24.0723 97.6562 -22.9492 99.5605 -22.9492 C 106.982 -22.9492 118.604 -31.7871 118.604 -45.5078 C 118.604 -54.7852 112.939 -62.1582 103.809 -62.1582 C 95.8496 -62.1582 90.0391 -56.4941 90.0391 -48.584 Z"/>
  </g>
  <g id="Bold-L" transform="matrix(1 0 0 1 2253.97 1556)">
   <path d="M 56.4453 35.791 C 60.3516 35.791 63.3789 34.0332 68.1152 29.9316 L 89.5996 11.084 L 125.977 11.084 C 144.727 11.084 155.957 -0.292969 155.957 -18.8965 L 155.957 -69.043 C 155.957 -87.6465 144.727 -99.0234 125.977 -99.0234 L 46.0449 -99.0234 C 27.2461 -99.0234 16.0645 -87.6953 16.0645 -69.043 L 16.0645 -18.8965 C 16.0645 -0.244141 27.832 11.084 45.166 11.084 L 47.4609 11.084 L 47.4609 25.7324 C 47.4609 31.9336 50.8301 35.791 56.4453 35.791 Z M 59.9609 19.6777 L 59.9609 2.00195 C 59.9609 -1.9043 58.1055 -3.36914 54.5898 -3.36914 L 46.8262 -3.36914 C 35.9375 -3.36914 30.5176 -8.93555 30.5176 -19.6777 L 30.5176 -68.2617 C 30.5176 -78.9551 35.9375 -84.5703 46.8262 -84.5703 L 125.195 -84.5703 C 135.986 -84.5703 141.504 -78.9551 141.504 -68.2617 L 141.504 -19.6777 C 141.504 -8.93555 135.986 -3.36914 125.195 -3.36914 L 88.6719 -3.36914 C 84.6191 -3.36914 82.8125 -2.58789 79.8828 0.292969 Z M 56.3965 -47.7539 C 56.3965 -40.5273 60.9863 -35.1074 67.8711 -35.1074 C 70.8496 -35.1074 73.4863 -35.8398 75.1465 -37.8906 L 76.0742 -37.8906 C 74.3652 -33.252 69.7754 -29.6875 64.6973 -28.5156 C 62.793 -28.0273 61.9629 -27.002 61.9629 -25.5371 C 61.9629 -23.8281 63.3789 -22.6562 65.1855 -22.6562 C 72.0215 -22.6562 83.7891 -30.8594 83.7891 -44.9707 C 83.7891 -53.8574 78.2227 -60.7422 69.6777 -60.7422 C 62.0605 -60.7422 56.3965 -55.3223 56.3965 -47.7539 Z M 89.6973 -47.7539 C 89.6973 -40.5273 94.2871 -35.1074 101.123 -35.1074 C 104.102 -35.1074 106.738 -35.8398 108.447 -37.8906 L 109.375 -37.8906 C 107.666 -33.252 103.076 -29.6875 97.998 -28.5156 C 96.0449 -28.0273 95.2148 -27.002 95.2148 -25.5371 C 95.2148 -23.8281 96.6309 -22.6562 98.4863 -22.6562 C 105.273 -22.6562 117.041 -30.8594 117.041 -44.9707 C 117.041 -53.8574 111.523 -60.7422 102.979 -60.7422 C 95.3125 -60.7422 89.6973 -55.3223 89.6973 -47.7539 Z"/>
  </g>
  <g id="Semibold-L" transform="matrix(1 0 0 1 1957.7 1556)">
   <path d="M 55.2734 34.7656 C 58.6914 34.7656 61.3281 33.1055 65.4785 29.4922 L 87.1582 10.4492 L 126.025 10.4492 C 144.385 10.4492 155.078 -0.439453 155.078 -18.6035 L 155.078 -68.6523 C 155.078 -86.8164 144.385 -97.7539 126.025 -97.7539 L 45.166 -97.7539 C 26.7578 -97.7539 16.0645 -86.8652 16.0645 -68.6523 L 16.0645 -18.6035 C 16.0645 -0.390625 27.1484 10.4492 44.5801 10.4492 L 47.3633 10.4492 L 47.3633 25.8789 C 47.3633 31.3477 50.3418 34.7656 55.2734 34.7656 Z M 58.252 20.9473 L 58.252 3.02734 C 58.252 -0.537109 56.6895 -1.9043 53.3691 -1.9043 L 45.6543 -1.9043 C 34.1797 -1.9043 28.418 -7.91016 28.418 -19.1406 L 28.418 -68.1152 C 28.418 -79.3945 34.1797 -85.4004 45.6543 -85.4004 L 125.488 -85.4004 C 136.914 -85.4004 142.773 -79.3945 142.773 -68.1152 L 142.773 -19.1406 C 142.773 -7.91016 136.914 -1.9043 125.488 -1.9043 L 86.5234 -1.9043 C 82.8125 -1.9043 81.0547 -1.2207 78.418 1.41602 Z M 56.6406 -47.168 C 56.6406 -40.1367 61.084 -34.8145 67.8711 -34.8145 C 70.7031 -34.8145 73.291 -35.498 74.9023 -37.5 L 75.6836 -37.5 C 73.8281 -32.7148 69.1406 -29.2969 64.5996 -28.1738 C 62.5977 -27.6855 61.8164 -26.6602 61.8164 -25.2441 C 61.8164 -23.6328 63.1348 -22.4609 64.8926 -22.4609 C 71.2891 -22.4609 83.2031 -30.1758 83.2031 -44.5801 C 83.2031 -53.2227 77.7344 -59.7656 69.5801 -59.7656 C 62.1582 -59.7656 56.6406 -54.4922 56.6406 -47.168 Z M 89.4531 -47.168 C 89.4531 -40.1367 93.8965 -34.8145 100.684 -34.8145 C 103.516 -34.8145 106.104 -35.498 107.715 -37.5 L 108.496 -37.5 C 106.641 -32.7148 101.953 -29.2969 97.4121 -28.1738 C 95.4102 -27.6855 94.6289 -26.6602 94.6289 -25.2441 C 94.6289 -23.6328 95.9473 -22.4609 97.7051 -22.4609 C 104.102 -22.4609 116.016 -30.1758 116.016 -44.5801 C 116.016 -53.2227 110.547 -59.7656 102.393 -59.7656 C 94.9707 -59.7656 89.4531 -54.4922 89.4531 -47.168 Z"/>
  </g>
  <g id="Medium-L" transform="matrix(1 0 0 1 1661.3 1556)">
   <path d="M 54.3457 33.9844 C 57.4707 33.9844 59.7656 32.4219 63.4766 29.1504 L 85.3027 9.96094 L 126.025 9.96094 C 144.092 9.96094 154.443 -0.585938 154.443 -18.457 L 154.443 -68.3594 C 154.443 -86.2305 144.092 -96.7773 126.025 -96.7773 L 44.4824 -96.7773 C 26.3672 -96.7773 16.0645 -86.2793 16.0645 -68.3594 L 16.0645 -18.457 C 16.0645 -0.537109 26.6113 9.96094 44.1406 9.96094 L 47.3145 9.96094 L 47.3145 25.9766 C 47.3145 30.9082 49.9512 33.9844 54.3457 33.9844 Z M 56.9824 21.9238 L 56.9824 3.75977 C 56.9824 0.488281 55.6152 -0.78125 52.4414 -0.78125 L 44.7754 -0.78125 C 32.8125 -0.78125 26.8066 -7.08008 26.8066 -18.75 L 26.8066 -68.0176 C 26.8066 -79.6875 32.8125 -86.0352 44.7754 -86.0352 L 125.732 -86.0352 C 137.598 -86.0352 143.701 -79.6875 143.701 -68.0176 L 143.701 -18.75 C 143.701 -7.08008 137.598 -0.78125 125.732 -0.78125 L 84.8633 -0.78125 C 81.4453 -0.78125 79.7363 -0.195312 77.2949 2.24609 Z M 56.8359 -46.7285 C 56.8359 -39.8438 61.1816 -34.6191 67.9199 -34.6191 C 70.6055 -34.6191 73.1445 -35.2539 74.7559 -37.207 L 75.3906 -37.207 C 73.3887 -32.2754 68.6523 -28.9551 64.502 -27.9297 C 62.4512 -27.3926 61.7676 -26.416 61.7676 -25.0488 C 61.7676 -23.4863 62.9883 -22.3145 64.6973 -22.3145 C 70.8008 -22.3145 82.7637 -29.6875 82.7637 -44.3359 C 82.7637 -52.7344 77.3438 -59.0332 69.4824 -59.0332 C 62.2559 -59.0332 56.8359 -53.8574 56.8359 -46.7285 Z M 89.2578 -46.7285 C 89.2578 -39.8438 93.6523 -34.6191 100.342 -34.6191 C 103.027 -34.6191 105.566 -35.2539 107.178 -37.207 L 107.812 -37.207 C 105.859 -32.2754 101.074 -28.9551 96.9238 -27.9297 C 94.873 -27.3926 94.1895 -26.416 94.1895 -25.0488 C 94.1895 -23.4863 95.459 -22.3145 97.1191 -22.3145 C 103.223 -22.3145 115.234 -29.6875 115.234 -44.3359 C 115.234 -52.7344 109.814 -59.0332 101.953 -59.0332 C 94.7266 -59.0332 89.2578 -53.8574 89.2578 -46.7285 Z"/>
  </g>
  <g id="Regular-L" transform="matrix(1 0 0 1 1365.01 1556)">
   <path d="M 53.1738 32.959 C 55.8594 32.959 57.7148 31.543 60.8887 28.7109 L 82.9102 9.32617 L 126.074 9.32617 C 143.75 9.32617 153.613 -0.78125 153.613 -18.1641 L 153.613 -67.9688 C 153.613 -85.4004 143.75 -95.5078 126.074 -95.5078 L 43.6035 -95.5078 C 25.8789 -95.5078 16.0645 -85.4492 16.0645 -67.9688 L 16.0645 -18.1641 C 16.0645 -0.683594 25.8789 9.32617 43.6035 9.32617 L 47.2656 9.32617 L 47.2656 26.123 C 47.2656 30.2734 49.4141 32.959 53.1738 32.959 Z M 55.3223 23.1445 L 55.3223 4.78516 C 55.3223 1.80664 54.1992 0.683594 51.2695 0.683594 L 43.6523 0.683594 C 31.0547 0.683594 24.707 -6.05469 24.707 -18.2617 L 24.707 -67.9199 C 24.707 -80.127 31.0547 -86.8652 43.6523 -86.8652 L 126.025 -86.8652 C 138.477 -86.8652 144.971 -80.127 144.971 -67.9199 L 144.971 -18.2617 C 144.971 -6.05469 138.477 0.683594 126.025 0.683594 L 82.7148 0.683594 C 79.6387 0.683594 78.0273 1.17188 75.8789 3.36914 Z M 57.0312 -46.1426 C 57.0312 -39.502 61.2793 -34.3262 67.9199 -34.3262 C 70.459 -34.3262 72.9492 -34.8633 74.5117 -36.8652 L 75 -36.8652 C 72.8516 -31.7383 68.0176 -28.5645 64.3555 -27.5879 C 62.2559 -27.002 61.6211 -26.0742 61.6211 -24.7559 C 61.6211 -23.291 62.793 -22.1191 64.4043 -22.1191 C 70.1172 -22.1191 82.2266 -29.0527 82.2266 -43.9453 C 82.2266 -52.0508 76.8555 -58.0566 69.3848 -58.0566 C 62.3535 -58.0566 57.0312 -53.0762 57.0312 -46.1426 Z M 89.0137 -46.1426 C 89.0137 -39.502 93.2617 -34.3262 99.9023 -34.3262 C 102.441 -34.3262 104.932 -34.8633 106.494 -36.8652 L 106.982 -36.8652 C 104.834 -31.7383 100 -28.5645 96.3379 -27.5879 C 94.2383 -27.002 93.6035 -26.0742 93.6035 -24.7559 C 93.6035 -23.291 94.7754 -22.1191 96.3867 -22.1191 C 102.1 -22.1191 114.16 -29.0527 114.16 -43.9453 C 114.16 -52.0508 108.838 -58.0566 101.367 -58.0566 C 94.3359 -58.0566 89.0137 -53.0762 89.0137 -46.1426 Z"/>
  </g>
  <g id="Light-L" transform="matrix(1 0 0 1 1069.2 1556)">
   <path d="M 50.9277 31.5918 C 52.9785 31.5918 54.4922 30.4688 56.7871 28.418 L 79.1504 8.98438 L 126.074 8.98438 C 142.334 8.98438 151.807 -0.683594 151.807 -16.6992 L 151.807 -68.6035 C 151.807 -84.6191 142.334 -94.2871 126.074 -94.2871 L 41.7969 -94.2871 C 25.5371 -94.2871 16.0645 -84.7168 16.0645 -68.6035 L 16.0645 -16.6992 C 16.0645 -0.585938 25.5371 8.98438 41.7969 8.98438 L 46.3379 8.98438 L 46.3379 26.3184 C 46.3379 29.541 48.0957 31.5918 50.9277 31.5918 Z M 52.5391 24.1211 L 52.5391 5.51758 C 52.5391 3.27148 51.6602 2.34375 49.3652 2.34375 L 41.8945 2.34375 C 29.541 2.34375 22.7051 -4.73633 22.7051 -16.8457 L 22.7051 -68.5059 C 22.7051 -80.5664 29.541 -87.6953 41.8945 -87.6953 L 125.977 -87.6953 C 138.135 -87.6953 145.166 -80.5664 145.166 -68.5059 L 145.166 -16.8457 C 145.166 -4.73633 138.135 2.34375 125.977 2.34375 L 79.3457 2.34375 C 76.8066 2.34375 75.4883 2.7832 73.584 4.63867 Z M 57.7637 -45.8496 C 57.7637 -39.5508 61.8652 -34.7656 68.1641 -34.7656 C 70.7031 -34.7656 73.1445 -35.4004 74.707 -37.4023 L 75.1953 -37.4023 C 73.1445 -32.1289 68.0176 -28.9062 64.7461 -28.0273 C 62.8906 -27.5391 62.3535 -26.709 62.3535 -25.5371 C 62.3535 -24.1699 63.3789 -23.1445 64.7949 -23.1445 C 69.873 -23.1445 81.6406 -29.5898 81.6406 -43.7988 C 81.6406 -51.6602 76.3184 -57.1777 69.4336 -57.1777 C 62.793 -57.1777 57.7637 -52.3438 57.7637 -45.8496 Z M 88.6719 -45.8496 C 88.6719 -39.5508 92.7734 -34.7656 99.0723 -34.7656 C 101.611 -34.7656 104.053 -35.4004 105.615 -37.4023 L 106.104 -37.4023 C 104.053 -32.1289 98.9258 -28.9062 95.6543 -28.0273 C 93.7988 -27.5391 93.2617 -26.709 93.2617 -25.5371 C 93.2617 -24.1699 94.2871 -23.1445 95.7031 -23.1445 C 100.781 -23.1445 112.549 -29.5898 112.549 -43.7988 C 112.549 -51.6602 107.227 -57.1777 100.342 -57.1777 C 93.7012 -57.1777 88.6719 -52.3438 88.6719 -45.8496 Z"/>
  </g>
  <g id="Thin-L" transform="matrix(1 0 0 1 773.683 1556)">
   <path d="M 47.9492 29.7852 C 49.2188 29.7852 50.2441 29.0527 51.416 28.0273 L 74.2188 8.54492 L 126.074 8.54492 C 140.43 8.54492 149.414 -0.634766 149.414 -14.7949 L 149.414 -69.3848 C 149.414 -83.5449 140.43 -92.7246 126.074 -92.7246 L 39.3555 -92.7246 C 25.0488 -92.7246 16.0645 -83.6914 16.0645 -69.3848 L 16.0645 -14.7949 C 16.0645 -0.488281 25.0488 8.54492 39.3555 8.54492 L 45.1172 8.54492 L 45.1172 26.5137 C 45.1172 28.5156 46.2891 29.7852 47.9492 29.7852 Z M 48.8281 25.4395 L 48.8281 6.54297 C 48.8281 5.17578 48.2422 4.58984 46.875 4.58984 L 39.502 4.58984 C 27.5391 4.58984 19.9707 -2.97852 19.9707 -14.9414 L 19.9707 -69.2383 C 19.9707 -81.2012 27.5391 -88.7695 39.502 -88.7695 L 125.928 -88.7695 C 137.646 -88.7695 145.459 -81.2012 145.459 -69.2383 L 145.459 -14.9414 C 145.459 -2.97852 137.646 4.58984 125.928 4.58984 L 74.8535 4.58984 C 73.0469 4.58984 72.1191 4.93164 70.6055 6.34766 Z M 58.6914 -45.5078 C 58.6914 -39.6484 62.6465 -35.3027 68.5059 -35.3027 C 71.0449 -35.3027 73.3887 -36.1328 74.9512 -38.1348 L 75.4395 -38.1348 C 73.5352 -32.6172 68.0176 -29.3457 65.2832 -28.6133 C 63.7695 -28.1738 63.2812 -27.4902 63.2812 -26.5625 C 63.2812 -25.3906 64.1113 -24.5117 65.2832 -24.5117 C 69.5312 -24.5117 80.9082 -30.2734 80.9082 -43.5547 C 80.9082 -51.1719 75.5859 -56.0547 69.5312 -56.0547 C 63.3789 -56.0547 58.6914 -51.416 58.6914 -45.5078 Z M 88.1836 -45.5078 C 88.1836 -39.6484 92.1387 -35.3027 97.998 -35.3027 C 100.537 -35.3027 102.881 -36.1328 104.443 -38.1348 L 104.932 -38.1348 C 103.027 -32.6172 97.5098 -29.3457 94.7754 -28.6133 C 93.2617 -28.1738 92.7734 -27.4902 92.7734 -26.5625 C 92.7734 -25.3906 93.6035 -24.5117 94.7754 -24.5117 C 99.0234 -24.5117 110.4 -30.2734 110.4 -43.5547 C 110.4 -51.1719 105.078 -56.0547 99.0234 -56.0547 C 92.8711 -56.0547 88.1836 -51.416 88.1836 -45.5078 Z"/>
  </g>
  <g id="Ultralight-L" transform="matrix(1 0 0 1 477.607 1556)">
   <path d="M 46.4355 28.8574 C 47.3145 28.8574 48.0469 28.3203 48.6816 27.832 L 71.6797 8.30078 L 126.074 8.30078 C 139.453 8.30078 148.145 -0.585938 148.145 -13.8184 L 148.145 -69.8242 C 148.145 -83.0078 139.453 -91.8945 126.074 -91.8945 L 38.1348 -91.8945 C 24.8047 -91.8945 16.0645 -83.2031 16.0645 -69.8242 L 16.0645 -13.8184 C 16.0645 -0.439453 24.8047 8.30078 38.1348 8.30078 L 44.4824 8.30078 L 44.4824 26.6113 C 44.4824 28.0273 45.3613 28.8574 46.4355 28.8574 Z M 46.9238 26.0742 L 46.9238 7.03125 C 46.9238 6.15234 46.4844 5.71289 45.6055 5.71289 L 38.3301 5.71289 C 26.5137 5.71289 18.6035 -2.09961 18.6035 -13.9648 L 18.6035 -69.6289 C 18.6035 -81.4941 26.5137 -89.3555 38.3301 -89.3555 L 125.928 -89.3555 C 137.354 -89.3555 145.605 -81.4941 145.605 -69.6289 L 145.605 -13.9648 C 145.605 -2.09961 137.354 5.71289 125.928 5.71289 L 72.5098 5.71289 C 71.0938 5.71289 70.4102 6.05469 69.043 7.22656 Z M 59.1797 -45.3125 C 59.1797 -39.6973 63.0859 -35.5469 68.6523 -35.5469 C 71.2402 -35.5469 73.5352 -36.4746 75.0488 -38.5254 L 75.5371 -38.5254 C 73.7305 -32.9102 68.0176 -29.5898 65.5762 -28.9062 C 64.209 -28.5156 63.7207 -27.9297 63.7207 -27.0996 C 63.7207 -25.9766 64.502 -25.2441 65.5762 -25.2441 C 69.3848 -25.2441 80.5176 -30.6152 80.5176 -43.4082 C 80.5176 -50.9277 75.2441 -55.5176 69.5801 -55.5176 C 63.6719 -55.5176 59.1797 -50.9766 59.1797 -45.3125 Z M 87.9395 -45.3125 C 87.9395 -39.6973 91.8457 -35.5469 97.4121 -35.5469 C 100 -35.5469 102.295 -36.4746 103.857 -38.5254 L 104.297 -38.5254 C 102.49 -32.9102 96.7773 -29.5898 94.3359 -28.9062 C 92.9688 -28.5156 92.4805 -27.9297 92.4805 -27.0996 C 92.4805 -25.9766 93.2617 -25.2441 94.3359 -25.2441 C 98.1445 -25.2441 109.326 -30.6152 109.326 -43.4082 C 109.326 -50.9277 104.004 -55.5176 98.3398 -55.5176 C 92.4316 -55.5176 87.9395 -50.9766 87.9395 -45.3125 Z"/>
  </g>
  <g id="Black-M" transform="matrix(1 0 0 1 2865.58 1126)">
   <path d="M 47.168 23.0469 C 51.5625 23.0469 55.4199 21.4355 60.8398 16.748 L 76.9043 2.97852 L 97.4609 2.97852 C 112.793 2.97852 123.193 -7.42188 123.193 -22.7539 L 123.193 -63.2812 C 123.193 -78.6133 112.793 -89.0137 97.4609 -89.0137 L 38.1836 -89.0137 C 22.8516 -89.0137 12.4512 -78.6133 12.4512 -63.2812 L 12.4512 -22.7539 C 12.4512 -7.42188 24.1211 2.97852 36.2793 2.97852 L 36.6211 2.97852 L 36.6211 11.5723 C 36.6211 18.75 40.7227 23.0469 47.168 23.0469 Z M 51.4648 2.97852 L 51.4648 -9.81445 C 51.4648 -13.8184 49.1699 -15.332 45.9473 -15.332 L 39.8438 -15.332 C 33.9355 -15.332 30.7617 -18.2617 30.7617 -24.4141 L 30.7617 -61.6211 C 30.7617 -67.7734 33.9355 -70.7031 39.8438 -70.7031 L 95.8008 -70.7031 C 101.66 -70.7031 104.883 -67.7734 104.883 -61.6211 L 104.883 -24.4141 C 104.883 -18.2617 101.66 -15.332 95.8008 -15.332 L 75.2441 -15.332 C 71.0938 -15.332 69.4824 -14.4043 66.3574 -11.377 Z M 43.1641 -47.0703 C 43.1641 -40.8203 47.168 -36.4258 52.5879 -36.4258 C 55.5664 -36.4258 57.8125 -37.4023 59.2285 -39.0625 L 60.5469 -39.0625 C 59.9121 -36.0352 56.543 -32.7637 50.8789 -31.5918 C 49.707 -31.3477 48.8281 -30.4688 48.8281 -29.248 C 48.8281 -27.5879 50.1953 -26.8066 51.8555 -26.8066 C 58.3496 -26.8066 66.8457 -34.6191 66.8457 -44.0918 C 66.8457 -51.9531 62.3047 -58.3496 54.3945 -58.3496 C 47.8516 -58.3496 43.1641 -53.6133 43.1641 -47.0703 Z M 70.2637 -47.0703 C 70.2637 -40.8203 74.2676 -36.4258 79.6875 -36.4258 C 82.6172 -36.4258 84.8633 -37.4023 86.3281 -39.0625 L 87.6465 -39.0625 C 86.9629 -36.0352 83.5938 -32.7637 77.9297 -31.5918 C 76.8066 -31.3477 75.9277 -30.4688 75.9277 -29.248 C 75.9277 -27.5879 77.2949 -26.8066 78.9062 -26.8066 C 85.4004 -26.8066 93.9453 -34.6191 93.9453 -44.0918 C 93.9453 -51.9531 89.3555 -58.3496 81.4941 -58.3496 C 74.9023 -58.3496 70.2637 -53.6133 70.2637 -47.0703 Z"/>
  </g>
  <g id="Heavy-M" transform="matrix(1 0 0 1 2569.23 1126)">
   <path d="M 46.0449 21.9238 C 50 21.9238 53.3203 20.4102 58.1543 16.2109 L 74.4141 2.14844 L 97.5098 2.14844 C 112.646 2.14844 122.461 -7.71484 122.461 -22.8027 L 122.461 -62.5488 C 122.461 -77.6367 112.646 -87.5 97.5098 -87.5 L 37.4023 -87.5 C 22.2656 -87.5 12.4512 -77.6367 12.4512 -62.5488 L 12.4512 -22.8027 C 12.4512 -7.71484 23.2422 2.14844 35.9375 2.14844 L 36.7188 2.14844 L 36.7188 11.7676 C 36.7188 18.1152 40.332 21.9238 46.0449 21.9238 Z M 49.8047 4.54102 L 49.8047 -8.59375 C 49.8047 -12.3047 47.8516 -13.6719 44.7266 -13.6719 L 38.6719 -13.6719 C 31.8359 -13.6719 28.2715 -17.1387 28.2715 -24.0723 L 28.2715 -61.2793 C 28.2715 -68.2129 31.8359 -71.6797 38.6719 -71.6797 L 96.2402 -71.6797 C 103.076 -71.6797 106.641 -68.2129 106.641 -61.2793 L 106.641 -24.0723 C 106.641 -17.1387 103.076 -13.6719 96.2402 -13.6719 L 73.0957 -13.6719 C 69.2871 -13.6719 67.7246 -12.8418 64.8926 -10.1074 Z M 43.3105 -46.2891 C 43.3105 -40.2344 47.168 -35.9375 52.5879 -35.9375 C 55.2734 -35.9375 57.4707 -36.7676 58.8379 -38.3789 L 59.9609 -38.3789 C 59.0332 -35.1562 55.6152 -32.0801 50.5859 -31.0059 C 49.2676 -30.7129 48.4863 -29.834 48.4863 -28.6133 C 48.4863 -27.0996 49.7559 -26.2695 51.3184 -26.2695 C 57.4219 -26.2695 66.2109 -33.5938 66.2109 -43.6035 C 66.2109 -51.1719 61.7188 -57.1777 54.248 -57.1777 C 47.9004 -57.1777 43.3105 -52.6367 43.3105 -46.2891 Z M 70.0195 -46.2891 C 70.0195 -40.2344 73.8281 -35.9375 79.248 -35.9375 C 81.9824 -35.9375 84.1309 -36.7676 85.5469 -38.3789 L 86.6211 -38.3789 C 85.7422 -35.1562 82.3242 -32.0801 77.2461 -31.0059 C 75.9766 -30.7129 75.1465 -29.834 75.1465 -28.6133 C 75.1465 -27.0996 76.4648 -26.2695 78.0273 -26.2695 C 84.082 -26.2695 92.8711 -33.5938 92.8711 -43.6035 C 92.8711 -51.1719 88.3789 -57.1777 80.9082 -57.1777 C 74.6094 -57.1777 70.0195 -52.6367 70.0195 -46.2891 Z"/>
  </g>
  <g id="Bold-M" transform="matrix(1 0 0 1 2272.94 1126)">
   <path d="M 44.8242 20.7031 C 48.2422 20.7031 50.9766 19.2871 55.1758 15.625 L 71.6309 1.2207 L 97.5586 1.2207 C 112.5 1.2207 121.631 -8.00781 121.631 -22.8027 L 121.631 -61.7676 C 121.631 -76.5625 112.5 -85.791 97.5586 -85.791 L 36.4746 -85.791 C 21.582 -85.791 12.4512 -76.6113 12.4512 -61.7676 L 12.4512 -22.8027 C 12.4512 -7.95898 22.2168 1.2207 35.5469 1.2207 L 36.8652 1.2207 L 36.8652 11.9141 C 36.8652 17.3828 39.8926 20.7031 44.8242 20.7031 Z M 47.9492 6.20117 L 47.9492 -7.22656 C 47.9492 -10.5957 46.3379 -11.8652 43.3594 -11.8652 L 37.3535 -11.8652 C 29.4434 -11.8652 25.5371 -15.8203 25.5371 -23.6328 L 25.5371 -60.9375 C 25.5371 -68.75 29.4434 -72.7539 37.3535 -72.7539 L 96.7285 -72.7539 C 104.59 -72.7539 108.545 -68.75 108.545 -60.9375 L 108.545 -23.6328 C 108.545 -15.8203 104.59 -11.8652 96.7285 -11.8652 L 70.6543 -11.8652 C 67.2363 -11.8652 65.7227 -11.1816 63.2324 -8.69141 Z M 43.5059 -45.459 C 43.5059 -39.6484 47.168 -35.4004 52.5391 -35.4004 C 54.9805 -35.4004 57.1289 -36.0352 58.4473 -37.6465 L 59.2773 -37.6465 C 58.1055 -34.1797 54.6387 -31.2988 50.2441 -30.3223 C 48.7793 -29.9805 48.0957 -29.1504 48.0957 -27.9297 C 48.0957 -26.5137 49.2676 -25.6348 50.7812 -25.6348 C 56.3965 -25.6348 65.4297 -32.373 65.4297 -43.1152 C 65.4297 -50.2441 61.084 -55.8594 54.1016 -55.8594 C 47.998 -55.8594 43.5059 -51.5137 43.5059 -45.459 Z M 69.7266 -45.459 C 69.7266 -39.6484 73.3887 -35.4004 78.8086 -35.4004 C 81.25 -35.4004 83.3496 -36.0352 84.668 -37.6465 L 85.5469 -37.6465 C 84.3262 -34.1797 80.8594 -31.2988 76.5137 -30.3223 C 75.0488 -29.9805 74.3164 -29.1504 74.3164 -27.9297 C 74.3164 -26.5137 75.4883 -25.6348 77.002 -25.6348 C 82.6172 -25.6348 91.6504 -32.373 91.6504 -43.1152 C 91.6504 -50.2441 87.3047 -55.8594 80.3223 -55.8594 C 74.2188 -55.8594 69.7266 -51.5137 69.7266 -45.459 Z"/>
  </g>
  <g id="Semibold-M" transform="matrix(1 0 0 1 1976.52 1126)">
   <path d="M 43.9941 19.873 C 47.0215 19.873 49.3652 18.5059 53.0762 15.2344 L 69.7266 0.585938 L 97.6074 0.585938 C 112.402 0.585938 121.045 -8.20312 121.045 -22.8027 L 121.045 -61.2305 C 121.045 -75.8301 112.402 -84.668 97.6074 -84.668 L 35.8887 -84.668 C 21.0938 -84.668 12.4512 -75.8789 12.4512 -61.2305 L 12.4512 -22.8027 C 12.4512 -8.1543 21.4844 0.585938 35.2539 0.585938 L 36.9629 0.585938 L 36.9629 12.0117 C 36.9629 16.8457 39.5996 19.873 43.9941 19.873 Z M 46.6797 7.42188 L 46.6797 -6.29883 C 46.6797 -9.42383 45.3125 -10.5469 42.4316 -10.5469 L 36.4258 -10.5469 C 27.7832 -10.5469 23.6328 -14.9414 23.6328 -23.3887 L 23.6328 -60.6934 C 23.6328 -69.1406 27.7832 -73.4863 36.4258 -73.4863 L 97.0703 -73.4863 C 105.664 -73.4863 109.863 -69.1406 109.863 -60.6934 L 109.863 -23.3887 C 109.863 -14.9414 105.664 -10.5469 97.0703 -10.5469 L 68.9941 -10.5469 C 65.8203 -10.5469 64.3555 -10.0098 62.0605 -7.71484 Z M 43.6035 -44.873 C 43.6035 -39.209 47.168 -35.0098 52.5391 -35.0098 C 54.7852 -35.0098 56.8359 -35.5469 58.1543 -37.1094 L 58.8379 -37.1094 C 57.4219 -33.4961 53.9551 -30.7617 50.0488 -29.834 C 48.4863 -29.4434 47.8516 -28.6621 47.8516 -27.4902 C 47.8516 -26.123 48.9258 -25.2441 50.3906 -25.2441 C 55.7129 -25.2441 64.9414 -31.5918 64.9414 -42.7246 C 64.9414 -49.6094 60.6445 -54.9805 53.9551 -54.9805 C 47.998 -54.9805 43.6035 -50.7812 43.6035 -44.873 Z M 69.5312 -44.873 C 69.5312 -39.209 73.0957 -35.0098 78.4668 -35.0098 C 80.7129 -35.0098 82.7637 -35.5469 84.082 -37.1094 L 84.7656 -37.1094 C 83.3496 -33.4961 79.834 -30.7617 75.9766 -29.834 C 74.4141 -29.4434 73.7793 -28.6621 73.7793 -27.4902 C 73.7793 -26.123 74.8535 -25.2441 76.3184 -25.2441 C 81.6406 -25.2441 90.8691 -31.5918 90.8691 -42.7246 C 90.8691 -49.6094 86.5723 -54.9805 79.8828 -54.9805 C 73.9258 -54.9805 69.5312 -50.7812 69.5312 -44.873 Z"/>
  </g>
  <g id="Medium-M" transform="matrix(1 0 0 1 1680.03 1126)">
   <path d="M 43.3105 19.2383 C 46.0938 19.2383 48.1445 17.8711 51.5137 14.8926 L 68.2617 0.146484 L 97.6562 0.146484 C 112.354 0.146484 120.605 -8.34961 120.605 -22.8516 L 120.605 -60.791 C 120.605 -75.293 112.354 -83.7891 97.6562 -83.7891 L 35.4004 -83.7891 C 20.752 -83.7891 12.4512 -75.293 12.4512 -60.791 L 12.4512 -22.8516 C 12.4512 -8.30078 20.9961 0.146484 35.0586 0.146484 L 37.0605 0.146484 L 37.0605 12.1094 C 37.0605 16.4551 39.3555 19.2383 43.3105 19.2383 Z M 45.752 8.30078 L 45.752 -5.61523 C 45.752 -8.49609 44.4824 -9.61914 41.748 -9.61914 L 35.7422 -9.61914 C 26.5625 -9.61914 22.168 -14.2578 22.168 -23.1445 L 22.168 -60.498 C 22.168 -69.3848 26.5625 -74.0234 35.7422 -74.0234 L 97.3633 -74.0234 C 106.494 -74.0234 110.889 -69.3848 110.889 -60.498 L 110.889 -23.1445 C 110.889 -14.2578 106.494 -9.61914 97.3633 -9.61914 L 67.7246 -9.61914 C 64.7461 -9.61914 63.2812 -9.13086 61.2305 -6.98242 Z M 43.7012 -44.4336 C 43.7012 -38.916 47.168 -34.7168 52.5391 -34.7168 C 54.6387 -34.7168 56.6406 -35.1562 57.9102 -36.6699 L 58.4961 -36.6699 C 56.9336 -32.959 53.418 -30.3711 49.8535 -29.4922 C 48.1934 -29.1016 47.6562 -28.2715 47.6562 -27.1484 C 47.6562 -25.8301 48.6816 -24.9023 50.0977 -24.9023 C 55.1758 -24.9023 64.5508 -30.957 64.5508 -42.4805 C 64.5508 -49.1211 60.3027 -54.2969 53.8574 -54.2969 C 48.0469 -54.2969 43.7012 -50.1953 43.7012 -44.4336 Z M 69.3848 -44.4336 C 69.3848 -38.916 72.8516 -34.7168 78.2227 -34.7168 C 80.3711 -34.7168 82.373 -35.1562 83.6426 -36.6699 L 84.1797 -36.6699 C 82.6172 -32.959 79.1016 -30.3711 75.5371 -29.4922 C 73.9258 -29.1016 73.3398 -28.2715 73.3398 -27.1484 C 73.3398 -25.8301 74.3652 -24.9023 75.7812 -24.9023 C 80.8594 -24.9023 90.2344 -30.957 90.2344 -42.4805 C 90.2344 -49.1211 85.9863 -54.2969 79.541 -54.2969 C 73.7305 -54.2969 69.3848 -50.1953 69.3848 -44.4336 Z"/>
  </g>
  <g id="Regular-M" transform="matrix(1 0 0 1 1383.58 1126)">
   <path d="M 42.4805 18.4082 C 44.873 18.4082 46.5332 17.1387 49.5117 14.502 L 66.3574 -0.488281 L 97.7051 -0.488281 C 112.256 -0.488281 120.068 -8.54492 120.068 -22.8516 L 120.068 -60.2539 C 120.068 -74.5605 112.256 -82.6172 97.7051 -82.6172 L 34.8145 -82.6172 C 20.2637 -82.6172 12.4512 -74.6094 12.4512 -60.2539 L 12.4512 -22.8516 C 12.4512 -8.49609 20.2637 -0.488281 34.8145 -0.488281 L 37.1582 -0.488281 L 37.1582 12.207 C 37.1582 15.9668 39.0625 18.4082 42.4805 18.4082 Z M 44.4824 9.47266 L 44.4824 -4.6875 C 44.4824 -7.32422 43.457 -8.34961 40.8203 -8.34961 L 34.8145 -8.34961 C 24.9512 -8.34961 20.3125 -13.3789 20.3125 -22.9004 L 20.3125 -60.2539 C 20.3125 -69.7754 24.9512 -74.7559 34.8145 -74.7559 L 97.7051 -74.7559 C 107.52 -74.7559 112.207 -69.7754 112.207 -60.2539 L 112.207 -22.9004 C 112.207 -13.3789 107.52 -8.34961 97.7051 -8.34961 L 66.0645 -8.34961 C 63.3301 -8.34961 61.9629 -7.95898 60.1074 -6.05469 Z M 43.7988 -43.8477 C 43.7988 -38.4766 47.168 -34.3262 52.4902 -34.3262 C 54.4434 -34.3262 56.3965 -34.668 57.666 -36.1816 L 58.0078 -36.1816 C 56.2988 -32.3242 52.7344 -29.834 49.6582 -29.0527 C 47.9004 -28.5645 47.3633 -27.7832 47.3633 -26.6602 C 47.3633 -25.4395 48.3398 -24.5117 49.707 -24.5117 C 54.4922 -24.5117 64.0137 -30.1758 64.0137 -42.0898 C 64.0137 -48.4863 59.8633 -53.418 53.7598 -53.418 C 48.0957 -53.418 43.7988 -49.4629 43.7988 -43.8477 Z M 69.1895 -43.8477 C 69.1895 -38.4766 72.5586 -34.3262 77.9297 -34.3262 C 79.834 -34.3262 81.7871 -34.668 83.0566 -36.1816 L 83.3984 -36.1816 C 81.6895 -32.3242 78.125 -29.834 75.0488 -29.0527 C 73.291 -28.5645 72.7539 -27.7832 72.7539 -26.6602 C 72.7539 -25.4395 73.7305 -24.5117 75.0977 -24.5117 C 79.8828 -24.5117 89.4043 -30.1758 89.4043 -42.0898 C 89.4043 -48.4863 85.2539 -53.418 79.1504 -53.418 C 73.4863 -53.418 69.1895 -49.4629 69.1895 -43.8477 Z"/>
  </g>
  <g id="Light-M" transform="matrix(1 0 0 1 1087.68 1126)">
   <path d="M 40.4785 17.1875 C 42.334 17.1875 43.6523 16.1621 45.8496 14.2578 L 63.0371 -0.830078 L 97.7051 -0.830078 C 110.938 -0.830078 118.457 -8.49609 118.457 -21.5332 L 118.457 -60.791 C 118.457 -73.877 110.938 -81.543 97.7051 -81.543 L 33.2031 -81.543 C 19.9707 -81.543 12.4512 -73.9258 12.4512 -60.791 L 12.4512 -21.5332 C 12.4512 -8.44727 19.9707 -0.830078 33.2031 -0.830078 L 36.3281 -0.830078 L 36.3281 12.3535 C 36.3281 15.2832 37.8418 17.1875 40.4785 17.1875 Z M 41.9922 10.3516 L 41.9922 -4.00391 C 41.9922 -6.05469 41.1621 -6.83594 39.1113 -6.83594 L 33.252 -6.83594 C 23.584 -6.83594 18.5059 -12.207 18.5059 -21.582 L 18.5059 -60.7422 C 18.5059 -70.166 23.584 -75.4883 33.252 -75.4883 L 97.6562 -75.4883 C 107.227 -75.4883 112.402 -70.166 112.402 -60.7422 L 112.402 -21.582 C 112.402 -12.207 107.227 -6.83594 97.6562 -6.83594 L 62.9883 -6.83594 C 60.791 -6.83594 59.668 -6.49414 58.0566 -4.88281 Z M 44.4336 -43.6035 C 44.4336 -38.5742 47.7051 -34.668 52.7344 -34.668 C 54.6875 -34.668 56.5918 -35.1562 57.8125 -36.6699 L 58.2031 -36.6699 C 56.543 -32.666 52.7344 -30.1758 50 -29.4434 C 48.4863 -29.0527 47.998 -28.3203 47.998 -27.3438 C 47.998 -26.2695 48.8281 -25.4395 50.0488 -25.4395 C 54.248 -25.4395 63.5254 -30.6152 63.5254 -41.9434 C 63.5254 -48.1445 59.375 -52.6367 53.8086 -52.6367 C 48.4863 -52.6367 44.4336 -48.8281 44.4336 -43.6035 Z M 68.8965 -43.6035 C 68.8965 -38.5742 72.1191 -34.668 77.1484 -34.668 C 79.1016 -34.668 81.0059 -35.1562 82.2266 -36.6699 L 82.6172 -36.6699 C 81.0059 -32.666 77.1484 -30.1758 74.4629 -29.4434 C 72.9004 -29.0527 72.4121 -28.3203 72.4121 -27.3438 C 72.4121 -26.2695 73.291 -25.4395 74.4629 -25.4395 C 78.6621 -25.4395 87.9395 -30.6152 87.9395 -41.9434 C 87.9395 -48.1445 83.7891 -52.6367 78.2227 -52.6367 C 72.9004 -52.6367 68.8965 -48.8281 68.8965 -43.6035 Z"/>
  </g>
  <g id="Thin-M" transform="matrix(1 0 0 1 792.042 1126)">
   <path d="M 37.8418 15.5273 C 38.9648 15.5273 39.8438 14.8926 41.0156 13.8672 L 58.5938 -1.2207 L 97.7051 -1.2207 C 109.229 -1.2207 116.309 -8.44727 116.309 -19.8242 L 116.309 -61.5234 C 116.309 -72.9004 109.229 -80.127 97.7051 -80.127 L 31.0547 -80.127 C 19.5312 -80.127 12.4512 -72.998 12.4512 -61.5234 L 12.4512 -19.8242 C 12.4512 -8.34961 19.5312 -1.2207 31.0547 -1.2207 L 35.2051 -1.2207 L 35.2051 12.5977 C 35.2051 14.4043 36.2793 15.5273 37.8418 15.5273 Z M 38.623 11.4746 L 38.623 -3.07617 C 38.623 -4.3457 38.1348 -4.83398 36.8652 -4.83398 L 31.1523 -4.83398 C 21.7773 -4.83398 16.0645 -10.6445 16.0645 -19.9219 L 16.0645 -61.4258 C 16.0645 -70.7031 21.7773 -76.5137 31.1523 -76.5137 L 97.6074 -76.5137 C 106.787 -76.5137 112.646 -70.7031 112.646 -61.4258 L 112.646 -19.9219 C 112.646 -10.6445 106.787 -4.83398 97.6074 -4.83398 L 58.9844 -4.83398 C 57.4219 -4.83398 56.6406 -4.58984 55.3711 -3.36914 Z M 45.2637 -43.2617 C 45.2637 -38.623 48.3887 -35.1562 53.0273 -35.1562 C 54.9805 -35.1562 56.8359 -35.791 58.0078 -37.3047 L 58.3984 -37.3047 C 56.9336 -33.1055 52.7344 -30.5664 50.4883 -29.9805 C 49.2188 -29.6387 48.8281 -29.0527 48.8281 -28.2715 C 48.8281 -27.3438 49.5117 -26.6602 50.4883 -26.6602 C 53.9551 -26.6602 62.8906 -31.25 62.8906 -41.6992 C 62.8906 -47.7051 58.7402 -51.6113 53.8574 -51.6113 C 48.9746 -51.6113 45.2637 -47.998 45.2637 -43.2617 Z M 68.457 -43.2617 C 68.457 -38.623 71.5332 -35.1562 76.1719 -35.1562 C 78.1738 -35.1562 79.9805 -35.791 81.2012 -37.3047 L 81.543 -37.3047 C 80.0781 -33.1055 75.8789 -30.5664 73.6328 -29.9805 C 72.4121 -29.6387 71.9727 -29.0527 71.9727 -28.2715 C 71.9727 -27.3438 72.7051 -26.6602 73.6816 -26.6602 C 77.1484 -26.6602 86.0352 -31.25 86.0352 -41.6992 C 86.0352 -47.7051 81.8848 -51.6113 77.002 -51.6113 C 72.168 -51.6113 68.457 -47.998 68.457 -43.2617 Z"/>
  </g>
  <g id="Ultralight-M" transform="matrix(1 0 0 1 495.893 1126)">
   <path d="M 36.4746 14.6973 C 37.2559 14.6973 37.8906 14.2578 38.5742 13.7207 L 56.3477 -1.41602 L 97.7051 -1.41602 C 108.35 -1.41602 115.186 -8.39844 115.186 -18.9453 L 115.186 -61.9141 C 115.186 -72.4121 108.35 -79.3945 97.7051 -79.3945 L 29.9316 -79.3945 C 19.2871 -79.3945 12.4512 -72.5586 12.4512 -61.9141 L 12.4512 -18.9453 C 12.4512 -8.25195 19.2871 -1.41602 29.9316 -1.41602 L 34.668 -1.41602 L 34.668 12.6953 C 34.668 13.916 35.4492 14.6973 36.4746 14.6973 Z M 36.9141 12.1094 L 36.9141 -2.63672 C 36.9141 -3.4668 36.5723 -3.80859 35.7422 -3.80859 L 30.0781 -3.80859 C 20.8496 -3.80859 14.8438 -9.81445 14.8438 -19.043 L 14.8438 -61.7676 C 14.8438 -70.9961 20.8496 -77.002 30.0781 -77.002 L 97.6074 -77.002 C 106.543 -77.002 112.793 -70.9961 112.793 -61.7676 L 112.793 -19.043 C 112.793 -9.81445 106.543 -3.80859 97.6074 -3.80859 L 56.8848 -3.80859 C 55.6641 -3.80859 55.0781 -3.56445 53.9551 -2.58789 Z M 45.7031 -43.1152 C 45.7031 -38.6719 48.7305 -35.4004 53.1738 -35.4004 C 55.1758 -35.4004 56.9824 -36.084 58.1543 -37.6465 L 58.4961 -37.6465 C 57.0801 -33.3496 52.7344 -30.8105 50.7324 -30.2246 C 49.6094 -29.9316 49.2676 -29.4434 49.2676 -28.7598 C 49.2676 -27.8809 49.8535 -27.2949 50.7324 -27.2949 C 53.8086 -27.2949 62.5488 -31.543 62.5488 -41.6016 C 62.5488 -47.4609 58.3984 -51.123 53.9062 -51.123 C 49.2676 -51.123 45.7031 -47.5586 45.7031 -43.1152 Z M 68.2129 -43.1152 C 68.2129 -38.6719 71.2402 -35.4004 75.6836 -35.4004 C 77.6855 -35.4004 79.4922 -36.084 80.6641 -37.6465 L 81.0059 -37.6465 C 79.5898 -33.3496 75.2441 -30.8105 73.2422 -30.2246 C 72.1191 -29.9316 71.7773 -29.4434 71.7773 -28.7598 C 71.7773 -27.8809 72.3633 -27.2949 73.2422 -27.2949 C 76.3184 -27.2949 85.0586 -31.543 85.0586 -41.6016 C 85.0586 -47.4609 80.9082 -51.123 76.416 -51.123 C 71.7285 -51.123 68.2129 -47.5586 68.2129 -43.1152 Z"/>
  </g>
  <g id="Black-S" transform="matrix(1 0 0 1 2880.28 696)">
   <path d="M 36.9141 10.3516 C 40.332 10.3516 43.3105 9.08203 47.5098 5.46875 L 60.1074 -5.37109 L 76.3672 -5.37109 C 88.3789 -5.37109 96.4844 -13.4766 96.4844 -25.4883 L 96.4844 -57.1289 C 96.4844 -69.1406 88.3789 -77.2461 76.3672 -77.2461 L 29.8828 -77.2461 C 17.8711 -77.2461 9.76562 -69.1406 9.76562 -57.1289 L 9.76562 -25.4883 C 9.76562 -13.4766 18.8477 -5.37109 28.418 -5.37109 L 28.7109 -5.37109 L 28.7109 1.46484 C 28.7109 7.03125 31.8848 10.3516 36.9141 10.3516 Z M 40.2344 -5.17578 L 40.2344 -15.2344 C 40.2344 -18.3594 38.4766 -19.5312 35.9375 -19.5312 L 31.1523 -19.5312 C 26.4648 -19.5312 23.9258 -21.875 23.9258 -26.7578 L 23.9258 -55.8594 C 23.9258 -60.7422 26.4648 -63.0859 31.1523 -63.0859 L 75.0977 -63.0859 C 79.7852 -63.0859 82.3242 -60.7422 82.3242 -55.8594 L 82.3242 -26.7578 C 82.3242 -21.875 79.7852 -19.5312 75.0977 -19.5312 L 58.8379 -19.5312 C 55.6152 -19.5312 54.3457 -18.7988 51.9043 -16.4551 Z M 33.8379 -44.4336 C 33.8379 -39.5508 36.9629 -36.1328 41.2109 -36.1328 C 43.5059 -36.1328 45.2637 -36.8652 46.3867 -38.1836 L 47.4121 -38.1836 C 46.875 -35.791 44.2383 -33.252 39.8438 -32.3242 C 38.916 -32.1289 38.2324 -31.4453 38.2324 -30.4688 C 38.2324 -29.1992 39.3066 -28.5645 40.5762 -28.5645 C 45.6543 -28.5645 52.3438 -34.668 52.3438 -42.1387 C 52.3438 -48.291 48.7793 -53.2715 42.627 -53.2715 C 37.5 -53.2715 33.8379 -49.5605 33.8379 -44.4336 Z M 55.0293 -44.4336 C 55.0293 -39.5508 58.1543 -36.1328 62.4023 -36.1328 C 64.6973 -36.1328 66.4551 -36.8652 67.5781 -38.1836 L 68.6035 -38.1836 C 68.0664 -35.791 65.4297 -33.252 61.0352 -32.3242 C 60.1074 -32.1289 59.4238 -31.4453 59.4238 -30.4688 C 59.4238 -29.1992 60.498 -28.5645 61.7676 -28.5645 C 66.8457 -28.5645 73.5352 -34.668 73.5352 -42.1387 C 73.5352 -48.291 69.9707 -53.2715 63.8184 -53.2715 C 58.6914 -53.2715 55.0293 -49.5605 55.0293 -44.4336 Z"/>
  </g>
  <g id="Heavy-S" transform="matrix(1 0 0 1 2583.76 696)">
   <path d="M 36.2793 9.66797 C 39.4043 9.66797 42.041 8.39844 45.8496 5.07812 L 58.5938 -5.95703 L 76.416 -5.95703 C 88.4277 -5.95703 96.0938 -13.6719 96.0938 -25.6348 L 96.0938 -56.543 C 96.0938 -68.5059 88.4277 -76.2207 76.416 -76.2207 L 29.4434 -76.2207 C 17.4316 -76.2207 9.76562 -68.5059 9.76562 -56.543 L 9.76562 -25.6348 C 9.76562 -13.6719 18.2129 -5.95703 28.3203 -5.95703 L 28.9062 -5.95703 L 28.9062 1.5625 C 28.9062 6.5918 31.7383 9.66797 36.2793 9.66797 Z M 39.2578 -4.10156 L 39.2578 -14.3555 C 39.2578 -17.334 37.6953 -18.457 35.2051 -18.457 L 30.4199 -18.457 C 25 -18.457 22.2656 -21.0938 22.2656 -26.6113 L 22.2656 -55.5664 C 22.2656 -61.0352 25 -63.7207 30.4199 -63.7207 L 75.4395 -63.7207 C 80.8594 -63.7207 83.6426 -61.0352 83.6426 -55.5664 L 83.6426 -26.6113 C 83.6426 -21.0938 80.8594 -18.457 75.4395 -18.457 L 57.5195 -18.457 C 54.4922 -18.457 53.2227 -17.8223 50.9766 -15.625 Z M 33.8867 -43.8965 C 33.8867 -39.1113 36.9141 -35.6934 41.1621 -35.6934 C 43.2617 -35.6934 44.9707 -36.3281 46.0938 -37.5977 L 46.9238 -37.5977 C 46.1914 -35.0586 43.5547 -32.666 39.5996 -31.8359 C 38.5254 -31.5918 37.8906 -30.9082 37.8906 -29.9316 C 37.8906 -28.7109 38.916 -28.0273 40.1367 -28.0273 C 44.9707 -28.0273 51.9043 -33.7891 51.9043 -41.7969 C 51.9043 -47.7051 48.3887 -52.4414 42.4805 -52.4414 C 37.5 -52.4414 33.8867 -48.877 33.8867 -43.8965 Z M 54.8828 -43.8965 C 54.8828 -39.1113 57.9102 -35.6934 62.1582 -35.6934 C 64.2578 -35.6934 65.9668 -36.3281 67.0898 -37.5977 L 67.9199 -37.5977 C 67.1875 -35.0586 64.5508 -32.666 60.5957 -31.8359 C 59.5215 -31.5918 58.8867 -30.9082 58.8867 -29.9316 C 58.8867 -28.7109 59.9121 -28.0273 61.1328 -28.0273 C 65.9668 -28.0273 72.9004 -33.7891 72.9004 -41.7969 C 72.9004 -47.7051 69.3848 -52.4414 63.4766 -52.4414 C 58.4961 -52.4414 54.8828 -48.877 54.8828 -43.8965 Z"/>
  </g>
  <g id="Bold-S" transform="matrix(1 0 0 1 2287.27 696)">
   <path d="M 35.5957 8.88672 C 38.3789 8.88672 40.5762 7.66602 44.043 4.6875 L 56.8848 -6.64062 L 76.4648 -6.64062 C 88.4766 -6.64062 95.6543 -13.916 95.6543 -25.8301 L 95.6543 -55.8594 C 95.6543 -67.7734 88.4766 -75.0488 76.4648 -75.0488 L 28.9551 -75.0488 C 16.9434 -75.0488 9.76562 -67.7734 9.76562 -55.8594 L 9.76562 -25.8301 C 9.76562 -13.916 17.4316 -6.64062 28.2227 -6.64062 L 29.1016 -6.64062 L 29.1016 1.66016 C 29.1016 6.10352 31.543 8.88672 35.5957 8.88672 Z M 38.1836 -2.92969 L 38.1836 -13.4277 C 38.1836 -16.1621 36.8164 -17.2363 34.375 -17.2363 L 29.5898 -17.2363 C 23.3398 -17.2363 20.3613 -20.2637 20.3613 -26.4648 L 20.3613 -55.2246 C 20.3613 -61.4258 23.3398 -64.4531 29.5898 -64.4531 L 75.8301 -64.4531 C 82.0801 -64.4531 85.0586 -61.4258 85.0586 -55.2246 L 85.0586 -26.4648 C 85.0586 -20.2637 82.0801 -17.2363 75.8301 -17.2363 L 56.0547 -17.2363 C 53.2227 -17.2363 52.002 -16.6992 50 -14.6973 Z M 33.9355 -43.2617 C 33.9355 -38.6719 36.8164 -35.2539 41.1133 -35.2539 C 43.0176 -35.2539 44.6777 -35.6934 45.752 -36.9629 L 46.3867 -36.9629 C 45.4102 -34.2773 42.7734 -32.0801 39.3066 -31.25 C 38.0859 -30.957 37.5488 -30.2734 37.5488 -29.3457 C 37.5488 -28.1738 38.4766 -27.4414 39.6973 -27.4414 C 44.2383 -27.4414 51.3672 -32.8613 51.3672 -41.4062 C 51.3672 -47.0215 47.9492 -51.5625 42.3828 -51.5625 C 37.5 -51.5625 33.9355 -48.1445 33.9355 -43.2617 Z M 54.6875 -43.2617 C 54.6875 -38.6719 57.6172 -35.2539 61.9141 -35.2539 C 63.8184 -35.2539 65.4785 -35.6934 66.5039 -36.9629 L 67.1875 -36.9629 C 66.2109 -34.2773 63.5254 -32.0801 60.0586 -31.25 C 58.8379 -30.957 58.3008 -30.2734 58.3008 -29.3457 C 58.3008 -28.1738 59.2285 -27.4414 60.4492 -27.4414 C 64.9902 -27.4414 72.168 -32.8613 72.168 -41.4062 C 72.168 -47.0215 68.75 -51.5625 63.1348 -51.5625 C 58.3008 -51.5625 54.6875 -48.1445 54.6875 -43.2617 Z"/>
  </g>
  <g id="Semibold-S" transform="matrix(1 0 0 1 1990.7 696)">
   <path d="M 35.1074 8.30078 C 37.6465 8.30078 39.5996 7.12891 42.7734 4.39453 L 55.7129 -7.08008 L 76.5137 -7.08008 C 88.5254 -7.08008 95.3613 -14.0625 95.3613 -25.9277 L 95.3613 -55.3711 C 95.3613 -67.2852 88.5254 -74.2676 76.5137 -74.2676 L 28.6621 -74.2676 C 16.6504 -74.2676 9.76562 -67.2852 9.76562 -55.3711 L 9.76562 -25.9277 C 9.76562 -14.0625 16.9434 -7.08008 28.1738 -7.08008 L 29.248 -7.08008 L 29.248 1.75781 C 29.248 5.81055 31.4453 8.30078 35.1074 8.30078 Z M 37.4023 -2.09961 L 37.4023 -12.7441 C 37.4023 -15.3809 36.2305 -16.3574 33.7891 -16.3574 L 29.0527 -16.3574 C 22.168 -16.3574 19.0918 -19.6777 19.0918 -26.3672 L 19.0918 -54.9805 C 19.0918 -61.6699 22.168 -64.9414 29.0527 -64.9414 L 76.0742 -64.9414 C 82.959 -64.9414 86.084 -61.6699 86.084 -54.9805 L 86.084 -26.3672 C 86.084 -19.6777 82.959 -16.3574 76.0742 -16.3574 L 55.0293 -16.3574 C 52.3926 -16.3574 51.123 -15.918 49.2676 -14.0137 Z M 33.9844 -42.8223 C 33.9844 -38.3301 36.7676 -34.9121 41.1133 -34.9121 C 42.8711 -34.9121 44.4824 -35.3027 45.5078 -36.5234 L 46.0449 -36.5234 C 44.9219 -33.7402 42.2363 -31.6406 39.0625 -30.8594 C 37.793 -30.5664 37.2559 -29.8828 37.2559 -28.9062 C 37.2559 -27.832 38.1836 -27.0508 39.3555 -27.0508 C 43.7012 -27.0508 51.0254 -32.1777 51.0254 -41.1621 C 51.0254 -46.582 47.6562 -50.9277 42.2852 -50.9277 C 37.5 -50.9277 33.9844 -47.6074 33.9844 -42.8223 Z M 54.5898 -42.8223 C 54.5898 -38.3301 57.4219 -34.9121 61.7188 -34.9121 C 63.4766 -34.9121 65.0879 -35.3027 66.1133 -36.5234 L 66.6504 -36.5234 C 65.5273 -33.7402 62.8418 -31.6406 59.7168 -30.8594 C 58.3984 -30.5664 57.9102 -29.8828 57.9102 -28.9062 C 57.9102 -27.832 58.7891 -27.0508 59.9609 -27.0508 C 64.3066 -27.0508 71.6309 -32.1777 71.6309 -41.1621 C 71.6309 -46.582 68.3105 -50.9277 62.8906 -50.9277 C 58.1543 -50.9277 54.5898 -47.6074 54.5898 -42.8223 Z"/>
  </g>
  <g id="Medium-S" transform="matrix(1 0 0 1 1694.09 696)">
   <path d="M 34.7168 7.91016 C 37.1094 7.91016 38.8672 6.73828 41.7969 4.15039 L 54.7852 -7.42188 L 76.5137 -7.42188 C 88.5254 -7.42188 95.166 -14.209 95.166 -26.0254 L 95.166 -55.0293 C 95.166 -66.8945 88.5254 -73.6816 76.5137 -73.6816 L 28.418 -73.6816 C 16.4062 -73.6816 9.76562 -66.8945 9.76562 -55.0293 L 9.76562 -26.0254 C 9.76562 -14.209 16.5527 -7.42188 28.125 -7.42188 L 29.3457 -7.42188 L 29.3457 1.80664 C 29.3457 5.56641 31.3477 7.91016 34.7168 7.91016 Z M 36.8164 -1.46484 L 36.8164 -12.2559 C 36.8164 -14.7949 35.791 -15.7227 33.3496 -15.7227 L 28.6133 -15.7227 C 21.3379 -15.7227 18.0664 -19.2383 18.0664 -26.2695 L 18.0664 -54.7852 C 18.0664 -61.8164 21.3379 -65.332 28.6133 -65.332 L 76.3184 -65.332 C 83.5938 -65.332 86.8164 -61.8164 86.8164 -54.7852 L 86.8164 -26.2695 C 86.8164 -19.2383 83.5938 -15.7227 76.3184 -15.7227 L 54.248 -15.7227 C 51.709 -15.7227 50.4883 -15.332 48.7793 -13.5254 Z M 33.9844 -42.5293 C 33.9844 -38.0859 36.7676 -34.668 41.0645 -34.668 C 42.7246 -34.668 44.3359 -34.9609 45.3125 -36.1816 L 45.752 -36.1816 C 44.4824 -33.3008 41.8457 -31.2988 38.916 -30.5664 C 37.5488 -30.2246 37.0605 -29.541 37.0605 -28.6133 C 37.0605 -27.5391 37.9395 -26.7578 39.1113 -26.7578 C 43.3105 -26.7578 50.7812 -31.6895 50.7812 -40.9668 C 50.7812 -46.2402 47.4609 -50.4395 42.1875 -50.4395 C 37.5 -50.4395 33.9844 -47.2168 33.9844 -42.5293 Z M 54.4922 -42.5293 C 54.4922 -38.0859 57.2754 -34.668 61.5723 -34.668 C 63.2324 -34.668 64.8438 -34.9609 65.8203 -36.1816 L 66.2598 -36.1816 C 65.0391 -33.3008 62.3535 -31.2988 59.4238 -30.5664 C 58.0566 -30.2246 57.5684 -29.541 57.5684 -28.6133 C 57.5684 -27.5391 58.4473 -26.7578 59.6191 -26.7578 C 63.8184 -26.7578 71.2891 -31.6895 71.2891 -40.9668 C 71.2891 -46.2402 67.9688 -50.4395 62.6953 -50.4395 C 58.0078 -50.4395 54.4922 -47.2168 54.4922 -42.5293 Z"/>
  </g>
  <g id="Regular-S" transform="matrix(1 0 0 1 1397.53 696)">
   <path d="M 34.2773 7.37305 C 36.4258 7.37305 37.8906 6.25 40.5273 3.85742 L 53.6133 -7.86133 L 76.5625 -7.86133 C 88.5742 -7.86133 94.873 -14.3555 94.873 -26.1719 L 94.873 -54.5898 C 94.873 -66.4062 88.5742 -72.9004 76.5625 -72.9004 L 28.0762 -72.9004 C 16.0645 -72.9004 9.76562 -66.4062 9.76562 -54.5898 L 9.76562 -26.1719 C 9.76562 -14.3555 16.0645 -7.86133 28.0762 -7.86133 L 29.4922 -7.86133 L 29.4922 1.85547 C 29.4922 5.22461 31.2012 7.37305 34.2773 7.37305 Z M 36.084 -0.634766 L 36.084 -11.6211 C 36.084 -14.0137 35.2051 -14.8926 32.8125 -14.8926 L 28.0762 -14.8926 C 20.2148 -14.8926 16.7969 -18.6523 16.7969 -26.1719 L 16.7969 -54.5898 C 16.7969 -62.0605 20.2148 -65.8203 28.0762 -65.8203 L 76.5625 -65.8203 C 84.4238 -65.8203 87.8418 -62.0605 87.8418 -54.5898 L 87.8418 -26.1719 C 87.8418 -18.6523 84.4238 -14.8926 76.5625 -14.8926 L 53.2227 -14.8926 C 50.8789 -14.8926 49.6582 -14.5508 48.0957 -12.8906 Z M 34.0332 -42.0898 C 34.0332 -37.7441 36.7188 -34.3262 41.0645 -34.3262 C 42.5781 -34.3262 44.1406 -34.5703 45.1172 -35.7422 L 45.4102 -35.7422 C 43.9941 -32.7637 41.3086 -30.8594 38.7207 -30.1758 C 37.2559 -29.7852 36.8164 -29.1504 36.8164 -28.1738 C 36.8164 -27.1973 37.6465 -26.3672 38.7695 -26.3672 C 42.7734 -26.3672 50.3906 -31.0059 50.3906 -40.6738 C 50.3906 -45.8008 47.1191 -49.8535 42.0898 -49.8535 C 37.5 -49.8535 34.0332 -46.6797 34.0332 -42.0898 Z M 54.3945 -42.0898 C 54.3945 -37.7441 57.0801 -34.3262 61.4258 -34.3262 C 62.9395 -34.3262 64.502 -34.5703 65.4297 -35.7422 L 65.7227 -35.7422 C 64.3555 -32.7637 61.6699 -30.8594 59.082 -30.1758 C 57.6172 -29.7852 57.1777 -29.1504 57.1777 -28.1738 C 57.1777 -27.1973 58.0078 -26.3672 59.1309 -26.3672 C 63.1348 -26.3672 70.752 -31.0059 70.752 -40.6738 C 70.752 -45.8008 67.4805 -49.8535 62.4512 -49.8535 C 57.8613 -49.8535 54.3945 -46.6797 54.3945 -42.0898 Z"/>
  </g>
  <g id="Light-S" transform="matrix(1 0 0 1 1101.55 696)">
   <path d="M 32.4707 6.29883 C 34.1797 6.29883 35.3516 5.41992 37.3047 3.61328 L 50.6836 -8.1543 L 76.5625 -8.1543 C 87.4023 -8.1543 93.4082 -14.3066 93.4082 -25 L 93.4082 -55.0781 C 93.4082 -65.7715 87.4023 -71.9238 76.5625 -71.9238 L 26.6113 -71.9238 C 15.7715 -71.9238 9.76562 -65.8203 9.76562 -55.0781 L 9.76562 -25 C 9.76562 -14.2578 15.7715 -8.1543 26.6113 -8.1543 L 28.7598 -8.1543 L 28.7598 2.00195 C 28.7598 4.63867 30.127 6.29883 32.4707 6.29883 Z M 33.8379 0.146484 L 33.8379 -11.0352 C 33.8379 -12.8418 33.1543 -13.5742 31.2988 -13.5742 L 26.6602 -13.5742 C 18.9941 -13.5742 15.1855 -17.627 15.1855 -25.0488 L 15.1855 -55.0293 C 15.1855 -62.4512 18.9941 -66.5039 26.6602 -66.5039 L 76.5137 -66.5039 C 84.1309 -66.5039 87.9883 -62.4512 87.9883 -55.0293 L 87.9883 -25.0488 C 87.9883 -17.627 84.1309 -13.5742 76.5137 -13.5742 L 50.5371 -13.5742 C 48.6328 -13.5742 47.6074 -13.2812 46.2891 -11.9141 Z M 34.5703 -41.8945 C 34.5703 -37.793 37.1582 -34.668 41.2598 -34.668 C 42.7734 -34.668 44.2871 -34.9609 45.2637 -36.1816 L 45.5566 -36.1816 C 44.2383 -33.0566 41.3086 -31.1523 39.0625 -30.5176 C 37.7441 -30.2246 37.3535 -29.6387 37.3535 -28.8086 C 37.3535 -27.8809 38.0859 -27.1973 39.0625 -27.1973 C 42.5781 -27.1973 49.9512 -31.4453 49.9512 -40.5273 C 49.9512 -45.5078 46.7285 -49.1699 42.1387 -49.1699 C 37.8418 -49.1699 34.5703 -46.1426 34.5703 -41.8945 Z M 54.1016 -41.8945 C 54.1016 -37.793 56.6895 -34.668 60.7422 -34.668 C 62.2559 -34.668 63.7695 -34.9609 64.7461 -36.1816 L 65.0391 -36.1816 C 63.7207 -33.0566 60.8398 -31.1523 58.5449 -30.5176 C 57.2754 -30.2246 56.8848 -29.6387 56.8848 -28.8086 C 56.8848 -27.8809 57.5684 -27.1973 58.5938 -27.1973 C 62.1094 -27.1973 69.4824 -31.4453 69.4824 -40.5273 C 69.4824 -45.5078 66.2109 -49.1699 61.6699 -49.1699 C 57.373 -49.1699 54.1016 -46.1426 54.1016 -41.8945 Z"/>
  </g>
  <g id="Thin-S" transform="matrix(1 0 0 1 805.763 696)">
   <path d="M 30.127 4.88281 C 31.2012 4.88281 31.9824 4.29688 33.0566 3.32031 L 46.7773 -8.49609 L 76.5625 -8.49609 C 85.9375 -8.49609 91.5527 -14.2578 91.5527 -23.4863 L 91.5527 -55.7129 C 91.5527 -64.9414 85.9375 -70.6543 76.5625 -70.6543 L 24.7559 -70.6543 C 15.3809 -70.6543 9.76562 -64.9902 9.76562 -55.7129 L 9.76562 -23.4863 C 9.76562 -14.1602 15.3809 -8.49609 24.7559 -8.49609 L 27.832 -8.49609 L 27.832 2.19727 C 27.832 3.80859 28.7109 4.88281 30.127 4.88281 Z M 30.9082 1.17188 L 30.9082 -10.2051 C 30.9082 -11.377 30.4688 -11.8164 29.3457 -11.8164 L 24.8047 -11.8164 C 17.4316 -11.8164 13.0859 -16.2598 13.0859 -23.5352 L 13.0859 -55.6152 C 13.0859 -62.9395 17.4316 -67.3828 24.8047 -67.3828 L 76.5137 -67.3828 C 83.7402 -67.3828 88.2324 -62.9395 88.2324 -55.6152 L 88.2324 -23.5352 C 88.2324 -16.2598 83.7402 -11.8164 76.5137 -11.8164 L 46.9727 -11.8164 C 45.6543 -11.8164 44.9707 -11.5723 43.8965 -10.5469 Z M 35.3027 -41.6016 C 35.3027 -37.8906 37.793 -35.0586 41.5039 -35.0586 C 43.0176 -35.0586 44.4824 -35.5469 45.4102 -36.7188 L 45.7031 -36.7188 C 44.5312 -33.4961 41.3086 -31.4941 39.4531 -31.0059 C 38.4277 -30.7129 38.0859 -30.2734 38.0859 -29.5898 C 38.0859 -28.8574 38.6719 -28.2715 39.502 -28.2715 C 42.334 -28.2715 49.4141 -31.9824 49.4141 -40.3809 C 49.4141 -45.0684 46.1426 -48.291 42.1875 -48.291 C 38.2812 -48.291 35.3027 -45.4102 35.3027 -41.6016 Z M 53.7109 -41.6016 C 53.7109 -37.8906 56.2012 -35.0586 59.8633 -35.0586 C 61.4258 -35.0586 62.8906 -35.5469 63.8184 -36.7188 L 64.1113 -36.7188 C 62.9395 -33.4961 59.7168 -31.4941 57.8613 -31.0059 C 56.8359 -30.7129 56.4941 -30.2734 56.4941 -29.5898 C 56.4941 -28.8574 57.0801 -28.2715 57.8613 -28.2715 C 60.7422 -28.2715 67.7734 -31.9824 67.7734 -40.3809 C 67.7734 -45.0684 64.5508 -48.291 60.5957 -48.291 C 56.6895 -48.291 53.7109 -45.4102 53.7109 -41.6016 Z"/>
  </g>
  <g id="Ultralight-S" transform="matrix(1 0 0 1 509.54 696)">
   <path d="M 28.9551 4.10156 C 29.6387 4.10156 30.2246 3.71094 30.8594 3.17383 L 44.7266 -8.69141 L 76.5625 -8.69141 C 85.1562 -8.69141 90.5762 -14.209 90.5762 -22.7051 L 90.5762 -56.0059 C 90.5762 -64.502 85.1562 -70.0195 76.5625 -70.0195 L 23.7793 -70.0195 C 15.1855 -70.0195 9.76562 -64.5996 9.76562 -56.0059 L 9.76562 -22.7051 C 9.76562 -14.1113 15.1855 -8.69141 23.7793 -8.69141 L 27.2949 -8.69141 L 27.2949 2.29492 C 27.2949 3.41797 27.9785 4.10156 28.9551 4.10156 Z M 29.3945 1.70898 L 29.3945 -9.81445 C 29.3945 -10.5957 29.0527 -10.8887 28.3203 -10.8887 L 23.8281 -10.8887 C 16.6016 -10.8887 11.9629 -15.5273 11.9629 -22.8027 L 11.9629 -55.957 C 11.9629 -63.1836 16.6016 -67.8223 23.8281 -67.8223 L 76.4648 -67.8223 C 83.5449 -67.8223 88.3301 -63.1836 88.3301 -55.957 L 88.3301 -22.8027 C 88.3301 -15.5273 83.5449 -10.8887 76.4648 -10.8887 L 45.166 -10.8887 C 44.0918 -10.8887 43.5547 -10.6934 42.6758 -9.86328 Z M 35.6934 -41.4551 C 35.6934 -37.9395 38.1348 -35.3027 41.6016 -35.3027 C 43.1641 -35.3027 44.5801 -35.8398 45.5566 -37.0605 L 45.8496 -37.0605 C 44.6777 -33.6914 41.3086 -31.6895 39.6973 -31.25 C 38.7695 -31.0059 38.4766 -30.5664 38.4766 -30.0293 C 38.4766 -29.3457 39.0137 -28.8086 39.6973 -28.8086 C 42.2363 -28.8086 49.0723 -32.2754 49.0723 -40.2344 C 49.0723 -44.873 45.8496 -47.8027 42.2363 -47.8027 C 38.5254 -47.8027 35.6934 -45.0195 35.6934 -41.4551 Z M 53.5156 -41.4551 C 53.5156 -37.9395 55.9082 -35.3027 59.4238 -35.3027 C 60.9863 -35.3027 62.4023 -35.8398 63.3301 -37.0605 L 63.623 -37.0605 C 62.5 -33.6914 59.1309 -31.6895 57.5195 -31.25 C 56.5918 -31.0059 56.2988 -30.5664 56.2988 -30.0293 C 56.2988 -29.3457 56.7871 -28.8086 57.5195 -28.8086 C 60.0098 -28.8086 66.8945 -32.2754 66.8945 -40.2344 C 66.8945 -44.873 63.6719 -47.8027 60.0586 -47.8027 C 56.3477 -47.8027 53.5156 -45.0195 53.5156 -41.4551 Z"/>
  </g>
 </g>
</svg>
