<?xml version="1.0" encoding="UTF-8"?>
<!--Generator: Apple Native CoreSVG 123-->
<!DOCTYPE svg
PUBLIC "-//W3C//DTD SVG 1.1//EN"
       "http://www.w3.org/Graphics/SVG/1.1/DTD/svg11.dtd">
<svg version="1.1" xmlns="http://www.w3.org/2000/svg" xmlns:xlink="http://www.w3.org/1999/xlink" width="3300" height="2200">
 <!--glyph: "uni10018B.medium", point size: 100.000000, font version: "Version 15.0d7e11", template writer version: "5"-->
 <g id="Notes">
  <rect height="2200" id="artboard" style="fill:white;opacity:1" width="3300" x="0" y="0"/>
  <line id="" style="fill:none;stroke:black;opacity:1;stroke-width:0.5;" x1="263" x2="3036" y1="292" y2="292"/>
  <text style="stroke:none;fill:black;font-family:-apple-system,&quot;SF Pro Display&quot;,&quot;SF Pro Text&quot;,Helvetica,sans-serif;font-weight:bold;" transform="matrix(1 0 0 1 263 322)">Weight/Scale Variations</text>
  <text style="stroke:none;fill:black;font-family:-apple-system,&quot;SF Pro Display&quot;,&quot;SF Pro Text&quot;,Helvetica,sans-serif;text-anchor:middle;" transform="matrix(1 0 0 1 559.711 322)">Ultralight</text>
  <text style="stroke:none;fill:black;font-family:-apple-system,&quot;SF Pro Display&quot;,&quot;SF Pro Text&quot;,Helvetica,sans-serif;text-anchor:middle;" transform="matrix(1 0 0 1 856.422 322)">Thin</text>
  <text style="stroke:none;fill:black;font-family:-apple-system,&quot;SF Pro Display&quot;,&quot;SF Pro Text&quot;,Helvetica,sans-serif;text-anchor:middle;" transform="matrix(1 0 0 1 1153.13 322)">Light</text>
  <text style="stroke:none;fill:black;font-family:-apple-system,&quot;SF Pro Display&quot;,&quot;SF Pro Text&quot;,Helvetica,sans-serif;text-anchor:middle;" transform="matrix(1 0 0 1 1449.84 322)">Regular</text>
  <text style="stroke:none;fill:black;font-family:-apple-system,&quot;SF Pro Display&quot;,&quot;SF Pro Text&quot;,Helvetica,sans-serif;text-anchor:middle;" transform="matrix(1 0 0 1 1746.56 322)">Medium</text>
  <text style="stroke:none;fill:black;font-family:-apple-system,&quot;SF Pro Display&quot;,&quot;SF Pro Text&quot;,Helvetica,sans-serif;text-anchor:middle;" transform="matrix(1 0 0 1 2043.27 322)">Semibold</text>
  <text style="stroke:none;fill:black;font-family:-apple-system,&quot;SF Pro Display&quot;,&quot;SF Pro Text&quot;,Helvetica,sans-serif;text-anchor:middle;" transform="matrix(1 0 0 1 2339.98 322)">Bold</text>
  <text style="stroke:none;fill:black;font-family:-apple-system,&quot;SF Pro Display&quot;,&quot;SF Pro Text&quot;,Helvetica,sans-serif;text-anchor:middle;" transform="matrix(1 0 0 1 2636.69 322)">Heavy</text>
  <text style="stroke:none;fill:black;font-family:-apple-system,&quot;SF Pro Display&quot;,&quot;SF Pro Text&quot;,Helvetica,sans-serif;text-anchor:middle;" transform="matrix(1 0 0 1 2933.4 322)">Black</text>
  <line id="" style="fill:none;stroke:black;opacity:1;stroke-width:0.5;" x1="263" x2="3036" y1="1903" y2="1903"/>
  <g id="" transform="matrix(1 0 0 1 263 1933)">
   <path d="M 9.24805 0.830078 C 13.5547 0.830078 17.1387 -2.74414 17.1387 -7.05078 C 17.1387 -11.3574 13.5449 -14.9316 9.23828 -14.9316 C 4.94141 -14.9316 1.36719 -11.3574 1.36719 -7.05078 C 1.36719 -2.74414 4.95117 0.830078 9.24805 0.830078 Z M 9.24805 -0.654297 C 5.70312 -0.654297 2.87109 -3.49609 2.87109 -7.05078 C 2.87109 -10.6055 5.69336 -13.4473 9.23828 -13.4473 C 12.793 -13.4473 15.6348 -10.6055 15.6445 -7.05078 C 15.6543 -3.49609 12.8027 -0.654297 9.24805 -0.654297 Z M 9.22852 -3.42773 C 9.69727 -3.42773 9.9707 -3.74023 9.9707 -4.25781 L 9.9707 -6.31836 L 12.1973 -6.31836 C 12.6953 -6.31836 13.0371 -6.57227 13.0371 -7.04102 C 13.0371 -7.51953 12.7148 -7.7832 12.1973 -7.7832 L 9.9707 -7.7832 L 9.9707 -10.0098 C 9.9707 -10.5273 9.69727 -10.8496 9.22852 -10.8496 C 8.75977 -10.8496 8.50586 -10.5078 8.50586 -10.0098 L 8.50586 -7.7832 L 6.29883 -7.7832 C 5.78125 -7.7832 5.44922 -7.51953 5.44922 -7.04102 C 5.44922 -6.57227 5.80078 -6.31836 6.29883 -6.31836 L 8.50586 -6.31836 L 8.50586 -4.25781 C 8.50586 -3.75977 8.75977 -3.42773 9.22852 -3.42773 Z"/>
  </g>
  <g id="" transform="matrix(1 0 0 1 281.506 1933)">
   <path d="M 11.709 2.91016 C 17.1582 2.91016 21.6699 -1.60156 21.6699 -7.05078 C 21.6699 -12.4902 17.1484 -17.0117 11.6992 -17.0117 C 6.25977 -17.0117 1.74805 -12.4902 1.74805 -7.05078 C 1.74805 -1.60156 6.26953 2.91016 11.709 2.91016 Z M 11.709 1.25 C 7.09961 1.25 3.41797 -2.44141 3.41797 -7.05078 C 3.41797 -11.6504 7.08984 -15.3516 11.6992 -15.3516 C 16.3086 -15.3516 20 -11.6504 20.0098 -7.05078 C 20.0195 -2.44141 16.3184 1.25 11.709 1.25 Z M 11.6895 -2.41211 C 12.207 -2.41211 12.5195 -2.77344 12.5195 -3.33984 L 12.5195 -6.23047 L 15.5762 -6.23047 C 16.123 -6.23047 16.5039 -6.51367 16.5039 -7.03125 C 16.5039 -7.55859 16.1426 -7.86133 15.5762 -7.86133 L 12.5195 -7.86133 L 12.5195 -10.9277 C 12.5195 -11.5039 12.207 -11.8555 11.6895 -11.8555 C 11.1719 -11.8555 10.8789 -11.4844 10.8789 -10.9277 L 10.8789 -7.86133 L 7.83203 -7.86133 C 7.26562 -7.86133 6.89453 -7.55859 6.89453 -7.03125 C 6.89453 -6.51367 7.28516 -6.23047 7.83203 -6.23047 L 10.8789 -6.23047 L 10.8789 -3.33984 C 10.8789 -2.79297 11.1719 -2.41211 11.6895 -2.41211 Z"/>
  </g>
  <g id="" transform="matrix(1 0 0 1 304.924 1933)">
   <path d="M 14.9707 5.67383 C 21.9336 5.67383 27.6953 -0.078125 27.6953 -7.04102 C 27.6953 -14.0039 21.9238 -19.7559 14.9609 -19.7559 C 8.00781 -19.7559 2.25586 -14.0039 2.25586 -7.04102 C 2.25586 -0.078125 8.01758 5.67383 14.9707 5.67383 Z M 14.9707 3.85742 C 8.93555 3.85742 4.08203 -1.00586 4.08203 -7.04102 C 4.08203 -13.0762 8.92578 -17.9395 14.9609 -17.9395 C 21.0059 -17.9395 25.8594 -13.0762 25.8691 -7.04102 C 25.8789 -1.00586 21.0156 3.85742 14.9707 3.85742 Z M 14.9512 -1.06445 C 15.5176 -1.06445 15.8691 -1.45508 15.8691 -2.06055 L 15.8691 -6.13281 L 20.1074 -6.13281 C 20.6934 -6.13281 21.1133 -6.46484 21.1133 -7.02148 C 21.1133 -7.59766 20.7227 -7.93945 20.1074 -7.93945 L 15.8691 -7.93945 L 15.8691 -12.1875 C 15.8691 -12.8027 15.5176 -13.1934 14.9512 -13.1934 C 14.3848 -13.1934 14.0625 -12.7832 14.0625 -12.1875 L 14.0625 -7.93945 L 9.83398 -7.93945 C 9.21875 -7.93945 8.80859 -7.59766 8.80859 -7.02148 C 8.80859 -6.46484 9.23828 -6.13281 9.83398 -6.13281 L 14.0625 -6.13281 L 14.0625 -2.06055 C 14.0625 -1.47461 14.3848 -1.06445 14.9512 -1.06445 Z"/>
  </g>
  <text style="stroke:none;fill:black;font-family:-apple-system,&quot;SF Pro Display&quot;,&quot;SF Pro Text&quot;,Helvetica,sans-serif;font-weight:bold;" transform="matrix(1 0 0 1 263 1953)">Design Variations</text>
  <text style="stroke:none;fill:black;font-family:-apple-system,&quot;SF Pro Display&quot;,&quot;SF Pro Text&quot;,Helvetica,sans-serif;" transform="matrix(1 0 0 1 263 1971)">Symbols are supported in up to nine weights and three scales.</text>
  <text style="stroke:none;fill:black;font-family:-apple-system,&quot;SF Pro Display&quot;,&quot;SF Pro Text&quot;,Helvetica,sans-serif;" transform="matrix(1 0 0 1 263 1989)">For optimal layout with text and other symbols, vertically align</text>
  <text style="stroke:none;fill:black;font-family:-apple-system,&quot;SF Pro Display&quot;,&quot;SF Pro Text&quot;,Helvetica,sans-serif;" transform="matrix(1 0 0 1 263 2007)">symbols with the adjacent text.</text>
  <rect height="14" id="" style="fill:#00AEEF;stroke:none;opacity:0.4;" width="3" x="776" y="1919"/>
  <g id="" transform="matrix(1 0 0 1 779 1933)">
   <path d="M 10.5273 0 L 12.373 0 L 7.17773 -14.0918 L 5.43945 -14.0918 L 0.244141 0 L 2.08984 0 L 3.50586 -4.0332 L 9.11133 -4.0332 Z M 6.2793 -11.9531 L 6.33789 -11.9531 L 8.59375 -5.52734 L 4.02344 -5.52734 Z"/>
  </g>
  <rect height="14" id="" style="fill:#00AEEF;stroke:none;opacity:0.4;" width="3" x="791.617" y="1919"/>
  <text style="stroke:none;fill:black;font-family:-apple-system,&quot;SF Pro Display&quot;,&quot;SF Pro Text&quot;,Helvetica,sans-serif;font-weight:bold;" transform="matrix(1 0 0 1 776 1953)">Margins</text>
  <text style="stroke:none;fill:black;font-family:-apple-system,&quot;SF Pro Display&quot;,&quot;SF Pro Text&quot;,Helvetica,sans-serif;" transform="matrix(1 0 0 1 776 1971)">Leading and trailing margins on the left and right side of each symbol</text>
  <text style="stroke:none;fill:black;font-family:-apple-system,&quot;SF Pro Display&quot;,&quot;SF Pro Text&quot;,Helvetica,sans-serif;" transform="matrix(1 0 0 1 776 1989)">can be adjusted by modifying the width of the blue rectangles.</text>
  <text style="stroke:none;fill:black;font-family:-apple-system,&quot;SF Pro Display&quot;,&quot;SF Pro Text&quot;,Helvetica,sans-serif;" transform="matrix(1 0 0 1 776 2007)">Modifications are automatically applied proportionally to all</text>
  <text style="stroke:none;fill:black;font-family:-apple-system,&quot;SF Pro Display&quot;,&quot;SF Pro Text&quot;,Helvetica,sans-serif;" transform="matrix(1 0 0 1 776 2025)">scales and weights.</text>
  <g id="" transform="matrix(1 0 0 1 1289 1933)">
   <path d="M 2.83203 3.11523 L 4.375 4.6582 C 5.22461 5.48828 6.19141 5.41992 7.06055 4.46289 L 17.2754 -6.66016 C 17.7051 -6.36719 18.0957 -6.37695 18.5645 -6.47461 L 19.6094 -6.68945 L 20.3027 -5.99609 L 20.2539 -5.47852 C 20.1855 -4.95117 20.3516 -4.53125 20.8496 -4.0332 L 21.6602 -3.22266 C 22.168 -2.71484 22.8223 -2.68555 23.3008 -3.16406 L 26.5527 -6.41602 C 27.0312 -6.89453 27.0117 -7.54883 26.5039 -8.05664 L 25.6836 -8.87695 C 25.1855 -9.375 24.7754 -9.55078 24.2383 -9.47266 L 23.7109 -9.41406 L 23.0566 -10.0781 L 23.3398 -11.2207 C 23.4863 -11.7871 23.3398 -12.2559 22.7148 -12.8613 L 20.3027 -15.2539 C 16.7578 -18.7793 12.2266 -18.6719 9.11133 -15.5371 C 8.69141 -15.1074 8.64258 -14.5215 8.91602 -14.0918 C 9.15039 -13.7207 9.62891 -13.4961 10.2734 -13.6621 C 11.7871 -14.043 13.3008 -13.9258 14.7852 -12.9199 L 14.1602 -11.3379 C 13.9258 -10.752 13.9453 -10.2734 14.1797 -9.83398 L 3.01758 0.439453 C 2.08008 1.30859 1.97266 2.25586 2.83203 3.11523 Z M 10.6738 -15.1465 C 13.3398 -17.1387 16.6504 -16.8262 19.0527 -14.4141 L 21.6797 -11.8066 C 21.9141 -11.5723 21.9434 -11.3867 21.8848 -11.0938 L 21.5039 -9.53125 L 23.0762 -7.95898 L 24.043 -8.04688 C 24.3262 -8.07617 24.4141 -8.05664 24.6387 -7.83203 L 25.2637 -7.20703 L 22.5098 -4.46289 L 21.8848 -5.07812 C 21.6602 -5.30273 21.6406 -5.40039 21.6699 -5.68359 L 21.7578 -6.64062 L 20.1953 -8.20312 L 18.5742 -7.89062 C 18.291 -7.83203 18.1445 -7.83203 17.9102 -8.07617 L 15.7324 -10.2539 C 15.5078 -10.4883 15.4785 -10.625 15.6055 -10.9473 L 16.5527 -13.2227 C 14.9512 -14.7559 12.8418 -15.6055 10.8008 -14.9512 C 10.7129 -14.9219 10.6445 -14.9414 10.6152 -14.9805 C 10.5859 -15.0293 10.5859 -15.0781 10.6738 -15.1465 Z M 4.10156 2.41211 C 3.61328 1.91406 3.78906 1.61133 4.12109 1.30859 L 15.0781 -8.80859 L 16.3086 -7.57812 L 6.15234 3.34961 C 5.84961 3.68164 5.46875 3.7793 5.06836 3.37891 Z"/>
  </g>
  <text style="stroke:none;fill:black;font-family:-apple-system,&quot;SF Pro Display&quot;,&quot;SF Pro Text&quot;,Helvetica,sans-serif;font-weight:bold;" transform="matrix(1 0 0 1 1289 1953)">Exporting</text>
  <text style="stroke:none;fill:black;font-family:-apple-system,&quot;SF Pro Display&quot;,&quot;SF Pro Text&quot;,Helvetica,sans-serif;" transform="matrix(1 0 0 1 1289 1971)">Symbols should be outlined when exporting to ensure the</text>
  <text style="stroke:none;fill:black;font-family:-apple-system,&quot;SF Pro Display&quot;,&quot;SF Pro Text&quot;,Helvetica,sans-serif;" transform="matrix(1 0 0 1 1289 1989)">design is preserved when submitting to Xcode.</text>
  <text id="template-version" style="stroke:none;fill:black;font-family:-apple-system,&quot;SF Pro Display&quot;,&quot;SF Pro Text&quot;,Helvetica,sans-serif;text-anchor:end;" transform="matrix(1 0 0 1 3036 1933)">Template v.1.0</text>
  <text style="stroke:none;fill:black;font-family:-apple-system,&quot;SF Pro Display&quot;,&quot;SF Pro Text&quot;,Helvetica,sans-serif;text-anchor:end;" transform="matrix(1 0 0 1 3036 1951)">Generated from chevron.left.2</text>
  <text style="stroke:none;fill:black;font-family:-apple-system,&quot;SF Pro Display&quot;,&quot;SF Pro Text&quot;,Helvetica,sans-serif;text-anchor:end;" transform="matrix(1 0 0 1 3036 1969)">Typeset at 100 points</text>
  <text style="stroke:none;fill:black;font-family:-apple-system,&quot;SF Pro Display&quot;,&quot;SF Pro Text&quot;,Helvetica,sans-serif;" transform="matrix(1 0 0 1 263 726)">Small</text>
  <text style="stroke:none;fill:black;font-family:-apple-system,&quot;SF Pro Display&quot;,&quot;SF Pro Text&quot;,Helvetica,sans-serif;" transform="matrix(1 0 0 1 263 1156)">Medium</text>
  <text style="stroke:none;fill:black;font-family:-apple-system,&quot;SF Pro Display&quot;,&quot;SF Pro Text&quot;,Helvetica,sans-serif;" transform="matrix(1 0 0 1 263 1586)">Large</text>
 </g>
 <g id="Guides">
  <g id="H-reference" style="fill:#27AAE1;stroke:none;" transform="matrix(1 0 0 1 339 696)">
   <path d="M 54.9316 0 L 57.666 0 L 30.5664 -70.459 L 28.0762 -70.459 L 0.976562 0 L 3.66211 0 L 12.9395 -24.4629 L 45.7031 -24.4629 Z M 29.1992 -67.0898 L 29.4434 -67.0898 L 44.8242 -26.709 L 13.8184 -26.709 Z"/>
  </g>
  <line id="Baseline-S" style="fill:none;stroke:#27AAE1;opacity:1;stroke-width:0.577;" x1="263" x2="3036" y1="696" y2="696"/>
  <line id="Capline-S" style="fill:none;stroke:#27AAE1;opacity:1;stroke-width:0.577;" x1="263" x2="3036" y1="625.541" y2="625.541"/>
  <g id="H-reference" style="fill:#27AAE1;stroke:none;" transform="matrix(1 0 0 1 339 1126)">
   <path d="M 54.9316 0 L 57.666 0 L 30.5664 -70.459 L 28.0762 -70.459 L 0.976562 0 L 3.66211 0 L 12.9395 -24.4629 L 45.7031 -24.4629 Z M 29.1992 -67.0898 L 29.4434 -67.0898 L 44.8242 -26.709 L 13.8184 -26.709 Z"/>
  </g>
  <line id="Baseline-M" style="fill:none;stroke:#27AAE1;opacity:1;stroke-width:0.577;" x1="263" x2="3036" y1="1126" y2="1126"/>
  <line id="Capline-M" style="fill:none;stroke:#27AAE1;opacity:1;stroke-width:0.577;" x1="263" x2="3036" y1="1055.54" y2="1055.54"/>
  <g id="H-reference" style="fill:#27AAE1;stroke:none;" transform="matrix(1 0 0 1 339 1556)">
   <path d="M 54.9316 0 L 57.666 0 L 30.5664 -70.459 L 28.0762 -70.459 L 0.976562 0 L 3.66211 0 L 12.9395 -24.4629 L 45.7031 -24.4629 Z M 29.1992 -67.0898 L 29.4434 -67.0898 L 44.8242 -26.709 L 13.8184 -26.709 Z"/>
  </g>
  <line id="Baseline-L" style="fill:none;stroke:#27AAE1;opacity:1;stroke-width:0.577;" x1="263" x2="3036" y1="1556" y2="1556"/>
  <line id="Capline-L" style="fill:none;stroke:#27AAE1;opacity:1;stroke-width:0.577;" x1="263" x2="3036" y1="1485.54" y2="1485.54"/>
  <rect height="119.336" id="left-margin" style="fill:#00AEEF;stroke:none;opacity:0.4;" width="12.4512" x="1391.69" y="1030.79"/>
  <rect height="119.336" id="right-margin" style="fill:#00AEEF;stroke:none;opacity:0.4;" width="12.4512" x="1495.55" y="1030.79"/>
 </g>
 <g id="Symbols">
  <g id="Black-L" transform="matrix(1 0 0 1 2852.71 1556)">
   <path d="M 67.2363 20.9961 C 69.7754 23.3887 72.6074 24.6094 76.0742 24.6094 C 83.1543 24.6094 89.0137 18.7988 89.0137 11.8164 C 89.0137 8.25195 87.5 5.0293 84.7656 2.29492 L 45.9961 -35.3516 L 84.7656 -72.8516 C 87.5488 -75.5371 89.0137 -78.8574 89.0137 -82.3242 C 89.0137 -89.3066 83.1543 -95.0684 76.0742 -95.0684 C 72.5586 -95.0684 69.7266 -93.9453 67.2363 -91.5039 L 20.9473 -45.9961 C 17.627 -42.627 16.1133 -39.4043 16.0645 -35.2539 C 16.0645 -31.2012 17.5293 -27.9297 20.9473 -24.5117 Z M 123.535 20.9961 C 126.074 23.3887 128.906 24.6094 132.373 24.6094 C 139.453 24.6094 145.312 18.7988 145.312 11.8164 C 145.312 8.25195 143.799 5.0293 141.064 2.29492 L 102.295 -35.3516 L 141.064 -72.8516 C 143.848 -75.5371 145.312 -78.8574 145.312 -82.3242 C 145.312 -89.3066 139.453 -95.0684 132.373 -95.0684 C 128.857 -95.0684 125.977 -93.9453 123.535 -91.5039 L 77.2461 -45.9961 C 73.877 -42.627 72.4121 -39.4043 72.3633 -35.2539 C 72.3633 -31.2012 73.8281 -27.9297 77.2461 -24.5117 Z"/>
  </g>
  <g id="Heavy-L" transform="matrix(1 0 0 1 2557.51 1556)">
   <path d="M 67.3828 19.9707 C 69.5312 22.0215 71.9727 23.0469 74.9512 23.0469 C 81.0059 23.0469 85.9863 18.1152 85.9863 12.1582 C 85.9863 9.13086 84.7168 6.34766 82.4219 4.05273 L 41.748 -35.3516 L 82.4219 -74.6094 C 84.7656 -76.8555 85.9863 -79.6875 85.9863 -82.666 C 85.9863 -88.623 81.0059 -93.5547 74.9512 -93.5547 C 71.9727 -93.5547 69.4824 -92.5781 67.3828 -90.4785 L 20.2148 -44.3359 C 17.3828 -41.5527 16.1133 -38.7695 16.0645 -35.2539 C 16.0645 -31.8359 17.334 -29.0527 20.2148 -26.1719 Z M 123.682 19.9707 C 125.83 22.0215 128.271 23.0469 131.25 23.0469 C 137.305 23.0469 142.285 18.1152 142.285 12.1582 C 142.285 9.13086 141.016 6.34766 138.721 4.05273 L 98.0469 -35.3516 L 138.721 -74.6094 C 141.064 -76.8555 142.285 -79.6875 142.285 -82.666 C 142.285 -88.623 137.305 -93.5547 131.25 -93.5547 C 128.223 -93.5547 125.781 -92.5781 123.682 -90.4785 L 76.5137 -44.3359 C 73.6816 -41.5527 72.4121 -38.7695 72.3633 -35.2539 C 72.3633 -31.8359 73.6328 -29.0527 76.4648 -26.1719 Z"/>
  </g>
  <g id="Bold-L" transform="matrix(1 0 0 1 2262.49 1556)">
   <path d="M 67.5781 18.7988 C 69.2871 20.459 71.2891 21.3379 73.7305 21.3379 C 78.6133 21.3379 82.6172 17.3828 82.6172 12.5 C 82.6172 10.0586 81.5918 7.8125 79.7852 6.00586 L 37.0117 -35.3027 L 79.7852 -76.5625 C 81.6406 -78.3691 82.6172 -80.6641 82.6172 -83.0078 C 82.6172 -87.8906 78.6133 -91.8457 73.7305 -91.8457 C 71.2891 -91.8457 69.2871 -91.0156 67.5781 -89.3066 L 19.3359 -42.5293 C 17.1387 -40.332 16.1133 -38.0371 16.0645 -35.2539 C 16.0645 -32.5195 17.0898 -30.2734 19.3359 -28.0273 Z M 123.828 18.7988 C 125.586 20.459 127.588 21.3379 129.98 21.3379 C 134.912 21.3379 138.916 17.3828 138.916 12.5 C 138.916 10.0586 137.891 7.8125 136.084 6.00586 L 93.3105 -35.3027 L 136.084 -76.5625 C 137.939 -78.3691 138.916 -80.6641 138.916 -83.0078 C 138.916 -87.8906 134.912 -91.8457 129.98 -91.8457 C 127.539 -91.8457 125.586 -91.0156 123.877 -89.3066 L 75.6348 -42.5293 C 73.4375 -40.332 72.3633 -38.0371 72.3633 -35.2539 C 72.3633 -32.5195 73.3887 -30.2734 75.6348 -28.0273 Z"/>
  </g>
  <g id="Semibold-L" transform="matrix(1 0 0 1 1966.95 1556)">
   <path d="M 67.6758 17.9688 C 69.0918 19.3359 70.8008 20.1172 72.8516 20.1172 C 77.002 20.1172 80.2734 16.8457 80.2734 12.7441 C 80.2734 10.6934 79.4434 8.83789 77.9785 7.37305 L 33.7402 -35.3027 L 77.9785 -77.9297 C 79.4434 -79.3945 80.2734 -81.2988 80.2734 -83.3008 C 80.2734 -87.4023 77.002 -90.6738 72.8516 -90.6738 C 70.8008 -90.6738 69.1406 -89.9414 67.6758 -88.5254 L 18.75 -41.2109 C 16.9922 -39.502 16.0645 -37.5488 16.0645 -35.2539 C 16.0645 -33.0078 16.9434 -31.1523 18.75 -29.3457 Z M 123.975 17.9688 C 125.391 19.3359 127.1 20.1172 129.15 20.1172 C 133.301 20.1172 136.572 16.8457 136.572 12.7441 C 136.572 10.6934 135.742 8.83789 134.277 7.37305 L 90.0391 -35.3027 L 134.277 -77.9297 C 135.742 -79.3945 136.572 -81.2988 136.572 -83.3008 C 136.572 -87.4023 133.301 -90.6738 129.15 -90.6738 C 127.1 -90.6738 125.391 -89.9414 123.975 -88.5254 L 75.0488 -41.2109 C 73.291 -39.502 72.3633 -37.5488 72.3633 -35.2539 C 72.3633 -33.0078 73.2422 -31.1523 75.0488 -29.3457 Z"/>
  </g>
  <g id="Medium-L" transform="matrix(1 0 0 1 1671.12 1556)">
   <path d="M 67.7734 17.334 C 68.9941 18.5547 70.459 19.2383 72.2168 19.2383 C 75.7324 19.2383 78.5156 16.4551 78.5156 12.9395 C 78.5156 11.1816 77.832 9.61914 76.6113 8.39844 L 31.25 -35.3027 L 76.6113 -78.9062 C 77.832 -80.1758 78.5156 -81.7871 78.5156 -83.4961 C 78.5156 -87.0117 75.7324 -89.7949 72.2168 -89.7949 C 70.459 -89.7949 68.9941 -89.1113 67.7734 -87.9395 L 18.3105 -40.2832 C 16.8457 -38.8672 16.0645 -37.1582 16.0645 -35.2539 C 16.0645 -33.3984 16.8457 -31.7871 18.3105 -30.3223 Z M 124.072 17.334 C 125.293 18.5547 126.758 19.2383 128.467 19.2383 C 132.031 19.2383 134.814 16.4551 134.814 12.9395 C 134.814 11.1816 134.131 9.61914 132.91 8.39844 L 87.5488 -35.3027 L 132.91 -78.9062 C 134.131 -80.1758 134.814 -81.7871 134.814 -83.4961 C 134.814 -87.0117 132.031 -89.7949 128.467 -89.7949 C 126.758 -89.7949 125.293 -89.1113 124.072 -87.9395 L 74.6094 -40.2832 C 73.1445 -38.8672 72.3633 -37.1582 72.3633 -35.2539 C 72.3633 -33.3984 73.0957 -31.7871 74.6094 -30.3223 Z"/>
  </g>
  <g id="Regular-L" transform="matrix(1 0 0 1 1375.55 1556)">
   <path d="M 67.8711 16.5527 C 68.7988 17.4805 69.9707 18.0176 71.3379 18.0176 C 74.1211 18.0176 76.2207 15.918 76.2207 13.1836 C 76.2207 11.8164 75.6836 10.5957 74.8047 9.7168 L 28.0273 -35.3027 L 74.8047 -80.2734 C 75.6836 -81.2012 76.2207 -82.4707 76.2207 -83.7402 C 76.2207 -86.5234 74.1211 -88.623 71.3379 -88.623 C 69.9707 -88.623 68.8477 -88.0859 67.9199 -87.1582 L 17.7734 -39.0137 C 16.6992 -38.0371 16.0645 -36.6699 16.0645 -35.2539 C 16.0645 -33.8379 16.6504 -32.6172 17.7246 -31.5918 Z M 124.17 16.5527 C 125.098 17.4805 126.27 18.0176 127.637 18.0176 C 130.42 18.0176 132.52 15.918 132.52 13.1836 C 132.52 11.8164 131.982 10.5957 131.104 9.7168 L 84.3262 -35.3027 L 131.104 -80.2734 C 131.982 -81.2012 132.52 -82.4707 132.52 -83.7402 C 132.52 -86.5234 130.42 -88.623 127.637 -88.623 C 126.27 -88.623 125.146 -88.0859 124.17 -87.1582 L 74.0234 -39.0137 C 72.998 -38.0371 72.3633 -36.6699 72.3633 -35.2539 C 72.3633 -33.8379 72.9492 -32.6172 74.0234 -31.5918 Z"/>
  </g>
  <g id="Light-L" transform="matrix(1 0 0 1 1079.84 1556)">
   <path d="M 67.9199 14.9414 C 68.6523 15.625 69.5312 16.1133 70.5566 16.1133 C 72.6074 16.1133 74.2188 14.5508 74.2188 12.4512 C 74.2188 11.4746 73.8281 10.5469 73.1934 9.91211 L 25.0488 -35.3027 L 73.1934 -80.4199 C 73.8281 -81.1035 74.2188 -82.0801 74.2188 -83.0566 C 74.2188 -85.1074 72.6074 -86.7188 70.5566 -86.7188 C 69.5312 -86.7188 68.7012 -86.2793 67.9688 -85.5957 L 17.5293 -38.2812 C 16.6504 -37.5 16.0645 -36.4258 16.0645 -35.2539 C 16.0645 -34.1309 16.6016 -33.1543 17.4805 -32.2754 Z M 124.219 14.9414 C 124.951 15.625 125.83 16.1133 126.855 16.1133 C 128.906 16.1133 130.518 14.5508 130.518 12.4512 C 130.518 11.4746 130.127 10.5469 129.492 9.91211 L 81.3477 -35.3027 L 129.492 -80.4199 C 130.127 -81.1035 130.518 -82.0801 130.518 -83.0566 C 130.518 -85.1074 128.906 -86.7188 126.855 -86.7188 C 125.83 -86.7188 125 -86.2793 124.268 -85.5957 L 73.8281 -38.2812 C 72.9492 -37.5 72.3633 -36.4258 72.3633 -35.2539 C 72.3633 -34.1309 72.9004 -33.1543 73.7793 -32.2754 Z"/>
  </g>
  <g id="Thin-L" transform="matrix(1 0 0 1 784.474 1556)">
   <path d="M 68.0176 12.8418 C 68.457 13.2324 68.8965 13.5742 69.4824 13.5742 C 70.6543 13.5742 71.5332 12.6465 71.5332 11.5234 C 71.5332 11.0352 71.3867 10.4492 70.9961 10.1074 L 21.0938 -35.3516 L 70.9961 -80.6641 C 71.3867 -81.0547 71.5332 -81.6406 71.5332 -82.1289 C 71.5332 -83.3008 70.6543 -84.1797 69.4824 -84.1797 C 68.8965 -84.1797 68.5547 -83.8867 68.0664 -83.4961 L 17.1875 -37.3535 C 16.5527 -36.7676 16.0645 -36.084 16.0645 -35.2539 C 16.0645 -34.4727 16.5039 -33.8867 17.1387 -33.252 Z M 124.268 12.8418 C 124.756 13.2324 125.195 13.5742 125.781 13.5742 C 126.904 13.5742 127.832 12.6465 127.832 11.5234 C 127.832 11.0352 127.686 10.4492 127.295 10.1074 L 77.3926 -35.3516 L 127.295 -80.6641 C 127.686 -81.0547 127.832 -81.6406 127.832 -82.1289 C 127.832 -83.3008 126.904 -84.1797 125.781 -84.1797 C 125.195 -84.1797 124.854 -83.8867 124.365 -83.4961 L 73.4863 -37.3535 C 72.8516 -36.7676 72.3633 -36.084 72.3633 -35.2539 C 72.3633 -34.4727 72.8027 -33.8867 73.4375 -33.252 Z"/>
  </g>
  <g id="Ultralight-L" transform="matrix(1 0 0 1 488.446 1556)">
   <path d="M 68.0176 11.7188 C 68.3594 11.9629 68.6035 12.2559 68.9453 12.2559 C 69.6289 12.2559 70.166 11.7188 70.166 11.084 C 70.166 10.791 70.166 10.4004 69.873 10.2051 L 19.043 -35.3516 L 69.873 -80.7617 C 70.166 -81.0059 70.166 -81.3965 70.166 -81.6895 C 70.166 -82.3242 69.6289 -82.9102 68.9453 -82.9102 C 68.6035 -82.9102 68.457 -82.7148 68.1152 -82.4219 L 17.041 -36.9141 C 16.5527 -36.377 16.0645 -35.8887 16.0645 -35.2539 C 16.0645 -34.6191 16.4551 -34.2285 16.9434 -33.7402 Z M 124.316 11.7188 C 124.658 11.9629 124.902 12.2559 125.244 12.2559 C 125.928 12.2559 126.465 11.7188 126.465 11.084 C 126.465 10.791 126.416 10.4004 126.172 10.2051 L 75.3418 -35.3516 L 126.172 -80.7617 C 126.416 -81.0059 126.465 -81.3965 126.465 -81.6895 C 126.465 -82.3242 125.928 -82.9102 125.244 -82.9102 C 124.902 -82.9102 124.756 -82.7148 124.414 -82.4219 L 73.3398 -36.9141 C 72.8027 -36.377 72.3633 -35.8887 72.3633 -35.2539 C 72.3633 -34.6191 72.7539 -34.2285 73.2422 -33.7402 Z"/>
  </g>
  <g id="Black-M" transform="matrix(1 0 0 1 2869.39 1126)">
   <path d="M 51.9531 8.88672 C 54.2969 11.1328 56.8848 12.207 60.0098 12.207 C 66.5527 12.207 71.9727 6.83594 71.9727 0.439453 C 71.9727 -2.83203 70.5566 -5.85938 67.9688 -8.39844 L 39.7949 -35.3516 L 67.9688 -62.1094 C 70.6543 -64.6484 71.9727 -67.6758 71.9727 -70.8984 C 71.9727 -77.2949 66.5527 -82.666 60.0098 -82.666 C 56.7871 -82.666 54.248 -81.6406 51.9531 -79.3457 L 17.1387 -45.459 C 13.916 -42.1387 12.5 -39.1602 12.4512 -35.2539 C 12.4512 -31.3965 13.8184 -28.3691 17.1387 -25.0977 Z M 95.5566 8.88672 C 97.9004 11.1328 100.488 12.207 103.662 12.207 C 110.156 12.207 115.576 6.83594 115.576 0.439453 C 115.576 -2.83203 114.209 -5.85938 111.621 -8.39844 L 83.4473 -35.3516 L 111.621 -62.1094 C 114.258 -64.6484 115.576 -67.6758 115.576 -70.8984 C 115.576 -77.2949 110.156 -82.666 103.662 -82.666 C 100.439 -82.666 97.8516 -81.6406 95.5566 -79.3457 L 60.7422 -45.459 C 57.5195 -42.1387 56.1523 -39.1602 56.0547 -35.2539 C 56.0547 -31.3965 57.4707 -28.3691 60.7422 -25.0977 Z"/>
  </g>
  <g id="Heavy-M" transform="matrix(1 0 0 1 2574.04 1126)">
   <path d="M 52.0996 8.20312 C 54.1016 10.0586 56.2988 10.9863 59.0332 10.9863 C 64.5996 10.9863 69.1895 6.44531 69.1895 0.976562 C 69.1895 -1.80664 68.0176 -4.39453 65.8691 -6.54297 L 35.9375 -35.3516 L 65.8691 -64.0137 C 68.0664 -66.1133 69.1895 -68.7012 69.1895 -71.4355 C 69.1895 -76.9043 64.5996 -81.4941 59.0332 -81.4941 C 56.25 -81.4941 54.0527 -80.6152 52.0996 -78.6621 L 16.3574 -43.7988 C 13.6719 -41.1133 12.5 -38.5742 12.4512 -35.2539 C 12.4512 -32.0312 13.623 -29.4434 16.3574 -26.709 Z M 95.7031 8.20312 C 97.7051 10.0586 99.9512 10.9863 102.637 10.9863 C 108.203 10.9863 112.842 6.44531 112.842 0.976562 C 112.842 -1.80664 111.621 -4.39453 109.473 -6.54297 L 79.541 -35.3516 L 109.473 -64.0137 C 111.67 -66.1133 112.842 -68.7012 112.842 -71.4355 C 112.842 -76.9043 108.203 -81.4941 102.637 -81.4941 C 99.9023 -81.4941 97.6562 -80.6152 95.7031 -78.6621 L 60.0098 -43.7988 C 57.3242 -41.1133 56.1035 -38.5742 56.0547 -35.2539 C 56.0547 -32.0312 57.2754 -29.4434 60.0098 -26.709 Z"/>
  </g>
  <g id="Bold-M" transform="matrix(1 0 0 1 2278.89 1126)">
   <path d="M 52.2461 7.37305 C 53.8574 8.88672 55.6641 9.66797 57.9102 9.66797 C 62.4023 9.66797 66.1133 6.00586 66.1133 1.5625 C 66.1133 -0.683594 65.1367 -2.7832 63.4766 -4.44336 L 31.5918 -35.3027 L 63.4766 -66.0645 C 65.1855 -67.7734 66.1133 -69.873 66.1133 -72.0703 C 66.1133 -76.5137 62.4023 -80.1758 57.9102 -80.1758 C 55.6641 -80.1758 53.8086 -79.4434 52.2461 -77.8809 L 15.5273 -41.9922 C 13.4277 -39.9414 12.5 -37.8418 12.4512 -35.2539 C 12.4512 -32.7148 13.3789 -30.6152 15.5273 -28.5156 Z M 95.8984 7.37305 C 97.4609 8.88672 99.3164 9.66797 101.514 9.66797 C 106.055 9.66797 109.717 6.00586 109.717 1.5625 C 109.717 -0.683594 108.789 -2.7832 107.08 -4.44336 L 75.2441 -35.3027 L 107.08 -66.0645 C 108.789 -67.7734 109.717 -69.873 109.717 -72.0703 C 109.717 -76.5137 106.055 -80.1758 101.514 -80.1758 C 99.2676 -80.1758 97.4609 -79.4434 95.8984 -77.8809 L 59.1309 -41.9922 C 57.0801 -39.9414 56.1035 -37.8418 56.0547 -35.2539 C 56.0547 -32.7148 57.0312 -30.6152 59.1309 -28.5156 Z"/>
  </g>
  <g id="Semibold-M" transform="matrix(1 0 0 1 1983.26 1126)">
   <path d="M 52.3926 6.78711 C 53.7109 8.05664 55.2734 8.74023 57.1289 8.74023 C 60.8887 8.74023 63.9648 5.71289 63.9648 1.95312 C 63.9648 0.0976562 63.1836 -1.66016 61.8164 -2.97852 L 28.6133 -35.3027 L 61.8164 -67.5293 C 63.1836 -68.8965 63.9648 -70.6543 63.9648 -72.4609 C 63.9648 -76.2207 60.8887 -79.248 57.1289 -79.248 C 55.2246 -79.248 53.6621 -78.6133 52.3926 -77.3438 L 14.9414 -40.7227 C 13.2812 -39.1113 12.4512 -37.3535 12.4512 -35.2539 C 12.4512 -33.2031 13.2324 -31.4453 14.9414 -29.7852 Z M 95.9961 6.78711 C 97.3145 8.05664 98.877 8.74023 100.732 8.74023 C 104.541 8.74023 107.568 5.71289 107.568 1.95312 C 107.568 0.0976562 106.787 -1.66016 105.42 -2.97852 L 72.2656 -35.3027 L 105.42 -67.5293 C 106.836 -68.8965 107.568 -70.6543 107.568 -72.4609 C 107.568 -76.2207 104.541 -79.248 100.732 -79.248 C 98.877 -79.248 97.3145 -78.6133 95.9961 -77.3438 L 58.5449 -40.7227 C 56.8848 -39.1113 56.1035 -37.3535 56.0547 -35.2539 C 56.0547 -33.2031 56.8848 -31.4453 58.5449 -29.7852 Z"/>
  </g>
  <g id="Medium-M" transform="matrix(1 0 0 1 1687.35 1126)">
   <path d="M 52.4414 6.39648 C 53.5645 7.4707 54.9316 8.05664 56.4941 8.05664 C 59.7656 8.05664 62.3047 5.51758 62.3047 2.29492 C 62.3047 0.683594 61.6699 -0.78125 60.5469 -1.9043 L 26.3672 -35.3027 L 60.5469 -68.6035 C 61.6699 -69.7266 62.3047 -71.2402 62.3047 -72.8027 C 62.3047 -76.0254 59.7656 -78.5645 56.4941 -78.5645 C 54.9316 -78.5645 53.5645 -77.9785 52.4902 -76.9043 L 14.502 -39.7949 C 13.1348 -38.5254 12.4512 -36.9629 12.4512 -35.2539 C 12.4512 -33.5449 13.1348 -32.0801 14.4531 -30.7617 Z M 96.0938 6.39648 C 97.2168 7.4707 98.5352 8.05664 100.146 8.05664 C 103.418 8.05664 105.957 5.51758 105.957 2.29492 C 105.957 0.683594 105.273 -0.78125 104.199 -1.9043 L 69.9707 -35.3027 L 104.199 -68.6035 C 105.322 -69.7266 105.957 -71.2402 105.957 -72.8027 C 105.957 -76.0254 103.418 -78.5645 100.146 -78.5645 C 98.5352 -78.5645 97.2168 -77.9785 96.0938 -76.9043 L 58.1055 -39.7949 C 56.7871 -38.5254 56.1035 -36.9629 56.0547 -35.2539 C 56.0547 -33.5449 56.7383 -32.0801 58.1055 -30.7617 Z"/>
  </g>
  <g id="Regular-M" transform="matrix(1 0 0 1 1391.69 1126)">
   <path d="M 52.5879 5.81055 C 53.418 6.64062 54.4922 7.12891 55.7617 7.12891 C 58.3008 7.12891 60.2051 5.22461 60.2051 2.68555 C 60.2051 1.46484 59.7168 0.341797 58.9355 -0.488281 L 23.3887 -35.2539 L 58.9355 -70.0195 C 59.7168 -70.8496 60.2051 -72.0215 60.2051 -73.1934 C 60.2051 -75.7324 58.3008 -77.6855 55.7617 -77.6855 C 54.4922 -77.6855 53.418 -77.1973 52.5879 -76.3672 L 13.916 -38.5254 C 12.9883 -37.7441 12.4512 -36.5234 12.4512 -35.2539 C 12.4512 -34.0332 12.9395 -32.9102 13.8672 -31.9824 Z M 96.1914 5.81055 C 97.0215 6.64062 98.1445 7.12891 99.3652 7.12891 C 101.904 7.12891 103.857 5.22461 103.857 2.68555 C 103.857 1.46484 103.32 0.341797 102.539 -0.488281 L 67.041 -35.2539 L 102.539 -70.0195 C 103.32 -70.8496 103.857 -72.0215 103.857 -73.1934 C 103.857 -75.7324 101.904 -77.6855 99.3652 -77.6855 C 98.1445 -77.6855 97.0703 -77.1973 96.1914 -76.3672 L 57.5195 -38.5254 C 56.5918 -37.7441 56.0547 -36.5234 56.0547 -35.2539 C 56.0547 -34.0332 56.5918 -32.9102 57.5195 -31.9824 Z"/>
  </g>
  <g id="Light-M" transform="matrix(1 0 0 1 1095.88 1126)">
   <path d="M 52.6367 4.39453 C 53.2715 5.0293 54.1016 5.41992 55.0293 5.41992 C 56.9336 5.41992 58.3984 3.95508 58.3984 2.05078 C 58.3984 1.12305 58.0566 0.244141 57.4707 -0.341797 L 20.752 -35.3027 L 57.4707 -70.166 C 58.0566 -70.8008 58.3984 -71.7285 58.3984 -72.6074 C 58.3984 -74.5117 56.9336 -75.9766 55.0293 -75.9766 C 54.1016 -75.9766 53.3203 -75.5859 52.6367 -74.9512 L 13.6719 -37.9395 C 12.9395 -37.207 12.4512 -36.2793 12.4512 -35.2539 C 12.4512 -34.2285 12.8906 -33.3984 13.6719 -32.6172 Z M 96.2402 4.39453 C 96.9238 5.0293 97.7051 5.41992 98.6816 5.41992 C 100.586 5.41992 102.051 3.95508 102.051 2.05078 C 102.051 1.12305 101.66 0.244141 101.074 -0.341797 L 64.3555 -35.3027 L 101.074 -70.166 C 101.66 -70.8008 102.051 -71.7285 102.051 -72.6074 C 102.051 -74.5117 100.586 -75.9766 98.6816 -75.9766 C 97.7051 -75.9766 96.9238 -75.5859 96.2891 -74.9512 L 57.3242 -37.9395 C 56.543 -37.207 56.0547 -36.2793 56.0547 -35.2539 C 56.0547 -34.2285 56.543 -33.3984 57.2754 -32.6172 Z"/>
  </g>
  <g id="Thin-M" transform="matrix(1 0 0 1 800.368 1126)">
   <path d="M 52.6855 2.49023 C 53.125 2.83203 53.5156 3.125 54.1016 3.125 C 55.1758 3.125 56.0059 2.29492 56.0059 1.2207 C 56.0059 0.732422 55.8594 0.195312 55.5176 -0.146484 L 17.1875 -35.3027 L 55.5176 -70.3613 C 55.8594 -70.752 56.0059 -71.2891 56.0059 -71.7773 C 56.0059 -72.8516 55.1758 -73.7305 54.1016 -73.7305 C 53.5156 -73.7305 53.1738 -73.4863 52.7344 -73.0957 L 13.3789 -37.1094 C 12.8418 -36.5723 12.4512 -35.9863 12.4512 -35.2539 C 12.4512 -34.5703 12.793 -34.0332 13.3301 -33.4961 Z M 96.2891 2.49023 C 96.7285 2.83203 97.168 3.125 97.7051 3.125 C 98.7793 3.125 99.6582 2.29492 99.6582 1.2207 C 99.6582 0.732422 99.5117 0.195312 99.1211 -0.146484 L 60.8398 -35.3027 L 99.1211 -70.3613 C 99.5117 -70.752 99.6582 -71.2891 99.6582 -71.7773 C 99.6582 -72.8516 98.7793 -73.7305 97.7051 -73.7305 C 97.168 -73.7305 96.7773 -73.4863 96.3379 -73.0957 L 57.0312 -37.1094 C 56.4941 -36.5723 56.0547 -35.9863 56.0547 -35.2539 C 56.0547 -34.5703 56.4453 -34.0332 56.9824 -33.4961 Z"/>
  </g>
  <g id="Ultralight-M" transform="matrix(1 0 0 1 504.267 1126)">
   <path d="M 52.7344 1.51367 C 53.0273 1.70898 53.2715 1.95312 53.6133 1.95312 C 54.248 1.95312 54.7852 1.46484 54.7852 0.78125 C 54.7852 0.488281 54.7363 0.146484 54.4922 -0.0488281 L 15.3809 -35.3027 L 54.4922 -70.459 C 54.7363 -70.7031 54.7852 -71.0938 54.7852 -71.3867 C 54.7852 -72.0215 54.248 -72.5586 53.6133 -72.5586 C 53.2715 -72.5586 53.0762 -72.3633 52.7832 -72.1191 L 13.2324 -36.6699 C 12.8418 -36.2305 12.4512 -35.791 12.4512 -35.2539 C 12.4512 -34.7168 12.7441 -34.375 13.1836 -33.9355 Z M 96.3379 1.51367 C 96.6309 1.70898 96.875 1.95312 97.2168 1.95312 C 97.9004 1.95312 98.4375 1.46484 98.4375 0.78125 C 98.4375 0.488281 98.3887 0.146484 98.1445 -0.0488281 L 58.9844 -35.3027 L 98.1445 -70.459 C 98.3887 -70.7031 98.4375 -71.0938 98.4375 -71.3867 C 98.4375 -72.0215 97.9004 -72.5586 97.2168 -72.5586 C 96.875 -72.5586 96.7285 -72.3633 96.3867 -72.1191 L 56.8848 -36.6699 C 56.4453 -36.2305 56.0547 -35.791 56.0547 -35.2539 C 56.0547 -34.7168 56.3965 -34.375 56.8359 -33.9355 Z"/>
  </g>
  <g id="Black-S" transform="matrix(1 0 0 1 2883.33 696)">
   <path d="M 40.7227 -0.683594 C 42.5293 1.02539 44.5312 1.85547 46.9727 1.85547 C 52.002 1.85547 56.2012 -2.29492 56.2012 -7.22656 C 56.2012 -9.76562 55.127 -12.1094 53.125 -14.0625 L 30.9082 -35.3027 L 53.125 -56.4453 C 55.1758 -58.3984 56.2012 -60.7422 56.2012 -63.2324 C 56.2012 -68.1641 52.002 -72.3145 46.9727 -72.3145 C 44.4824 -72.3145 42.4805 -71.5332 40.7227 -69.7754 L 13.3789 -43.1152 C 10.8887 -40.5762 9.81445 -38.2812 9.76562 -35.2539 C 9.76562 -32.2754 10.8398 -29.9316 13.3789 -27.3926 Z M 74.9023 -0.683594 C 76.709 1.02539 78.7109 1.85547 81.1523 1.85547 C 86.1816 1.85547 90.3809 -2.29492 90.3809 -7.22656 C 90.3809 -9.76562 89.3066 -12.1094 87.3047 -14.0625 L 65.0879 -35.3027 L 87.3047 -56.4453 C 89.3555 -58.3984 90.3809 -60.7422 90.3809 -63.2324 C 90.3809 -68.1641 86.1816 -72.3145 81.1523 -72.3145 C 78.6621 -72.3145 76.6602 -71.5332 74.9023 -69.7754 L 47.5586 -43.1152 C 45.0684 -40.5762 43.9941 -38.2812 43.9453 -35.2539 C 43.9453 -32.2754 45.0195 -29.9316 47.5586 -27.3926 Z"/>
  </g>
  <g id="Heavy-S" transform="matrix(1 0 0 1 2587.57 696)">
   <path d="M 40.8203 -1.07422 C 42.3828 0.390625 44.1406 1.12305 46.2891 1.12305 C 50.6836 1.12305 54.2969 -2.44141 54.2969 -6.73828 C 54.2969 -8.93555 53.3691 -10.9863 51.6602 -12.6465 L 28.2715 -35.3027 L 51.6602 -57.8613 C 53.3691 -59.5215 54.2969 -61.5723 54.2969 -63.7207 C 54.2969 -68.0176 50.6836 -71.6309 46.2891 -71.6309 C 44.0918 -71.6309 42.334 -70.8984 40.8203 -69.3848 L 12.8418 -41.9434 C 10.7422 -39.8438 9.81445 -37.8418 9.76562 -35.2539 C 9.76562 -32.7148 10.6934 -30.7129 12.793 -28.5645 Z M 75 -1.07422 C 76.5625 0.390625 78.3203 1.12305 80.4688 1.12305 C 84.8633 1.12305 88.4766 -2.44141 88.4766 -6.73828 C 88.4766 -8.93555 87.5488 -10.9863 85.8398 -12.6465 L 62.4512 -35.3027 L 85.8398 -57.8613 C 87.5488 -59.5215 88.4766 -61.5723 88.4766 -63.7207 C 88.4766 -68.0176 84.8633 -71.6309 80.4688 -71.6309 C 78.2715 -71.6309 76.5137 -70.8984 75 -69.3848 L 47.0215 -41.9434 C 44.9219 -39.8438 43.9941 -37.8418 43.9453 -35.2539 C 43.9453 -32.7148 44.873 -30.7129 46.9727 -28.5645 Z"/>
  </g>
  <g id="Bold-S" transform="matrix(1 0 0 1 2291.93 696)">
   <path d="M 40.9668 -1.51367 C 42.2363 -0.292969 43.7012 0.341797 45.5078 0.341797 C 49.1699 0.341797 52.1484 -2.63672 52.1484 -6.25 C 52.1484 -8.05664 51.3672 -9.7168 50 -11.084 L 25.293 -35.3027 L 50 -59.4238 C 51.3672 -60.791 52.1484 -62.5 52.1484 -64.2578 C 52.1484 -67.8711 49.1699 -70.8008 45.5078 -70.8008 C 43.7012 -70.8008 42.1875 -70.2148 40.9668 -68.9453 L 12.207 -40.625 C 10.5469 -39.0137 9.81445 -37.3047 9.76562 -35.2539 C 9.76562 -33.2031 10.498 -31.543 12.207 -29.8828 Z M 75.1465 -1.51367 C 76.416 -0.292969 77.8809 0.341797 79.6875 0.341797 C 83.3496 0.341797 86.3281 -2.63672 86.3281 -6.25 C 86.3281 -8.05664 85.5469 -9.7168 84.1797 -11.084 L 59.4727 -35.3027 L 84.1797 -59.4238 C 85.5469 -60.791 86.3281 -62.5 86.3281 -64.2578 C 86.3281 -67.8711 83.3496 -70.8008 79.6875 -70.8008 C 77.8809 -70.8008 76.3672 -70.2148 75.1465 -68.9453 L 46.3867 -40.625 C 44.7266 -39.0137 43.9941 -37.3047 43.9453 -35.2539 C 43.9453 -33.2031 44.6777 -31.543 46.3867 -29.8828 Z"/>
  </g>
  <g id="Semibold-S" transform="matrix(1 0 0 1 1995.98 696)">
   <path d="M 41.0156 -1.85547 C 42.1387 -0.78125 43.4082 -0.244141 44.9707 -0.244141 C 48.1445 -0.244141 50.6348 -2.73438 50.6348 -5.85938 C 50.6348 -7.42188 50 -8.83789 48.877 -9.96094 L 23.1934 -35.2539 L 48.877 -60.5469 C 50 -61.6699 50.6348 -63.0859 50.6348 -64.6484 C 50.6348 -67.7734 48.1445 -70.2637 44.9707 -70.2637 C 43.4082 -70.2637 42.0898 -69.7266 41.0156 -68.6523 L 11.7676 -39.6973 C 10.4004 -38.4277 9.76562 -36.9629 9.76562 -35.2539 C 9.76562 -33.5449 10.4004 -32.1289 11.7676 -30.8105 Z M 75.1953 -1.85547 C 76.3184 -0.78125 77.5879 -0.244141 79.1504 -0.244141 C 82.3242 -0.244141 84.8145 -2.73438 84.8145 -5.85938 C 84.8145 -7.42188 84.1797 -8.83789 83.0566 -9.96094 L 57.373 -35.2539 L 83.0566 -60.5469 C 84.1797 -61.6699 84.8145 -63.0859 84.8145 -64.6484 C 84.8145 -67.7734 82.3242 -70.2637 79.1504 -70.2637 C 77.5879 -70.2637 76.2695 -69.7266 75.1953 -68.6523 L 45.9473 -39.6973 C 44.5801 -38.4277 43.9453 -36.9629 43.9453 -35.2539 C 43.9453 -33.5449 44.5801 -32.1289 45.9473 -30.8105 Z"/>
  </g>
  <g id="Medium-S" transform="matrix(1 0 0 1 1699.83 696)">
   <path d="M 41.1133 -2.05078 C 42.041 -1.12305 43.2129 -0.634766 44.5801 -0.634766 C 47.3633 -0.634766 49.5117 -2.83203 49.5117 -5.56641 C 49.5117 -6.98242 48.9746 -8.20312 47.998 -9.17969 L 21.6309 -35.2539 L 47.998 -61.3281 C 48.9746 -62.3047 49.5117 -63.5742 49.5117 -64.8926 C 49.5117 -67.6758 47.3633 -69.873 44.5801 -69.873 C 43.2129 -69.873 42.041 -69.3848 41.1133 -68.457 L 11.4258 -39.0137 C 10.3027 -37.9883 9.76562 -36.6699 9.76562 -35.2539 C 9.76562 -33.8379 10.3027 -32.6172 11.4258 -31.4941 Z M 75.293 -2.05078 C 76.2207 -1.12305 77.3926 -0.634766 78.7598 -0.634766 C 81.543 -0.634766 83.6914 -2.83203 83.6914 -5.56641 C 83.6914 -6.98242 83.1543 -8.20312 82.1777 -9.17969 L 55.8105 -35.2539 L 82.1777 -61.3281 C 83.1543 -62.3047 83.6914 -63.5742 83.6914 -64.8926 C 83.6914 -67.6758 81.543 -69.873 78.7598 -69.873 C 77.3926 -69.873 76.2207 -69.3848 75.293 -68.457 L 45.6055 -39.0137 C 44.4824 -37.9883 43.9453 -36.6699 43.9453 -35.2539 C 43.9453 -33.8379 44.4824 -32.6172 45.6055 -31.4941 Z"/>
  </g>
  <g id="Regular-S" transform="matrix(1 0 0 1 1403.85 696)">
   <path d="M 41.1621 -2.39258 C 41.9434 -1.61133 42.9199 -1.17188 44.043 -1.17188 C 46.3379 -1.17188 48.0469 -2.92969 48.0469 -5.22461 C 48.0469 -6.34766 47.6074 -7.32422 46.875 -8.10547 L 19.6289 -35.2539 L 46.875 -62.4023 C 47.6074 -63.1836 48.0469 -64.209 48.0469 -65.2832 C 48.0469 -67.5781 46.3379 -69.3359 44.043 -69.3359 C 42.9199 -69.3359 41.9434 -68.8965 41.1621 -68.1641 L 10.9863 -38.1348 C 10.2051 -37.4023 9.76562 -36.3281 9.76562 -35.2539 C 9.76562 -34.1797 10.2051 -33.2031 10.9863 -32.373 Z M 75.3418 -2.39258 C 76.123 -1.61133 77.0996 -1.17188 78.2227 -1.17188 C 80.5176 -1.17188 82.2266 -2.92969 82.2266 -5.22461 C 82.2266 -6.34766 81.7871 -7.32422 81.0547 -8.10547 L 53.8086 -35.2539 L 81.0547 -62.4023 C 81.7871 -63.1836 82.2266 -64.209 82.2266 -65.2832 C 82.2266 -67.5781 80.5176 -69.3359 78.2227 -69.3359 C 77.0996 -69.3359 76.123 -68.8965 75.3418 -68.1641 L 45.166 -38.1348 C 44.3848 -37.4023 43.9453 -36.3281 43.9453 -35.2539 C 43.9453 -34.1797 44.3848 -33.2031 45.166 -32.373 Z"/>
  </g>
  <g id="Light-S" transform="matrix(1 0 0 1 1107.92 696)">
   <path d="M 41.2109 -3.66211 C 41.7969 -3.07617 42.5293 -2.73438 43.4082 -2.73438 C 45.1172 -2.73438 46.4844 -4.05273 46.4844 -5.76172 C 46.4844 -6.64062 46.1426 -7.37305 45.6055 -7.95898 L 17.2852 -35.2539 L 45.6055 -62.5488 C 46.1426 -63.1348 46.4844 -63.916 46.4844 -64.7461 C 46.4844 -66.5039 45.1172 -67.8223 43.4082 -67.8223 C 42.5293 -67.8223 41.8457 -67.4805 41.2109 -66.8945 L 10.791 -37.5977 C 10.1562 -36.9629 9.76562 -36.1328 9.76562 -35.2539 C 9.76562 -34.375 10.1562 -33.5938 10.791 -32.959 Z M 75.3906 -3.66211 C 75.9766 -3.07617 76.709 -2.73438 77.5879 -2.73438 C 79.2969 -2.73438 80.6641 -4.05273 80.6641 -5.76172 C 80.6641 -6.64062 80.3223 -7.37305 79.7852 -7.95898 L 51.4648 -35.2539 L 79.7852 -62.5488 C 80.3223 -63.1348 80.6641 -63.916 80.6641 -64.7461 C 80.6641 -66.5039 79.2969 -67.8223 77.5879 -67.8223 C 76.709 -67.8223 76.0254 -67.4805 75.3906 -66.8945 L 44.9707 -37.5977 C 44.3359 -36.9629 43.9453 -36.1328 43.9453 -35.2539 C 43.9453 -34.375 44.3359 -33.5938 44.9707 -32.959 Z"/>
  </g>
  <g id="Thin-S" transform="matrix(1 0 0 1 812.282 696)">
   <path d="M 41.2598 -5.32227 C 41.6504 -4.98047 42.041 -4.73633 42.5781 -4.73633 C 43.5547 -4.73633 44.3359 -5.51758 44.3359 -6.49414 C 44.3359 -6.98242 44.1895 -7.4707 43.8477 -7.76367 L 14.1602 -35.3027 L 43.8477 -62.7441 C 44.1895 -63.0859 44.3359 -63.5742 44.3359 -64.0137 C 44.3359 -65.0391 43.5547 -65.8203 42.5781 -65.8203 C 42.041 -65.8203 41.6992 -65.5762 41.3086 -65.2344 L 10.5469 -36.8652 C 10.1074 -36.4258 9.76562 -35.8887 9.76562 -35.2539 C 9.76562 -34.6191 10.0586 -34.1797 10.5469 -33.6914 Z M 75.4395 -5.32227 C 75.8301 -4.98047 76.2207 -4.73633 76.7578 -4.73633 C 77.7344 -4.73633 78.5156 -5.51758 78.5156 -6.49414 C 78.5156 -6.98242 78.3691 -7.4707 78.0273 -7.76367 L 48.3398 -35.3027 L 78.0273 -62.7441 C 78.3691 -63.0859 78.5156 -63.5742 78.5156 -64.0137 C 78.5156 -65.0391 77.7344 -65.8203 76.7578 -65.8203 C 76.2207 -65.8203 75.8789 -65.5762 75.4883 -65.2344 L 44.7266 -36.8652 C 44.2871 -36.4258 43.9453 -35.8887 43.9453 -35.2539 C 43.9453 -34.6191 44.2383 -34.1797 44.7266 -33.6914 Z"/>
  </g>
  <g id="Ultralight-S" transform="matrix(1 0 0 1 516.108 696)">
   <path d="M 41.3086 -6.20117 C 41.5527 -5.95703 41.7969 -5.76172 42.1387 -5.76172 C 42.7734 -5.76172 43.2617 -6.25 43.2617 -6.88477 C 43.2617 -7.17773 43.2129 -7.51953 42.9688 -7.66602 L 12.5488 -35.3027 L 42.9688 -62.8418 C 43.2129 -63.0371 43.2617 -63.3789 43.2617 -63.6719 C 43.2617 -64.3066 42.7734 -64.7949 42.1387 -64.7949 C 41.7969 -64.7949 41.6016 -64.6484 41.3574 -64.4043 L 10.4492 -36.4746 C 10.0586 -36.084 9.76562 -35.7422 9.76562 -35.2539 C 9.76562 -34.7656 10.0098 -34.4727 10.4004 -34.082 Z M 75.4883 -6.20117 C 75.7324 -5.95703 75.9766 -5.76172 76.3184 -5.76172 C 76.9531 -5.76172 77.4414 -6.25 77.4414 -6.88477 C 77.4414 -7.17773 77.3926 -7.51953 77.1484 -7.66602 L 46.7285 -35.3027 L 77.1484 -62.8418 C 77.3926 -63.0371 77.4414 -63.3789 77.4414 -63.6719 C 77.4414 -64.3066 76.9531 -64.7949 76.3184 -64.7949 C 75.9766 -64.7949 75.7812 -64.6484 75.5371 -64.4043 L 44.6289 -36.4746 C 44.2383 -36.084 43.9453 -35.7422 43.9453 -35.2539 C 43.9453 -34.7656 44.1895 -34.4727 44.5801 -34.082 Z"/>
  </g>
 </g>
</svg>
