<?xml version="1.0" encoding="UTF-8"?>
<!--Generator: Apple Native CoreSVG 123-->
<!DOCTYPE svg
PUBLIC "-//W3C//DTD SVG 1.1//EN"
       "http://www.w3.org/Graphics/SVG/1.1/DTD/svg11.dtd">
<svg version="1.1" xmlns="http://www.w3.org/2000/svg" xmlns:xlink="http://www.w3.org/1999/xlink" width="3300" height="2200">
 <!--glyph: "uni10018C.medium", point size: 100.000000, font version: "Version 15.0d7e11", template writer version: "5"-->
 <g id="Notes">
  <rect height="2200" id="artboard" style="fill:white;opacity:1" width="3300" x="0" y="0"/>
  <line id="" style="fill:none;stroke:black;opacity:1;stroke-width:0.5;" x1="263" x2="3036" y1="292" y2="292"/>
  <text style="stroke:none;fill:black;font-family:-apple-system,&quot;SF Pro Display&quot;,&quot;SF Pro Text&quot;,Helvetica,sans-serif;font-weight:bold;" transform="matrix(1 0 0 1 263 322)">Weight/Scale Variations</text>
  <text style="stroke:none;fill:black;font-family:-apple-system,&quot;SF Pro Display&quot;,&quot;SF Pro Text&quot;,Helvetica,sans-serif;text-anchor:middle;" transform="matrix(1 0 0 1 559.711 322)">Ultralight</text>
  <text style="stroke:none;fill:black;font-family:-apple-system,&quot;SF Pro Display&quot;,&quot;SF Pro Text&quot;,Helvetica,sans-serif;text-anchor:middle;" transform="matrix(1 0 0 1 856.422 322)">Thin</text>
  <text style="stroke:none;fill:black;font-family:-apple-system,&quot;SF Pro Display&quot;,&quot;SF Pro Text&quot;,Helvetica,sans-serif;text-anchor:middle;" transform="matrix(1 0 0 1 1153.13 322)">Light</text>
  <text style="stroke:none;fill:black;font-family:-apple-system,&quot;SF Pro Display&quot;,&quot;SF Pro Text&quot;,Helvetica,sans-serif;text-anchor:middle;" transform="matrix(1 0 0 1 1449.84 322)">Regular</text>
  <text style="stroke:none;fill:black;font-family:-apple-system,&quot;SF Pro Display&quot;,&quot;SF Pro Text&quot;,Helvetica,sans-serif;text-anchor:middle;" transform="matrix(1 0 0 1 1746.56 322)">Medium</text>
  <text style="stroke:none;fill:black;font-family:-apple-system,&quot;SF Pro Display&quot;,&quot;SF Pro Text&quot;,Helvetica,sans-serif;text-anchor:middle;" transform="matrix(1 0 0 1 2043.27 322)">Semibold</text>
  <text style="stroke:none;fill:black;font-family:-apple-system,&quot;SF Pro Display&quot;,&quot;SF Pro Text&quot;,Helvetica,sans-serif;text-anchor:middle;" transform="matrix(1 0 0 1 2339.98 322)">Bold</text>
  <text style="stroke:none;fill:black;font-family:-apple-system,&quot;SF Pro Display&quot;,&quot;SF Pro Text&quot;,Helvetica,sans-serif;text-anchor:middle;" transform="matrix(1 0 0 1 2636.69 322)">Heavy</text>
  <text style="stroke:none;fill:black;font-family:-apple-system,&quot;SF Pro Display&quot;,&quot;SF Pro Text&quot;,Helvetica,sans-serif;text-anchor:middle;" transform="matrix(1 0 0 1 2933.4 322)">Black</text>
  <line id="" style="fill:none;stroke:black;opacity:1;stroke-width:0.5;" x1="263" x2="3036" y1="1903" y2="1903"/>
  <g id="" transform="matrix(1 0 0 1 263 1933)">
   <path d="M 9.24805 0.830078 C 13.5547 0.830078 17.1387 -2.74414 17.1387 -7.05078 C 17.1387 -11.3574 13.5449 -14.9316 9.23828 -14.9316 C 4.94141 -14.9316 1.36719 -11.3574 1.36719 -7.05078 C 1.36719 -2.74414 4.95117 0.830078 9.24805 0.830078 Z M 9.24805 -0.654297 C 5.70312 -0.654297 2.87109 -3.49609 2.87109 -7.05078 C 2.87109 -10.6055 5.69336 -13.4473 9.23828 -13.4473 C 12.793 -13.4473 15.6348 -10.6055 15.6445 -7.05078 C 15.6543 -3.49609 12.8027 -0.654297 9.24805 -0.654297 Z M 9.22852 -3.42773 C 9.69727 -3.42773 9.9707 -3.74023 9.9707 -4.25781 L 9.9707 -6.31836 L 12.1973 -6.31836 C 12.6953 -6.31836 13.0371 -6.57227 13.0371 -7.04102 C 13.0371 -7.51953 12.7148 -7.7832 12.1973 -7.7832 L 9.9707 -7.7832 L 9.9707 -10.0098 C 9.9707 -10.5273 9.69727 -10.8496 9.22852 -10.8496 C 8.75977 -10.8496 8.50586 -10.5078 8.50586 -10.0098 L 8.50586 -7.7832 L 6.29883 -7.7832 C 5.78125 -7.7832 5.44922 -7.51953 5.44922 -7.04102 C 5.44922 -6.57227 5.80078 -6.31836 6.29883 -6.31836 L 8.50586 -6.31836 L 8.50586 -4.25781 C 8.50586 -3.75977 8.75977 -3.42773 9.22852 -3.42773 Z"/>
  </g>
  <g id="" transform="matrix(1 0 0 1 281.506 1933)">
   <path d="M 11.709 2.91016 C 17.1582 2.91016 21.6699 -1.60156 21.6699 -7.05078 C 21.6699 -12.4902 17.1484 -17.0117 11.6992 -17.0117 C 6.25977 -17.0117 1.74805 -12.4902 1.74805 -7.05078 C 1.74805 -1.60156 6.26953 2.91016 11.709 2.91016 Z M 11.709 1.25 C 7.09961 1.25 3.41797 -2.44141 3.41797 -7.05078 C 3.41797 -11.6504 7.08984 -15.3516 11.6992 -15.3516 C 16.3086 -15.3516 20 -11.6504 20.0098 -7.05078 C 20.0195 -2.44141 16.3184 1.25 11.709 1.25 Z M 11.6895 -2.41211 C 12.207 -2.41211 12.5195 -2.77344 12.5195 -3.33984 L 12.5195 -6.23047 L 15.5762 -6.23047 C 16.123 -6.23047 16.5039 -6.51367 16.5039 -7.03125 C 16.5039 -7.55859 16.1426 -7.86133 15.5762 -7.86133 L 12.5195 -7.86133 L 12.5195 -10.9277 C 12.5195 -11.5039 12.207 -11.8555 11.6895 -11.8555 C 11.1719 -11.8555 10.8789 -11.4844 10.8789 -10.9277 L 10.8789 -7.86133 L 7.83203 -7.86133 C 7.26562 -7.86133 6.89453 -7.55859 6.89453 -7.03125 C 6.89453 -6.51367 7.28516 -6.23047 7.83203 -6.23047 L 10.8789 -6.23047 L 10.8789 -3.33984 C 10.8789 -2.79297 11.1719 -2.41211 11.6895 -2.41211 Z"/>
  </g>
  <g id="" transform="matrix(1 0 0 1 304.924 1933)">
   <path d="M 14.9707 5.67383 C 21.9336 5.67383 27.6953 -0.078125 27.6953 -7.04102 C 27.6953 -14.0039 21.9238 -19.7559 14.9609 -19.7559 C 8.00781 -19.7559 2.25586 -14.0039 2.25586 -7.04102 C 2.25586 -0.078125 8.01758 5.67383 14.9707 5.67383 Z M 14.9707 3.85742 C 8.93555 3.85742 4.08203 -1.00586 4.08203 -7.04102 C 4.08203 -13.0762 8.92578 -17.9395 14.9609 -17.9395 C 21.0059 -17.9395 25.8594 -13.0762 25.8691 -7.04102 C 25.8789 -1.00586 21.0156 3.85742 14.9707 3.85742 Z M 14.9512 -1.06445 C 15.5176 -1.06445 15.8691 -1.45508 15.8691 -2.06055 L 15.8691 -6.13281 L 20.1074 -6.13281 C 20.6934 -6.13281 21.1133 -6.46484 21.1133 -7.02148 C 21.1133 -7.59766 20.7227 -7.93945 20.1074 -7.93945 L 15.8691 -7.93945 L 15.8691 -12.1875 C 15.8691 -12.8027 15.5176 -13.1934 14.9512 -13.1934 C 14.3848 -13.1934 14.0625 -12.7832 14.0625 -12.1875 L 14.0625 -7.93945 L 9.83398 -7.93945 C 9.21875 -7.93945 8.80859 -7.59766 8.80859 -7.02148 C 8.80859 -6.46484 9.23828 -6.13281 9.83398 -6.13281 L 14.0625 -6.13281 L 14.0625 -2.06055 C 14.0625 -1.47461 14.3848 -1.06445 14.9512 -1.06445 Z"/>
  </g>
  <text style="stroke:none;fill:black;font-family:-apple-system,&quot;SF Pro Display&quot;,&quot;SF Pro Text&quot;,Helvetica,sans-serif;font-weight:bold;" transform="matrix(1 0 0 1 263 1953)">Design Variations</text>
  <text style="stroke:none;fill:black;font-family:-apple-system,&quot;SF Pro Display&quot;,&quot;SF Pro Text&quot;,Helvetica,sans-serif;" transform="matrix(1 0 0 1 263 1971)">Symbols are supported in up to nine weights and three scales.</text>
  <text style="stroke:none;fill:black;font-family:-apple-system,&quot;SF Pro Display&quot;,&quot;SF Pro Text&quot;,Helvetica,sans-serif;" transform="matrix(1 0 0 1 263 1989)">For optimal layout with text and other symbols, vertically align</text>
  <text style="stroke:none;fill:black;font-family:-apple-system,&quot;SF Pro Display&quot;,&quot;SF Pro Text&quot;,Helvetica,sans-serif;" transform="matrix(1 0 0 1 263 2007)">symbols with the adjacent text.</text>
  <rect height="14" id="" style="fill:#00AEEF;stroke:none;opacity:0.4;" width="3" x="776" y="1919"/>
  <g id="" transform="matrix(1 0 0 1 779 1933)">
   <path d="M 10.5273 0 L 12.373 0 L 7.17773 -14.0918 L 5.43945 -14.0918 L 0.244141 0 L 2.08984 0 L 3.50586 -4.0332 L 9.11133 -4.0332 Z M 6.2793 -11.9531 L 6.33789 -11.9531 L 8.59375 -5.52734 L 4.02344 -5.52734 Z"/>
  </g>
  <rect height="14" id="" style="fill:#00AEEF;stroke:none;opacity:0.4;" width="3" x="791.617" y="1919"/>
  <text style="stroke:none;fill:black;font-family:-apple-system,&quot;SF Pro Display&quot;,&quot;SF Pro Text&quot;,Helvetica,sans-serif;font-weight:bold;" transform="matrix(1 0 0 1 776 1953)">Margins</text>
  <text style="stroke:none;fill:black;font-family:-apple-system,&quot;SF Pro Display&quot;,&quot;SF Pro Text&quot;,Helvetica,sans-serif;" transform="matrix(1 0 0 1 776 1971)">Leading and trailing margins on the left and right side of each symbol</text>
  <text style="stroke:none;fill:black;font-family:-apple-system,&quot;SF Pro Display&quot;,&quot;SF Pro Text&quot;,Helvetica,sans-serif;" transform="matrix(1 0 0 1 776 1989)">can be adjusted by modifying the width of the blue rectangles.</text>
  <text style="stroke:none;fill:black;font-family:-apple-system,&quot;SF Pro Display&quot;,&quot;SF Pro Text&quot;,Helvetica,sans-serif;" transform="matrix(1 0 0 1 776 2007)">Modifications are automatically applied proportionally to all</text>
  <text style="stroke:none;fill:black;font-family:-apple-system,&quot;SF Pro Display&quot;,&quot;SF Pro Text&quot;,Helvetica,sans-serif;" transform="matrix(1 0 0 1 776 2025)">scales and weights.</text>
  <g id="" transform="matrix(1 0 0 1 1289 1933)">
   <path d="M 2.83203 3.11523 L 4.375 4.6582 C 5.22461 5.48828 6.19141 5.41992 7.06055 4.46289 L 17.2754 -6.66016 C 17.7051 -6.36719 18.0957 -6.37695 18.5645 -6.47461 L 19.6094 -6.68945 L 20.3027 -5.99609 L 20.2539 -5.47852 C 20.1855 -4.95117 20.3516 -4.53125 20.8496 -4.0332 L 21.6602 -3.22266 C 22.168 -2.71484 22.8223 -2.68555 23.3008 -3.16406 L 26.5527 -6.41602 C 27.0312 -6.89453 27.0117 -7.54883 26.5039 -8.05664 L 25.6836 -8.87695 C 25.1855 -9.375 24.7754 -9.55078 24.2383 -9.47266 L 23.7109 -9.41406 L 23.0566 -10.0781 L 23.3398 -11.2207 C 23.4863 -11.7871 23.3398 -12.2559 22.7148 -12.8613 L 20.3027 -15.2539 C 16.7578 -18.7793 12.2266 -18.6719 9.11133 -15.5371 C 8.69141 -15.1074 8.64258 -14.5215 8.91602 -14.0918 C 9.15039 -13.7207 9.62891 -13.4961 10.2734 -13.6621 C 11.7871 -14.043 13.3008 -13.9258 14.7852 -12.9199 L 14.1602 -11.3379 C 13.9258 -10.752 13.9453 -10.2734 14.1797 -9.83398 L 3.01758 0.439453 C 2.08008 1.30859 1.97266 2.25586 2.83203 3.11523 Z M 10.6738 -15.1465 C 13.3398 -17.1387 16.6504 -16.8262 19.0527 -14.4141 L 21.6797 -11.8066 C 21.9141 -11.5723 21.9434 -11.3867 21.8848 -11.0938 L 21.5039 -9.53125 L 23.0762 -7.95898 L 24.043 -8.04688 C 24.3262 -8.07617 24.4141 -8.05664 24.6387 -7.83203 L 25.2637 -7.20703 L 22.5098 -4.46289 L 21.8848 -5.07812 C 21.6602 -5.30273 21.6406 -5.40039 21.6699 -5.68359 L 21.7578 -6.64062 L 20.1953 -8.20312 L 18.5742 -7.89062 C 18.291 -7.83203 18.1445 -7.83203 17.9102 -8.07617 L 15.7324 -10.2539 C 15.5078 -10.4883 15.4785 -10.625 15.6055 -10.9473 L 16.5527 -13.2227 C 14.9512 -14.7559 12.8418 -15.6055 10.8008 -14.9512 C 10.7129 -14.9219 10.6445 -14.9414 10.6152 -14.9805 C 10.5859 -15.0293 10.5859 -15.0781 10.6738 -15.1465 Z M 4.10156 2.41211 C 3.61328 1.91406 3.78906 1.61133 4.12109 1.30859 L 15.0781 -8.80859 L 16.3086 -7.57812 L 6.15234 3.34961 C 5.84961 3.68164 5.46875 3.7793 5.06836 3.37891 Z"/>
  </g>
  <text style="stroke:none;fill:black;font-family:-apple-system,&quot;SF Pro Display&quot;,&quot;SF Pro Text&quot;,Helvetica,sans-serif;font-weight:bold;" transform="matrix(1 0 0 1 1289 1953)">Exporting</text>
  <text style="stroke:none;fill:black;font-family:-apple-system,&quot;SF Pro Display&quot;,&quot;SF Pro Text&quot;,Helvetica,sans-serif;" transform="matrix(1 0 0 1 1289 1971)">Symbols should be outlined when exporting to ensure the</text>
  <text style="stroke:none;fill:black;font-family:-apple-system,&quot;SF Pro Display&quot;,&quot;SF Pro Text&quot;,Helvetica,sans-serif;" transform="matrix(1 0 0 1 1289 1989)">design is preserved when submitting to Xcode.</text>
  <text id="template-version" style="stroke:none;fill:black;font-family:-apple-system,&quot;SF Pro Display&quot;,&quot;SF Pro Text&quot;,Helvetica,sans-serif;text-anchor:end;" transform="matrix(1 0 0 1 3036 1933)">Template v.1.0</text>
  <text style="stroke:none;fill:black;font-family:-apple-system,&quot;SF Pro Display&quot;,&quot;SF Pro Text&quot;,Helvetica,sans-serif;text-anchor:end;" transform="matrix(1 0 0 1 3036 1951)">Generated from chevron.right.2</text>
  <text style="stroke:none;fill:black;font-family:-apple-system,&quot;SF Pro Display&quot;,&quot;SF Pro Text&quot;,Helvetica,sans-serif;text-anchor:end;" transform="matrix(1 0 0 1 3036 1969)">Typeset at 100 points</text>
  <text style="stroke:none;fill:black;font-family:-apple-system,&quot;SF Pro Display&quot;,&quot;SF Pro Text&quot;,Helvetica,sans-serif;" transform="matrix(1 0 0 1 263 726)">Small</text>
  <text style="stroke:none;fill:black;font-family:-apple-system,&quot;SF Pro Display&quot;,&quot;SF Pro Text&quot;,Helvetica,sans-serif;" transform="matrix(1 0 0 1 263 1156)">Medium</text>
  <text style="stroke:none;fill:black;font-family:-apple-system,&quot;SF Pro Display&quot;,&quot;SF Pro Text&quot;,Helvetica,sans-serif;" transform="matrix(1 0 0 1 263 1586)">Large</text>
 </g>
 <g id="Guides">
  <g id="H-reference" style="fill:#27AAE1;stroke:none;" transform="matrix(1 0 0 1 339 696)">
   <path d="M 54.9316 0 L 57.666 0 L 30.5664 -70.459 L 28.0762 -70.459 L 0.976562 0 L 3.66211 0 L 12.9395 -24.4629 L 45.7031 -24.4629 Z M 29.1992 -67.0898 L 29.4434 -67.0898 L 44.8242 -26.709 L 13.8184 -26.709 Z"/>
  </g>
  <line id="Baseline-S" style="fill:none;stroke:#27AAE1;opacity:1;stroke-width:0.577;" x1="263" x2="3036" y1="696" y2="696"/>
  <line id="Capline-S" style="fill:none;stroke:#27AAE1;opacity:1;stroke-width:0.577;" x1="263" x2="3036" y1="625.541" y2="625.541"/>
  <g id="H-reference" style="fill:#27AAE1;stroke:none;" transform="matrix(1 0 0 1 339 1126)">
   <path d="M 54.9316 0 L 57.666 0 L 30.5664 -70.459 L 28.0762 -70.459 L 0.976562 0 L 3.66211 0 L 12.9395 -24.4629 L 45.7031 -24.4629 Z M 29.1992 -67.0898 L 29.4434 -67.0898 L 44.8242 -26.709 L 13.8184 -26.709 Z"/>
  </g>
  <line id="Baseline-M" style="fill:none;stroke:#27AAE1;opacity:1;stroke-width:0.577;" x1="263" x2="3036" y1="1126" y2="1126"/>
  <line id="Capline-M" style="fill:none;stroke:#27AAE1;opacity:1;stroke-width:0.577;" x1="263" x2="3036" y1="1055.54" y2="1055.54"/>
  <g id="H-reference" style="fill:#27AAE1;stroke:none;" transform="matrix(1 0 0 1 339 1556)">
   <path d="M 54.9316 0 L 57.666 0 L 30.5664 -70.459 L 28.0762 -70.459 L 0.976562 0 L 3.66211 0 L 12.9395 -24.4629 L 45.7031 -24.4629 Z M 29.1992 -67.0898 L 29.4434 -67.0898 L 44.8242 -26.709 L 13.8184 -26.709 Z"/>
  </g>
  <line id="Baseline-L" style="fill:none;stroke:#27AAE1;opacity:1;stroke-width:0.577;" x1="263" x2="3036" y1="1556" y2="1556"/>
  <line id="Capline-L" style="fill:none;stroke:#27AAE1;opacity:1;stroke-width:0.577;" x1="263" x2="3036" y1="1485.54" y2="1485.54"/>
  <rect height="119.336" id="left-margin" style="fill:#00AEEF;stroke:none;opacity:0.4;" width="12.4512" x="1391.69" y="1030.79"/>
  <rect height="119.336" id="right-margin" style="fill:#00AEEF;stroke:none;opacity:0.4;" width="12.4512" x="1495.55" y="1030.79"/>
 </g>
 <g id="Symbols">
  <g id="Black-L" transform="matrix(1 0 0 1 2852.71 1556)">
   <path d="M 85.3027 24.6094 C 88.7207 24.6094 91.6016 23.3887 94.0918 20.9961 L 140.381 -24.5117 C 143.799 -27.9297 145.312 -31.2012 145.312 -35.2539 C 145.215 -39.4043 143.75 -42.627 140.381 -45.9961 L 94.0918 -91.5039 C 91.6504 -93.9453 88.8184 -95.0684 85.3027 -95.0684 C 78.1738 -95.0684 72.3633 -89.3066 72.3633 -82.3242 C 72.3633 -78.8574 73.8281 -75.5371 76.6113 -72.8516 L 115.332 -35.3516 L 76.6113 2.29492 C 73.877 5.0293 72.3633 8.25195 72.3633 11.8164 C 72.3633 18.7988 78.1738 24.6094 85.3027 24.6094 Z M 29.0039 24.6094 C 32.4219 24.6094 35.3027 23.3887 37.793 20.9961 L 84.082 -24.5117 C 87.5 -27.9297 89.0137 -31.2012 89.0137 -35.2539 C 88.9648 -39.4043 87.4512 -42.627 84.082 -45.9961 L 37.793 -91.5039 C 35.3516 -93.9453 32.5195 -95.0684 29.0039 -95.0684 C 21.9238 -95.0684 16.0645 -89.3066 16.0645 -82.3242 C 16.0645 -78.8574 17.5293 -75.5371 20.3125 -72.8516 L 59.0332 -35.3516 L 20.3125 2.29492 C 17.5781 5.0293 16.0645 8.25195 16.0645 11.8164 C 16.0645 18.7988 21.9238 24.6094 29.0039 24.6094 Z"/>
  </g>
  <g id="Heavy-L" transform="matrix(1 0 0 1 2557.51 1556)">
   <path d="M 83.3984 23.0469 C 86.3281 23.0469 88.8184 22.0215 90.9668 19.9707 L 138.135 -26.1719 C 141.016 -29.0527 142.285 -31.8359 142.285 -35.2539 C 142.236 -38.7695 140.967 -41.5527 138.135 -44.3359 L 90.918 -90.4785 C 88.8184 -92.5781 86.377 -93.5547 83.3984 -93.5547 C 77.2949 -93.5547 72.3633 -88.623 72.3633 -82.666 C 72.3633 -79.6875 73.584 -76.8555 75.9277 -74.6094 L 116.553 -35.3516 L 75.9277 4.05273 C 73.6328 6.34766 72.3633 9.13086 72.3633 12.1582 C 72.3633 18.1152 77.2949 23.0469 83.3984 23.0469 Z M 27.0996 23.0469 C 30.0293 23.0469 32.5195 22.0215 34.668 19.9707 L 81.8359 -26.1719 C 84.7168 -29.0527 85.9863 -31.8359 85.9863 -35.2539 C 85.9375 -38.7695 84.668 -41.5527 81.8359 -44.3359 L 34.668 -90.4785 C 32.5684 -92.5781 30.0781 -93.5547 27.0996 -93.5547 C 21.0449 -93.5547 16.0645 -88.623 16.0645 -82.666 C 16.0645 -79.6875 17.2852 -76.8555 19.6289 -74.6094 L 60.3027 -35.3516 L 19.6289 4.05273 C 17.334 6.34766 16.0645 9.13086 16.0645 12.1582 C 16.0645 18.1152 21.0449 23.0469 27.0996 23.0469 Z"/>
  </g>
  <g id="Bold-L" transform="matrix(1 0 0 1 2262.49 1556)">
   <path d="M 81.25 21.3379 C 83.6914 21.3379 85.6934 20.459 87.4023 18.7988 L 135.645 -28.0273 C 137.842 -30.2734 138.916 -32.5195 138.916 -35.2539 C 138.867 -38.0371 137.793 -40.332 135.596 -42.5293 L 87.4023 -89.3066 C 85.6934 -91.0156 83.6914 -91.8457 81.25 -91.8457 C 76.3184 -91.8457 72.3633 -87.8906 72.3633 -83.0078 C 72.3633 -80.6641 73.3398 -78.3691 75.1465 -76.5625 L 117.969 -35.3027 L 75.1465 6.00586 C 73.3887 7.8125 72.3633 10.0586 72.3633 12.5 C 72.3633 17.3828 76.3184 21.3379 81.25 21.3379 Z M 24.9512 21.3379 C 27.3926 21.3379 29.3945 20.459 31.1035 18.7988 L 79.3457 -28.0273 C 81.543 -30.2734 82.6172 -32.5195 82.6172 -35.2539 C 82.5684 -38.0371 81.543 -40.332 79.2969 -42.5293 L 31.1035 -89.3066 C 29.3945 -91.0156 27.3926 -91.8457 24.9512 -91.8457 C 20.0195 -91.8457 16.0645 -87.8906 16.0645 -83.0078 C 16.0645 -80.6641 17.041 -78.3691 18.8965 -76.5625 L 61.6699 -35.3027 L 18.8965 6.00586 C 17.0898 7.8125 16.0645 10.0586 16.0645 12.5 C 16.0645 17.3828 20.0195 21.3379 24.9512 21.3379 Z"/>
  </g>
  <g id="Semibold-L" transform="matrix(1 0 0 1 1966.95 1556)">
   <path d="M 79.7852 20.1172 C 81.8359 20.1172 83.5449 19.3359 84.9609 17.9688 L 133.887 -29.3457 C 135.693 -31.1523 136.572 -33.0078 136.572 -35.2539 C 136.572 -37.5488 135.645 -39.502 133.887 -41.2109 L 84.9609 -88.5254 C 83.5449 -89.9414 81.8359 -90.6738 79.7852 -90.6738 C 75.6348 -90.6738 72.3633 -87.4023 72.3633 -83.3008 C 72.3633 -81.2988 73.1934 -79.3945 74.6582 -77.9297 L 118.896 -35.3027 L 74.6582 7.37305 C 73.1934 8.83789 72.3633 10.6934 72.3633 12.7441 C 72.3633 16.8457 75.6348 20.1172 79.7852 20.1172 Z M 23.4863 20.1172 C 25.5371 20.1172 27.2461 19.3359 28.6621 17.9688 L 77.5879 -29.3457 C 79.3945 -31.1523 80.2734 -33.0078 80.2734 -35.2539 C 80.2734 -37.5488 79.3457 -39.502 77.5879 -41.2109 L 28.6621 -88.5254 C 27.2461 -89.9414 25.5371 -90.6738 23.4863 -90.6738 C 19.3359 -90.6738 16.0645 -87.4023 16.0645 -83.3008 C 16.0645 -81.2988 16.8945 -79.3945 18.3594 -77.9297 L 62.5977 -35.3027 L 18.3594 7.37305 C 16.8945 8.83789 16.0645 10.6934 16.0645 12.7441 C 16.0645 16.8457 19.3359 20.1172 23.4863 20.1172 Z"/>
  </g>
  <g id="Medium-L" transform="matrix(1 0 0 1 1671.12 1556)">
   <path d="M 78.6621 19.2383 C 80.4199 19.2383 81.8848 18.5547 83.1055 17.334 L 132.568 -30.3223 C 134.033 -31.7871 134.814 -33.3984 134.814 -35.2539 C 134.814 -37.1582 134.033 -38.8672 132.568 -40.2832 L 83.1055 -87.9395 C 81.8848 -89.1113 80.4199 -89.7949 78.6621 -89.7949 C 75.1465 -89.7949 72.3633 -87.0117 72.3633 -83.4961 C 72.3633 -81.7871 73.0469 -80.1758 74.2676 -78.9062 L 119.629 -35.3027 L 74.2676 8.39844 C 73.0469 9.61914 72.3633 11.1816 72.3633 12.9395 C 72.3633 16.4551 75.1465 19.2383 78.6621 19.2383 Z M 22.3633 19.2383 C 24.1211 19.2383 25.5859 18.5547 26.8066 17.334 L 76.2695 -30.3223 C 77.7344 -31.7871 78.5156 -33.3984 78.5156 -35.2539 C 78.5156 -37.1582 77.7344 -38.8672 76.2695 -40.2832 L 26.8066 -87.9395 C 25.5859 -89.1113 24.1211 -89.7949 22.3633 -89.7949 C 18.8477 -89.7949 16.0645 -87.0117 16.0645 -83.4961 C 16.0645 -81.7871 16.748 -80.1758 17.9688 -78.9062 L 63.3301 -35.3027 L 17.9688 8.39844 C 16.748 9.61914 16.0645 11.1816 16.0645 12.9395 C 16.0645 16.4551 18.8477 19.2383 22.3633 19.2383 Z"/>
  </g>
  <g id="Regular-L" transform="matrix(1 0 0 1 1375.55 1556)">
   <path d="M 77.2461 18.0176 C 78.6133 18.0176 79.7852 17.4805 80.7129 16.5527 L 130.859 -31.5918 C 131.934 -32.6172 132.52 -33.8379 132.52 -35.2539 C 132.52 -36.6699 131.885 -38.0371 130.811 -39.0137 L 80.6641 -87.1582 C 79.7363 -88.0859 78.6133 -88.623 77.2461 -88.623 C 74.4629 -88.623 72.3633 -86.5234 72.3633 -83.7402 C 72.3633 -82.4707 72.9004 -81.2012 73.7305 -80.2734 L 120.557 -35.3027 L 73.7305 9.7168 C 72.9004 10.5957 72.3633 11.8164 72.3633 13.1836 C 72.3633 15.918 74.4629 18.0176 77.2461 18.0176 Z M 20.9473 18.0176 C 22.3145 18.0176 23.4863 17.4805 24.4141 16.5527 L 74.5605 -31.5918 C 75.6348 -32.6172 76.2207 -33.8379 76.2207 -35.2539 C 76.2207 -36.6699 75.5859 -38.0371 74.5117 -39.0137 L 24.3652 -87.1582 C 23.4375 -88.0859 22.3145 -88.623 20.9473 -88.623 C 18.1641 -88.623 16.0645 -86.5234 16.0645 -83.7402 C 16.0645 -82.4707 16.6016 -81.2012 17.4316 -80.2734 L 64.2578 -35.3027 L 17.4316 9.7168 C 16.6016 10.5957 16.0645 11.8164 16.0645 13.1836 C 16.0645 15.918 18.1641 18.0176 20.9473 18.0176 Z"/>
  </g>
  <g id="Light-L" transform="matrix(1 0 0 1 1079.84 1556)">
   <path d="M 76.0254 16.1133 C 77.0508 16.1133 77.8809 15.625 78.6133 14.9414 L 129.102 -32.2754 C 129.98 -33.1543 130.518 -34.1309 130.518 -35.2539 C 130.518 -36.4258 129.932 -37.5 129.053 -38.2812 L 78.5645 -85.5957 C 77.832 -86.2793 77.0508 -86.7188 76.0254 -86.7188 C 73.9258 -86.7188 72.3633 -85.1074 72.3633 -83.0566 C 72.3633 -82.0801 72.7051 -81.1035 73.3887 -80.4199 L 121.533 -35.3027 L 73.3887 9.91211 C 72.7051 10.5469 72.3633 11.4746 72.3633 12.4512 C 72.3633 14.5508 73.9258 16.1133 76.0254 16.1133 Z M 19.7266 16.1133 C 20.752 16.1133 21.582 15.625 22.3633 14.9414 L 72.8027 -32.2754 C 73.6816 -33.1543 74.2188 -34.1309 74.2188 -35.2539 C 74.2188 -36.4258 73.6328 -37.5 72.7539 -38.2812 L 22.3145 -85.5957 C 21.5332 -86.2793 20.752 -86.7188 19.7266 -86.7188 C 17.6758 -86.7188 16.0645 -85.1074 16.0645 -83.0566 C 16.0645 -82.0801 16.4062 -81.1035 17.0898 -80.4199 L 65.2344 -35.3027 L 17.0898 9.91211 C 16.4062 10.5469 16.0645 11.4746 16.0645 12.4512 C 16.0645 14.5508 17.6758 16.1133 19.7266 16.1133 Z"/>
  </g>
  <g id="Thin-L" transform="matrix(1 0 0 1 784.474 1556)">
   <path d="M 74.4141 13.5742 C 75 13.5742 75.4395 13.2324 75.8789 12.8418 L 126.758 -33.252 C 127.393 -33.8867 127.832 -34.4727 127.832 -35.2539 C 127.832 -36.084 127.344 -36.7676 126.709 -37.3535 L 75.8301 -83.4961 C 75.3418 -83.8867 75 -84.1797 74.4141 -84.1797 C 73.2422 -84.1797 72.3633 -83.3008 72.3633 -82.1289 C 72.3633 -81.6406 72.5098 -81.0547 72.9004 -80.6641 L 122.803 -35.3516 L 72.9004 10.1074 C 72.5098 10.4492 72.3633 11.0352 72.3633 11.5234 C 72.3633 12.6465 73.2422 13.5742 74.4141 13.5742 Z M 18.1152 13.5742 C 18.7012 13.5742 19.1406 13.2324 19.6289 12.8418 L 70.459 -33.252 C 71.0938 -33.8867 71.5332 -34.4727 71.5332 -35.2539 C 71.5332 -36.084 71.0449 -36.7676 70.4102 -37.3535 L 19.5312 -83.4961 C 19.043 -83.8867 18.7012 -84.1797 18.1152 -84.1797 C 16.9922 -84.1797 16.0645 -83.3008 16.0645 -82.1289 C 16.0645 -81.6406 16.2109 -81.0547 16.6016 -80.6641 L 66.5039 -35.3516 L 16.6016 10.1074 C 16.2109 10.4492 16.0645 11.0352 16.0645 11.5234 C 16.0645 12.6465 16.9922 13.5742 18.1152 13.5742 Z"/>
  </g>
  <g id="Ultralight-L" transform="matrix(1 0 0 1 488.446 1556)">
   <path d="M 73.584 12.2559 C 73.9258 12.2559 74.1699 11.9629 74.5117 11.7188 L 125.586 -33.7402 C 126.074 -34.2285 126.465 -34.6191 126.465 -35.2539 C 126.465 -35.8887 126.025 -36.377 125.488 -36.9141 L 74.4141 -82.4219 C 74.0723 -82.7148 73.9258 -82.9102 73.584 -82.9102 C 72.9004 -82.9102 72.3633 -82.3242 72.3633 -81.6895 C 72.3633 -81.3965 72.3633 -81.0059 72.6562 -80.7617 L 123.486 -35.3516 L 72.6562 10.2051 C 72.3633 10.4004 72.3633 10.791 72.3633 11.084 C 72.3633 11.7188 72.9004 12.2559 73.584 12.2559 Z M 17.2852 12.2559 C 17.627 12.2559 17.8711 11.9629 18.2129 11.7188 L 69.2871 -33.7402 C 69.7754 -34.2285 70.166 -34.6191 70.166 -35.2539 C 70.166 -35.8887 69.7266 -36.377 69.1895 -36.9141 L 18.1152 -82.4219 C 17.7734 -82.7148 17.627 -82.9102 17.2852 -82.9102 C 16.6016 -82.9102 16.0645 -82.3242 16.0645 -81.6895 C 16.0645 -81.3965 16.1133 -81.0059 16.3574 -80.7617 L 67.1875 -35.3516 L 16.3574 10.2051 C 16.1133 10.4004 16.0645 10.791 16.0645 11.084 C 16.0645 11.7188 16.6016 12.2559 17.2852 12.2559 Z"/>
  </g>
  <g id="Black-M" transform="matrix(1 0 0 1 2869.39 1126)">
   <path d="M 68.0176 12.207 C 71.1914 12.207 73.7793 11.1328 76.0742 8.88672 L 110.889 -25.0977 C 114.209 -28.3691 115.576 -31.3965 115.576 -35.2539 C 115.527 -39.1602 114.16 -42.1387 110.889 -45.459 L 76.0742 -79.3457 C 73.8281 -81.6406 71.2402 -82.666 68.0176 -82.666 C 61.5234 -82.666 56.0547 -77.2949 56.0547 -70.8984 C 56.0547 -67.6758 57.4219 -64.6484 60.0586 -62.1094 L 88.2324 -35.3516 L 60.0586 -8.39844 C 57.4707 -5.85938 56.0547 -2.83203 56.0547 0.439453 C 56.0547 6.83594 61.5234 12.207 68.0176 12.207 Z M 24.3652 12.207 C 27.5391 12.207 30.127 11.1328 32.4707 8.88672 L 67.2852 -25.0977 C 70.5566 -28.3691 71.9727 -31.3965 71.9727 -35.2539 C 71.9238 -39.1602 70.5078 -42.1387 67.2852 -45.459 L 32.4707 -79.3457 C 30.1758 -81.6406 27.5879 -82.666 24.3652 -82.666 C 17.8711 -82.666 12.4512 -77.2949 12.4512 -70.8984 C 12.4512 -67.6758 13.7695 -64.6484 16.4551 -62.1094 L 44.6289 -35.3516 L 16.4551 -8.39844 C 13.8184 -5.85938 12.4512 -2.83203 12.4512 0.439453 C 12.4512 6.83594 17.8711 12.207 24.3652 12.207 Z"/>
  </g>
  <g id="Heavy-M" transform="matrix(1 0 0 1 2574.04 1126)">
   <path d="M 66.2598 10.9863 C 68.9453 10.9863 71.1914 10.0586 73.1934 8.20312 L 108.887 -26.709 C 111.621 -29.4434 112.842 -32.0312 112.842 -35.2539 C 112.793 -38.5742 111.572 -41.1133 108.887 -43.7988 L 73.1934 -78.6621 C 71.2402 -80.6152 68.9941 -81.4941 66.2598 -81.4941 C 60.6934 -81.4941 56.0547 -76.9043 56.0547 -71.4355 C 56.0547 -68.7012 57.2266 -66.1133 59.4238 -64.0137 L 89.3555 -35.3516 L 59.4238 -6.54297 C 57.2754 -4.39453 56.0547 -1.80664 56.0547 0.976562 C 56.0547 6.44531 60.6934 10.9863 66.2598 10.9863 Z M 22.6074 10.9863 C 25.3418 10.9863 27.5391 10.0586 29.541 8.20312 L 65.2832 -26.709 C 68.0176 -29.4434 69.1895 -32.0312 69.1895 -35.2539 C 69.1406 -38.5742 67.9688 -41.1133 65.2832 -43.7988 L 29.541 -78.6621 C 27.5879 -80.6152 25.3906 -81.4941 22.6074 -81.4941 C 17.041 -81.4941 12.4512 -76.9043 12.4512 -71.4355 C 12.4512 -68.7012 13.5742 -66.1133 15.8203 -64.0137 L 45.7031 -35.3516 L 15.8203 -6.54297 C 13.623 -4.39453 12.4512 -1.80664 12.4512 0.976562 C 12.4512 6.44531 17.041 10.9863 22.6074 10.9863 Z"/>
  </g>
  <g id="Bold-M" transform="matrix(1 0 0 1 2278.89 1126)">
   <path d="M 64.2578 9.66797 C 66.5039 9.66797 68.3105 8.88672 69.9219 7.37305 L 106.641 -28.5156 C 108.789 -30.6152 109.717 -32.7148 109.717 -35.2539 C 109.668 -37.8418 108.74 -39.9414 106.641 -41.9922 L 69.9219 -77.8809 C 68.3594 -79.4434 66.5039 -80.1758 64.2578 -80.1758 C 59.7656 -80.1758 56.0547 -76.5137 56.0547 -72.0703 C 56.0547 -69.873 56.9824 -67.7734 58.6914 -66.0645 L 90.5762 -35.3027 L 58.6914 -4.44336 C 57.0312 -2.7832 56.0547 -0.683594 56.0547 1.5625 C 56.0547 6.00586 59.7656 9.66797 64.2578 9.66797 Z M 20.6543 9.66797 C 22.8516 9.66797 24.707 8.88672 26.2695 7.37305 L 63.0371 -28.5156 C 65.1367 -30.6152 66.1133 -32.7148 66.1133 -35.2539 C 66.0645 -37.8418 65.0879 -39.9414 63.0371 -41.9922 L 26.2695 -77.8809 C 24.707 -79.4434 22.9004 -80.1758 20.6543 -80.1758 C 16.1133 -80.1758 12.4512 -76.5137 12.4512 -72.0703 C 12.4512 -69.873 13.3789 -67.7734 15.0879 -66.0645 L 46.9238 -35.3027 L 15.0879 -4.44336 C 13.3789 -2.7832 12.4512 -0.683594 12.4512 1.5625 C 12.4512 6.00586 16.1133 9.66797 20.6543 9.66797 Z"/>
  </g>
  <g id="Semibold-M" transform="matrix(1 0 0 1 1983.26 1126)">
   <path d="M 62.9395 8.74023 C 64.7949 8.74023 66.3574 8.05664 67.6758 6.78711 L 105.127 -29.7852 C 106.787 -31.4453 107.568 -33.2031 107.568 -35.2539 C 107.568 -37.3535 106.738 -39.1113 105.127 -40.7227 L 67.627 -77.3438 C 66.3574 -78.6133 64.7949 -79.248 62.9395 -79.248 C 59.1309 -79.248 56.0547 -76.2207 56.0547 -72.4609 C 56.0547 -70.6543 56.8359 -68.8965 58.2031 -67.5293 L 91.4062 -35.3027 L 58.2031 -2.97852 C 56.8848 -1.66016 56.0547 0.0976562 56.0547 1.95312 C 56.0547 5.71289 59.1309 8.74023 62.9395 8.74023 Z M 19.2871 8.74023 C 21.1426 8.74023 22.7051 8.05664 24.0234 6.78711 L 61.4746 -29.7852 C 63.1836 -31.4453 63.9648 -33.2031 63.9648 -35.2539 C 63.916 -37.3535 63.1348 -39.1113 61.4746 -40.7227 L 24.0234 -77.3438 C 22.7051 -78.6133 21.1914 -79.248 19.2871 -79.248 C 15.4785 -79.248 12.4512 -76.2207 12.4512 -72.4609 C 12.4512 -70.6543 13.2324 -68.8965 14.5996 -67.5293 L 47.8027 -35.3027 L 14.5996 -2.97852 C 13.2324 -1.66016 12.4512 0.0976562 12.4512 1.95312 C 12.4512 5.71289 15.4785 8.74023 19.2871 8.74023 Z"/>
  </g>
  <g id="Medium-M" transform="matrix(1 0 0 1 1687.35 1126)">
   <path d="M 61.9141 8.05664 C 63.4766 8.05664 64.8438 7.4707 65.9668 6.39648 L 103.955 -30.7617 C 105.273 -32.0801 105.957 -33.5449 105.957 -35.2539 C 105.957 -36.9629 105.273 -38.5254 103.906 -39.7949 L 65.918 -76.9043 C 64.8438 -77.9785 63.4766 -78.5645 61.9141 -78.5645 C 58.6426 -78.5645 56.0547 -76.0254 56.0547 -72.8027 C 56.0547 -71.2402 56.7383 -69.7266 57.8613 -68.6035 L 92.041 -35.3027 L 57.8613 -1.9043 C 56.7383 -0.78125 56.0547 0.683594 56.0547 2.29492 C 56.0547 5.51758 58.6426 8.05664 61.9141 8.05664 Z M 18.2617 8.05664 C 19.873 8.05664 21.1914 7.4707 22.3145 6.39648 L 60.3027 -30.7617 C 61.6699 -32.0801 62.3047 -33.5449 62.3047 -35.2539 C 62.3047 -36.9629 61.6211 -38.5254 60.3027 -39.7949 L 22.3145 -76.9043 C 21.1914 -77.9785 19.873 -78.5645 18.2617 -78.5645 C 14.9902 -78.5645 12.4512 -76.0254 12.4512 -72.8027 C 12.4512 -71.2402 13.0859 -69.7266 14.209 -68.6035 L 48.4375 -35.3027 L 14.209 -1.9043 C 13.1348 -0.78125 12.4512 0.683594 12.4512 2.29492 C 12.4512 5.51758 14.9902 8.05664 18.2617 8.05664 Z"/>
  </g>
  <g id="Regular-M" transform="matrix(1 0 0 1 1391.69 1126)">
   <path d="M 60.5469 7.12891 C 61.8164 7.12891 62.8906 6.64062 63.7207 5.81055 L 102.393 -31.9824 C 103.32 -32.9102 103.857 -34.0332 103.857 -35.2539 C 103.857 -36.5234 103.32 -37.7441 102.393 -38.5254 L 63.7207 -76.3672 C 62.8418 -77.1973 61.8164 -77.6855 60.5469 -77.6855 C 58.0078 -77.6855 56.0547 -75.7324 56.0547 -73.1934 C 56.0547 -72.0215 56.5918 -70.8496 57.373 -70.0195 L 92.9199 -35.2539 L 57.373 -0.488281 C 56.5918 0.341797 56.0547 1.46484 56.0547 2.68555 C 56.0547 5.22461 58.0078 7.12891 60.5469 7.12891 Z M 16.8945 7.12891 C 18.1641 7.12891 19.2383 6.64062 20.1172 5.81055 L 58.7891 -31.9824 C 59.7168 -32.9102 60.2051 -34.0332 60.2051 -35.2539 C 60.2051 -36.5234 59.7168 -37.7441 58.7891 -38.5254 L 20.0684 -76.3672 C 19.2383 -77.1973 18.1641 -77.6855 16.8945 -77.6855 C 14.3555 -77.6855 12.4512 -75.7324 12.4512 -73.1934 C 12.4512 -72.0215 12.9395 -70.8496 13.7207 -70.0195 L 49.2676 -35.2539 L 13.7207 -0.488281 C 12.9395 0.341797 12.4512 1.46484 12.4512 2.68555 C 12.4512 5.22461 14.3555 7.12891 16.8945 7.12891 Z"/>
  </g>
  <g id="Light-M" transform="matrix(1 0 0 1 1095.88 1126)">
   <path d="M 59.4727 5.41992 C 60.4004 5.41992 61.1816 5.0293 61.8652 4.39453 L 100.83 -32.6172 C 101.611 -33.3984 102.051 -34.2285 102.051 -35.2539 C 102.051 -36.2793 101.562 -37.207 100.781 -37.9395 L 61.8164 -74.9512 C 61.1816 -75.5859 60.4004 -75.9766 59.4727 -75.9766 C 57.5195 -75.9766 56.0547 -74.5117 56.0547 -72.6074 C 56.0547 -71.7285 56.4453 -70.8008 57.0312 -70.166 L 93.75 -35.3027 L 57.0312 -0.341797 C 56.4453 0.244141 56.0547 1.12305 56.0547 2.05078 C 56.0547 3.95508 57.5195 5.41992 59.4727 5.41992 Z M 15.8203 5.41992 C 16.7969 5.41992 17.5781 5.0293 18.2617 4.39453 L 57.2266 -32.6172 C 57.959 -33.3984 58.3984 -34.2285 58.3984 -35.2539 C 58.3984 -36.2793 57.959 -37.207 57.1777 -37.9395 L 18.2129 -74.9512 C 17.5293 -75.5859 16.7969 -75.9766 15.8203 -75.9766 C 13.916 -75.9766 12.4512 -74.5117 12.4512 -72.6074 C 12.4512 -71.7285 12.793 -70.8008 13.4277 -70.166 L 50.0977 -35.3027 L 13.4277 -0.341797 C 12.793 0.244141 12.4512 1.12305 12.4512 2.05078 C 12.4512 3.95508 13.916 5.41992 15.8203 5.41992 Z"/>
  </g>
  <g id="Thin-M" transform="matrix(1 0 0 1 800.368 1126)">
   <path d="M 58.0078 3.125 C 58.5449 3.125 58.9844 2.83203 59.4238 2.49023 L 98.7305 -33.4961 C 99.3164 -34.0332 99.6582 -34.5703 99.6582 -35.2539 C 99.6582 -35.9863 99.2188 -36.5723 98.6816 -37.1094 L 59.375 -73.0957 C 58.9355 -73.4863 58.5449 -73.7305 58.0078 -73.7305 C 56.9336 -73.7305 56.0547 -72.8516 56.0547 -71.7773 C 56.0547 -71.2891 56.25 -70.752 56.5918 -70.3613 L 94.873 -35.3027 L 56.5918 -0.146484 C 56.25 0.195312 56.0547 0.732422 56.0547 1.2207 C 56.0547 2.29492 56.9336 3.125 58.0078 3.125 Z M 14.3555 3.125 C 14.9414 3.125 15.3809 2.83203 15.7715 2.49023 L 55.127 -33.4961 C 55.6641 -34.0332 56.0059 -34.5703 56.0059 -35.2539 C 56.0059 -35.9863 55.6152 -36.5723 55.0781 -37.1094 L 15.7227 -73.0957 C 15.332 -73.4863 14.9414 -73.7305 14.3555 -73.7305 C 13.2812 -73.7305 12.4512 -72.8516 12.4512 -71.7773 C 12.4512 -71.2891 12.5977 -70.752 12.9883 -70.3613 L 51.2695 -35.3027 L 12.9883 -0.146484 C 12.5977 0.195312 12.4512 0.732422 12.4512 1.2207 C 12.4512 2.29492 13.2812 3.125 14.3555 3.125 Z"/>
  </g>
  <g id="Ultralight-M" transform="matrix(1 0 0 1 504.267 1126)">
   <path d="M 57.2754 1.95312 C 57.6172 1.95312 57.8613 1.70898 58.1543 1.51367 L 97.7051 -33.9355 C 98.0957 -34.375 98.4375 -34.7168 98.4375 -35.2539 C 98.4375 -35.791 98.0469 -36.2305 97.6074 -36.6699 L 58.1055 -72.1191 C 57.8125 -72.3633 57.6172 -72.5586 57.2754 -72.5586 C 56.5918 -72.5586 56.0547 -72.0215 56.0547 -71.3867 C 56.0547 -71.0938 56.1523 -70.7031 56.3477 -70.459 L 95.5078 -35.3027 L 56.3477 -0.0488281 C 56.1523 0.146484 56.0547 0.488281 56.0547 0.78125 C 56.0547 1.46484 56.5918 1.95312 57.2754 1.95312 Z M 13.623 1.95312 C 14.0137 1.95312 14.209 1.70898 14.5508 1.51367 L 54.0527 -33.9355 C 54.4922 -34.375 54.7852 -34.7168 54.7852 -35.2539 C 54.7852 -35.791 54.4434 -36.2305 54.0039 -36.6699 L 14.4531 -72.1191 C 14.1602 -72.3633 14.0137 -72.5586 13.623 -72.5586 C 12.9883 -72.5586 12.4512 -72.0215 12.4512 -71.3867 C 12.4512 -71.0938 12.5 -70.7031 12.7441 -70.459 L 51.8555 -35.3027 L 12.7441 -0.0488281 C 12.5 0.146484 12.4512 0.488281 12.4512 0.78125 C 12.4512 1.46484 12.9883 1.95312 13.623 1.95312 Z"/>
  </g>
  <g id="Black-S" transform="matrix(1 0 0 1 2883.33 696)">
   <path d="M 53.1738 1.85547 C 55.6152 1.85547 57.6172 1.02539 59.4238 -0.683594 L 86.7676 -27.3926 C 89.3066 -29.9316 90.3809 -32.2754 90.3809 -35.2539 C 90.332 -38.2812 89.2578 -40.5762 86.7676 -43.1152 L 59.4238 -69.7754 C 57.666 -71.5332 55.6641 -72.3145 53.1738 -72.3145 C 48.1445 -72.3145 43.9453 -68.1641 43.9453 -63.2324 C 43.9453 -60.7422 44.9707 -58.3984 47.0215 -56.4453 L 69.2383 -35.3027 L 47.0215 -14.0625 C 45.0195 -12.1094 43.9453 -9.76562 43.9453 -7.22656 C 43.9453 -2.29492 48.1445 1.85547 53.1738 1.85547 Z M 18.9941 1.85547 C 21.4355 1.85547 23.4375 1.02539 25.2441 -0.683594 L 52.5879 -27.3926 C 55.127 -29.9316 56.2012 -32.2754 56.2012 -35.2539 C 56.1523 -38.2812 55.0781 -40.5762 52.5879 -43.1152 L 25.2441 -69.7754 C 23.4863 -71.5332 21.4844 -72.3145 18.9941 -72.3145 C 13.9648 -72.3145 9.76562 -68.1641 9.76562 -63.2324 C 9.76562 -60.7422 10.791 -58.3984 12.8418 -56.4453 L 35.0586 -35.3027 L 12.8418 -14.0625 C 10.8398 -12.1094 9.76562 -9.76562 9.76562 -7.22656 C 9.76562 -2.29492 13.9648 1.85547 18.9941 1.85547 Z"/>
  </g>
  <g id="Heavy-S" transform="matrix(1 0 0 1 2587.57 696)">
   <path d="M 51.9531 1.12305 C 54.1016 1.12305 55.8594 0.390625 57.373 -1.07422 L 85.4004 -28.5645 C 87.5488 -30.7129 88.4766 -32.7148 88.4766 -35.2539 C 88.4277 -37.8418 87.5 -39.8438 85.4004 -41.9434 L 57.373 -69.3848 C 55.8594 -70.8984 54.1016 -71.6309 51.9531 -71.6309 C 47.5586 -71.6309 43.9453 -68.0176 43.9453 -63.7207 C 43.9453 -61.5723 44.8242 -59.5215 46.582 -57.8613 L 69.9707 -35.3027 L 46.582 -12.6465 C 44.873 -10.9863 43.9453 -8.93555 43.9453 -6.73828 C 43.9453 -2.44141 47.5586 1.12305 51.9531 1.12305 Z M 17.7734 1.12305 C 19.9219 1.12305 21.6797 0.390625 23.1934 -1.07422 L 51.2207 -28.5645 C 53.3691 -30.7129 54.2969 -32.7148 54.2969 -35.2539 C 54.248 -37.8418 53.3203 -39.8438 51.2207 -41.9434 L 23.1934 -69.3848 C 21.6797 -70.8984 19.9219 -71.6309 17.7734 -71.6309 C 13.3789 -71.6309 9.76562 -68.0176 9.76562 -63.7207 C 9.76562 -61.5723 10.6445 -59.5215 12.4023 -57.8613 L 35.791 -35.3027 L 12.4023 -12.6465 C 10.6934 -10.9863 9.76562 -8.93555 9.76562 -6.73828 C 9.76562 -2.44141 13.3789 1.12305 17.7734 1.12305 Z"/>
  </g>
  <g id="Bold-S" transform="matrix(1 0 0 1 2291.93 696)">
   <path d="M 50.5859 0.341797 C 52.3438 0.341797 53.8574 -0.292969 55.127 -1.51367 L 83.8867 -29.8828 C 85.5469 -31.543 86.3281 -33.2031 86.3281 -35.2539 C 86.2793 -37.3047 85.5469 -39.0137 83.8867 -40.625 L 55.127 -68.9453 C 53.8574 -70.2148 52.3926 -70.8008 50.5859 -70.8008 C 46.9238 -70.8008 43.9453 -67.8711 43.9453 -64.2578 C 43.9453 -62.5 44.6777 -60.791 46.0449 -59.4238 L 70.8008 -35.3027 L 46.0449 -11.084 C 44.7266 -9.7168 43.9453 -8.05664 43.9453 -6.25 C 43.9453 -2.63672 46.9238 0.341797 50.5859 0.341797 Z M 16.4062 0.341797 C 18.1641 0.341797 19.6777 -0.292969 20.9473 -1.51367 L 49.707 -29.8828 C 51.3672 -31.543 52.1484 -33.2031 52.1484 -35.2539 C 52.0996 -37.3047 51.3672 -39.0137 49.707 -40.625 L 20.9473 -68.9453 C 19.6777 -70.2148 18.2129 -70.8008 16.4062 -70.8008 C 12.7441 -70.8008 9.76562 -67.8711 9.76562 -64.2578 C 9.76562 -62.5 10.498 -60.791 11.8652 -59.4238 L 36.6211 -35.3027 L 11.8652 -11.084 C 10.5469 -9.7168 9.76562 -8.05664 9.76562 -6.25 C 9.76562 -2.63672 12.7441 0.341797 16.4062 0.341797 Z"/>
  </g>
  <g id="Semibold-S" transform="matrix(1 0 0 1 1995.98 696)">
   <path d="M 49.6094 -0.244141 C 51.1719 -0.244141 52.4902 -0.78125 53.5645 -1.85547 L 82.8613 -30.8105 C 84.1797 -32.1289 84.8145 -33.5449 84.8145 -35.2539 C 84.8145 -36.9629 84.1797 -38.4277 82.8125 -39.6973 L 53.5645 -68.6523 C 52.4902 -69.7266 51.1719 -70.2637 49.6094 -70.2637 C 46.4844 -70.2637 43.9453 -67.7734 43.9453 -64.6484 C 43.9453 -63.0859 44.5801 -61.6699 45.7031 -60.5469 L 71.3867 -35.2539 L 45.7031 -9.96094 C 44.5801 -8.83789 43.9453 -7.42188 43.9453 -5.85938 C 43.9453 -2.73438 46.4844 -0.244141 49.6094 -0.244141 Z M 15.4297 -0.244141 C 16.9922 -0.244141 18.3105 -0.78125 19.3848 -1.85547 L 48.6816 -30.8105 C 50 -32.1289 50.6348 -33.5449 50.6348 -35.2539 C 50.6348 -36.9629 50 -38.4277 48.6328 -39.6973 L 19.3848 -68.6523 C 18.3105 -69.7266 16.9922 -70.2637 15.4297 -70.2637 C 12.3047 -70.2637 9.76562 -67.7734 9.76562 -64.6484 C 9.76562 -63.0859 10.4004 -61.6699 11.5234 -60.5469 L 37.207 -35.2539 L 11.5234 -9.96094 C 10.4004 -8.83789 9.76562 -7.42188 9.76562 -5.85938 C 9.76562 -2.73438 12.3047 -0.244141 15.4297 -0.244141 Z"/>
  </g>
  <g id="Medium-S" transform="matrix(1 0 0 1 1699.83 696)">
   <path d="M 48.9258 -0.634766 C 50.293 -0.634766 51.416 -1.12305 52.3926 -2.05078 L 82.0312 -31.4941 C 83.1543 -32.6172 83.6914 -33.8379 83.6914 -35.2539 C 83.6914 -36.6699 83.1543 -37.9883 82.0312 -39.0137 L 52.3926 -68.457 C 51.4648 -69.3848 50.293 -69.873 48.9258 -69.873 C 46.1426 -69.873 43.9453 -67.6758 43.9453 -64.8926 C 43.9453 -63.5742 44.5312 -62.3047 45.459 -61.3281 L 71.8262 -35.2539 L 45.459 -9.17969 C 44.5312 -8.20312 43.9453 -6.98242 43.9453 -5.56641 C 43.9453 -2.83203 46.1426 -0.634766 48.9258 -0.634766 Z M 14.7461 -0.634766 C 16.1133 -0.634766 17.2363 -1.12305 18.2129 -2.05078 L 47.8516 -31.4941 C 48.9746 -32.6172 49.5117 -33.8379 49.5117 -35.2539 C 49.5117 -36.6699 48.9746 -37.9883 47.8516 -39.0137 L 18.2129 -68.457 C 17.2852 -69.3848 16.1133 -69.873 14.7461 -69.873 C 11.9629 -69.873 9.76562 -67.6758 9.76562 -64.8926 C 9.76562 -63.5742 10.3516 -62.3047 11.2793 -61.3281 L 37.6465 -35.2539 L 11.2793 -9.17969 C 10.3516 -8.20312 9.76562 -6.98242 9.76562 -5.56641 C 9.76562 -2.83203 11.9629 -0.634766 14.7461 -0.634766 Z"/>
  </g>
  <g id="Regular-S" transform="matrix(1 0 0 1 1403.85 696)">
   <path d="M 47.998 -1.17188 C 49.1211 -1.17188 50.0977 -1.61133 50.8301 -2.39258 L 81.0059 -32.373 C 81.7871 -33.2031 82.2266 -34.1797 82.2266 -35.2539 C 82.2266 -36.3281 81.7871 -37.4023 81.0059 -38.1348 L 50.8301 -68.1641 C 50.0977 -68.8965 49.1211 -69.3359 47.998 -69.3359 C 45.7031 -69.3359 43.9453 -67.5781 43.9453 -65.2832 C 43.9453 -64.209 44.4336 -63.1836 45.1172 -62.4023 L 72.4121 -35.2539 L 45.1172 -8.10547 C 44.4336 -7.32422 43.9453 -6.34766 43.9453 -5.22461 C 43.9453 -2.92969 45.7031 -1.17188 47.998 -1.17188 Z M 13.8184 -1.17188 C 14.9414 -1.17188 15.918 -1.61133 16.6504 -2.39258 L 46.8262 -32.373 C 47.6074 -33.2031 48.0469 -34.1797 48.0469 -35.2539 C 48.0469 -36.3281 47.6074 -37.4023 46.8262 -38.1348 L 16.6504 -68.1641 C 15.918 -68.8965 14.9414 -69.3359 13.8184 -69.3359 C 11.5234 -69.3359 9.76562 -67.5781 9.76562 -65.2832 C 9.76562 -64.209 10.2539 -63.1836 10.9375 -62.4023 L 38.2324 -35.2539 L 10.9375 -8.10547 C 10.2539 -7.32422 9.76562 -6.34766 9.76562 -5.22461 C 9.76562 -2.92969 11.5234 -1.17188 13.8184 -1.17188 Z"/>
  </g>
  <g id="Light-S" transform="matrix(1 0 0 1 1107.92 696)">
   <path d="M 47.0215 -2.73438 C 47.8516 -2.73438 48.584 -3.07617 49.1699 -3.66211 L 79.5898 -32.959 C 80.2734 -33.5938 80.6641 -34.375 80.6641 -35.2539 C 80.6641 -36.1328 80.2734 -36.9629 79.5898 -37.5977 L 49.1699 -66.8945 C 48.584 -67.4805 47.8516 -67.8223 47.0215 -67.8223 C 45.2637 -67.8223 43.9453 -66.5039 43.9453 -64.7461 C 43.9453 -63.916 44.2871 -63.1348 44.8242 -62.5488 L 73.1445 -35.2539 L 44.8242 -7.95898 C 44.2871 -7.37305 43.9453 -6.64062 43.9453 -5.76172 C 43.9453 -4.05273 45.2637 -2.73438 47.0215 -2.73438 Z M 12.8418 -2.73438 C 13.6719 -2.73438 14.4043 -3.07617 14.9902 -3.66211 L 45.4102 -32.959 C 46.0938 -33.5938 46.4844 -34.375 46.4844 -35.2539 C 46.4844 -36.1328 46.0938 -36.9629 45.4102 -37.5977 L 14.9902 -66.8945 C 14.4043 -67.4805 13.6719 -67.8223 12.8418 -67.8223 C 11.084 -67.8223 9.76562 -66.5039 9.76562 -64.7461 C 9.76562 -63.916 10.1074 -63.1348 10.6445 -62.5488 L 38.9648 -35.2539 L 10.6445 -7.95898 C 10.1074 -7.37305 9.76562 -6.64062 9.76562 -5.76172 C 9.76562 -4.05273 11.084 -2.73438 12.8418 -2.73438 Z"/>
  </g>
  <g id="Thin-S" transform="matrix(1 0 0 1 812.282 696)">
   <path d="M 45.752 -4.73633 C 46.2402 -4.73633 46.6309 -4.98047 47.0215 -5.32227 L 77.7832 -33.6914 C 78.2227 -34.1797 78.5156 -34.6191 78.5156 -35.2539 C 78.5156 -35.8887 78.2227 -36.4258 77.7344 -36.8652 L 46.9727 -65.2344 C 46.6309 -65.5762 46.2402 -65.8203 45.752 -65.8203 C 44.7266 -65.8203 43.9453 -65.0391 43.9453 -64.0137 C 43.9453 -63.5742 44.0918 -63.0859 44.4336 -62.7441 L 74.1211 -35.3027 L 44.4336 -7.76367 C 44.0918 -7.4707 43.9453 -6.98242 43.9453 -6.49414 C 43.9453 -5.51758 44.7266 -4.73633 45.752 -4.73633 Z M 11.5723 -4.73633 C 12.0605 -4.73633 12.4512 -4.98047 12.8418 -5.32227 L 43.6035 -33.6914 C 44.043 -34.1797 44.3359 -34.6191 44.3359 -35.2539 C 44.3359 -35.8887 44.043 -36.4258 43.5547 -36.8652 L 12.793 -65.2344 C 12.4512 -65.5762 12.0605 -65.8203 11.5723 -65.8203 C 10.5469 -65.8203 9.76562 -65.0391 9.76562 -64.0137 C 9.76562 -63.5742 9.91211 -63.0859 10.2539 -62.7441 L 39.9414 -35.3027 L 10.2539 -7.76367 C 9.91211 -7.4707 9.76562 -6.98242 9.76562 -6.49414 C 9.76562 -5.51758 10.5469 -4.73633 11.5723 -4.73633 Z"/>
  </g>
  <g id="Ultralight-S" transform="matrix(1 0 0 1 516.108 696)">
   <path d="M 45.0684 -5.76172 C 45.4102 -5.76172 45.6543 -5.95703 45.8984 -6.20117 L 76.8066 -34.082 C 77.1973 -34.4727 77.4414 -34.7656 77.4414 -35.2539 C 77.4414 -35.7422 77.1484 -36.084 76.7578 -36.4746 L 45.8496 -64.4043 C 45.6055 -64.6484 45.4102 -64.7949 45.0684 -64.7949 C 44.4336 -64.7949 43.9453 -64.3066 43.9453 -63.6719 C 43.9453 -63.3789 43.9941 -63.0371 44.2383 -62.8418 L 74.6582 -35.3027 L 44.2383 -7.66602 C 43.9941 -7.51953 43.9453 -7.17773 43.9453 -6.88477 C 43.9453 -6.25 44.4336 -5.76172 45.0684 -5.76172 Z M 10.8887 -5.76172 C 11.2305 -5.76172 11.4746 -5.95703 11.7188 -6.20117 L 42.627 -34.082 C 43.0176 -34.4727 43.2617 -34.7656 43.2617 -35.2539 C 43.2617 -35.7422 42.9688 -36.084 42.5781 -36.4746 L 11.6699 -64.4043 C 11.4258 -64.6484 11.2305 -64.7949 10.8887 -64.7949 C 10.2539 -64.7949 9.76562 -64.3066 9.76562 -63.6719 C 9.76562 -63.3789 9.81445 -63.0371 10.0586 -62.8418 L 40.4785 -35.3027 L 10.0586 -7.66602 C 9.81445 -7.51953 9.76562 -7.17773 9.76562 -6.88477 C 9.76562 -6.25 10.2539 -5.76172 10.8887 -5.76172 Z"/>
  </g>
 </g>
</svg>
