<?xml version="1.0" encoding="UTF-8"?>
<!--Generator: Apple Native CoreSVG 123-->
<!DOCTYPE svg
PUBLIC "-//W3C//DTD SVG 1.1//EN"
       "http://www.w3.org/Graphics/SVG/1.1/DTD/svg11.dtd">
<svg version="1.1" xmlns="http://www.w3.org/2000/svg" xmlns:xlink="http://www.w3.org/1999/xlink" width="3300" height="2200">
 <!--glyph: "uni100183.medium", point size: 100.000000, font version: "Version 15.0d7e11", template writer version: "5"-->
 <g id="Notes">
  <rect height="2200" id="artboard" style="fill:white;opacity:1" width="3300" x="0" y="0"/>
  <line id="" style="fill:none;stroke:black;opacity:1;stroke-width:0.5;" x1="263" x2="3036" y1="292" y2="292"/>
  <text style="stroke:none;fill:black;font-family:-apple-system,&quot;SF Pro Display&quot;,&quot;SF Pro Text&quot;,Helvetica,sans-serif;font-weight:bold;" transform="matrix(1 0 0 1 263 322)">Weight/Scale Variations</text>
  <text style="stroke:none;fill:black;font-family:-apple-system,&quot;SF Pro Display&quot;,&quot;SF Pro Text&quot;,Helvetica,sans-serif;text-anchor:middle;" transform="matrix(1 0 0 1 559.711 322)">Ultralight</text>
  <text style="stroke:none;fill:black;font-family:-apple-system,&quot;SF Pro Display&quot;,&quot;SF Pro Text&quot;,Helvetica,sans-serif;text-anchor:middle;" transform="matrix(1 0 0 1 856.422 322)">Thin</text>
  <text style="stroke:none;fill:black;font-family:-apple-system,&quot;SF Pro Display&quot;,&quot;SF Pro Text&quot;,Helvetica,sans-serif;text-anchor:middle;" transform="matrix(1 0 0 1 1153.13 322)">Light</text>
  <text style="stroke:none;fill:black;font-family:-apple-system,&quot;SF Pro Display&quot;,&quot;SF Pro Text&quot;,Helvetica,sans-serif;text-anchor:middle;" transform="matrix(1 0 0 1 1449.84 322)">Regular</text>
  <text style="stroke:none;fill:black;font-family:-apple-system,&quot;SF Pro Display&quot;,&quot;SF Pro Text&quot;,Helvetica,sans-serif;text-anchor:middle;" transform="matrix(1 0 0 1 1746.56 322)">Medium</text>
  <text style="stroke:none;fill:black;font-family:-apple-system,&quot;SF Pro Display&quot;,&quot;SF Pro Text&quot;,Helvetica,sans-serif;text-anchor:middle;" transform="matrix(1 0 0 1 2043.27 322)">Semibold</text>
  <text style="stroke:none;fill:black;font-family:-apple-system,&quot;SF Pro Display&quot;,&quot;SF Pro Text&quot;,Helvetica,sans-serif;text-anchor:middle;" transform="matrix(1 0 0 1 2339.98 322)">Bold</text>
  <text style="stroke:none;fill:black;font-family:-apple-system,&quot;SF Pro Display&quot;,&quot;SF Pro Text&quot;,Helvetica,sans-serif;text-anchor:middle;" transform="matrix(1 0 0 1 2636.69 322)">Heavy</text>
  <text style="stroke:none;fill:black;font-family:-apple-system,&quot;SF Pro Display&quot;,&quot;SF Pro Text&quot;,Helvetica,sans-serif;text-anchor:middle;" transform="matrix(1 0 0 1 2933.4 322)">Black</text>
  <line id="" style="fill:none;stroke:black;opacity:1;stroke-width:0.5;" x1="263" x2="3036" y1="1903" y2="1903"/>
  <g id="" transform="matrix(1 0 0 1 263 1933)">
   <path d="M 9.24805 0.830078 C 13.5547 0.830078 17.1387 -2.74414 17.1387 -7.05078 C 17.1387 -11.3574 13.5449 -14.9316 9.23828 -14.9316 C 4.94141 -14.9316 1.36719 -11.3574 1.36719 -7.05078 C 1.36719 -2.74414 4.95117 0.830078 9.24805 0.830078 Z M 9.24805 -0.654297 C 5.70312 -0.654297 2.87109 -3.49609 2.87109 -7.05078 C 2.87109 -10.6055 5.69336 -13.4473 9.23828 -13.4473 C 12.793 -13.4473 15.6348 -10.6055 15.6445 -7.05078 C 15.6543 -3.49609 12.8027 -0.654297 9.24805 -0.654297 Z M 9.22852 -3.42773 C 9.69727 -3.42773 9.9707 -3.74023 9.9707 -4.25781 L 9.9707 -6.31836 L 12.1973 -6.31836 C 12.6953 -6.31836 13.0371 -6.57227 13.0371 -7.04102 C 13.0371 -7.51953 12.7148 -7.7832 12.1973 -7.7832 L 9.9707 -7.7832 L 9.9707 -10.0098 C 9.9707 -10.5273 9.69727 -10.8496 9.22852 -10.8496 C 8.75977 -10.8496 8.50586 -10.5078 8.50586 -10.0098 L 8.50586 -7.7832 L 6.29883 -7.7832 C 5.78125 -7.7832 5.44922 -7.51953 5.44922 -7.04102 C 5.44922 -6.57227 5.80078 -6.31836 6.29883 -6.31836 L 8.50586 -6.31836 L 8.50586 -4.25781 C 8.50586 -3.75977 8.75977 -3.42773 9.22852 -3.42773 Z"/>
  </g>
  <g id="" transform="matrix(1 0 0 1 281.506 1933)">
   <path d="M 11.709 2.91016 C 17.1582 2.91016 21.6699 -1.60156 21.6699 -7.05078 C 21.6699 -12.4902 17.1484 -17.0117 11.6992 -17.0117 C 6.25977 -17.0117 1.74805 -12.4902 1.74805 -7.05078 C 1.74805 -1.60156 6.26953 2.91016 11.709 2.91016 Z M 11.709 1.25 C 7.09961 1.25 3.41797 -2.44141 3.41797 -7.05078 C 3.41797 -11.6504 7.08984 -15.3516 11.6992 -15.3516 C 16.3086 -15.3516 20 -11.6504 20.0098 -7.05078 C 20.0195 -2.44141 16.3184 1.25 11.709 1.25 Z M 11.6895 -2.41211 C 12.207 -2.41211 12.5195 -2.77344 12.5195 -3.33984 L 12.5195 -6.23047 L 15.5762 -6.23047 C 16.123 -6.23047 16.5039 -6.51367 16.5039 -7.03125 C 16.5039 -7.55859 16.1426 -7.86133 15.5762 -7.86133 L 12.5195 -7.86133 L 12.5195 -10.9277 C 12.5195 -11.5039 12.207 -11.8555 11.6895 -11.8555 C 11.1719 -11.8555 10.8789 -11.4844 10.8789 -10.9277 L 10.8789 -7.86133 L 7.83203 -7.86133 C 7.26562 -7.86133 6.89453 -7.55859 6.89453 -7.03125 C 6.89453 -6.51367 7.28516 -6.23047 7.83203 -6.23047 L 10.8789 -6.23047 L 10.8789 -3.33984 C 10.8789 -2.79297 11.1719 -2.41211 11.6895 -2.41211 Z"/>
  </g>
  <g id="" transform="matrix(1 0 0 1 304.924 1933)">
   <path d="M 14.9707 5.67383 C 21.9336 5.67383 27.6953 -0.078125 27.6953 -7.04102 C 27.6953 -14.0039 21.9238 -19.7559 14.9609 -19.7559 C 8.00781 -19.7559 2.25586 -14.0039 2.25586 -7.04102 C 2.25586 -0.078125 8.01758 5.67383 14.9707 5.67383 Z M 14.9707 3.85742 C 8.93555 3.85742 4.08203 -1.00586 4.08203 -7.04102 C 4.08203 -13.0762 8.92578 -17.9395 14.9609 -17.9395 C 21.0059 -17.9395 25.8594 -13.0762 25.8691 -7.04102 C 25.8789 -1.00586 21.0156 3.85742 14.9707 3.85742 Z M 14.9512 -1.06445 C 15.5176 -1.06445 15.8691 -1.45508 15.8691 -2.06055 L 15.8691 -6.13281 L 20.1074 -6.13281 C 20.6934 -6.13281 21.1133 -6.46484 21.1133 -7.02148 C 21.1133 -7.59766 20.7227 -7.93945 20.1074 -7.93945 L 15.8691 -7.93945 L 15.8691 -12.1875 C 15.8691 -12.8027 15.5176 -13.1934 14.9512 -13.1934 C 14.3848 -13.1934 14.0625 -12.7832 14.0625 -12.1875 L 14.0625 -7.93945 L 9.83398 -7.93945 C 9.21875 -7.93945 8.80859 -7.59766 8.80859 -7.02148 C 8.80859 -6.46484 9.23828 -6.13281 9.83398 -6.13281 L 14.0625 -6.13281 L 14.0625 -2.06055 C 14.0625 -1.47461 14.3848 -1.06445 14.9512 -1.06445 Z"/>
  </g>
  <text style="stroke:none;fill:black;font-family:-apple-system,&quot;SF Pro Display&quot;,&quot;SF Pro Text&quot;,Helvetica,sans-serif;font-weight:bold;" transform="matrix(1 0 0 1 263 1953)">Design Variations</text>
  <text style="stroke:none;fill:black;font-family:-apple-system,&quot;SF Pro Display&quot;,&quot;SF Pro Text&quot;,Helvetica,sans-serif;" transform="matrix(1 0 0 1 263 1971)">Symbols are supported in up to nine weights and three scales.</text>
  <text style="stroke:none;fill:black;font-family:-apple-system,&quot;SF Pro Display&quot;,&quot;SF Pro Text&quot;,Helvetica,sans-serif;" transform="matrix(1 0 0 1 263 1989)">For optimal layout with text and other symbols, vertically align</text>
  <text style="stroke:none;fill:black;font-family:-apple-system,&quot;SF Pro Display&quot;,&quot;SF Pro Text&quot;,Helvetica,sans-serif;" transform="matrix(1 0 0 1 263 2007)">symbols with the adjacent text.</text>
  <rect height="14" id="" style="fill:#00AEEF;stroke:none;opacity:0.4;" width="3" x="776" y="1919"/>
  <g id="" transform="matrix(1 0 0 1 779 1933)">
   <path d="M 10.5273 0 L 12.373 0 L 7.17773 -14.0918 L 5.43945 -14.0918 L 0.244141 0 L 2.08984 0 L 3.50586 -4.0332 L 9.11133 -4.0332 Z M 6.2793 -11.9531 L 6.33789 -11.9531 L 8.59375 -5.52734 L 4.02344 -5.52734 Z"/>
  </g>
  <rect height="14" id="" style="fill:#00AEEF;stroke:none;opacity:0.4;" width="3" x="791.617" y="1919"/>
  <text style="stroke:none;fill:black;font-family:-apple-system,&quot;SF Pro Display&quot;,&quot;SF Pro Text&quot;,Helvetica,sans-serif;font-weight:bold;" transform="matrix(1 0 0 1 776 1953)">Margins</text>
  <text style="stroke:none;fill:black;font-family:-apple-system,&quot;SF Pro Display&quot;,&quot;SF Pro Text&quot;,Helvetica,sans-serif;" transform="matrix(1 0 0 1 776 1971)">Leading and trailing margins on the left and right side of each symbol</text>
  <text style="stroke:none;fill:black;font-family:-apple-system,&quot;SF Pro Display&quot;,&quot;SF Pro Text&quot;,Helvetica,sans-serif;" transform="matrix(1 0 0 1 776 1989)">can be adjusted by modifying the width of the blue rectangles.</text>
  <text style="stroke:none;fill:black;font-family:-apple-system,&quot;SF Pro Display&quot;,&quot;SF Pro Text&quot;,Helvetica,sans-serif;" transform="matrix(1 0 0 1 776 2007)">Modifications are automatically applied proportionally to all</text>
  <text style="stroke:none;fill:black;font-family:-apple-system,&quot;SF Pro Display&quot;,&quot;SF Pro Text&quot;,Helvetica,sans-serif;" transform="matrix(1 0 0 1 776 2025)">scales and weights.</text>
  <g id="" transform="matrix(1 0 0 1 1289 1933)">
   <path d="M 2.83203 3.11523 L 4.375 4.6582 C 5.22461 5.48828 6.19141 5.41992 7.06055 4.46289 L 17.2754 -6.66016 C 17.7051 -6.36719 18.0957 -6.37695 18.5645 -6.47461 L 19.6094 -6.68945 L 20.3027 -5.99609 L 20.2539 -5.47852 C 20.1855 -4.95117 20.3516 -4.53125 20.8496 -4.0332 L 21.6602 -3.22266 C 22.168 -2.71484 22.8223 -2.68555 23.3008 -3.16406 L 26.5527 -6.41602 C 27.0312 -6.89453 27.0117 -7.54883 26.5039 -8.05664 L 25.6836 -8.87695 C 25.1855 -9.375 24.7754 -9.55078 24.2383 -9.47266 L 23.7109 -9.41406 L 23.0566 -10.0781 L 23.3398 -11.2207 C 23.4863 -11.7871 23.3398 -12.2559 22.7148 -12.8613 L 20.3027 -15.2539 C 16.7578 -18.7793 12.2266 -18.6719 9.11133 -15.5371 C 8.69141 -15.1074 8.64258 -14.5215 8.91602 -14.0918 C 9.15039 -13.7207 9.62891 -13.4961 10.2734 -13.6621 C 11.7871 -14.043 13.3008 -13.9258 14.7852 -12.9199 L 14.1602 -11.3379 C 13.9258 -10.752 13.9453 -10.2734 14.1797 -9.83398 L 3.01758 0.439453 C 2.08008 1.30859 1.97266 2.25586 2.83203 3.11523 Z M 10.6738 -15.1465 C 13.3398 -17.1387 16.6504 -16.8262 19.0527 -14.4141 L 21.6797 -11.8066 C 21.9141 -11.5723 21.9434 -11.3867 21.8848 -11.0938 L 21.5039 -9.53125 L 23.0762 -7.95898 L 24.043 -8.04688 C 24.3262 -8.07617 24.4141 -8.05664 24.6387 -7.83203 L 25.2637 -7.20703 L 22.5098 -4.46289 L 21.8848 -5.07812 C 21.6602 -5.30273 21.6406 -5.40039 21.6699 -5.68359 L 21.7578 -6.64062 L 20.1953 -8.20312 L 18.5742 -7.89062 C 18.291 -7.83203 18.1445 -7.83203 17.9102 -8.07617 L 15.7324 -10.2539 C 15.5078 -10.4883 15.4785 -10.625 15.6055 -10.9473 L 16.5527 -13.2227 C 14.9512 -14.7559 12.8418 -15.6055 10.8008 -14.9512 C 10.7129 -14.9219 10.6445 -14.9414 10.6152 -14.9805 C 10.5859 -15.0293 10.5859 -15.0781 10.6738 -15.1465 Z M 4.10156 2.41211 C 3.61328 1.91406 3.78906 1.61133 4.12109 1.30859 L 15.0781 -8.80859 L 16.3086 -7.57812 L 6.15234 3.34961 C 5.84961 3.68164 5.46875 3.7793 5.06836 3.37891 Z"/>
  </g>
  <text style="stroke:none;fill:black;font-family:-apple-system,&quot;SF Pro Display&quot;,&quot;SF Pro Text&quot;,Helvetica,sans-serif;font-weight:bold;" transform="matrix(1 0 0 1 1289 1953)">Exporting</text>
  <text style="stroke:none;fill:black;font-family:-apple-system,&quot;SF Pro Display&quot;,&quot;SF Pro Text&quot;,Helvetica,sans-serif;" transform="matrix(1 0 0 1 1289 1971)">Symbols should be outlined when exporting to ensure the</text>
  <text style="stroke:none;fill:black;font-family:-apple-system,&quot;SF Pro Display&quot;,&quot;SF Pro Text&quot;,Helvetica,sans-serif;" transform="matrix(1 0 0 1 1289 1989)">design is preserved when submitting to Xcode.</text>
  <text id="template-version" style="stroke:none;fill:black;font-family:-apple-system,&quot;SF Pro Display&quot;,&quot;SF Pro Text&quot;,Helvetica,sans-serif;text-anchor:end;" transform="matrix(1 0 0 1 3036 1933)">Template v.1.0</text>
  <text style="stroke:none;fill:black;font-family:-apple-system,&quot;SF Pro Display&quot;,&quot;SF Pro Text&quot;,Helvetica,sans-serif;text-anchor:end;" transform="matrix(1 0 0 1 3036 1951)">Generated from number</text>
  <text style="stroke:none;fill:black;font-family:-apple-system,&quot;SF Pro Display&quot;,&quot;SF Pro Text&quot;,Helvetica,sans-serif;text-anchor:end;" transform="matrix(1 0 0 1 3036 1969)">Typeset at 100 points</text>
  <text style="stroke:none;fill:black;font-family:-apple-system,&quot;SF Pro Display&quot;,&quot;SF Pro Text&quot;,Helvetica,sans-serif;" transform="matrix(1 0 0 1 263 726)">Small</text>
  <text style="stroke:none;fill:black;font-family:-apple-system,&quot;SF Pro Display&quot;,&quot;SF Pro Text&quot;,Helvetica,sans-serif;" transform="matrix(1 0 0 1 263 1156)">Medium</text>
  <text style="stroke:none;fill:black;font-family:-apple-system,&quot;SF Pro Display&quot;,&quot;SF Pro Text&quot;,Helvetica,sans-serif;" transform="matrix(1 0 0 1 263 1586)">Large</text>
 </g>
 <g id="Guides">
  <g id="H-reference" style="fill:#27AAE1;stroke:none;" transform="matrix(1 0 0 1 339 696)">
   <path d="M 54.9316 0 L 57.666 0 L 30.5664 -70.459 L 28.0762 -70.459 L 0.976562 0 L 3.66211 0 L 12.9395 -24.4629 L 45.7031 -24.4629 Z M 29.1992 -67.0898 L 29.4434 -67.0898 L 44.8242 -26.709 L 13.8184 -26.709 Z"/>
  </g>
  <line id="Baseline-S" style="fill:none;stroke:#27AAE1;opacity:1;stroke-width:0.577;" x1="263" x2="3036" y1="696" y2="696"/>
  <line id="Capline-S" style="fill:none;stroke:#27AAE1;opacity:1;stroke-width:0.577;" x1="263" x2="3036" y1="625.541" y2="625.541"/>
  <g id="H-reference" style="fill:#27AAE1;stroke:none;" transform="matrix(1 0 0 1 339 1126)">
   <path d="M 54.9316 0 L 57.666 0 L 30.5664 -70.459 L 28.0762 -70.459 L 0.976562 0 L 3.66211 0 L 12.9395 -24.4629 L 45.7031 -24.4629 Z M 29.1992 -67.0898 L 29.4434 -67.0898 L 44.8242 -26.709 L 13.8184 -26.709 Z"/>
  </g>
  <line id="Baseline-M" style="fill:none;stroke:#27AAE1;opacity:1;stroke-width:0.577;" x1="263" x2="3036" y1="1126" y2="1126"/>
  <line id="Capline-M" style="fill:none;stroke:#27AAE1;opacity:1;stroke-width:0.577;" x1="263" x2="3036" y1="1055.54" y2="1055.54"/>
  <g id="H-reference" style="fill:#27AAE1;stroke:none;" transform="matrix(1 0 0 1 339 1556)">
   <path d="M 54.9316 0 L 57.666 0 L 30.5664 -70.459 L 28.0762 -70.459 L 0.976562 0 L 3.66211 0 L 12.9395 -24.4629 L 45.7031 -24.4629 Z M 29.1992 -67.0898 L 29.4434 -67.0898 L 44.8242 -26.709 L 13.8184 -26.709 Z"/>
  </g>
  <line id="Baseline-L" style="fill:none;stroke:#27AAE1;opacity:1;stroke-width:0.577;" x1="263" x2="3036" y1="1556" y2="1556"/>
  <line id="Capline-L" style="fill:none;stroke:#27AAE1;opacity:1;stroke-width:0.577;" x1="263" x2="3036" y1="1485.54" y2="1485.54"/>
  <rect height="119.336" id="left-margin" style="fill:#00AEEF;stroke:none;opacity:0.4;" width="12.4512" x="1393.62" y="1030.79"/>
  <rect height="119.336" id="right-margin" style="fill:#00AEEF;stroke:none;opacity:0.4;" width="12.4512" x="1493.62" y="1030.79"/>
 </g>
 <g id="Symbols">
  <g id="Black-L" transform="matrix(1 0 0 1 2859.62 1556)">
   <path d="M 26.2695 -5.66406 L 35.6934 -5.66406 L 31.7383 14.2578 C 31.543 15.2832 31.3965 16.9434 31.3965 17.9688 C 31.3965 23.4863 35.0586 27.0508 41.2598 27.0508 C 47.8516 27.0508 51.9531 23.7305 53.3203 16.748 L 57.7637 -5.66406 L 77.0996 -5.66406 L 73.1934 14.2578 C 72.9492 15.2832 72.8027 16.9434 72.8027 17.9688 C 72.8027 23.4863 76.4648 27.0508 82.6172 27.0508 C 89.2578 27.0508 93.3594 23.7305 94.7266 16.748 L 99.1699 -5.66406 L 111.035 -5.66406 C 118.896 -5.66406 123.584 -10.2051 123.584 -17.334 C 123.584 -22.9492 119.727 -26.6602 113.379 -26.6602 L 103.271 -26.6602 L 107.129 -46.0449 L 118.994 -46.0449 C 126.807 -46.0449 131.494 -50.7812 131.494 -57.959 C 131.494 -63.5742 127.686 -67.2363 121.289 -67.2363 L 111.279 -67.2363 L 114.795 -85.1562 C 114.99 -86.1328 115.186 -87.7441 115.186 -88.8672 C 115.186 -94.4336 111.523 -97.9492 105.322 -97.9492 C 98.4863 -97.9492 94.6777 -94.4824 93.3105 -87.5977 L 89.2578 -67.2363 L 69.9219 -67.2363 L 73.4375 -85.1562 C 73.6328 -86.1328 73.7793 -87.7441 73.7793 -88.8672 C 73.7793 -94.4336 70.1172 -97.9492 63.916 -97.9492 C 57.1289 -97.9492 53.2227 -94.5312 51.8555 -87.5977 L 47.8027 -67.2363 L 36.4746 -67.2363 C 28.6133 -67.2363 23.9258 -62.5488 23.9258 -55.4199 C 23.9258 -49.7559 27.7832 -46.0449 34.1309 -46.0449 L 43.6523 -46.0449 L 39.8438 -26.6602 L 28.5645 -26.6602 C 20.752 -26.6602 16.0645 -22.0703 16.0645 -14.8926 C 16.0645 -9.22852 19.873 -5.66406 26.2695 -5.66406 Z M 61.9141 -26.6602 L 65.7227 -46.0449 L 85.1074 -46.0449 L 81.25 -26.6602 Z"/>
  </g>
  <g id="Heavy-L" transform="matrix(1 0 0 1 2563.23 1556)">
   <path d="M 24.8535 -6.64062 L 36.9141 -6.64062 L 32.4707 15.7715 C 32.2754 16.6992 32.1289 18.1152 32.1289 19.043 C 32.1289 23.877 35.3516 26.9531 40.6738 26.9531 C 46.3379 26.9531 49.9023 24.0723 51.0742 18.1152 L 56.0059 -6.64062 L 78.1738 -6.64062 L 73.7305 15.7715 C 73.5352 16.6992 73.3887 18.1152 73.3887 19.043 C 73.3887 23.877 76.6113 26.9531 81.9336 26.9531 C 87.5977 26.9531 91.2109 24.0723 92.3828 18.1152 L 97.2656 -6.64062 L 112.061 -6.64062 C 118.75 -6.64062 122.803 -10.5469 122.803 -16.6992 C 122.803 -21.582 119.434 -24.8535 114.014 -24.8535 L 100.879 -24.8535 L 105.469 -47.9004 L 120.117 -47.9004 C 126.758 -47.9004 130.859 -52.0508 130.859 -58.1543 C 130.859 -63.0371 127.539 -66.2598 122.07 -66.2598 L 109.082 -66.2598 L 113.086 -86.4258 C 113.281 -87.2559 113.428 -88.623 113.428 -89.6973 C 113.428 -94.5312 110.156 -97.6074 104.834 -97.6074 C 98.9258 -97.6074 95.6543 -94.5312 94.5312 -88.7207 L 90.0391 -66.2598 L 67.8711 -66.2598 L 71.875 -86.4258 C 72.0215 -87.2559 72.168 -88.623 72.168 -89.6973 C 72.168 -94.5312 68.9453 -97.6074 63.5742 -97.6074 C 57.7148 -97.6074 54.3945 -94.5801 53.2227 -88.7207 L 48.7305 -66.2598 L 34.8145 -66.2598 C 28.125 -66.2598 24.0723 -62.207 24.0723 -56.0547 C 24.0723 -51.123 27.3926 -47.9004 32.8125 -47.9004 L 45.1172 -47.9004 L 40.5273 -24.8535 L 26.7578 -24.8535 C 20.1172 -24.8535 16.0645 -20.8496 16.0645 -14.6484 C 16.0645 -9.76562 19.3848 -6.64062 24.8535 -6.64062 Z M 59.6191 -24.8535 L 64.209 -47.9004 L 86.377 -47.9004 L 81.7871 -24.8535 Z"/>
  </g>
  <g id="Bold-L" transform="matrix(1 0 0 1 2266.91 1556)">
   <path d="M 23.1934 -7.71484 L 38.2812 -7.71484 L 33.252 17.4316 C 33.0566 18.2617 32.959 19.4336 32.959 20.2148 C 32.959 24.3164 35.6934 26.8066 40.0879 26.8066 C 44.6777 26.8066 47.6562 24.4629 48.584 19.6289 L 54.0527 -7.71484 L 79.3945 -7.71484 L 74.3164 17.4316 C 74.1699 18.2617 74.0723 19.4336 74.0723 20.2148 C 74.0723 24.3164 76.7578 26.8066 81.1523 26.8066 C 85.7422 26.8066 88.7207 24.4629 89.6973 19.6289 L 95.166 -7.71484 L 113.184 -7.71484 C 118.555 -7.71484 121.924 -10.9863 121.924 -16.0156 C 121.924 -20.0195 119.141 -22.8516 114.795 -22.8516 L 98.1934 -22.8516 L 103.613 -50 L 121.387 -50 C 126.709 -50 130.078 -53.418 130.078 -58.4473 C 130.078 -62.4512 127.344 -65.2344 122.949 -65.2344 L 106.641 -65.2344 L 111.182 -87.793 C 111.328 -88.4766 111.475 -89.6484 111.475 -90.5762 C 111.475 -94.6777 108.691 -97.2168 104.297 -97.2168 C 99.4141 -97.2168 96.7773 -94.6289 95.8496 -89.9414 L 90.918 -65.2344 L 65.5762 -65.2344 L 70.1172 -87.793 C 70.2637 -88.4766 70.4102 -89.6484 70.4102 -90.5762 C 70.4102 -94.6777 67.627 -97.2168 63.1836 -97.2168 C 58.3496 -97.2168 55.6641 -94.6777 54.7363 -89.9414 L 49.8047 -65.2344 L 32.959 -65.2344 C 27.5879 -65.2344 24.2188 -61.8164 24.2188 -56.7383 C 24.2188 -52.6855 27.002 -50 31.3477 -50 L 46.7285 -50 L 41.3086 -22.8516 L 24.8047 -22.8516 C 19.4336 -22.8516 16.0645 -19.4336 16.0645 -14.4043 C 16.0645 -10.3516 18.7988 -7.71484 23.1934 -7.71484 Z M 57.0801 -22.8516 L 62.5488 -50 L 87.8418 -50 L 82.4219 -22.8516 Z"/>
  </g>
  <g id="Semibold-L" transform="matrix(1 0 0 1 1970.44 1556)">
   <path d="M 22.0703 -8.44727 L 39.209 -8.44727 L 33.7891 18.6035 C 33.6426 19.3359 33.5449 20.3613 33.5449 21.0449 C 33.5449 24.6094 35.9375 26.709 39.6484 26.709 C 43.5059 26.709 46.0938 24.7559 46.875 20.7031 L 52.7344 -8.44727 L 80.2246 -8.44727 L 74.7559 18.6035 C 74.6094 19.3359 74.5117 20.3613 74.5117 21.0449 C 74.5117 24.6094 76.8555 26.709 80.6152 26.709 C 84.4727 26.709 87.0605 24.7559 87.8418 20.7031 L 93.7012 -8.44727 L 113.916 -8.44727 C 118.408 -8.44727 121.289 -11.2793 121.289 -15.5762 C 121.289 -18.9941 118.945 -21.4355 115.283 -21.4355 L 96.3379 -21.4355 L 102.344 -51.416 L 122.217 -51.416 C 126.709 -51.416 129.59 -54.3945 129.59 -58.6426 C 129.59 -62.0605 127.246 -64.502 123.535 -64.502 L 104.98 -64.502 L 109.863 -88.7695 C 109.961 -89.3555 110.107 -90.332 110.107 -91.2109 C 110.107 -94.7754 107.666 -96.9238 103.906 -96.9238 C 99.707 -96.9238 97.5586 -94.6777 96.7773 -90.7715 L 91.5039 -64.502 L 64.0137 -64.502 L 68.8965 -88.7695 C 68.9941 -89.3555 69.1406 -90.332 69.1406 -91.2109 C 69.1406 -94.7754 66.6992 -96.9238 62.9395 -96.9238 C 58.7402 -96.9238 56.543 -94.7266 55.7617 -90.7715 L 50.4883 -64.502 L 31.6895 -64.502 C 27.2461 -64.502 24.3652 -61.5234 24.3652 -57.2754 C 24.3652 -53.7598 26.709 -51.416 30.3711 -51.416 L 47.8516 -51.416 L 41.8457 -21.4355 L 23.3887 -21.4355 C 18.9453 -21.4355 16.0645 -18.5059 16.0645 -14.209 C 16.0645 -10.7422 18.4082 -8.44727 22.0703 -8.44727 Z M 55.3711 -21.4355 L 61.377 -51.416 L 88.8672 -51.416 L 82.8125 -21.4355 Z"/>
  </g>
  <g id="Medium-L" transform="matrix(1 0 0 1 1673.92 1556)">
   <path d="M 21.2402 -8.98438 L 39.9414 -8.98438 L 34.1797 19.4824 C 34.0332 20.166 33.9355 21.0449 33.9355 21.6797 C 33.9355 24.8535 36.084 26.6602 39.3066 26.6602 C 42.627 26.6602 44.873 24.9512 45.5566 21.4844 L 51.709 -8.98438 L 80.8105 -8.98438 L 75.0977 19.4824 C 74.9512 20.166 74.8535 21.0449 74.8535 21.6797 C 74.8535 24.8535 76.9531 26.6602 80.1758 26.6602 C 83.4961 26.6602 85.791 24.9512 86.4746 21.4844 L 92.5781 -8.98438 L 114.502 -8.98438 C 118.311 -8.98438 120.85 -11.5234 120.85 -15.1855 C 120.85 -18.1641 118.799 -20.3613 115.674 -20.3613 L 94.9219 -20.3613 L 101.367 -52.5391 L 122.9 -52.5391 C 126.66 -52.5391 129.199 -55.0781 129.199 -58.7891 C 129.199 -61.7676 127.148 -63.9648 124.023 -63.9648 L 103.711 -63.9648 L 108.838 -89.502 C 108.936 -89.9902 109.082 -90.8691 109.082 -91.6992 C 109.082 -94.8242 106.885 -96.7285 103.662 -96.7285 C 99.9512 -96.7285 98.1445 -94.7266 97.5098 -91.4062 L 91.9434 -63.9648 L 62.793 -63.9648 L 67.9688 -89.502 C 68.0664 -89.9902 68.2129 -90.8691 68.2129 -91.6992 C 68.2129 -94.8242 66.0156 -96.7285 62.7441 -96.7285 C 59.082 -96.7285 57.2266 -94.7754 56.5918 -91.4062 L 51.0254 -63.9648 L 30.7617 -63.9648 C 26.9531 -63.9648 24.4141 -61.3281 24.4141 -57.6172 C 24.4141 -54.5898 26.4648 -52.5391 29.5898 -52.5391 L 48.7305 -52.5391 L 42.2363 -20.3613 L 22.3633 -20.3613 C 18.5547 -20.3613 16.0645 -17.7734 16.0645 -14.0625 C 16.0645 -11.0352 18.1152 -8.98438 21.2402 -8.98438 Z M 54.0039 -20.3613 L 60.498 -52.5391 L 89.6484 -52.5391 L 83.1543 -20.3613 Z"/>
  </g>
  <g id="Regular-L" transform="matrix(1 0 0 1 1377.48 1556)">
   <path d="M 20.1172 -9.7168 L 40.8691 -9.7168 L 34.7168 20.6543 C 34.6191 21.2402 34.5215 21.9238 34.5215 22.4609 C 34.5215 25.1465 36.3281 26.5625 38.916 26.5625 C 41.5039 26.5625 43.3594 25.1953 43.8965 22.5098 L 50.3906 -9.7168 L 81.6406 -9.7168 L 75.4883 20.6543 C 75.3418 21.2402 75.293 21.9238 75.293 22.4609 C 75.293 25.1465 77.0996 26.5625 79.6387 26.5625 C 82.2266 26.5625 84.082 25.1953 84.6191 22.5098 L 91.1621 -9.7168 L 115.283 -9.7168 C 118.213 -9.7168 120.215 -11.8164 120.215 -14.7461 C 120.215 -17.1387 118.604 -18.9941 116.162 -18.9941 L 93.0664 -18.9941 L 100.146 -53.9551 L 123.73 -53.9551 C 126.66 -53.9551 128.662 -56.0547 128.662 -58.9844 C 128.662 -61.377 127.051 -63.2324 124.609 -63.2324 L 102.002 -63.2324 L 107.52 -90.4785 C 107.617 -90.8691 107.764 -91.5527 107.764 -92.2852 C 107.764 -94.9219 105.859 -96.4355 103.271 -96.4355 C 100.293 -96.4355 98.9258 -94.8242 98.4375 -92.2363 L 92.5293 -63.2324 L 61.2793 -63.2324 L 66.7969 -90.4785 C 66.8457 -90.8691 66.9922 -91.5527 66.9922 -92.2852 C 66.9922 -94.9219 65.0879 -96.4355 62.5 -96.4355 C 59.5215 -96.4355 58.1055 -94.8242 57.6172 -92.2363 L 51.709 -63.2324 L 29.4922 -63.2324 C 26.5625 -63.2324 24.5605 -61.084 24.5605 -58.1055 C 24.5605 -55.6641 26.1719 -53.9551 28.6133 -53.9551 L 49.8535 -53.9551 L 42.7734 -18.9941 L 20.9961 -18.9941 C 18.1152 -18.9941 16.0645 -16.8457 16.0645 -13.8672 C 16.0645 -11.4258 17.6758 -9.7168 20.1172 -9.7168 Z M 52.2949 -18.9941 L 59.375 -53.9551 L 90.625 -53.9551 L 83.5449 -18.9941 Z"/>
  </g>
  <g id="Light-L" transform="matrix(1 0 0 1 1080.99 1556)">
   <path d="M 19.2383 -10.7422 L 42.0898 -10.7422 L 35.3516 22.2168 C 35.2539 22.7539 35.1562 23.3398 35.1562 23.7793 C 35.1562 25.8301 36.5234 26.9531 38.5254 26.9531 C 40.4785 26.9531 41.8457 25.9277 42.2852 23.877 L 49.3164 -10.7422 L 82.5195 -10.7422 L 75.8301 22.2168 C 75.7324 22.7539 75.6348 23.3398 75.6348 23.7793 C 75.6348 25.8301 76.9531 26.9531 78.9551 26.9531 C 80.957 26.9531 82.3242 25.9277 82.7637 23.877 L 89.7949 -10.7422 L 116.113 -10.7422 C 118.359 -10.7422 119.873 -12.2559 119.873 -14.4531 C 119.873 -16.3574 118.604 -17.7734 116.699 -17.7734 L 91.2109 -17.7734 L 98.7793 -54.9805 L 124.512 -54.9805 C 126.709 -54.9805 128.223 -56.4941 128.223 -58.6914 C 128.223 -60.5469 126.953 -61.9629 125.049 -61.9629 L 100.195 -61.9629 L 106.25 -91.6992 C 106.348 -92.041 106.445 -92.6758 106.445 -93.2617 C 106.445 -95.2637 105.029 -96.4844 103.027 -96.4844 C 100.83 -96.4844 99.7559 -95.2637 99.3652 -93.3105 L 93.0176 -61.9629 L 59.7656 -61.9629 L 65.7715 -91.6992 C 65.8691 -92.041 65.9668 -92.6758 65.9668 -93.2617 C 65.9668 -95.2637 64.5996 -96.4844 62.5977 -96.4844 C 60.3516 -96.4844 59.2773 -95.2637 58.8867 -93.3105 L 52.4902 -61.9629 L 28.2227 -61.9629 C 25.9766 -61.9629 24.4629 -60.4004 24.4629 -58.1543 C 24.4629 -56.25 25.7324 -54.9805 27.6367 -54.9805 L 51.0742 -54.9805 L 43.5059 -17.7734 L 19.7754 -17.7734 C 17.5781 -17.7734 16.0645 -16.1621 16.0645 -13.9648 C 16.0645 -12.0117 17.334 -10.7422 19.2383 -10.7422 Z M 50.7324 -17.7734 L 58.3008 -54.9805 L 91.5527 -54.9805 L 83.9844 -17.7734 Z"/>
  </g>
  <g id="Thin-L" transform="matrix(1 0 0 1 784.596 1556)">
   <path d="M 18.0664 -12.0605 L 43.6523 -12.0605 L 36.1816 24.2676 C 36.084 24.7559 36.0352 25.1953 36.0352 25.4883 C 36.0352 26.8066 36.7676 27.4902 37.9883 27.4902 C 39.1602 27.4902 39.8926 26.9043 40.1855 25.6348 L 47.9004 -12.0605 L 83.6914 -12.0605 L 76.2695 24.2676 C 76.1719 24.7559 76.0742 25.1953 76.0742 25.4883 C 76.0742 26.8066 76.8066 27.4902 78.0762 27.4902 C 79.248 27.4902 79.9805 26.9043 80.2734 25.6348 L 87.9395 -12.0605 L 117.236 -12.0605 C 118.555 -12.0605 119.385 -12.8418 119.385 -14.1113 C 119.385 -15.2832 118.604 -16.0645 117.383 -16.0645 L 88.7695 -16.0645 L 97.0215 -56.2988 L 125.488 -56.2988 C 126.807 -56.2988 127.588 -57.0801 127.588 -58.3496 C 127.588 -59.5215 126.855 -60.3027 125.586 -60.3027 L 97.8027 -60.3027 L 104.59 -93.3105 C 104.639 -93.6523 104.736 -94.1406 104.736 -94.5312 C 104.736 -95.8008 104.004 -96.5332 102.734 -96.5332 C 101.514 -96.5332 100.879 -95.8496 100.635 -94.6777 L 93.6035 -60.3027 L 57.7637 -60.3027 L 64.502 -93.3105 C 64.5996 -93.6523 64.6484 -94.1406 64.6484 -94.5312 C 64.6484 -95.8008 63.916 -96.5332 62.6953 -96.5332 C 61.4746 -96.5332 60.791 -95.8496 60.5957 -94.6777 L 53.5156 -60.3027 L 26.5137 -60.3027 C 25.1953 -60.3027 24.3652 -59.4727 24.3652 -58.252 C 24.3652 -57.0312 25.1465 -56.2988 26.3672 -56.2988 L 52.6855 -56.2988 L 44.4824 -16.0645 L 18.1641 -16.0645 C 16.8945 -16.0645 16.0645 -15.2344 16.0645 -14.0137 C 16.0645 -12.793 16.8457 -12.0605 18.0664 -12.0605 Z M 48.7305 -16.0645 L 56.9336 -56.2988 L 92.7734 -56.2988 L 84.5215 -16.0645 Z"/>
  </g>
  <g id="Ultralight-L" transform="matrix(1 0 0 1 488.031 1556)">
   <path d="M 17.4805 -12.7441 L 44.4336 -12.7441 L 36.6211 25.293 C 36.5234 25.7812 36.4746 26.1719 36.4746 26.3672 C 36.4746 27.2949 36.8652 27.7344 37.7441 27.7344 C 38.4766 27.7344 38.916 27.3926 39.1113 26.5137 L 47.168 -12.7441 L 84.3262 -12.7441 L 76.4648 25.293 C 76.416 25.7812 76.3184 26.1719 76.3184 26.3672 C 76.3184 27.2949 76.7578 27.7344 77.5879 27.7344 C 78.3691 27.7344 78.7598 27.3926 79.0039 26.5137 L 87.0117 -12.7441 L 117.822 -12.7441 C 118.652 -12.7441 119.141 -13.1348 119.141 -13.9648 C 119.141 -14.7461 118.604 -15.2344 117.725 -15.2344 L 87.5488 -15.2344 L 96.0938 -56.9824 L 126.025 -56.9824 C 126.807 -56.9824 127.295 -57.373 127.295 -58.2031 C 127.295 -58.9844 126.758 -59.4727 125.879 -59.4727 L 96.582 -59.4727 L 103.711 -94.1406 C 103.809 -94.4336 103.857 -94.9219 103.857 -95.166 C 103.857 -96.0449 103.467 -96.582 102.588 -96.582 C 101.904 -96.582 101.416 -96.1426 101.318 -95.3613 L 93.9453 -59.4727 L 56.7383 -59.4727 L 63.8184 -94.1406 C 63.916 -94.4336 64.0137 -94.9219 64.0137 -95.166 C 64.0137 -96.0449 63.5742 -96.582 62.7441 -96.582 C 62.0117 -96.582 61.5723 -96.1426 61.4258 -95.3613 L 54.0527 -59.4727 L 25.6348 -59.4727 C 24.8047 -59.4727 24.3164 -59.0332 24.3164 -58.3008 C 24.3164 -57.4219 24.8535 -56.9824 25.7324 -56.9824 L 53.5645 -56.9824 L 44.9707 -15.2344 L 17.334 -15.2344 C 16.5527 -15.2344 16.0645 -14.7949 16.0645 -14.0625 C 16.0645 -13.1836 16.6016 -12.7441 17.4805 -12.7441 Z M 47.6562 -15.2344 L 56.2012 -56.9824 L 93.4082 -56.9824 L 84.8145 -15.2344 Z"/>
  </g>
  <g id="Black-M" transform="matrix(1 0 0 1 2875.9 1126)">
   <path d="M 21.875 -11.5723 L 26.6113 -11.5723 L 23.9746 1.9043 C 23.8281 2.83203 23.6816 4.39453 23.6816 5.27344 C 23.6816 10.1562 26.9043 13.3789 32.5195 13.3789 C 38.5742 13.3789 42.2363 10.3516 43.457 3.90625 L 46.5332 -11.5723 L 58.7891 -11.5723 L 56.1523 1.9043 C 55.957 2.83203 55.8594 4.39453 55.8594 5.27344 C 55.8594 10.1562 58.9844 13.3789 64.5996 13.3789 C 70.7031 13.3789 74.3652 10.3516 75.6348 3.90625 L 78.6621 -11.5723 L 85.1562 -11.5723 C 92.4316 -11.5723 96.6797 -15.5273 96.6797 -22.0215 C 96.6797 -27.1484 93.1152 -30.3711 87.2559 -30.3711 L 82.3242 -30.3711 L 84.5215 -41.6504 L 91.1621 -41.6504 C 98.3398 -41.6504 102.539 -45.8496 102.539 -52.3438 C 102.539 -57.4707 99.0723 -60.5957 93.1641 -60.5957 L 88.2324 -60.5957 L 90.625 -72.9004 C 90.8203 -73.8281 90.918 -75.293 90.918 -76.2207 C 90.918 -81.1523 87.793 -84.375 82.1777 -84.375 C 76.0742 -84.375 72.4609 -81.25 71.1914 -74.9023 L 68.4082 -60.5957 L 56.1035 -60.5957 L 58.4961 -72.9004 C 58.6914 -73.8281 58.8379 -75.293 58.8379 -76.2207 C 58.8379 -81.1523 55.7129 -84.375 50 -84.375 C 43.9453 -84.375 40.2832 -81.3477 39.0137 -74.9023 L 36.2305 -60.5957 L 29.7852 -60.5957 C 22.5098 -60.5957 18.3105 -56.543 18.3105 -50.0488 C 18.3105 -44.9219 21.8262 -41.6504 27.6855 -41.6504 L 32.5195 -41.6504 L 30.3223 -30.3711 L 23.877 -30.3711 C 16.6504 -30.3711 12.4512 -26.3184 12.4512 -19.8242 C 12.4512 -14.7461 15.918 -11.5723 21.875 -11.5723 Z M 50.1953 -30.3711 L 52.3926 -41.6504 L 64.6973 -41.6504 L 62.4512 -30.3711 Z"/>
  </g>
  <g id="Heavy-M" transform="matrix(1 0 0 1 2579.49 1126)">
   <path d="M 20.5078 -12.3535 L 27.6367 -12.3535 L 24.6094 3.17383 C 24.4141 4.00391 24.3164 5.27344 24.3164 6.05469 C 24.3164 10.4004 27.1484 13.1836 31.9824 13.1836 C 37.207 13.1836 40.3809 10.5469 41.4551 5.07812 L 44.873 -12.3535 L 59.7168 -12.3535 L 56.6895 3.17383 C 56.4941 4.00391 56.3965 5.27344 56.3965 6.05469 C 56.3965 10.4004 59.1797 13.1836 64.0137 13.1836 C 69.2383 13.1836 72.4609 10.5469 73.5352 5.07812 L 76.9531 -12.3535 L 86.0352 -12.3535 C 92.2363 -12.3535 95.8984 -15.8691 95.8984 -21.4355 C 95.8984 -25.8301 92.8223 -28.7109 87.8418 -28.7109 L 80.1758 -28.7109 L 83.0566 -43.4082 L 92.1387 -43.4082 C 98.291 -43.4082 101.953 -47.1191 101.953 -52.6855 C 101.953 -57.1289 98.9746 -59.9121 93.8965 -59.9121 L 86.3281 -59.9121 L 89.0625 -73.9258 C 89.209 -74.7559 89.3555 -75.9766 89.3555 -76.8555 C 89.3555 -81.1523 86.5234 -83.9355 81.6895 -83.9355 C 76.3672 -83.9355 73.3398 -81.25 72.2656 -75.8301 L 69.1406 -59.9121 L 54.2969 -59.9121 L 57.0312 -73.9258 C 57.2266 -74.7559 57.3242 -75.9766 57.3242 -76.8555 C 57.3242 -81.1523 54.541 -83.9355 49.6094 -83.9355 C 44.3848 -83.9355 41.2598 -81.2988 40.1855 -75.8301 L 37.0605 -59.9121 L 28.3203 -59.9121 C 22.1191 -59.9121 18.457 -56.2988 18.457 -50.7324 C 18.457 -46.2891 21.5332 -43.4082 26.5137 -43.4082 L 33.7891 -43.4082 L 30.9082 -28.7109 L 22.2656 -28.7109 C 16.1133 -28.7109 12.4512 -25.1465 12.4512 -19.5801 C 12.4512 -15.1367 15.4297 -12.3535 20.5078 -12.3535 Z M 48.1445 -28.7109 L 51.0254 -43.4082 L 65.8691 -43.4082 L 62.9395 -28.7109 Z"/>
  </g>
  <g id="Bold-M" transform="matrix(1 0 0 1 2283.12 1126)">
   <path d="M 18.9941 -13.2324 L 28.8086 -13.2324 L 25.293 4.54102 C 25.1465 5.27344 25.0488 6.29883 25.0488 6.98242 C 25.0488 10.6445 27.4414 12.9395 31.4453 12.9395 C 35.6445 12.9395 38.3301 10.791 39.209 6.34766 L 43.0664 -13.2324 L 60.791 -13.2324 L 57.2266 4.54102 C 57.0801 5.27344 56.9824 6.29883 56.9824 6.98242 C 56.9824 10.6445 59.375 12.9395 63.3789 12.9395 C 67.627 12.9395 70.2637 10.791 71.1426 6.34766 L 75.0488 -13.2324 L 87.0117 -13.2324 C 91.9922 -13.2324 95.0195 -16.1621 95.0195 -20.752 C 95.0195 -24.4141 92.5293 -26.8555 88.4766 -26.8555 L 77.7344 -26.8555 L 81.4453 -45.4102 L 93.3105 -45.4102 C 98.2422 -45.4102 101.27 -48.4863 101.27 -53.0762 C 101.27 -56.6895 98.8281 -59.1309 94.7266 -59.1309 L 84.1797 -59.1309 L 87.3535 -75.0977 C 87.4512 -75.7324 87.5977 -76.7578 87.5977 -77.5879 C 87.5977 -81.2012 85.1562 -83.4961 81.1523 -83.4961 C 76.7578 -83.4961 74.3164 -81.2012 73.4375 -76.8555 L 69.9219 -59.1309 L 52.2461 -59.1309 L 55.4199 -75.0977 C 55.5176 -75.7324 55.6641 -76.7578 55.6641 -77.5879 C 55.6641 -81.2012 53.2227 -83.4961 49.2188 -83.4961 C 44.8242 -83.4961 42.334 -81.25 41.4551 -76.8555 L 37.9395 -59.1309 L 26.709 -59.1309 C 21.7285 -59.1309 18.7012 -56.1035 18.7012 -51.4648 C 18.7012 -47.8027 21.1914 -45.4102 25.1953 -45.4102 L 35.2051 -45.4102 L 31.543 -26.8555 L 20.4102 -26.8555 C 15.4785 -26.8555 12.4512 -23.8281 12.4512 -19.2383 C 12.4512 -15.5762 14.9414 -13.2324 18.9941 -13.2324 Z M 45.8008 -26.8555 L 49.5117 -45.4102 L 67.1875 -45.4102 L 63.4766 -26.8555 Z"/>
  </g>
  <g id="Semibold-M" transform="matrix(1 0 0 1 1986.63 1126)">
   <path d="M 17.9199 -13.8184 L 29.5898 -13.8184 L 25.7324 5.51758 C 25.5859 6.15234 25.5371 7.03125 25.5371 7.61719 C 25.5371 10.8398 27.6855 12.7441 31.0547 12.7441 C 34.5703 12.7441 36.9141 10.9375 37.6465 7.22656 L 41.8457 -13.8184 L 61.5234 -13.8184 L 57.6172 5.51758 C 57.4707 6.15234 57.4219 7.03125 57.4219 7.61719 C 57.4219 10.8398 59.5215 12.7441 62.8906 12.7441 C 66.4551 12.7441 68.7988 10.9375 69.5312 7.22656 L 73.7305 -13.8184 L 87.6953 -13.8184 C 91.7969 -13.8184 94.4336 -16.4062 94.4336 -20.3125 C 94.4336 -23.3887 92.2852 -25.5859 88.9648 -25.5859 L 76.0742 -25.5859 L 80.3223 -46.7773 L 94.0918 -46.7773 C 98.1934 -46.7773 100.83 -49.4141 100.83 -53.3203 C 100.83 -56.4453 98.6816 -58.5938 95.3125 -58.5938 L 82.666 -58.5938 L 86.1328 -75.9277 C 86.2305 -76.416 86.377 -77.2949 86.377 -78.0762 C 86.377 -81.25 84.1797 -83.2031 80.8105 -83.2031 C 77.002 -83.2031 75 -81.2012 74.2676 -77.5879 L 70.459 -58.5938 L 50.8301 -58.5938 L 54.2969 -75.9277 C 54.3945 -76.416 54.4922 -77.2949 54.4922 -78.0762 C 54.4922 -81.25 52.2949 -83.2031 48.9258 -83.2031 C 45.1172 -83.2031 43.0664 -81.2012 42.3828 -77.5879 L 38.5742 -58.5938 L 25.5371 -58.5938 C 21.4355 -58.5938 18.7988 -55.9082 18.7988 -52.002 C 18.7988 -48.877 20.9473 -46.7773 24.3164 -46.7773 L 36.1816 -46.7773 L 31.9824 -25.5859 L 19.1895 -25.5859 C 15.0879 -25.5859 12.4512 -22.9492 12.4512 -19.043 C 12.4512 -15.8691 14.5508 -13.8184 17.9199 -13.8184 Z M 44.1895 -25.5859 L 48.4375 -46.7773 L 68.1152 -46.7773 L 63.8672 -25.5859 Z"/>
  </g>
  <g id="Medium-M" transform="matrix(1 0 0 1 1690.11 1126)">
   <path d="M 17.1387 -14.3066 L 30.2246 -14.3066 L 26.0742 6.25 C 25.9766 6.78711 25.8789 7.56836 25.8789 8.10547 C 25.8789 10.9863 27.832 12.5977 30.7617 12.5977 C 33.7891 12.5977 35.8398 11.0352 36.4746 7.91016 L 40.918 -14.3066 L 62.0605 -14.3066 L 57.9102 6.25 C 57.8125 6.78711 57.7148 7.56836 57.7148 8.10547 C 57.7148 10.9863 59.668 12.5977 62.5488 12.5977 C 65.625 12.5977 67.6758 11.0352 68.2617 7.91016 L 72.7539 -14.3066 L 88.1836 -14.3066 C 91.6992 -14.3066 93.9941 -16.6016 93.9941 -19.9707 C 93.9941 -22.6562 92.1387 -24.6094 89.3066 -24.6094 L 74.8047 -24.6094 L 79.4922 -47.8027 L 94.6777 -47.8027 C 98.1445 -47.8027 100.439 -50.1465 100.439 -53.5156 C 100.439 -56.2012 98.6328 -58.2031 95.752 -58.2031 L 81.543 -58.2031 L 85.2539 -76.5625 C 85.3516 -76.9531 85.4492 -77.7344 85.4492 -78.418 C 85.4492 -81.25 83.4473 -82.959 80.5176 -82.959 C 77.1484 -82.959 75.5371 -81.1523 74.9023 -78.125 L 70.8984 -58.2031 L 49.7559 -58.2031 L 53.418 -76.5625 C 53.5156 -76.9531 53.6133 -77.7344 53.6133 -78.418 C 53.6133 -81.25 51.6113 -82.959 48.6816 -82.959 C 45.3613 -82.959 43.6523 -81.2012 43.0664 -78.125 L 39.0137 -58.2031 L 24.707 -58.2031 C 21.1914 -58.2031 18.9453 -55.8105 18.9453 -52.3926 C 18.9453 -49.6582 20.752 -47.8027 23.6328 -47.8027 L 36.9629 -47.8027 L 32.2754 -24.6094 L 18.2129 -24.6094 C 14.7461 -24.6094 12.4512 -22.2656 12.4512 -18.8477 C 12.4512 -16.1133 14.3066 -14.3066 17.1387 -14.3066 Z M 42.9688 -24.6094 L 47.6562 -47.8027 L 68.7988 -47.8027 L 64.1602 -24.6094 Z"/>
  </g>
  <g id="Regular-M" transform="matrix(1 0 0 1 1393.62 1126)">
   <path d="M 16.1133 -14.8926 L 31.0059 -14.8926 L 26.5625 7.17773 C 26.4648 7.66602 26.3672 8.25195 26.3672 8.74023 C 26.3672 11.1328 28.0273 12.4512 30.3711 12.4512 C 32.7148 12.4512 34.4238 11.1816 34.9121 8.78906 L 39.6973 -14.8926 L 62.793 -14.8926 L 58.3008 7.17773 C 58.2031 7.66602 58.1543 8.25195 58.1543 8.74023 C 58.1543 11.1328 59.8145 12.4512 62.1094 12.4512 C 64.502 12.4512 66.1621 11.1816 66.6504 8.78906 L 71.4355 -14.8926 L 88.8672 -14.8926 C 91.5039 -14.8926 93.4082 -16.8457 93.4082 -19.4824 C 93.4082 -21.6309 91.8945 -23.3887 89.7461 -23.3887 L 73.1445 -23.3887 L 78.3691 -49.1699 L 95.459 -49.1699 C 98.1445 -49.1699 100 -51.123 100 -53.7598 C 100 -55.9082 98.5352 -57.666 96.3379 -57.666 L 80.0781 -57.666 L 84.082 -77.3438 C 84.1309 -77.6367 84.2285 -78.2715 84.2285 -78.9062 C 84.2285 -81.2988 82.4707 -82.666 80.1758 -82.666 C 77.3926 -82.666 76.1719 -81.1523 75.7324 -78.8574 L 71.4355 -57.666 L 48.3398 -57.666 L 52.2949 -77.3438 C 52.3926 -77.6367 52.4902 -78.2715 52.4902 -78.9062 C 52.4902 -81.2988 50.7324 -82.666 48.3887 -82.666 C 45.6543 -82.666 44.3848 -81.1523 43.9453 -78.8574 L 39.6484 -57.666 L 23.584 -57.666 C 20.9473 -57.666 19.043 -55.6152 19.043 -52.9297 C 19.043 -50.7324 20.5566 -49.1699 22.7051 -49.1699 L 37.9395 -49.1699 L 32.7148 -23.3887 L 16.9922 -23.3887 C 14.3066 -23.3887 12.4512 -21.3379 12.4512 -18.6523 C 12.4512 -16.4551 13.916 -14.8926 16.1133 -14.8926 Z M 41.4062 -23.3887 L 46.6309 -49.1699 L 69.7266 -49.1699 L 64.502 -23.3887 Z"/>
  </g>
  <g id="Light-M" transform="matrix(1 0 0 1 1097.13 1126)">
   <path d="M 15.2832 -15.7715 L 32.0801 -15.7715 L 27.0996 8.59375 C 27.0508 9.0332 26.9531 9.52148 26.9531 9.91211 C 26.9531 11.7676 28.2227 12.793 30.0293 12.793 C 31.8359 12.793 33.1055 11.8652 33.4961 9.96094 L 38.7207 -15.7715 L 63.5742 -15.7715 L 58.5938 8.59375 C 58.4961 9.0332 58.4473 9.52148 58.4473 9.91211 C 58.4473 11.7676 59.7168 12.793 61.5234 12.793 C 63.3301 12.793 64.5996 11.8652 64.9902 9.96094 L 70.2148 -15.7715 L 89.5996 -15.7715 C 91.6504 -15.7715 93.0664 -17.2363 93.0664 -19.2383 C 93.0664 -20.9473 91.8945 -22.2656 90.1855 -22.2656 L 71.5332 -22.2656 L 77.1484 -50.0488 L 96.1426 -50.0488 C 98.1934 -50.0488 99.5605 -51.5137 99.5605 -53.5156 C 99.5605 -55.2246 98.4375 -56.543 96.7285 -56.543 L 78.4668 -56.543 L 82.9102 -78.4668 C 82.959 -78.7109 83.0566 -79.248 83.0566 -79.7852 C 83.0566 -81.5918 81.7871 -82.666 79.9805 -82.666 C 77.8809 -82.666 76.9531 -81.543 76.6113 -79.7852 L 71.875 -56.543 L 46.9727 -56.543 L 51.416 -78.4668 C 51.5137 -78.7109 51.5625 -79.248 51.5625 -79.7852 C 51.5625 -81.5918 50.293 -82.666 48.4863 -82.666 C 46.3867 -82.666 45.4102 -81.543 45.0684 -79.7852 L 40.332 -56.543 L 22.4121 -56.543 C 20.4102 -56.543 18.9941 -55.0293 18.9941 -52.9785 C 18.9941 -51.2207 20.166 -50.0488 21.875 -50.0488 L 39.0137 -50.0488 L 33.3984 -22.2656 L 15.8691 -22.2656 C 13.8672 -22.2656 12.4512 -20.752 12.4512 -18.7012 C 12.4512 -16.9434 13.5742 -15.7715 15.2832 -15.7715 Z M 40.0391 -22.2656 L 45.6543 -50.0488 L 70.5566 -50.0488 L 64.8926 -22.2656 Z"/>
  </g>
  <g id="Thin-M" transform="matrix(1 0 0 1 800.685 1126)">
   <path d="M 14.2578 -16.9922 L 33.4961 -16.9922 L 27.8809 10.4492 C 27.7832 10.8398 27.7344 11.1816 27.7344 11.4258 C 27.7344 12.6465 28.418 13.2812 29.541 13.2812 C 30.6641 13.2812 31.3477 12.6953 31.5918 11.5723 L 37.4023 -16.9922 L 64.6484 -16.9922 L 58.9844 10.4492 C 58.9355 10.8398 58.8867 11.1816 58.8867 11.4258 C 58.8867 12.6465 59.5703 13.2812 60.6934 13.2812 C 61.7676 13.2812 62.5 12.6953 62.7441 11.5723 L 68.5547 -16.9922 L 90.625 -16.9922 C 91.8457 -16.9922 92.627 -17.7734 92.627 -18.9453 C 92.627 -20.0195 91.8945 -20.752 90.8203 -20.752 L 69.3359 -20.752 L 75.5859 -51.2695 L 97.0215 -51.2695 C 98.2422 -51.2695 99.0234 -52.0508 99.0234 -53.2227 C 99.0234 -54.2969 98.3398 -55.0293 97.2168 -55.0293 L 76.3184 -55.0293 L 81.3965 -79.8828 C 81.4941 -80.127 81.543 -80.5664 81.543 -80.9082 C 81.543 -82.0312 80.8105 -82.7148 79.6875 -82.7148 C 78.5156 -82.7148 77.9297 -82.0801 77.7344 -81.0059 L 72.4121 -55.0293 L 45.2148 -55.0293 L 50.2441 -79.8828 C 50.3418 -80.127 50.3906 -80.5664 50.3906 -80.9082 C 50.3906 -82.0312 49.707 -82.7148 48.5352 -82.7148 C 47.3633 -82.7148 46.7773 -82.0801 46.582 -81.0059 L 41.2598 -55.0293 L 20.8984 -55.0293 C 19.6777 -55.0293 18.8965 -54.1992 18.8965 -53.0762 C 18.8965 -51.9531 19.6289 -51.2695 20.7031 -51.2695 L 40.4785 -51.2695 L 34.2285 -20.752 L 14.4531 -20.752 C 13.2324 -20.752 12.4512 -19.9219 12.4512 -18.7988 C 12.4512 -17.6758 13.1348 -16.9922 14.2578 -16.9922 Z M 38.1836 -20.752 L 44.4336 -51.2695 L 71.6309 -51.2695 L 65.3809 -20.752 Z"/>
  </g>
  <g id="Ultralight-M" transform="matrix(1 0 0 1 504.12 1126)">
   <path d="M 13.7207 -17.627 L 34.2285 -17.627 L 28.2715 11.377 C 28.1738 11.7676 28.125 12.0605 28.125 12.2559 C 28.125 13.0859 28.5156 13.4766 29.3457 13.4766 C 30.0293 13.4766 30.4688 13.1348 30.6152 12.3535 L 36.7676 -17.627 L 65.1855 -17.627 L 59.2285 11.377 C 59.1309 11.7676 59.082 12.0605 59.082 12.2559 C 59.082 13.0859 59.5215 13.4766 60.3027 13.4766 C 60.9863 13.4766 61.4258 13.1348 61.5723 12.3535 L 67.7246 -17.627 L 91.1621 -17.627 C 91.9434 -17.627 92.3828 -18.0176 92.3828 -18.7988 C 92.3828 -19.5312 91.8945 -19.9707 91.1133 -19.9707 L 68.2129 -19.9707 L 74.7559 -51.9043 L 97.5098 -51.9043 C 98.291 -51.9043 98.7305 -52.2949 98.7305 -53.0762 C 98.7305 -53.8086 98.291 -54.248 97.4609 -54.248 L 75.2441 -54.248 L 80.6152 -80.6152 C 80.7129 -80.8594 80.7617 -81.25 80.7617 -81.4941 C 80.7617 -82.2754 80.3223 -82.7637 79.541 -82.7637 C 78.8574 -82.7637 78.418 -82.3242 78.3203 -81.6406 L 72.7051 -54.248 L 44.2871 -54.248 L 49.6582 -80.6152 C 49.7559 -80.8594 49.8047 -81.25 49.8047 -81.4941 C 49.8047 -82.2754 49.3652 -82.7637 48.584 -82.7637 C 47.9004 -82.7637 47.4609 -82.3242 47.3633 -81.6406 L 41.748 -54.248 L 20.1172 -54.248 C 19.3359 -54.248 18.8477 -53.8086 18.8477 -53.0762 C 18.8477 -52.2949 19.3359 -51.9043 20.1172 -51.9043 L 41.2598 -51.9043 L 34.7168 -19.9707 L 13.7207 -19.9707 C 12.9395 -19.9707 12.4512 -19.5312 12.4512 -18.7988 C 12.4512 -18.0176 12.9395 -17.627 13.7207 -17.627 Z M 37.2559 -19.9707 L 43.7988 -51.9043 L 72.2168 -51.9043 L 65.6738 -19.9707 Z"/>
  </g>
  <g id="Black-S" transform="matrix(1 0 0 1 2888.36 696)">
   <path d="M 17.041 -16.748 L 20.9473 -16.748 L 18.8477 -6.05469 C 18.7012 -5.32227 18.6035 -4.15039 18.6035 -3.4668 C 18.6035 0.341797 21.0938 2.83203 25.4395 2.83203 C 30.127 2.83203 32.959 0.488281 33.9355 -4.49219 L 36.3281 -16.748 L 46.1426 -16.748 L 44.043 -6.05469 C 43.8965 -5.32227 43.7988 -4.15039 43.7988 -3.4668 C 43.7988 0.341797 46.2402 2.83203 50.5859 2.83203 C 55.3223 2.83203 58.1543 0.488281 59.1309 -4.49219 L 61.5234 -16.748 L 66.7969 -16.748 C 72.4121 -16.748 75.6836 -19.8242 75.6836 -24.8535 C 75.6836 -28.8086 72.9492 -31.2988 68.4082 -31.2988 L 64.3555 -31.2988 L 66.1133 -40.3809 L 71.4844 -40.3809 C 77.0508 -40.3809 80.3223 -43.6523 80.3223 -48.6816 C 80.3223 -52.6367 77.6367 -55.0781 73.0469 -55.0781 L 68.9941 -55.0781 L 70.8984 -64.7949 C 71.0449 -65.5273 71.1426 -66.6504 71.1426 -67.3828 C 71.1426 -71.1914 68.7012 -73.6816 64.3555 -73.6816 C 59.6191 -73.6816 56.8359 -71.2891 55.8594 -66.3574 L 53.6621 -55.0781 L 43.8477 -55.0781 L 45.752 -64.7949 C 45.8984 -65.5273 45.9961 -66.6504 45.9961 -67.3828 C 45.9961 -71.1914 43.5547 -73.6816 39.1602 -73.6816 C 34.4727 -73.6816 31.6406 -71.3379 30.6641 -66.3574 L 28.4668 -55.0781 L 23.2422 -55.0781 C 17.627 -55.0781 14.3555 -51.9043 14.3555 -46.875 C 14.3555 -42.9199 17.0898 -40.3809 21.6309 -40.3809 L 25.5859 -40.3809 L 23.7793 -31.2988 L 18.6035 -31.2988 C 13.0371 -31.2988 9.76562 -28.1738 9.76562 -23.1445 C 9.76562 -19.1895 12.4512 -16.748 17.041 -16.748 Z M 39.209 -31.2988 L 40.9668 -40.3809 L 50.7812 -40.3809 L 48.9746 -31.2988 Z"/>
  </g>
  <g id="Heavy-S" transform="matrix(1 0 0 1 2591.86 696)">
   <path d="M 16.1133 -17.2363 L 21.6309 -17.2363 L 19.2383 -5.27344 C 19.0918 -4.58984 19.043 -3.56445 19.043 -2.97852 C 19.043 0.439453 21.2891 2.63672 25.0977 2.63672 C 29.1504 2.63672 31.6895 0.585938 32.5684 -3.75977 L 35.2051 -17.2363 L 46.7773 -17.2363 L 44.3848 -5.27344 C 44.2871 -4.58984 44.1895 -3.56445 44.1895 -2.97852 C 44.1895 0.439453 46.3867 2.63672 50.1953 2.63672 C 54.3457 2.63672 56.8359 0.585938 57.7148 -3.75977 L 60.3516 -17.2363 L 67.3828 -17.2363 C 72.2168 -17.2363 75.1465 -20.0195 75.1465 -24.4141 C 75.1465 -27.8809 72.7539 -30.1758 68.7988 -30.1758 L 62.8906 -30.1758 L 65.1367 -41.6504 L 72.168 -41.6504 C 77.002 -41.6504 79.8828 -44.5312 79.8828 -48.9746 C 79.8828 -52.4414 77.5391 -54.6875 73.584 -54.6875 L 67.7246 -54.6875 L 69.8242 -65.4785 C 69.9707 -66.1133 70.0684 -67.0898 70.0684 -67.7734 C 70.0684 -71.1914 67.8223 -73.3887 64.0137 -73.3887 C 59.8145 -73.3887 57.4219 -71.2402 56.5918 -66.9434 L 54.1504 -54.6875 L 42.5781 -54.6875 L 44.7266 -65.4785 C 44.873 -66.1133 44.9707 -67.0898 44.9707 -67.7734 C 44.9707 -71.1914 42.7246 -73.3887 38.8672 -73.3887 C 34.7168 -73.3887 32.2754 -71.2402 31.3965 -66.9434 L 29.0039 -54.6875 L 22.2656 -54.6875 C 17.3828 -54.6875 14.502 -51.8066 14.502 -47.4121 C 14.502 -43.8965 16.8945 -41.6504 20.8496 -41.6504 L 26.416 -41.6504 L 24.1699 -30.1758 L 17.4805 -30.1758 C 12.6465 -30.1758 9.76562 -27.3438 9.76562 -22.9492 C 9.76562 -19.4336 12.1094 -17.2363 16.1133 -17.2363 Z M 37.7441 -30.1758 L 40.0391 -41.6504 L 51.5625 -41.6504 L 49.3164 -30.1758 Z"/>
  </g>
  <g id="Bold-S" transform="matrix(1 0 0 1 2295.37 696)">
   <path d="M 15.0391 -17.7734 L 22.3633 -17.7734 L 19.6777 -4.3457 C 19.5801 -3.80859 19.4824 -2.92969 19.4824 -2.39258 C 19.4824 0.585938 21.4844 2.39258 24.707 2.39258 C 28.125 2.39258 30.2734 0.683594 31.0059 -2.92969 L 33.9355 -17.7734 L 47.4609 -17.7734 L 44.7754 -4.3457 C 44.6777 -3.80859 44.6289 -2.92969 44.6289 -2.39258 C 44.6289 0.585938 46.582 2.39258 49.8047 2.39258 C 53.2227 2.39258 55.3711 0.683594 56.1035 -2.92969 L 59.0332 -17.7734 L 68.0176 -17.7734 C 72.0215 -17.7734 74.5117 -20.2148 74.5117 -23.9258 C 74.5117 -26.8555 72.5098 -28.9062 69.2383 -28.9062 L 61.2305 -28.9062 L 64.0625 -43.0176 L 72.998 -43.0176 C 76.9531 -43.0176 79.4434 -45.5566 79.4434 -49.2676 C 79.4434 -52.1973 77.4414 -54.1992 74.1699 -54.1992 L 66.2598 -54.1992 L 68.6523 -66.2598 C 68.75 -66.748 68.8477 -67.5781 68.8477 -68.2129 C 68.8477 -71.1914 66.8457 -73.0469 63.623 -73.0469 C 60.0098 -73.0469 58.1055 -71.1426 57.373 -67.627 L 54.7363 -54.1992 L 41.2109 -54.1992 L 43.6035 -66.2598 C 43.7012 -66.748 43.7988 -67.5781 43.7988 -68.2129 C 43.7988 -71.1914 41.748 -73.0469 38.5254 -73.0469 C 34.9609 -73.0469 32.959 -71.1914 32.2754 -67.627 L 29.5898 -54.1992 L 21.1426 -54.1992 C 17.1387 -54.1992 14.6484 -51.709 14.6484 -47.998 C 14.6484 -45.0195 16.6992 -43.0176 19.9219 -43.0176 L 27.3926 -43.0176 L 24.5605 -28.9062 L 16.2109 -28.9062 C 12.2559 -28.9062 9.76562 -26.416 9.76562 -22.7051 C 9.76562 -19.7266 11.7676 -17.7734 15.0391 -17.7734 Z M 36.1816 -28.9062 L 38.9648 -43.0176 L 52.4902 -43.0176 L 49.6582 -28.9062 Z"/>
  </g>
  <g id="Semibold-S" transform="matrix(1 0 0 1 1998.83 696)">
   <path d="M 14.3066 -18.1641 L 22.9004 -18.1641 L 20.0195 -3.75977 C 19.873 -3.27148 19.8242 -2.53906 19.8242 -2.00195 C 19.8242 0.634766 21.6309 2.24609 24.4141 2.24609 C 27.3926 2.24609 29.3457 0.732422 29.9316 -2.34375 L 33.1055 -18.1641 L 47.9492 -18.1641 L 45.0684 -3.75977 C 44.9707 -3.27148 44.9219 -2.53906 44.9219 -2.00195 C 44.9219 0.634766 46.6797 2.24609 49.5117 2.24609 C 52.4414 2.24609 54.3945 0.732422 54.9805 -2.34375 L 58.1543 -18.1641 L 68.457 -18.1641 C 71.875 -18.1641 74.0723 -20.3613 74.0723 -23.584 C 74.0723 -26.1719 72.3145 -28.0273 69.5801 -28.0273 L 60.1074 -28.0273 L 63.2812 -43.9941 L 73.5352 -43.9941 C 76.9043 -43.9941 79.1016 -46.2402 79.1016 -49.5117 C 79.1016 -52.0508 77.3438 -53.9062 74.6094 -53.9062 L 65.2832 -53.9062 L 67.8711 -66.7969 C 67.9199 -67.1875 68.0176 -67.8711 68.0176 -68.5059 C 68.0176 -71.1426 66.1621 -72.8027 63.3789 -72.8027 C 60.1562 -72.8027 58.5449 -71.0938 57.959 -68.1152 L 55.127 -53.9062 L 40.2344 -53.9062 L 42.7734 -66.7969 C 42.8711 -67.1875 42.9688 -67.8711 42.9688 -68.5059 C 42.9688 -71.1426 41.1133 -72.8027 38.2812 -72.8027 C 35.1074 -72.8027 33.4473 -71.0938 32.8613 -68.1152 L 30.0293 -53.9062 L 20.4102 -53.9062 C 16.9922 -53.9062 14.7949 -51.6602 14.7949 -48.3887 C 14.7949 -45.752 16.5527 -43.9941 19.2871 -43.9941 L 28.0273 -43.9941 L 24.8535 -28.0273 L 15.3809 -28.0273 C 11.9629 -28.0273 9.76562 -25.7812 9.76562 -22.5098 C 9.76562 -19.9219 11.5234 -18.1641 14.3066 -18.1641 Z M 35.0586 -28.0273 L 38.2324 -43.9941 L 53.125 -43.9941 L 49.9512 -28.0273 Z"/>
  </g>
  <g id="Medium-S" transform="matrix(1 0 0 1 1702.24 696)">
   <path d="M 13.7207 -18.457 L 23.291 -18.457 L 20.2637 -3.27148 C 20.1172 -2.83203 20.0684 -2.19727 20.0684 -1.70898 C 20.0684 0.683594 21.7773 2.09961 24.2188 2.09961 C 26.8066 2.09961 28.5645 0.78125 29.1016 -1.9043 L 32.4219 -18.457 L 48.3398 -18.457 L 45.2637 -3.27148 C 45.166 -2.83203 45.1172 -2.19727 45.1172 -1.70898 C 45.1172 0.683594 46.7773 2.09961 49.2676 2.09961 C 51.8555 2.09961 53.6133 0.78125 54.1504 -1.9043 L 57.4707 -18.457 L 68.7988 -18.457 C 71.7773 -18.457 73.7793 -20.459 73.7793 -23.3398 C 73.7793 -25.6348 72.168 -27.3438 69.7754 -27.3438 L 59.2285 -27.3438 L 62.7441 -44.7266 L 73.9258 -44.7266 C 76.9043 -44.7266 78.8574 -46.7773 78.8574 -49.6582 C 78.8574 -51.9531 77.2949 -53.6621 74.9023 -53.6621 L 64.502 -53.6621 L 67.2363 -67.1875 C 67.2852 -67.5293 67.3828 -68.1152 67.3828 -68.75 C 67.3828 -71.1426 65.625 -72.6074 63.1836 -72.6074 C 60.3027 -72.6074 58.8867 -71.0449 58.3496 -68.457 L 55.3711 -53.6621 L 39.502 -53.6621 L 42.1875 -67.1875 C 42.2852 -67.5293 42.3828 -68.1152 42.3828 -68.75 C 42.3828 -71.1426 40.625 -72.6074 38.1348 -72.6074 C 35.2539 -72.6074 33.7891 -71.0449 33.3008 -68.457 L 30.3223 -53.6621 L 19.8242 -53.6621 C 16.8457 -53.6621 14.8438 -51.5625 14.8438 -48.6816 C 14.8438 -46.3379 16.4551 -44.7266 18.8477 -44.7266 L 28.5645 -44.7266 L 25.0488 -27.3438 L 14.6973 -27.3438 C 11.7188 -27.3438 9.76562 -25.293 9.76562 -22.4121 C 9.76562 -20.0684 11.3281 -18.457 13.7207 -18.457 Z M 34.2285 -27.3438 L 37.6953 -44.7266 L 53.6133 -44.7266 L 50.0977 -27.3438 Z"/>
  </g>
  <g id="Regular-S" transform="matrix(1 0 0 1 1405.68 696)">
   <path d="M 12.9883 -18.8477 L 23.7793 -18.8477 L 20.5566 -2.68555 C 20.459 -2.29492 20.4102 -1.75781 20.4102 -1.31836 C 20.4102 0.78125 21.9238 1.95312 23.9746 1.95312 C 26.0742 1.95312 27.6367 0.830078 28.0273 -1.31836 L 31.5918 -18.8477 L 48.8281 -18.8477 L 45.5566 -2.68555 C 45.459 -2.29492 45.4102 -1.75781 45.4102 -1.31836 C 45.4102 0.78125 46.9238 1.95312 48.9746 1.95312 C 51.0742 1.95312 52.6367 0.830078 53.0762 -1.31836 L 56.5918 -18.8477 L 69.2383 -18.8477 C 71.6309 -18.8477 73.3398 -20.6055 73.3398 -22.998 C 73.3398 -24.9512 72.0215 -26.4648 70.0684 -26.4648 L 58.1055 -26.4648 L 62.0117 -45.7031 L 74.4629 -45.7031 C 76.8555 -45.7031 78.5645 -47.4609 78.5645 -49.8535 C 78.5645 -51.8066 77.2461 -53.3203 75.293 -53.3203 L 63.5254 -53.3203 L 66.4062 -67.6758 C 66.4551 -67.9199 66.5527 -68.457 66.5527 -69.043 C 66.5527 -71.1426 64.9902 -72.3633 62.8906 -72.3633 C 60.4492 -72.3633 59.3262 -70.9961 58.9355 -68.9453 L 55.7617 -53.3203 L 38.5254 -53.3203 L 41.4062 -67.6758 C 41.4551 -67.9199 41.5527 -68.457 41.5527 -69.043 C 41.5527 -71.1426 39.9902 -72.3633 37.8906 -72.3633 C 35.4004 -72.3633 34.2773 -70.9961 33.8867 -68.9453 L 30.7129 -53.3203 L 19.043 -53.3203 C 16.6504 -53.3203 14.9902 -51.5137 14.9902 -49.0723 C 14.9902 -47.1191 16.3086 -45.7031 18.2129 -45.7031 L 29.1992 -45.7031 L 25.3418 -26.4648 L 13.8672 -26.4648 C 11.4746 -26.4648 9.76562 -24.6582 9.76562 -22.2168 C 9.76562 -20.2637 11.084 -18.8477 12.9883 -18.8477 Z M 33.1055 -26.4648 L 36.9629 -45.7031 L 54.248 -45.7031 L 50.3418 -26.4648 Z"/>
  </g>
  <g id="Light-S" transform="matrix(1 0 0 1 1109.16 696)">
   <path d="M 12.3047 -19.6289 L 24.7559 -19.6289 L 21.0449 -1.41602 C 20.9473 -1.07422 20.8984 -0.634766 20.8984 -0.292969 C 20.8984 1.36719 22.0703 2.24609 23.6816 2.24609 C 25.293 2.24609 26.4648 1.41602 26.8066 -0.292969 L 30.7129 -19.6289 L 49.5117 -19.6289 L 45.8008 -1.41602 C 45.752 -1.07422 45.7031 -0.634766 45.7031 -0.292969 C 45.7031 1.36719 46.8262 2.24609 48.4375 2.24609 C 50.0488 2.24609 51.2207 1.41602 51.5625 -0.292969 L 55.4688 -19.6289 L 69.9219 -19.6289 C 71.7773 -19.6289 73.0469 -20.9473 73.0469 -22.8027 C 73.0469 -24.3164 72.0215 -25.4883 70.5078 -25.4883 L 56.6895 -25.4883 L 60.9375 -46.4844 L 75.0488 -46.4844 C 76.9043 -46.4844 78.1738 -47.8027 78.1738 -49.6582 C 78.1738 -51.1719 77.1484 -52.3438 75.6348 -52.3438 L 62.1094 -52.3438 L 65.4297 -68.6523 C 65.4785 -68.8965 65.5273 -69.3359 65.5273 -69.7754 C 65.5273 -71.4355 64.3555 -72.4121 62.7441 -72.4121 C 60.8398 -72.4121 60.0098 -71.3379 59.668 -69.7754 L 56.1523 -52.3438 L 37.3535 -52.3438 L 40.625 -68.6523 C 40.6738 -68.8965 40.7715 -69.3359 40.7715 -69.7754 C 40.7715 -71.4355 39.5508 -72.4121 37.9395 -72.4121 C 36.084 -72.4121 35.2051 -71.3379 34.8633 -69.7754 L 31.3477 -52.3438 L 18.0176 -52.3438 C 16.2109 -52.3438 14.9414 -50.9766 14.9414 -49.1211 C 14.9414 -47.5586 15.9668 -46.4844 17.4805 -46.4844 L 30.1758 -46.4844 L 25.9277 -25.4883 L 12.8906 -25.4883 C 11.0352 -25.4883 9.76562 -24.1211 9.76562 -22.2656 C 9.76562 -20.7031 10.791 -19.6289 12.3047 -19.6289 Z M 31.8848 -25.4883 L 36.1328 -46.4844 L 54.9805 -46.4844 L 50.6836 -25.4883 Z"/>
  </g>
  <g id="Thin-S" transform="matrix(1 0 0 1 812.697 696)">
   <path d="M 23.2422 2.68555 C 24.2676 2.68555 24.9023 2.14844 25.1465 1.12305 L 29.5898 -20.7031 L 50.4395 -20.7031 L 46.1426 0.195312 C 46.0938 0.488281 46.0449 0.830078 46.0449 1.02539 C 46.0449 2.09961 46.7285 2.68555 47.7051 2.68555 C 48.7305 2.68555 49.3652 2.14844 49.6094 1.12305 L 54.0527 -20.7031 L 70.8008 -20.7031 C 71.9238 -20.7031 72.6562 -21.4355 72.6562 -22.5586 C 72.6562 -23.4863 72.0215 -24.1699 71.0449 -24.1699 L 54.7363 -24.1699 L 59.5215 -47.5586 L 75.8789 -47.5586 C 76.9531 -47.5586 77.6855 -48.291 77.6855 -49.4141 C 77.6855 -50.3418 77.0508 -51.0254 76.0742 -51.0254 L 60.2051 -51.0254 L 64.0625 -69.9219 C 64.1113 -70.166 64.209 -70.5078 64.209 -70.8008 C 64.209 -71.8262 63.5254 -72.4121 62.5 -72.4121 C 61.4258 -72.4121 60.8887 -71.8262 60.6934 -70.8496 L 56.6406 -51.0254 L 35.7422 -51.0254 L 39.5996 -69.9219 C 39.6484 -70.166 39.7461 -70.5078 39.7461 -70.8008 C 39.7461 -71.8262 39.0625 -72.4121 38.0371 -72.4121 C 36.9629 -72.4121 36.377 -71.8262 36.2305 -70.8496 L 32.1777 -51.0254 L 16.6992 -51.0254 C 15.5762 -51.0254 14.8438 -50.2441 14.8438 -49.1699 C 14.8438 -48.1934 15.4785 -47.5586 16.4551 -47.5586 L 31.4453 -47.5586 L 26.6602 -24.1699 L 11.6211 -24.1699 C 10.498 -24.1699 9.76562 -23.3887 9.76562 -22.3145 C 9.76562 -21.3379 10.4004 -20.7031 11.377 -20.7031 L 25.9766 -20.7031 L 21.6797 0.195312 C 21.6309 0.488281 21.582 0.830078 21.582 1.02539 C 21.582 2.09961 22.2168 2.68555 23.2422 2.68555 Z M 30.2734 -24.1699 L 35.0586 -47.5586 L 55.957 -47.5586 L 51.1719 -24.1699 Z"/>
  </g>
  <g id="Ultralight-S" transform="matrix(1 0 0 1 516.108 696)">
   <path d="M 23.0469 2.88086 C 23.7305 2.88086 24.1211 2.53906 24.2676 1.85547 L 29.0039 -21.2402 L 50.9277 -21.2402 L 46.3379 1.02539 C 46.2891 1.31836 46.2402 1.5625 46.2402 1.75781 C 46.2402 2.49023 46.6309 2.88086 47.3633 2.88086 C 47.998 2.88086 48.3887 2.53906 48.584 1.85547 L 53.3203 -21.2402 L 71.2891 -21.2402 C 72.0215 -21.2402 72.4609 -21.6797 72.4609 -22.4121 C 72.4609 -23.0469 72.0215 -23.4863 71.3379 -23.4863 L 53.7598 -23.4863 L 58.7891 -48.0957 L 76.2695 -48.0957 C 77.002 -48.0957 77.4414 -48.5352 77.4414 -49.2676 C 77.4414 -49.9023 77.002 -50.3418 76.3184 -50.3418 L 59.2285 -50.3418 L 63.3789 -70.6055 C 63.4277 -70.8008 63.4766 -71.0938 63.4766 -71.3379 C 63.4766 -72.0215 63.0859 -72.4609 62.4023 -72.4609 C 61.7188 -72.4609 61.3281 -72.0703 61.2305 -71.3867 L 56.8848 -50.3418 L 34.9609 -50.3418 L 39.0625 -70.6055 C 39.1113 -70.8008 39.209 -71.0938 39.209 -71.3379 C 39.209 -72.0215 38.7695 -72.4609 38.0859 -72.4609 C 37.4023 -72.4609 37.0117 -72.0703 36.9141 -71.3867 L 32.5684 -50.3418 L 15.9668 -50.3418 C 15.2344 -50.3418 14.7949 -49.9023 14.7949 -49.2188 C 14.7949 -48.5352 15.2344 -48.0957 15.918 -48.0957 L 32.1289 -48.0957 L 27.0508 -23.4863 L 10.9375 -23.4863 C 10.2051 -23.4863 9.76562 -23.0469 9.76562 -22.3633 C 9.76562 -21.6797 10.2051 -21.2402 10.8887 -21.2402 L 26.6113 -21.2402 L 22.0215 1.02539 C 21.9727 1.31836 21.9238 1.5625 21.9238 1.75781 C 21.9238 2.49023 22.3633 2.88086 23.0469 2.88086 Z M 29.4434 -23.4863 L 34.4727 -48.0957 L 56.4453 -48.0957 L 51.3672 -23.4863 Z"/>
  </g>
 </g>
</svg>
