<?xml version="1.0" encoding="UTF-8"?>
<!--Generator: Apple Native CoreSVG 149-->
<!DOCTYPE svg
PUBLIC "-//W3C//DTD SVG 1.1//EN"
       "http://www.w3.org/Graphics/SVG/1.1/DTD/svg11.dtd">
<svg version="1.1" xmlns="http://www.w3.org/2000/svg" xmlns:xlink="http://www.w3.org/1999/xlink" width="3300" height="2200">
 <!--glyph: "uni1003CC.medium", point size: 100.000000, font version: "Version 16.0d12e3", template writer version: "8"-->
 <g id="Notes">
  <rect height="2200" id="artboard" style="fill:white;opacity:1" width="3300" x="0" y="0"/>
  <line id="" style="fill:none;stroke:black;opacity:1;stroke-width:0.5;" x1="263" x2="3036" y1="292" y2="292"/>
  <text style="stroke:none;fill:black;font-family:-apple-system,&quot;SF Pro Display&quot;,&quot;SF Pro Text&quot;,Helvetica,sans-serif;font-weight:bold;" transform="matrix(1 0 0 1 263 322)">Weight/Scale Variations</text>
  <text style="stroke:none;fill:black;font-family:-apple-system,&quot;SF Pro Display&quot;,&quot;SF Pro Text&quot;,Helvetica,sans-serif;text-anchor:middle;" transform="matrix(1 0 0 1 559.711 322)">Ultralight</text>
  <text style="stroke:none;fill:black;font-family:-apple-system,&quot;SF Pro Display&quot;,&quot;SF Pro Text&quot;,Helvetica,sans-serif;text-anchor:middle;" transform="matrix(1 0 0 1 856.422 322)">Thin</text>
  <text style="stroke:none;fill:black;font-family:-apple-system,&quot;SF Pro Display&quot;,&quot;SF Pro Text&quot;,Helvetica,sans-serif;text-anchor:middle;" transform="matrix(1 0 0 1 1153.13 322)">Light</text>
  <text style="stroke:none;fill:black;font-family:-apple-system,&quot;SF Pro Display&quot;,&quot;SF Pro Text&quot;,Helvetica,sans-serif;text-anchor:middle;" transform="matrix(1 0 0 1 1449.84 322)">Regular</text>
  <text style="stroke:none;fill:black;font-family:-apple-system,&quot;SF Pro Display&quot;,&quot;SF Pro Text&quot;,Helvetica,sans-serif;text-anchor:middle;" transform="matrix(1 0 0 1 1746.56 322)">Medium</text>
  <text style="stroke:none;fill:black;font-family:-apple-system,&quot;SF Pro Display&quot;,&quot;SF Pro Text&quot;,Helvetica,sans-serif;text-anchor:middle;" transform="matrix(1 0 0 1 2043.27 322)">Semibold</text>
  <text style="stroke:none;fill:black;font-family:-apple-system,&quot;SF Pro Display&quot;,&quot;SF Pro Text&quot;,Helvetica,sans-serif;text-anchor:middle;" transform="matrix(1 0 0 1 2339.98 322)">Bold</text>
  <text style="stroke:none;fill:black;font-family:-apple-system,&quot;SF Pro Display&quot;,&quot;SF Pro Text&quot;,Helvetica,sans-serif;text-anchor:middle;" transform="matrix(1 0 0 1 2636.69 322)">Heavy</text>
  <text style="stroke:none;fill:black;font-family:-apple-system,&quot;SF Pro Display&quot;,&quot;SF Pro Text&quot;,Helvetica,sans-serif;text-anchor:middle;" transform="matrix(1 0 0 1 2933.4 322)">Black</text>
  <line id="" style="fill:none;stroke:black;opacity:1;stroke-width:0.5;" x1="263" x2="3036" y1="1903" y2="1903"/>
  <g id="" transform="matrix(1 0 0 1 263 1933)">
   <path d="M9.24805 0.830078C13.5547 0.830078 17.1387-2.74414 17.1387-7.05078C17.1387-11.3574 13.5449-14.9316 9.23828-14.9316C4.94141-14.9316 1.36719-11.3574 1.36719-7.05078C1.36719-2.74414 4.95117 0.830078 9.24805 0.830078ZM9.24805-0.654297C5.70312-0.654297 2.87109-3.49609 2.87109-7.05078C2.87109-10.6055 5.69336-13.4473 9.23828-13.4473C12.793-13.4473 15.6348-10.6055 15.6445-7.05078C15.6543-3.49609 12.8027-0.654297 9.24805-0.654297ZM9.22852-3.62305C9.69727-3.62305 9.9707-3.93555 9.9707-4.45312L9.9707-6.31836L12.002-6.31836C12.5-6.31836 12.832-6.57227 12.832-7.04102C12.832-7.51953 12.5195-7.7832 12.002-7.7832L9.9707-7.7832L9.9707-9.81445C9.9707-10.332 9.69727-10.6543 9.22852-10.6543C8.75977-10.6543 8.50586-10.3125 8.50586-9.81445L8.50586-7.7832L6.49414-7.7832C5.97656-7.7832 5.64453-7.51953 5.64453-7.04102C5.64453-6.57227 5.99609-6.31836 6.49414-6.31836L8.50586-6.31836L8.50586-4.45312C8.50586-3.95508 8.75977-3.62305 9.22852-3.62305Z"/>
  </g>
  <g id="" transform="matrix(1 0 0 1 281.506 1933)">
   <path d="M11.709 2.91016C17.1582 2.91016 21.6699-1.61133 21.6699-7.05078C21.6699-12.5 17.1484-17.0117 11.6992-17.0117C6.25977-17.0117 1.74805-12.5 1.74805-7.05078C1.74805-1.61133 6.26953 2.91016 11.709 2.91016ZM11.709 1.25C7.09961 1.25 3.41797-2.44141 3.41797-7.05078C3.41797-11.6602 7.08984-15.3516 11.6992-15.3516C16.3086-15.3516 20-11.6602 20.0098-7.05078C20.0195-2.44141 16.3184 1.25 11.709 1.25ZM11.6797-2.66602C12.207-2.66602 12.5098-3.01758 12.5098-3.59375L12.5098-6.23047L15.3223-6.23047C15.8691-6.23047 16.25-6.51367 16.25-7.03125C16.25-7.55859 15.8887-7.86133 15.3223-7.86133L12.5098-7.86133L12.5098-10.6836C12.5098-11.25 12.207-11.6113 11.6797-11.6113C11.1621-11.6113 10.8789-11.2305 10.8789-10.6836L10.8789-7.86133L8.07617-7.86133C7.50977-7.86133 7.13867-7.55859 7.13867-7.03125C7.13867-6.51367 7.5293-6.23047 8.07617-6.23047L10.8789-6.23047L10.8789-3.59375C10.8789-3.03711 11.1621-2.66602 11.6797-2.66602Z"/>
  </g>
  <g id="" transform="matrix(1 0 0 1 304.924 1933)">
   <path d="M14.9707 5.66406C21.9336 5.66406 27.6953-0.0976562 27.6953-7.05078C27.6953-14.0137 21.9238-19.7754 14.9609-19.7754C8.00781-19.7754 2.25586-14.0137 2.25586-7.05078C2.25586-0.0976562 8.01758 5.66406 14.9707 5.66406ZM14.9707 3.84766C8.93555 3.84766 4.08203-1.01562 4.08203-7.05078C4.08203-13.0957 8.92578-17.9492 14.9609-17.9492C21.0059-17.9492 25.8594-13.0957 25.8691-7.05078C25.8789-1.01562 21.0156 3.84766 14.9707 3.84766ZM14.9414-1.38672C15.5176-1.38672 15.8594-1.77734 15.8594-2.38281L15.8594-6.13281L19.7754-6.13281C20.3711-6.13281 20.7812-6.46484 20.7812-7.02148C20.7812-7.59766 20.3906-7.93945 19.7754-7.93945L15.8594-7.93945L15.8594-11.8652C15.8594-12.4805 15.5176-12.8711 14.9414-12.8711C14.375-12.8711 14.0527-12.4609 14.0527-11.8652L14.0527-7.93945L10.1465-7.93945C9.53125-7.93945 9.13086-7.59766 9.13086-7.02148C9.13086-6.46484 9.55078-6.13281 10.1465-6.13281L14.0527-6.13281L14.0527-2.38281C14.0527-1.79688 14.375-1.38672 14.9414-1.38672Z"/>
  </g>
  <text style="stroke:none;fill:black;font-family:-apple-system,&quot;SF Pro Display&quot;,&quot;SF Pro Text&quot;,Helvetica,sans-serif;font-weight:bold;" transform="matrix(1 0 0 1 263 1953)">Design Variations</text>
  <text style="stroke:none;fill:black;font-family:-apple-system,&quot;SF Pro Display&quot;,&quot;SF Pro Text&quot;,Helvetica,sans-serif;" transform="matrix(1 0 0 1 263 1971)">Symbols are supported in up to nine weights and three scales.</text>
  <text style="stroke:none;fill:black;font-family:-apple-system,&quot;SF Pro Display&quot;,&quot;SF Pro Text&quot;,Helvetica,sans-serif;" transform="matrix(1 0 0 1 263 1989)">For optimal layout with text and other symbols, vertically align</text>
  <text style="stroke:none;fill:black;font-family:-apple-system,&quot;SF Pro Display&quot;,&quot;SF Pro Text&quot;,Helvetica,sans-serif;" transform="matrix(1 0 0 1 263 2007)">symbols with the adjacent text.</text>
  <line id="" style="fill:none;stroke:#00AEEF;stroke-width:0.5;opacity:1.0;" x1="776" x2="776" y1="1919" y2="1933"/>
  <g id="" transform="matrix(1 0 0 1 776 1933)">
   <path d="M3.31055 0.126953C3.82812 0.126953 4.08203-0.0683594 4.26758-0.605469L5.52734-4.0625L11.2891-4.0625L12.5488-0.605469C12.7344-0.0683594 12.9883 0.126953 13.4961 0.126953C14.0137 0.126953 14.3457-0.185547 14.3457-0.673828C14.3457-0.839844 14.3164-0.986328 14.2383-1.20117L9.6582-13.3887C9.43359-13.9941 9.0332-14.2871 8.4082-14.2871C7.80273-14.2871 7.39258-13.9941 7.17773-13.3984L2.59766-1.19141C2.51953-0.976562 2.49023-0.830078 2.49023-0.664062C2.49023-0.175781 2.80273 0.126953 3.31055 0.126953ZM6.00586-5.53711L8.37891-12.1094L8.42773-12.1094L10.8008-5.53711Z"/>
  </g>
  <line id="" style="fill:none;stroke:#00AEEF;stroke-width:0.5;opacity:1.0;" x1="792.836" x2="792.836" y1="1919" y2="1933"/>
  <text style="stroke:none;fill:black;font-family:-apple-system,&quot;SF Pro Display&quot;,&quot;SF Pro Text&quot;,Helvetica,sans-serif;font-weight:bold;" transform="matrix(1 0 0 1 776 1953)">Margins</text>
  <text style="stroke:none;fill:black;font-family:-apple-system,&quot;SF Pro Display&quot;,&quot;SF Pro Text&quot;,Helvetica,sans-serif;" transform="matrix(1 0 0 1 776 1971)">Leading and trailing margins on the left and right side of each symbol</text>
  <text style="stroke:none;fill:black;font-family:-apple-system,&quot;SF Pro Display&quot;,&quot;SF Pro Text&quot;,Helvetica,sans-serif;" transform="matrix(1 0 0 1 776 1989)">can be adjusted by modifying the x-location of the margin guidelines.</text>
  <text style="stroke:none;fill:black;font-family:-apple-system,&quot;SF Pro Display&quot;,&quot;SF Pro Text&quot;,Helvetica,sans-serif;" transform="matrix(1 0 0 1 776 2007)">Modifications are automatically applied proportionally to all</text>
  <text style="stroke:none;fill:black;font-family:-apple-system,&quot;SF Pro Display&quot;,&quot;SF Pro Text&quot;,Helvetica,sans-serif;" transform="matrix(1 0 0 1 776 2025)">scales and weights.</text>
  <g id="" transform="matrix(1 0 0 1 1289 1933)">
   <path d="M2.8418 1.86523L4.54102 3.57422C5.40039 4.44336 6.38672 4.38477 7.31445 3.35938L17.4902-7.85156C17.7539-7.76367 18.0273-7.7832 18.3398-7.8418L19.4043-8.03711L20.0684-7.36328L20.0293-6.80664C19.9902-6.30859 20.1172-5.92773 20.6055-5.44922L21.3672-4.70703C21.8457-4.22852 22.4609-4.19922 22.9297-4.66797L25.8398-7.58789C26.3086-8.05664 26.2891-8.65234 25.8105-9.13086L25.0391-9.89258C24.5605-10.3711 24.1895-10.5273 23.7109-10.4883L23.1348-10.4395L22.4902-11.0742L22.7344-12.1973C22.8613-12.7637 22.7051-13.2031 22.1191-13.7891L19.9219-15.9766C16.582-19.2969 12.1484-19.2188 9.25781-16.3281C8.83789-15.918 8.80859-15.3418 9.04297-14.9512C9.27734-14.5898 9.73633-14.3555 10.3809-14.5215C11.8457-14.8633 13.3691-14.9219 14.7949-13.9844L14.209-12.5293C14.0137-12.0508 13.9844-11.6504 14.1113-11.2891L3.04688-0.898438C2.06055 0.0195312 1.98242 0.996094 2.8418 1.86523ZM10.752-15.957C13.1836-17.7344 16.4746-17.4316 18.7012-15.2051L21.1328-12.793C21.3672-12.5586 21.4062-12.373 21.3379-12.0312L21.0156-10.5469L22.5195-9.0625L23.5059-9.12109C23.7598-9.13086 23.8379-9.11133 24.0332-8.91602L24.6094-8.33984L22.168-5.89844L21.5918-6.47461C21.3965-6.66992 21.3672-6.74805 21.377-7.01172L21.4453-7.98828L19.9512-9.47266L18.4277-9.21875C18.1055-9.15039 17.959-9.17969 17.7148-9.41406L15.7129-11.416C15.459-11.6504 15.4297-11.8164 15.5859-12.1875L16.4648-14.2773C14.9023-15.7324 12.8711-16.3574 10.8398-15.7617C10.6836-15.7227 10.625-15.8496 10.752-15.957ZM5.27344 2.30469L4.10156 1.14258C3.63281 0.683594 3.74023 0.341797 4.14062-0.0195312L14.9512-10.1953L16.416-8.71094L6.42578 2.27539C6.07422 2.67578 5.74219 2.77344 5.27344 2.30469Z"/>
  </g>
  <text style="stroke:none;fill:black;font-family:-apple-system,&quot;SF Pro Display&quot;,&quot;SF Pro Text&quot;,Helvetica,sans-serif;font-weight:bold;" transform="matrix(1 0 0 1 1289 1953)">Exporting</text>
  <text style="stroke:none;fill:black;font-family:-apple-system,&quot;SF Pro Display&quot;,&quot;SF Pro Text&quot;,Helvetica,sans-serif;" transform="matrix(1 0 0 1 1289 1971)">Symbols should be outlined when exporting to ensure the</text>
  <text style="stroke:none;fill:black;font-family:-apple-system,&quot;SF Pro Display&quot;,&quot;SF Pro Text&quot;,Helvetica,sans-serif;" transform="matrix(1 0 0 1 1289 1989)">design is preserved when submitting to Xcode.</text>
  <text id="template-version" style="stroke:none;fill:black;font-family:-apple-system,&quot;SF Pro Display&quot;,&quot;SF Pro Text&quot;,Helvetica,sans-serif;text-anchor:end;" transform="matrix(1 0 0 1 3036 1933)">Template v.2.0</text>
  <text style="stroke:none;fill:black;font-family:-apple-system,&quot;SF Pro Display&quot;,&quot;SF Pro Text&quot;,Helvetica,sans-serif;text-anchor:end;" transform="matrix(1 0 0 1 3036 1951)">Requires Xcode 12 or greater</text>
  <text style="stroke:none;fill:black;font-family:-apple-system,&quot;SF Pro Display&quot;,&quot;SF Pro Text&quot;,Helvetica,sans-serif;text-anchor:end;" transform="matrix(1 0 0 1 3036 1969)">Generated from checkmark.rectangle.fill</text>
  <text style="stroke:none;fill:black;font-family:-apple-system,&quot;SF Pro Display&quot;,&quot;SF Pro Text&quot;,Helvetica,sans-serif;text-anchor:end;" transform="matrix(1 0 0 1 3036 1987)">Typeset at 100 points</text>
  <text style="stroke:none;fill:black;font-family:-apple-system,&quot;SF Pro Display&quot;,&quot;SF Pro Text&quot;,Helvetica,sans-serif;" transform="matrix(1 0 0 1 263 726)">Small</text>
  <text style="stroke:none;fill:black;font-family:-apple-system,&quot;SF Pro Display&quot;,&quot;SF Pro Text&quot;,Helvetica,sans-serif;" transform="matrix(1 0 0 1 263 1156)">Medium</text>
  <text style="stroke:none;fill:black;font-family:-apple-system,&quot;SF Pro Display&quot;,&quot;SF Pro Text&quot;,Helvetica,sans-serif;" transform="matrix(1 0 0 1 263 1586)">Large</text>
 </g>
 <g id="Guides">
  <g id="H-reference" style="fill:#27AAE1;stroke:none;" transform="matrix(1 0 0 1 339 696)">
   <path d="M0.976562 0L3.66211 0L12.9883-24.4629L45.752-24.4629L55.127 0L57.7637 0L30.6152-70.459L28.125-70.459ZM29.3457-67.1387L29.4434-67.1387L44.873-26.709L13.8672-26.709Z"/>
  </g>
  <line id="Baseline-S" style="fill:none;stroke:#27AAE1;opacity:1;stroke-width:0.5;" x1="263" x2="3036" y1="696" y2="696"/>
  <line id="Capline-S" style="fill:none;stroke:#27AAE1;opacity:1;stroke-width:0.5;" x1="263" x2="3036" y1="625.541" y2="625.541"/>
  <g id="H-reference" style="fill:#27AAE1;stroke:none;" transform="matrix(1 0 0 1 339 1126)">
   <path d="M0.976562 0L3.66211 0L12.9883-24.4629L45.752-24.4629L55.127 0L57.7637 0L30.6152-70.459L28.125-70.459ZM29.3457-67.1387L29.4434-67.1387L44.873-26.709L13.8672-26.709Z"/>
  </g>
  <line id="Baseline-M" style="fill:none;stroke:#27AAE1;opacity:1;stroke-width:0.5;" x1="263" x2="3036" y1="1126" y2="1126"/>
  <line id="Capline-M" style="fill:none;stroke:#27AAE1;opacity:1;stroke-width:0.5;" x1="263" x2="3036" y1="1055.54" y2="1055.54"/>
  <g id="H-reference" style="fill:#27AAE1;stroke:none;" transform="matrix(1 0 0 1 339 1556)">
   <path d="M0.976562 0L3.66211 0L12.9883-24.4629L45.752-24.4629L55.127 0L57.7637 0L30.6152-70.459L28.125-70.459ZM29.3457-67.1387L29.4434-67.1387L44.873-26.709L13.8672-26.709Z"/>
  </g>
  <line id="Baseline-L" style="fill:none;stroke:#27AAE1;opacity:1;stroke-width:0.5;" x1="263" x2="3036" y1="1556" y2="1556"/>
  <line id="Capline-L" style="fill:none;stroke:#27AAE1;opacity:1;stroke-width:0.5;" x1="263" x2="3036" y1="1485.54" y2="1485.54"/>
  <line id="left-margin" style="fill:none;stroke:#00AEEF;stroke-width:0.5;opacity:1.0;" x1="1379.82" x2="1379.82" y1="1030.79" y2="1150.12"/>
  <line id="right-margin" style="fill:none;stroke:#00AEEF;stroke-width:0.5;opacity:1.0;" x1="1519.86" x2="1519.86" y1="1030.79" y2="1150.12"/>
 </g>
 <g id="Symbols">
  <g id="Black-L" transform="matrix(1 0 0 1 2841.51 1556)">
   <path d="M39.9902 26.5137L143.799 26.5137C159.082 26.5137 167.725 17.8711 167.725 2.68555L167.725-73.0957C167.725-88.2812 159.082-96.875 143.799-96.875L39.9902-96.875C24.7559-96.875 16.0645-88.2812 16.0645-73.0957L16.0645 2.68555C16.0645 17.8711 24.7559 26.5137 39.9902 26.5137ZM85.0098-2.97852C81.7383-2.97852 79.1016-4.54102 76.8555-7.22656L62.8906-23.6328C61.1328-25.7324 60.498-27.4902 60.498-29.6387C60.498-34.2773 64.3066-37.8906 68.8477-37.8906C71.4844-37.8906 73.4375-36.8164 75.293-34.668L84.9121-23.2422L107.715-59.3262C109.717-62.5 112.061-64.0625 115.039-64.0625C119.58-64.0625 123.633-60.7422 123.633-56.1523C123.633-54.3945 122.998-52.4414 121.68-50.5859L92.9199-7.37305C91.0156-4.63867 88.1348-2.97852 85.0098-2.97852Z"/>
  </g>
  <g id="Heavy-L" transform="matrix(1 0 0 1 2545.23 1556)">
   <path d="M38.8184 25.4883L144.092 25.4883C158.74 25.4883 166.846 17.4316 166.846 2.88086L166.846-73.2422C166.846-87.793 158.74-95.8496 144.092-95.8496L38.8184-95.8496C24.2188-95.8496 16.0645-87.793 16.0645-73.2422L16.0645 2.88086C16.0645 17.4316 24.2188 25.4883 38.8184 25.4883ZM84.5703-3.36914C81.5918-3.36914 79.248-4.73633 77.1973-7.17773L62.6465-24.5117C61.084-26.3672 60.498-27.9785 60.498-29.9316C60.498-33.9844 63.8184-37.2559 67.8711-37.2559C70.2637-37.2559 72.0703-36.2793 73.7793-34.2773L84.4238-21.3867L108.496-59.5703C110.254-62.3535 112.402-63.7695 115.039-63.7695C119.043-63.7695 122.656-60.8398 122.656-56.7383C122.656-55.127 122.021-53.3203 120.85-51.6602L91.6504-7.32422C89.9414-4.83398 87.4023-3.36914 84.5703-3.36914Z"/>
  </g>
  <g id="Bold-L" transform="matrix(1 0 0 1 2249.01 1556)">
   <path d="M37.5 24.3652L144.385 24.3652C158.35 24.3652 165.869 16.8945 165.869 3.07617L165.869-73.3887C165.869-87.207 158.35-94.7266 144.385-94.7266L37.5-94.7266C23.6328-94.7266 16.0645-87.2559 16.0645-73.3887L16.0645 3.07617C16.0645 16.8945 23.6328 24.3652 37.5 24.3652ZM84.0332-3.75977C81.4941-3.75977 79.4434-4.93164 77.6367-7.17773L62.3047-25.4395C61.0352-27.0508 60.4492-28.5156 60.4492-30.2246C60.4492-33.7402 63.2812-36.5234 66.7969-36.5234C68.8965-36.5234 70.459-35.7422 72.0703-33.7891L83.8867-19.2871L109.424-59.8145C110.889-62.1582 112.793-63.3789 114.99-63.3789C118.408-63.3789 121.533-60.8887 121.533-57.373C121.533-55.9082 120.898-54.2969 119.922-52.832L90.2344-7.27539C88.7207-5.0293 86.5234-3.75977 84.0332-3.75977Z"/>
  </g>
  <g id="Semibold-L" transform="matrix(1 0 0 1 1952.64 1556)">
   <path d="M36.6211 23.584L144.629 23.584C158.057 23.584 165.186 16.5039 165.186 3.17383L165.186-73.5352C165.186-86.8164 158.057-93.9453 144.629-93.9453L36.6211-93.9453C23.1934-93.9453 16.0645-86.8652 16.0645-73.5352L16.0645 3.17383C16.0645 16.5527 23.1934 23.584 36.6211 23.584ZM83.6914-4.05273C81.3965-4.05273 79.5898-5.0293 77.8809-7.17773L62.1094-26.123C60.9863-27.4902 60.4492-28.9062 60.4492-30.4199C60.4492-33.5449 62.9395-36.0352 66.0645-36.0352C67.9199-36.0352 69.3848-35.3516 70.8496-33.4961L83.4961-17.8711L110.01-59.9609C111.328-62.0605 113.037-63.1348 114.99-63.1348C118.018-63.1348 120.801-60.9863 120.801-57.8125C120.801-56.4453 120.166-54.9805 119.287-53.6621L89.2578-7.22656C87.8906-5.17578 85.9375-4.05273 83.6914-4.05273Z"/>
  </g>
  <g id="Medium-L" transform="matrix(1 0 0 1 1656.2 1556)">
   <path d="M35.9375 22.998L144.775 22.998C157.861 22.998 164.648 16.2109 164.648 3.27148L164.648-73.6328C164.648-86.5234 157.861-93.3105 144.775-93.3105L35.9375-93.3105C22.9004-93.3105 16.0645-86.5723 16.0645-73.6328L16.0645 3.27148C16.0645 16.2598 22.9004 22.998 35.9375 22.998ZM83.4473-4.24805C81.2988-4.24805 79.6875-5.17578 78.0762-7.12891L61.9629-26.6113C60.9375-27.832 60.4492-29.1504 60.4492-30.5664C60.4492-33.3984 62.6953-35.6934 65.4785-35.6934C67.2363-35.6934 68.6035-35.0586 69.9707-33.252L83.252-16.7969L110.498-60.1074C111.67-61.9629 113.232-62.9883 114.941-62.9883C117.676-62.9883 120.215-61.0352 120.215-58.1543C120.215-56.8848 119.58-55.5176 118.799-54.2969L88.5254-7.17773C87.2559-5.27344 85.498-4.24805 83.4473-4.24805Z"/>
  </g>
  <g id="Regular-L" transform="matrix(1 0 0 1 1359.81 1556)">
   <path d="M35.0586 22.2168L144.971 22.2168C157.617 22.2168 164.014 15.8691 164.014 3.41797L164.014-73.7305C164.014-86.1816 157.617-92.5293 144.971-92.5293L35.0586-92.5293C22.4609-92.5293 16.0645-86.2305 16.0645-73.7305L16.0645 3.41797C16.0645 15.918 22.4609 22.2168 35.0586 22.2168ZM83.1055-4.54102C81.25-4.54102 79.7852-5.27344 78.3691-7.12891L61.7188-27.2461C60.9375-28.3203 60.4492-29.541 60.4492-30.7617C60.4492-33.2031 62.3047-35.2051 64.7461-35.2051C66.3086-35.2051 67.5293-34.668 68.7988-32.9102L82.8613-15.3809L111.084-60.2539C112.109-61.8652 113.477-62.7441 114.941-62.7441C117.285-62.7441 119.482-61.084 119.482-58.5938C119.482-57.4219 118.799-56.1523 118.164-55.0781L87.5488-7.12891C86.4258-5.41992 84.9121-4.54102 83.1055-4.54102Z"/>
  </g>
  <g id="Light-L" transform="matrix(1 0 0 1 1063.56 1556)">
   <path d="M34.0332 21.4355L145.117 21.4355C157.031 21.4355 163.086 15.2344 163.086 3.56445L163.086-73.8281C163.086-85.5469 157.031-91.6992 145.117-91.6992L34.0332-91.6992C22.168-91.6992 16.0645-85.6445 16.0645-73.8281L16.0645 3.56445C16.0645 15.3809 22.168 21.4355 34.0332 21.4355ZM82.7637-4.78516C81.3477-4.78516 80.2734-5.32227 79.1992-6.68945L61.4258-27.7832C60.791-28.6133 60.4004-29.5898 60.4004-30.5176C60.4004-32.4219 61.8652-33.8867 63.7207-33.8867C64.8926-33.8867 65.8691-33.4473 66.7969-32.2266L82.5684-13.1836L112.598-60.4004C113.379-61.5723 114.453-62.2559 115.576-62.2559C117.334-62.2559 118.994-60.9375 118.994-59.082C118.994-58.2031 118.555-57.2266 118.066-56.4453L86.1816-6.68945C85.2539-5.46875 84.1309-4.78516 82.7637-4.78516Z"/>
  </g>
  <g id="Thin-L" transform="matrix(1 0 0 1 767.433 1556)">
   <path d="M32.666 20.3613L145.312 20.3613C156.201 20.3613 161.914 14.4531 161.914 3.75977L161.914-73.9746C161.914-84.7168 156.201-90.5762 145.312-90.5762L32.666-90.5762C21.7773-90.5762 16.0645-84.8633 16.0645-73.9746L16.0645 3.75977C16.0645 14.6484 21.7773 20.3613 32.666 20.3613ZM82.3242-5.12695C81.4453-5.12695 80.9082-5.41992 80.3223-6.15234L60.9863-28.4668C60.5957-29.0527 60.3516-29.6387 60.3516-30.2246C60.3516-31.3477 61.2793-32.1777 62.3047-32.1777C63.0859-32.1777 63.623-31.8848 64.1602-31.25L82.2266-10.3027L114.551-60.5469C115.039-61.1816 115.723-61.6699 116.406-61.6699C117.432-61.6699 118.408-60.7422 118.408-59.7168C118.408-59.2773 118.164-58.6914 117.92-58.252L84.3262-6.15234C83.7402-5.51758 83.1055-5.12695 82.3242-5.12695Z"/>
  </g>
  <g id="Ultralight-L" transform="matrix(1 0 0 1 471.015 1556)">
   <path d="M31.9824 19.7754L145.41 19.7754C155.811 19.7754 161.328 14.0625 161.328 3.85742L161.328-74.0723C161.328-84.2773 155.811-89.9902 145.41-89.9902L31.9824-89.9902C21.582-89.9902 16.0645-84.4727 16.0645-74.0723L16.0645 3.85742C16.0645 14.2578 21.582 19.7754 31.9824 19.7754ZM82.0801-5.27344C81.4941-5.27344 81.25-5.46875 80.8594-5.85938L60.791-28.8574C60.5469-29.248 60.3027-29.6387 60.3027-30.0293C60.3027-30.8105 60.9863-31.2988 61.5723-31.2988C62.1094-31.2988 62.5-31.1035 62.793-30.7617L82.0312-8.83789L115.576-60.6445C115.918-60.9863 116.357-61.3281 116.846-61.3281C117.432-61.3281 118.066-60.6445 118.066-60.0586C118.066-59.8145 117.969-59.4238 117.871-59.1797L83.3496-5.85938C82.959-5.51758 82.6172-5.27344 82.0801-5.27344Z"/>
  </g>
  <g id="Black-M" transform="matrix(1 0 0 1 2861.84 1126)">
   <path d="M31.9824 13.5742L111.133 13.5742C123.389 13.5742 130.664 6.29883 130.664-5.95703L130.664-64.4043C130.664-76.6602 123.389-83.9355 111.133-83.9355L31.9824-83.9355C19.7266-83.9355 12.4512-76.6602 12.4512-64.4043L12.4512-5.95703C12.4512 6.29883 19.7266 13.5742 31.9824 13.5742ZM66.3086-9.86328C63.5254-9.86328 61.3281-11.2305 59.5215-13.3301L48.9746-25.3906C47.3633-27.2461 46.875-28.6133 46.875-30.4199C46.875-34.375 50.2441-37.4512 54.1016-37.4512C56.2988-37.4512 57.959-36.5234 59.375-34.9609L66.3086-27.2461L83.2031-53.7109C84.9609-56.3965 86.9141-57.7637 89.5508-57.7637C93.457-57.7637 96.875-54.834 96.875-50.9277C96.875-49.5605 96.5332-47.998 95.4102-46.4355L72.9492-13.4766C71.3867-11.3281 68.9453-9.86328 66.3086-9.86328Z"/>
  </g>
  <g id="Heavy-M" transform="matrix(1 0 0 1 2565.5 1126)">
   <path d="M31.0059 12.6465L111.426 12.6465C123.193 12.6465 129.932 5.9082 129.932-5.81055L129.932-64.5508C129.932-76.2695 123.193-83.0566 111.426-83.0566L31.0059-83.0566C19.2383-83.0566 12.4512-76.3184 12.4512-64.5508L12.4512-5.81055C12.4512 5.9082 19.2383 12.6465 31.0059 12.6465ZM65.918-10.2051C63.3789-10.2051 61.377-11.4258 59.7168-13.3789L48.7305-26.1719C47.3633-27.832 46.875-29.1016 46.875-30.7617C46.875-34.3262 49.8047-37.1094 53.3203-37.1094C55.3223-37.1094 56.8359-36.2793 58.2031-34.7168L65.8691-25.8301L83.6914-53.9062C85.2539-56.2988 87.0117-57.5684 89.3555-57.5684C92.8223-57.5684 95.9473-54.9316 95.9473-51.416C95.9473-50.1465 95.5078-48.6816 94.5312-47.2168L71.9238-13.5254C70.5078-11.4746 68.3105-10.2051 65.918-10.2051Z"/>
  </g>
  <g id="Bold-M" transform="matrix(1 0 0 1 2269.18 1126)">
   <path d="M29.8828 11.6699L111.719 11.6699C122.949 11.6699 129.15 5.46875 129.15-5.66406L129.15-64.6973C129.15-75.8789 122.949-82.0312 111.719-82.0312L29.8828-82.0312C18.6523-82.0312 12.4512-75.8789 12.4512-64.6973L12.4512-5.66406C12.4512 5.51758 18.6523 11.6699 29.8828 11.6699ZM65.4297-10.5957C63.2324-10.5957 61.4746-11.6211 59.9121-13.5254L48.4863-27.0508C47.3145-28.4668 46.875-29.6875 46.875-31.1523C46.875-34.2285 49.3652-36.7188 52.4414-36.7188C54.248-36.7188 55.6152-35.9863 56.9336-34.4238L65.332-24.1699L84.2285-54.1016C85.5469-56.2012 87.1582-57.2754 89.1602-57.2754C92.1387-57.2754 94.873-55.0781 94.873-52.002C94.873-50.7812 94.3848-49.4141 93.5059-48.1445L70.8008-13.5742C69.5312-11.7188 67.5781-10.5957 65.4297-10.5957Z"/>
  </g>
  <g id="Semibold-M" transform="matrix(1 0 0 1 1972.76 1126)">
   <path d="M29.1016 10.9863L111.914 10.9863C122.803 10.9863 128.564 5.17578 128.564-5.56641L128.564-64.8438C128.564-75.5859 122.803-81.3477 111.914-81.3477L29.1016-81.3477C18.2617-81.3477 12.4512-75.5859 12.4512-64.8438L12.4512-5.56641C12.4512 5.22461 18.2617 10.9863 29.1016 10.9863ZM65.1367-10.8398C63.0859-10.8398 61.5234-11.7676 60.0586-13.5742L48.3398-27.6855C47.3145-28.9062 46.875-30.0781 46.875-31.4453C46.875-34.1797 49.0723-36.4258 51.8555-36.4258C53.4668-36.4258 54.7363-35.791 56.0059-34.2285L64.9902-23.0469L84.6191-54.2969C85.791-56.1523 87.2559-57.1289 88.9648-57.1289C91.6992-57.1289 94.1406-55.1758 94.1406-52.3926C94.1406-51.2207 93.6035-49.9023 92.8223-48.7793L70.0195-13.623C68.8477-11.8652 67.0898-10.8398 65.1367-10.8398Z"/>
  </g>
  <g id="Medium-M" transform="matrix(1 0 0 1 1676.24 1126)">
   <path d="M28.5156 10.4492L112.061 10.4492C122.656 10.4492 128.174 4.98047 128.174-5.46875L128.174-64.8926C128.174-75.3418 122.656-80.8105 112.061-80.8105L28.5156-80.8105C17.9688-80.8105 12.4512-75.3906 12.4512-64.8926L12.4512-5.46875C12.4512 4.98047 17.9688 10.4492 28.5156 10.4492ZM64.8926-11.0352C63.0371-11.0352 61.5234-11.8652 60.1562-13.623L48.1934-28.125C47.3145-29.248 46.875-30.4199 46.875-31.6406C46.875-34.1797 48.877-36.2305 51.3672-36.2305C52.9297-36.2305 54.1016-35.6445 55.3223-34.082L64.7461-22.168L84.8633-54.3945C85.9375-56.1035 87.3047-56.9824 88.8672-56.9824C91.3086-56.9824 93.6035-55.2734 93.6035-52.6855C93.6035-51.5625 93.0176-50.3418 92.2852-49.2188L69.4336-13.6719C68.3105-11.9629 66.748-11.0352 64.8926-11.0352Z"/>
  </g>
  <g id="Regular-M" transform="matrix(1 0 0 1 1379.82 1126)">
   <path d="M27.7832 9.76562L112.256 9.76562C122.51 9.76562 127.588 4.6875 127.588-5.37109L127.588-64.9902C127.588-75.0488 122.51-80.127 112.256-80.127L27.7832-80.127C17.5781-80.127 12.4512-75.0977 12.4512-64.9902L12.4512-5.37109C12.4512 4.73633 17.5781 9.76562 27.7832 9.76562ZM64.5996-11.3281C62.8906-11.3281 61.5723-12.0117 60.2539-13.7207L48.0469-28.7109C47.2656-29.6875 46.875-30.8105 46.875-31.8848C46.875-34.1309 48.5352-35.9375 50.7812-35.9375C52.1484-35.9375 53.2715-35.4492 54.4434-33.8379L64.4043-21.0938L85.2539-54.541C86.1328-56.0547 87.4023-56.7871 88.7207-56.7871C90.8691-56.7871 92.8711-55.3223 92.8711-53.0762C92.8711-52.002 92.2363-50.8301 91.6504-49.8535L68.6523-13.7207C67.6758-12.1094 66.2598-11.3281 64.5996-11.3281Z"/>
  </g>
  <g id="Light-M" transform="matrix(1 0 0 1 1083.5 1126)">
   <path d="M26.8555 9.0332L112.402 9.0332C121.973 9.0332 126.807 4.15039 126.807-5.22461L126.807-65.0879C126.807-74.5117 121.973-79.3945 112.402-79.3945L26.8555-79.3945C17.334-79.3945 12.4512-74.5605 12.4512-65.0879L12.4512-5.22461C12.4512 4.19922 17.334 9.0332 26.8555 9.0332ZM64.3066-11.5234C62.9883-11.5234 62.0117-12.0605 61.0352-13.3301L47.7539-29.1992C47.168-29.9805 46.8262-30.8105 46.8262-31.6895C46.8262-33.3984 48.1445-34.7656 49.8535-34.7656C50.9277-34.7656 51.7578-34.375 52.6855-33.2031L64.1113-19.1406L86.5723-54.6875C87.3047-55.7617 88.2812-56.3965 89.3066-56.3965C90.918-56.3965 92.4316-55.2246 92.4316-53.5156C92.4316-52.6855 91.9922-51.8066 91.5527-51.0742L67.4316-13.3301C66.6016-12.1582 65.5762-11.5234 64.3066-11.5234Z"/>
  </g>
  <g id="Thin-M" transform="matrix(1 0 0 1 787.33 1126)">
   <path d="M25.6348 8.05664L112.598 8.05664C121.24 8.05664 125.732 3.4668 125.732-5.0293L125.732-65.2344C125.732-73.7305 121.24-78.3691 112.598-78.3691L25.6348-78.3691C16.9922-78.3691 12.4512-73.877 12.4512-65.2344L12.4512-5.0293C12.4512 3.56445 16.9922 8.05664 25.6348 8.05664ZM63.916-11.8164C63.0859-11.8164 62.5488-12.1094 62.0117-12.793L47.3633-29.834C47.0215-30.3711 46.7773-30.8594 46.7773-31.3965C46.7773-32.4707 47.6074-33.252 48.584-33.252C49.2676-33.252 49.8047-33.0078 50.293-32.373L63.8184-16.5527L88.3789-54.834C88.8184-55.4199 89.4043-55.8594 90.0391-55.8594C90.9668-55.8594 91.8945-55.0293 91.8945-54.0527C91.8945-53.6621 91.6504-53.0762 91.4551-52.6855L65.7227-12.793C65.2344-12.1582 64.6484-11.8164 63.916-11.8164Z"/>
  </g>
  <g id="Ultralight-M" transform="matrix(1 0 0 1 490.888 1126)">
   <path d="M25 7.56836L112.695 7.56836C120.85 7.56836 125.195 3.125 125.195-4.98047L125.195-65.2832C125.195-73.3887 120.85-77.832 112.695-77.832L25-77.832C16.7969-77.832 12.4512-73.4863 12.4512-65.2832L12.4512-4.98047C12.4512 3.22266 16.7969 7.56836 25 7.56836ZM63.7207-11.9629C63.1348-11.9629 62.8418-12.1582 62.5-12.5488L47.168-30.1758C46.9238-30.5176 46.7773-30.9082 46.7773-31.25C46.7773-31.9824 47.3633-32.4707 47.9492-32.4707C48.4375-32.4707 48.7793-32.2754 49.0723-31.9336L63.623-15.1855L89.2578-54.8828C89.5996-55.2734 89.9902-55.5664 90.4297-55.5664C91.0156-55.5664 91.6016-54.9316 91.6016-54.3457C91.6016-54.1016 91.5039-53.7598 91.3574-53.5156L64.8926-12.5488C64.5508-12.207 64.1602-11.9629 63.7207-11.9629Z"/>
  </g>
  <g id="Black-S" transform="matrix(1 0 0 1 2877.35 696)">
   <path d="M25 2.92969L87.1094 2.92969C96.6797 2.92969 102.344-2.73438 102.344-12.3047L102.344-58.1055C102.344-67.6758 96.6797-73.3398 87.1094-73.3398L25-73.3398C15.4297-73.3398 9.76562-67.6758 9.76562-58.1055L9.76562-12.3047C9.76562-2.73438 15.4297 2.92969 25 2.92969ZM51.9043-15.3809C49.7559-15.3809 48.0469-16.4551 46.6309-18.0664L38.3301-27.5879C37.1094-29.0039 36.7188-30.0781 36.7188-31.4941C36.7188-34.5703 39.3066-36.9629 42.334-36.9629C44.043-36.9629 45.3125-36.2305 46.4355-35.0098L51.9043-28.9062L65.1855-49.707C66.5527-51.8066 68.0664-52.8809 70.1172-52.8809C73.1445-52.8809 75.8301-50.5859 75.8301-47.5586C75.8301-46.4844 75.5371-45.2637 74.6582-44.043L57.0801-18.2129C55.8594-16.5039 53.9551-15.3809 51.9043-15.3809Z"/>
  </g>
  <g id="Heavy-S" transform="matrix(1 0 0 1 2580.88 696)">
   <path d="M24.3652 2.34375L87.3047 2.34375C96.582 2.34375 101.855-2.97852 101.855-12.207L101.855-58.2031C101.855-67.4316 96.582-72.7539 87.3047-72.7539L24.3652-72.7539C15.0879-72.7539 9.76562-67.4316 9.76562-58.2031L9.76562-12.207C9.76562-2.97852 15.0879 2.34375 24.3652 2.34375ZM51.6113-15.625C49.6094-15.625 48.0469-16.6016 46.6797-18.1641L38.1836-28.125C37.1094-29.3945 36.7188-30.4688 36.7188-31.7871C36.7188-34.6191 39.0625-36.8164 41.8457-36.8164C43.457-36.8164 44.6289-36.1328 45.752-34.8633L51.5625-28.0273L65.4297-49.8535C66.6504-51.7578 68.0664-52.7344 69.9219-52.7344C72.6562-52.7344 75.1465-50.6836 75.1465-47.9004C75.1465-46.8262 74.8047-45.6543 73.9746-44.5312L56.4453-18.3105C55.3223-16.6504 53.5645-15.625 51.6113-15.625Z"/>
  </g>
  <g id="Bold-S" transform="matrix(1 0 0 1 2284.41 696)">
   <path d="M23.6328 1.66016L87.5 1.66016C96.4844 1.66016 101.367-3.22266 101.367-12.1094L101.367-58.3008C101.367-67.1875 96.4844-72.0703 87.5-72.0703L23.6328-72.0703C14.6973-72.0703 9.76562-67.1875 9.76562-58.3008L9.76562-12.1094C9.76562-3.22266 14.6973 1.66016 23.6328 1.66016ZM51.3184-15.8691C49.5117-15.8691 48.0469-16.748 46.7285-18.3105L38.0371-28.7598C37.1094-29.8828 36.7188-30.9082 36.7188-32.1289C36.7188-34.6191 38.7695-36.6699 41.3086-36.6699C42.7734-36.6699 43.8965-36.084 44.9707-34.7168L51.2207-27.002L65.6738-50C66.748-51.7578 68.0664-52.5879 69.6777-52.5879C72.168-52.5879 74.3652-50.8301 74.3652-48.291C74.3652-47.2656 73.9746-46.1426 73.2422-45.0684L55.7617-18.3594C54.6875-16.7969 53.0762-15.8691 51.3184-15.8691Z"/>
  </g>
  <g id="Semibold-S" transform="matrix(1 0 0 1 1987.9 696)">
   <path d="M23.0957 1.17188L87.6465 1.17188C96.3867 1.17188 100.977-3.36914 100.977-12.0117L100.977-58.3984C100.977-67.041 96.3867-71.582 87.6465-71.582L23.0957-71.582C14.4043-71.582 9.76562-67.041 9.76562-58.3984L9.76562-12.0117C9.76562-3.36914 14.4043 1.17188 23.0957 1.17188ZM51.123-16.0645C49.4141-16.0645 48.0469-16.8457 46.7773-18.4082L37.9395-29.1504C37.1094-30.1758 36.7188-31.2012 36.7188-32.3242C36.7188-34.668 38.5742-36.5234 40.918-36.5234C42.2852-36.5234 43.3594-36.0352 44.4336-34.6191L50.9766-26.3184L65.8203-50.0977C66.7969-51.709 68.0664-52.4902 69.5312-52.4902C71.7773-52.4902 73.877-50.9277 73.877-48.5352C73.877-47.5098 73.3887-46.4355 72.7051-45.459L55.2246-18.457C54.248-16.8945 52.7832-16.0645 51.123-16.0645Z"/>
  </g>
  <g id="Medium-S" transform="matrix(1 0 0 1 1691.31 696)">
   <path d="M22.7051 0.830078L87.7441 0.830078C96.3379 0.830078 100.732-3.51562 100.732-11.9629L100.732-58.4473C100.732-66.8945 96.3379-71.2402 87.7441-71.2402L22.7051-71.2402C14.209-71.2402 9.76562-66.8945 9.76562-58.4473L9.76562-11.9629C9.76562-3.51562 14.209 0.830078 22.7051 0.830078ZM50.9277-16.2109C49.3164-16.2109 47.998-16.8945 46.8262-18.457L37.8418-29.4922C37.1094-30.4199 36.7188-31.4453 36.7188-32.5195C36.7188-34.668 38.4277-36.4746 40.625-36.4746C41.9434-36.4746 42.9688-35.9863 44.043-34.5703L50.7812-25.7812L65.9668-50.1953C66.8457-51.709 68.0664-52.4414 69.3848-52.4414C71.5332-52.4414 73.4375-50.9766 73.4375-48.7305C73.4375-47.7539 72.9492-46.6797 72.3145-45.7031L54.8828-18.5059C53.9062-16.9922 52.5391-16.2109 50.9277-16.2109Z"/>
  </g>
  <g id="Regular-S" transform="matrix(1 0 0 1 1394.79 696)">
   <path d="M22.2168 0.390625L87.8906 0.390625C96.2402 0.390625 100.342-3.71094 100.342-11.9141L100.342-58.4961C100.342-66.6992 96.2402-70.8008 87.8906-70.8008L22.2168-70.8008C13.916-70.8008 9.76562-66.6992 9.76562-58.4961L9.76562-11.9141C9.76562-3.71094 13.916 0.390625 22.2168 0.390625ZM50.7324-16.4062C49.2188-16.4062 47.998-16.9922 46.8262-18.5547L37.7441-29.9316C37.1094-30.7617 36.7188-31.7383 36.7188-32.7148C36.7188-34.7168 38.2324-36.3281 40.2344-36.3281C41.4551-36.3281 42.4316-35.9375 43.5059-34.4727L50.5371-25.0977L66.1133-50.293C66.9434-51.6602 68.0664-52.3438 69.2383-52.3438C71.1426-52.3438 72.9492-51.0742 72.9492-48.9746C72.9492-47.998 72.3633-46.9727 71.8262-46.0938L54.3945-18.5547C53.5156-17.0898 52.2461-16.4062 50.7324-16.4062Z"/>
  </g>
  <g id="Light-S" transform="matrix(1 0 0 1 1098.42 696)">
   <path d="M21.3867-0.292969L88.0371-0.292969C95.752-0.292969 99.6582-4.15039 99.6582-11.7676L99.6582-58.5938C99.6582-66.2109 95.752-70.1172 88.0371-70.1172L21.3867-70.1172C13.6719-70.1172 9.76562-66.2598 9.76562-58.5938L9.76562-11.7676C9.76562-4.15039 13.6719-0.292969 21.3867-0.292969ZM50.4883-16.6016C49.3164-16.6016 48.3887-17.041 47.5098-18.2129L37.5-30.3223C37.0117-31.0059 36.6699-31.7871 36.6699-32.5195C36.6699-34.082 37.8906-35.3027 39.4043-35.3027C40.3809-35.3027 41.1133-34.9609 41.9434-33.8867L50.3418-23.3398L67.334-50.3906C67.9199-51.416 68.7988-51.9531 69.7266-51.9531C71.1914-51.9531 72.5586-50.9277 72.5586-49.3652C72.5586-48.6328 72.168-47.8516 71.7285-47.168L53.2715-18.2129C52.5879-17.1387 51.6113-16.6016 50.4883-16.6016Z"/>
  </g>
  <g id="Thin-S" transform="matrix(1 0 0 1 802.174 696)">
   <path d="M20.3125-1.12305L88.1836-1.12305C95.1172-1.12305 98.7305-4.78516 98.7305-11.6211L98.7305-58.6914C98.7305-65.5762 95.1172-69.2383 88.1836-69.2383L20.3125-69.2383C13.3789-69.2383 9.76562-65.625 9.76562-58.6914L9.76562-11.6211C9.76562-4.6875 13.3789-1.12305 20.3125-1.12305ZM50.1465-16.8457C49.4141-16.8457 48.877-17.0898 48.3887-17.7734L37.1582-30.9082C36.8652-31.3477 36.6699-31.7871 36.6699-32.2754C36.6699-33.252 37.4023-33.9844 38.2812-33.9844C38.916-33.9844 39.4043-33.7402 39.8438-33.1543L50.0488-21.0938L68.8965-50.5371C69.2871-51.123 69.8242-51.4648 70.3613-51.4648C71.2402-51.4648 72.0703-50.7812 72.0703-49.8535C72.0703-49.4629 71.875-48.9746 71.6309-48.584L51.8066-17.7734C51.3672-17.1387 50.8301-16.8457 50.1465-16.8457Z"/>
  </g>
  <g id="Ultralight-S" transform="matrix(1 0 0 1 505.707 696)">
   <path d="M19.7754-1.5625L88.2812-1.5625C94.8242-1.5625 98.2422-5.12695 98.2422-11.5234L98.2422-58.7891C98.2422-65.2344 94.8242-68.75 88.2812-68.75L19.7754-68.75C13.2324-68.75 9.76562-65.2832 9.76562-58.7891L9.76562-11.5234C9.76562-5.0293 13.2324-1.5625 19.7754-1.5625ZM49.9512-16.9434C49.4629-16.9434 49.1699-17.1387 48.8281-17.5293L37.0117-31.2012C36.7676-31.4941 36.6211-31.8359 36.6211-32.1777C36.6211-32.8125 37.1582-33.252 37.7441-33.252C38.1836-33.252 38.4766-33.1055 38.7695-32.7637L49.9023-19.9219L69.6777-50.6348C69.9707-50.9766 70.3613-51.2207 70.7031-51.2207C71.2891-51.2207 71.8262-50.6836 71.8262-50.1465C71.8262-49.9023 71.7285-49.5605 71.582-49.3652L51.0742-17.5293C50.7324-17.1875 50.3906-16.9434 49.9512-16.9434Z"/>
  </g>
 </g>
</svg>
