<?xml version="1.0" encoding="UTF-8"?>
<!--Generator: Apple Native CoreSVG 123-->
<!DOCTYPE svg
PUBLIC "-//W3C//DTD SVG 1.1//EN"
       "http://www.w3.org/Graphics/SVG/1.1/DTD/svg11.dtd">
<svg version="1.1" xmlns="http://www.w3.org/2000/svg" xmlns:xlink="http://www.w3.org/1999/xlink" width="3300" height="2200">
 <!--glyph: "uni100780.medium", point size: 100.000000, font version: "Version 15.0d7e11", template writer version: "5"-->
 <g id="Notes">
  <rect height="2200" id="artboard" style="fill:white;opacity:1" width="3300" x="0" y="0"/>
  <line id="" style="fill:none;stroke:black;opacity:1;stroke-width:0.5;" x1="263" x2="3036" y1="292" y2="292"/>
  <text style="stroke:none;fill:black;font-family:-apple-system,&quot;SF Pro Display&quot;,&quot;SF Pro Text&quot;,Helvetica,sans-serif;font-weight:bold;" transform="matrix(1 0 0 1 263 322)">Weight/Scale Variations</text>
  <text style="stroke:none;fill:black;font-family:-apple-system,&quot;SF Pro Display&quot;,&quot;SF Pro Text&quot;,Helvetica,sans-serif;text-anchor:middle;" transform="matrix(1 0 0 1 559.711 322)">Ultralight</text>
  <text style="stroke:none;fill:black;font-family:-apple-system,&quot;SF Pro Display&quot;,&quot;SF Pro Text&quot;,Helvetica,sans-serif;text-anchor:middle;" transform="matrix(1 0 0 1 856.422 322)">Thin</text>
  <text style="stroke:none;fill:black;font-family:-apple-system,&quot;SF Pro Display&quot;,&quot;SF Pro Text&quot;,Helvetica,sans-serif;text-anchor:middle;" transform="matrix(1 0 0 1 1153.13 322)">Light</text>
  <text style="stroke:none;fill:black;font-family:-apple-system,&quot;SF Pro Display&quot;,&quot;SF Pro Text&quot;,Helvetica,sans-serif;text-anchor:middle;" transform="matrix(1 0 0 1 1449.84 322)">Regular</text>
  <text style="stroke:none;fill:black;font-family:-apple-system,&quot;SF Pro Display&quot;,&quot;SF Pro Text&quot;,Helvetica,sans-serif;text-anchor:middle;" transform="matrix(1 0 0 1 1746.56 322)">Medium</text>
  <text style="stroke:none;fill:black;font-family:-apple-system,&quot;SF Pro Display&quot;,&quot;SF Pro Text&quot;,Helvetica,sans-serif;text-anchor:middle;" transform="matrix(1 0 0 1 2043.27 322)">Semibold</text>
  <text style="stroke:none;fill:black;font-family:-apple-system,&quot;SF Pro Display&quot;,&quot;SF Pro Text&quot;,Helvetica,sans-serif;text-anchor:middle;" transform="matrix(1 0 0 1 2339.98 322)">Bold</text>
  <text style="stroke:none;fill:black;font-family:-apple-system,&quot;SF Pro Display&quot;,&quot;SF Pro Text&quot;,Helvetica,sans-serif;text-anchor:middle;" transform="matrix(1 0 0 1 2636.69 322)">Heavy</text>
  <text style="stroke:none;fill:black;font-family:-apple-system,&quot;SF Pro Display&quot;,&quot;SF Pro Text&quot;,Helvetica,sans-serif;text-anchor:middle;" transform="matrix(1 0 0 1 2933.4 322)">Black</text>
  <line id="" style="fill:none;stroke:black;opacity:1;stroke-width:0.5;" x1="263" x2="3036" y1="1903" y2="1903"/>
  <g id="" transform="matrix(1 0 0 1 263 1933)">
   <path d="M 9.24805 0.830078 C 13.5547 0.830078 17.1387 -2.74414 17.1387 -7.05078 C 17.1387 -11.3574 13.5449 -14.9316 9.23828 -14.9316 C 4.94141 -14.9316 1.36719 -11.3574 1.36719 -7.05078 C 1.36719 -2.74414 4.95117 0.830078 9.24805 0.830078 Z M 9.24805 -0.654297 C 5.70312 -0.654297 2.87109 -3.49609 2.87109 -7.05078 C 2.87109 -10.6055 5.69336 -13.4473 9.23828 -13.4473 C 12.793 -13.4473 15.6348 -10.6055 15.6445 -7.05078 C 15.6543 -3.49609 12.8027 -0.654297 9.24805 -0.654297 Z M 9.22852 -3.42773 C 9.69727 -3.42773 9.9707 -3.74023 9.9707 -4.25781 L 9.9707 -6.31836 L 12.1973 -6.31836 C 12.6953 -6.31836 13.0371 -6.57227 13.0371 -7.04102 C 13.0371 -7.51953 12.7148 -7.7832 12.1973 -7.7832 L 9.9707 -7.7832 L 9.9707 -10.0098 C 9.9707 -10.5273 9.69727 -10.8496 9.22852 -10.8496 C 8.75977 -10.8496 8.50586 -10.5078 8.50586 -10.0098 L 8.50586 -7.7832 L 6.29883 -7.7832 C 5.78125 -7.7832 5.44922 -7.51953 5.44922 -7.04102 C 5.44922 -6.57227 5.80078 -6.31836 6.29883 -6.31836 L 8.50586 -6.31836 L 8.50586 -4.25781 C 8.50586 -3.75977 8.75977 -3.42773 9.22852 -3.42773 Z"/>
  </g>
  <g id="" transform="matrix(1 0 0 1 281.506 1933)">
   <path d="M 11.709 2.91016 C 17.1582 2.91016 21.6699 -1.60156 21.6699 -7.05078 C 21.6699 -12.4902 17.1484 -17.0117 11.6992 -17.0117 C 6.25977 -17.0117 1.74805 -12.4902 1.74805 -7.05078 C 1.74805 -1.60156 6.26953 2.91016 11.709 2.91016 Z M 11.709 1.25 C 7.09961 1.25 3.41797 -2.44141 3.41797 -7.05078 C 3.41797 -11.6504 7.08984 -15.3516 11.6992 -15.3516 C 16.3086 -15.3516 20 -11.6504 20.0098 -7.05078 C 20.0195 -2.44141 16.3184 1.25 11.709 1.25 Z M 11.6895 -2.41211 C 12.207 -2.41211 12.5195 -2.77344 12.5195 -3.33984 L 12.5195 -6.23047 L 15.5762 -6.23047 C 16.123 -6.23047 16.5039 -6.51367 16.5039 -7.03125 C 16.5039 -7.55859 16.1426 -7.86133 15.5762 -7.86133 L 12.5195 -7.86133 L 12.5195 -10.9277 C 12.5195 -11.5039 12.207 -11.8555 11.6895 -11.8555 C 11.1719 -11.8555 10.8789 -11.4844 10.8789 -10.9277 L 10.8789 -7.86133 L 7.83203 -7.86133 C 7.26562 -7.86133 6.89453 -7.55859 6.89453 -7.03125 C 6.89453 -6.51367 7.28516 -6.23047 7.83203 -6.23047 L 10.8789 -6.23047 L 10.8789 -3.33984 C 10.8789 -2.79297 11.1719 -2.41211 11.6895 -2.41211 Z"/>
  </g>
  <g id="" transform="matrix(1 0 0 1 304.924 1933)">
   <path d="M 14.9707 5.67383 C 21.9336 5.67383 27.6953 -0.078125 27.6953 -7.04102 C 27.6953 -14.0039 21.9238 -19.7559 14.9609 -19.7559 C 8.00781 -19.7559 2.25586 -14.0039 2.25586 -7.04102 C 2.25586 -0.078125 8.01758 5.67383 14.9707 5.67383 Z M 14.9707 3.85742 C 8.93555 3.85742 4.08203 -1.00586 4.08203 -7.04102 C 4.08203 -13.0762 8.92578 -17.9395 14.9609 -17.9395 C 21.0059 -17.9395 25.8594 -13.0762 25.8691 -7.04102 C 25.8789 -1.00586 21.0156 3.85742 14.9707 3.85742 Z M 14.9512 -1.06445 C 15.5176 -1.06445 15.8691 -1.45508 15.8691 -2.06055 L 15.8691 -6.13281 L 20.1074 -6.13281 C 20.6934 -6.13281 21.1133 -6.46484 21.1133 -7.02148 C 21.1133 -7.59766 20.7227 -7.93945 20.1074 -7.93945 L 15.8691 -7.93945 L 15.8691 -12.1875 C 15.8691 -12.8027 15.5176 -13.1934 14.9512 -13.1934 C 14.3848 -13.1934 14.0625 -12.7832 14.0625 -12.1875 L 14.0625 -7.93945 L 9.83398 -7.93945 C 9.21875 -7.93945 8.80859 -7.59766 8.80859 -7.02148 C 8.80859 -6.46484 9.23828 -6.13281 9.83398 -6.13281 L 14.0625 -6.13281 L 14.0625 -2.06055 C 14.0625 -1.47461 14.3848 -1.06445 14.9512 -1.06445 Z"/>
  </g>
  <text style="stroke:none;fill:black;font-family:-apple-system,&quot;SF Pro Display&quot;,&quot;SF Pro Text&quot;,Helvetica,sans-serif;font-weight:bold;" transform="matrix(1 0 0 1 263 1953)">Design Variations</text>
  <text style="stroke:none;fill:black;font-family:-apple-system,&quot;SF Pro Display&quot;,&quot;SF Pro Text&quot;,Helvetica,sans-serif;" transform="matrix(1 0 0 1 263 1971)">Symbols are supported in up to nine weights and three scales.</text>
  <text style="stroke:none;fill:black;font-family:-apple-system,&quot;SF Pro Display&quot;,&quot;SF Pro Text&quot;,Helvetica,sans-serif;" transform="matrix(1 0 0 1 263 1989)">For optimal layout with text and other symbols, vertically align</text>
  <text style="stroke:none;fill:black;font-family:-apple-system,&quot;SF Pro Display&quot;,&quot;SF Pro Text&quot;,Helvetica,sans-serif;" transform="matrix(1 0 0 1 263 2007)">symbols with the adjacent text.</text>
  <rect height="14" id="" style="fill:#00AEEF;stroke:none;opacity:0.4;" width="3" x="776" y="1919"/>
  <g id="" transform="matrix(1 0 0 1 779 1933)">
   <path d="M 10.5273 0 L 12.373 0 L 7.17773 -14.0918 L 5.43945 -14.0918 L 0.244141 0 L 2.08984 0 L 3.50586 -4.0332 L 9.11133 -4.0332 Z M 6.2793 -11.9531 L 6.33789 -11.9531 L 8.59375 -5.52734 L 4.02344 -5.52734 Z"/>
  </g>
  <rect height="14" id="" style="fill:#00AEEF;stroke:none;opacity:0.4;" width="3" x="791.617" y="1919"/>
  <text style="stroke:none;fill:black;font-family:-apple-system,&quot;SF Pro Display&quot;,&quot;SF Pro Text&quot;,Helvetica,sans-serif;font-weight:bold;" transform="matrix(1 0 0 1 776 1953)">Margins</text>
  <text style="stroke:none;fill:black;font-family:-apple-system,&quot;SF Pro Display&quot;,&quot;SF Pro Text&quot;,Helvetica,sans-serif;" transform="matrix(1 0 0 1 776 1971)">Leading and trailing margins on the left and right side of each symbol</text>
  <text style="stroke:none;fill:black;font-family:-apple-system,&quot;SF Pro Display&quot;,&quot;SF Pro Text&quot;,Helvetica,sans-serif;" transform="matrix(1 0 0 1 776 1989)">can be adjusted by modifying the width of the blue rectangles.</text>
  <text style="stroke:none;fill:black;font-family:-apple-system,&quot;SF Pro Display&quot;,&quot;SF Pro Text&quot;,Helvetica,sans-serif;" transform="matrix(1 0 0 1 776 2007)">Modifications are automatically applied proportionally to all</text>
  <text style="stroke:none;fill:black;font-family:-apple-system,&quot;SF Pro Display&quot;,&quot;SF Pro Text&quot;,Helvetica,sans-serif;" transform="matrix(1 0 0 1 776 2025)">scales and weights.</text>
  <g id="" transform="matrix(1 0 0 1 1289 1933)">
   <path d="M 2.83203 3.11523 L 4.375 4.6582 C 5.22461 5.48828 6.19141 5.41992 7.06055 4.46289 L 17.2754 -6.66016 C 17.7051 -6.36719 18.0957 -6.37695 18.5645 -6.47461 L 19.6094 -6.68945 L 20.3027 -5.99609 L 20.2539 -5.47852 C 20.1855 -4.95117 20.3516 -4.53125 20.8496 -4.0332 L 21.6602 -3.22266 C 22.168 -2.71484 22.8223 -2.68555 23.3008 -3.16406 L 26.5527 -6.41602 C 27.0312 -6.89453 27.0117 -7.54883 26.5039 -8.05664 L 25.6836 -8.87695 C 25.1855 -9.375 24.7754 -9.55078 24.2383 -9.47266 L 23.7109 -9.41406 L 23.0566 -10.0781 L 23.3398 -11.2207 C 23.4863 -11.7871 23.3398 -12.2559 22.7148 -12.8613 L 20.3027 -15.2539 C 16.7578 -18.7793 12.2266 -18.6719 9.11133 -15.5371 C 8.69141 -15.1074 8.64258 -14.5215 8.91602 -14.0918 C 9.15039 -13.7207 9.62891 -13.4961 10.2734 -13.6621 C 11.7871 -14.043 13.3008 -13.9258 14.7852 -12.9199 L 14.1602 -11.3379 C 13.9258 -10.752 13.9453 -10.2734 14.1797 -9.83398 L 3.01758 0.439453 C 2.08008 1.30859 1.97266 2.25586 2.83203 3.11523 Z M 10.6738 -15.1465 C 13.3398 -17.1387 16.6504 -16.8262 19.0527 -14.4141 L 21.6797 -11.8066 C 21.9141 -11.5723 21.9434 -11.3867 21.8848 -11.0938 L 21.5039 -9.53125 L 23.0762 -7.95898 L 24.043 -8.04688 C 24.3262 -8.07617 24.4141 -8.05664 24.6387 -7.83203 L 25.2637 -7.20703 L 22.5098 -4.46289 L 21.8848 -5.07812 C 21.6602 -5.30273 21.6406 -5.40039 21.6699 -5.68359 L 21.7578 -6.64062 L 20.1953 -8.20312 L 18.5742 -7.89062 C 18.291 -7.83203 18.1445 -7.83203 17.9102 -8.07617 L 15.7324 -10.2539 C 15.5078 -10.4883 15.4785 -10.625 15.6055 -10.9473 L 16.5527 -13.2227 C 14.9512 -14.7559 12.8418 -15.6055 10.8008 -14.9512 C 10.7129 -14.9219 10.6445 -14.9414 10.6152 -14.9805 C 10.5859 -15.0293 10.5859 -15.0781 10.6738 -15.1465 Z M 4.10156 2.41211 C 3.61328 1.91406 3.78906 1.61133 4.12109 1.30859 L 15.0781 -8.80859 L 16.3086 -7.57812 L 6.15234 3.34961 C 5.84961 3.68164 5.46875 3.7793 5.06836 3.37891 Z"/>
  </g>
  <text style="stroke:none;fill:black;font-family:-apple-system,&quot;SF Pro Display&quot;,&quot;SF Pro Text&quot;,Helvetica,sans-serif;font-weight:bold;" transform="matrix(1 0 0 1 1289 1953)">Exporting</text>
  <text style="stroke:none;fill:black;font-family:-apple-system,&quot;SF Pro Display&quot;,&quot;SF Pro Text&quot;,Helvetica,sans-serif;" transform="matrix(1 0 0 1 1289 1971)">Symbols should be outlined when exporting to ensure the</text>
  <text style="stroke:none;fill:black;font-family:-apple-system,&quot;SF Pro Display&quot;,&quot;SF Pro Text&quot;,Helvetica,sans-serif;" transform="matrix(1 0 0 1 1289 1989)">design is preserved when submitting to Xcode.</text>
  <text id="template-version" style="stroke:none;fill:black;font-family:-apple-system,&quot;SF Pro Display&quot;,&quot;SF Pro Text&quot;,Helvetica,sans-serif;text-anchor:end;" transform="matrix(1 0 0 1 3036 1933)">Template v.1.0</text>
  <text style="stroke:none;fill:black;font-family:-apple-system,&quot;SF Pro Display&quot;,&quot;SF Pro Text&quot;,Helvetica,sans-serif;text-anchor:end;" transform="matrix(1 0 0 1 3036 1951)">Generated from increase.quotelevel</text>
  <text style="stroke:none;fill:black;font-family:-apple-system,&quot;SF Pro Display&quot;,&quot;SF Pro Text&quot;,Helvetica,sans-serif;text-anchor:end;" transform="matrix(1 0 0 1 3036 1969)">Typeset at 100 points</text>
  <text style="stroke:none;fill:black;font-family:-apple-system,&quot;SF Pro Display&quot;,&quot;SF Pro Text&quot;,Helvetica,sans-serif;" transform="matrix(1 0 0 1 263 726)">Small</text>
  <text style="stroke:none;fill:black;font-family:-apple-system,&quot;SF Pro Display&quot;,&quot;SF Pro Text&quot;,Helvetica,sans-serif;" transform="matrix(1 0 0 1 263 1156)">Medium</text>
  <text style="stroke:none;fill:black;font-family:-apple-system,&quot;SF Pro Display&quot;,&quot;SF Pro Text&quot;,Helvetica,sans-serif;" transform="matrix(1 0 0 1 263 1586)">Large</text>
 </g>
 <g id="Guides">
  <g id="H-reference" style="fill:#27AAE1;stroke:none;" transform="matrix(1 0 0 1 339 696)">
   <path d="M 54.9316 0 L 57.666 0 L 30.5664 -70.459 L 28.0762 -70.459 L 0.976562 0 L 3.66211 0 L 12.9395 -24.4629 L 45.7031 -24.4629 Z M 29.1992 -67.0898 L 29.4434 -67.0898 L 44.8242 -26.709 L 13.8184 -26.709 Z"/>
  </g>
  <line id="Baseline-S" style="fill:none;stroke:#27AAE1;opacity:1;stroke-width:0.577;" x1="263" x2="3036" y1="696" y2="696"/>
  <line id="Capline-S" style="fill:none;stroke:#27AAE1;opacity:1;stroke-width:0.577;" x1="263" x2="3036" y1="625.541" y2="625.541"/>
  <g id="H-reference" style="fill:#27AAE1;stroke:none;" transform="matrix(1 0 0 1 339 1126)">
   <path d="M 54.9316 0 L 57.666 0 L 30.5664 -70.459 L 28.0762 -70.459 L 0.976562 0 L 3.66211 0 L 12.9395 -24.4629 L 45.7031 -24.4629 Z M 29.1992 -67.0898 L 29.4434 -67.0898 L 44.8242 -26.709 L 13.8184 -26.709 Z"/>
  </g>
  <line id="Baseline-M" style="fill:none;stroke:#27AAE1;opacity:1;stroke-width:0.577;" x1="263" x2="3036" y1="1126" y2="1126"/>
  <line id="Capline-M" style="fill:none;stroke:#27AAE1;opacity:1;stroke-width:0.577;" x1="263" x2="3036" y1="1055.54" y2="1055.54"/>
  <g id="H-reference" style="fill:#27AAE1;stroke:none;" transform="matrix(1 0 0 1 339 1556)">
   <path d="M 54.9316 0 L 57.666 0 L 30.5664 -70.459 L 28.0762 -70.459 L 0.976562 0 L 3.66211 0 L 12.9395 -24.4629 L 45.7031 -24.4629 Z M 29.1992 -67.0898 L 29.4434 -67.0898 L 44.8242 -26.709 L 13.8184 -26.709 Z"/>
  </g>
  <line id="Baseline-L" style="fill:none;stroke:#27AAE1;opacity:1;stroke-width:0.577;" x1="263" x2="3036" y1="1556" y2="1556"/>
  <line id="Capline-L" style="fill:none;stroke:#27AAE1;opacity:1;stroke-width:0.577;" x1="263" x2="3036" y1="1485.54" y2="1485.54"/>
  <rect height="119.336" id="left-margin" style="fill:#00AEEF;stroke:none;opacity:0.4;" width="12.4512" x="1387.25" y="1030.79"/>
  <rect height="119.336" id="right-margin" style="fill:#00AEEF;stroke:none;opacity:0.4;" width="12.4388" x="1500" y="1030.79"/>
 </g>
 <g id="Symbols">
  <g id="Black-L" transform="matrix(1 0 0 1 2844.75 1556)">
   <path d="M 25.2441 26.2695 C 30.2734 26.2695 34.375 22.4121 34.375 17.3828 L 34.375 -87.9883 C 34.375 -92.9199 30.127 -96.8262 25.2441 -96.8262 C 20.5566 -96.8262 16.1133 -92.8711 16.1133 -87.9883 L 16.1133 17.3828 C 16.1133 22.3145 20.4102 26.2695 25.2441 26.2695 Z M 57.7637 26.2695 C 62.793 26.2695 66.9434 22.4121 66.9434 17.3828 L 66.9434 -87.9883 C 66.9434 -92.9199 62.6953 -96.8262 57.7637 -96.8262 C 53.0762 -96.8262 48.6328 -92.8711 48.6328 -87.9883 L 48.6328 17.3828 C 48.6328 22.3145 52.9785 26.2695 57.7637 26.2695 Z M 90.2832 26.2695 C 95.2637 26.2695 99.4141 22.4121 99.4141 17.3828 L 99.4141 -87.9883 C 99.4141 -92.9199 95.166 -96.8262 90.2832 -96.8262 C 85.5469 -96.8262 81.1523 -92.8711 81.1523 -87.9883 L 81.1523 17.3828 C 81.1523 22.3145 85.4492 26.2695 90.2832 26.2695 Z M 132.422 -11.8164 L 157.764 -28.7598 C 162.451 -31.8848 162.207 -38.3789 157.764 -41.3574 L 132.422 -58.6914 C 126.611 -62.6953 120.361 -60.4492 120.361 -53.4668 L 120.361 -16.9434 C 120.361 -10.1562 126.855 -8.05664 132.422 -11.8164 Z"/>
  </g>
  <g id="Heavy-L" transform="matrix(1 0 0 1 2550.12 1556)">
   <path d="M 24.0234 25.4883 C 28.418 25.4883 31.9824 22.1191 31.9824 17.7246 L 31.9824 -88.3789 C 31.9824 -92.7246 28.3203 -96.0938 24.0234 -96.0938 C 19.9219 -96.0938 16.1133 -92.6758 16.1133 -88.3789 L 16.1133 17.7246 C 16.1133 22.0703 19.8242 25.4883 24.0234 25.4883 Z M 56.3965 25.4883 C 60.791 25.4883 64.3555 22.1191 64.3555 17.7246 L 64.3555 -88.3789 C 64.3555 -92.7246 60.6934 -96.0938 56.3965 -96.0938 C 52.2461 -96.0938 48.4863 -92.6758 48.4863 -88.3789 L 48.4863 17.7246 C 48.4863 22.0703 52.1973 25.4883 56.3965 25.4883 Z M 88.7207 25.4883 C 93.1152 25.4883 96.6797 22.1191 96.6797 17.7246 L 96.6797 -88.3789 C 96.6797 -92.7246 93.0176 -96.0938 88.7207 -96.0938 C 84.5703 -96.0938 80.7617 -92.6758 80.7617 -88.3789 L 80.7617 17.7246 C 80.7617 22.0703 84.4727 25.4883 88.7207 25.4883 Z M 129.688 -13.0371 L 153.76 -29.1016 C 158.203 -32.0801 158.008 -38.2324 153.76 -41.1133 L 129.688 -57.5195 C 124.17 -61.3281 118.262 -59.1797 118.262 -52.5391 L 118.262 -17.9199 C 118.262 -11.4258 124.414 -9.47266 129.688 -13.0371 Z"/>
  </g>
  <g id="Bold-L" transform="matrix(1 0 0 1 2255.75 1556)">
   <path d="M 22.7051 24.6582 C 26.3672 24.6582 29.2969 21.7773 29.2969 18.1641 L 29.2969 -88.8672 C 29.2969 -92.4805 26.2695 -95.3125 22.7051 -95.3125 C 19.1895 -95.3125 16.1133 -92.4316 16.1133 -88.8672 L 16.1133 18.1641 C 16.1133 21.7773 19.1406 24.6582 22.7051 24.6582 Z M 54.8828 24.6582 C 58.4961 24.6582 61.4746 21.7773 61.4746 18.1641 L 61.4746 -88.8672 C 61.4746 -92.4805 58.4473 -95.3125 54.8828 -95.3125 C 51.3672 -95.3125 48.2422 -92.4316 48.2422 -88.8672 L 48.2422 18.1641 C 48.2422 21.7773 51.3184 24.6582 54.8828 24.6582 Z M 87.0117 24.6582 C 90.6738 24.6582 93.6035 21.7773 93.6035 18.1641 L 93.6035 -88.8672 C 93.6035 -92.4805 90.5762 -95.3125 87.0117 -95.3125 C 83.4961 -95.3125 80.4199 -92.4316 80.4199 -88.8672 L 80.4199 18.1641 C 80.4199 21.7773 83.4473 24.6582 87.0117 24.6582 Z M 126.66 -14.3555 L 149.316 -29.4922 C 153.467 -32.2754 153.271 -38.0371 149.316 -40.7715 L 126.66 -56.2012 C 121.484 -59.7656 115.918 -57.8125 115.918 -51.5137 L 115.918 -18.9941 C 115.918 -12.8906 121.68 -11.0352 126.66 -14.3555 Z"/>
  </g>
  <g id="Semibold-L" transform="matrix(1 0 0 1 1960.65 1556)">
   <path d="M 21.7773 24.0723 C 24.9023 24.0723 27.4414 21.582 27.4414 18.4082 L 27.4414 -89.1602 C 27.4414 -92.2852 24.9023 -94.7754 21.7773 -94.7754 C 18.7012 -94.7754 16.0645 -92.2852 16.0645 -89.1602 L 16.0645 18.4082 C 16.0645 21.582 18.6523 24.0723 21.7773 24.0723 Z M 53.8086 24.0723 C 56.9824 24.0723 59.4727 21.582 59.4727 18.4082 L 59.4727 -89.1602 C 59.4727 -92.2852 56.9336 -94.7754 53.8086 -94.7754 C 50.7324 -94.7754 48.0957 -92.2852 48.0957 -89.1602 L 48.0957 18.4082 C 48.0957 21.582 50.6836 24.0723 53.8086 24.0723 Z M 85.8398 24.0723 C 88.9648 24.0723 91.5039 21.582 91.5039 18.4082 L 91.5039 -89.1602 C 91.5039 -92.2852 88.916 -94.7754 85.8398 -94.7754 C 82.7637 -94.7754 80.127 -92.2852 80.127 -89.1602 L 80.127 18.4082 C 80.127 21.582 82.7148 24.0723 85.8398 24.0723 Z M 124.561 -15.332 L 146.24 -29.7852 C 150.195 -32.4219 150 -37.9395 146.24 -40.5273 L 124.561 -55.3223 C 119.58 -58.6914 114.307 -56.8359 114.307 -50.8301 L 114.307 -19.7266 C 114.307 -13.916 119.824 -12.1582 124.561 -15.332 Z"/>
  </g>
  <g id="Medium-L" transform="matrix(1 0 0 1 1665.18 1556)">
   <path d="M 21.0449 23.584 C 23.8281 23.584 26.0742 21.4355 26.0742 18.6035 L 26.0742 -89.4043 C 26.0742 -92.1875 23.8281 -94.3359 21.0449 -94.3359 C 18.3105 -94.3359 16.0645 -92.1387 16.0645 -89.4043 L 16.0645 18.6035 C 16.0645 21.3867 18.3105 23.584 21.0449 23.584 Z M 52.9785 23.584 C 55.7617 23.584 57.959 21.4355 57.959 18.6035 L 57.959 -89.4043 C 57.959 -92.1875 55.7617 -94.3359 52.9785 -94.3359 C 50.2441 -94.3359 47.998 -92.1387 47.998 -89.4043 L 47.998 18.6035 C 47.998 21.3867 50.2441 23.584 52.9785 23.584 Z M 84.9121 23.584 C 87.6953 23.584 89.8926 21.4355 89.8926 18.6035 L 89.8926 -89.4043 C 89.8926 -92.1875 87.6953 -94.3359 84.9121 -94.3359 C 82.1777 -94.3359 79.9316 -92.1387 79.9316 -89.4043 L 79.9316 18.6035 C 79.9316 21.3867 82.1777 23.584 84.9121 23.584 Z M 122.998 -16.0156 L 143.896 -29.9805 C 147.705 -32.5195 147.559 -37.8418 143.896 -40.3809 L 122.998 -54.6387 C 118.164 -57.9102 113.086 -56.1035 113.086 -50.293 L 113.086 -20.2637 C 113.086 -14.6484 118.408 -12.9883 122.998 -16.0156 Z"/>
  </g>
  <g id="Regular-L" transform="matrix(1 0 0 1 1370.06 1556)">
   <path d="M 20.166 23.0469 C 22.4609 23.0469 24.2188 21.1914 24.2188 18.8965 L 24.2188 -89.6973 C 24.2188 -91.9922 22.4609 -93.7988 20.166 -93.7988 C 17.8223 -93.7988 16.0645 -91.9922 16.0645 -89.6973 L 16.0645 18.8965 C 16.0645 21.1914 17.8223 23.0469 20.166 23.0469 Z M 51.9531 23.0469 C 54.248 23.0469 56.0059 21.1914 56.0059 18.8965 L 56.0059 -89.6973 C 56.0059 -91.9922 54.248 -93.7988 51.9531 -93.7988 C 49.6582 -93.7988 47.8516 -91.9922 47.8516 -89.6973 L 47.8516 18.8965 C 47.8516 21.1914 49.6582 23.0469 51.9531 23.0469 Z M 83.7402 23.0469 C 86.0352 23.0469 87.8418 21.1914 87.8418 18.8965 L 87.8418 -89.6973 C 87.8418 -91.9922 86.0352 -93.7988 83.7402 -93.7988 C 81.4453 -93.7988 79.6387 -91.9922 79.6387 -89.6973 L 79.6387 18.8965 C 79.6387 21.1914 81.4453 23.0469 83.7402 23.0469 Z M 120.898 -16.9434 L 140.82 -30.2734 C 144.434 -32.666 144.336 -37.7441 140.82 -40.1367 L 120.898 -53.7109 C 116.357 -56.8359 111.475 -55.127 111.475 -49.5605 L 111.475 -20.9961 C 111.475 -15.6738 116.553 -14.0625 120.898 -16.9434 Z"/>
  </g>
  <g id="Light-L" transform="matrix(1 0 0 1 1074.69 1556)">
   <path d="M 19.2383 22.6562 C 20.9961 22.6562 22.3633 21.2402 22.3633 19.4336 L 22.3633 -90.1367 C 22.3633 -91.9434 20.9961 -93.2617 19.2383 -93.2617 C 17.4316 -93.2617 16.0645 -91.9434 16.0645 -90.1367 L 16.0645 19.4336 C 16.0645 21.2402 17.4316 22.6562 19.2383 22.6562 Z M 51.5137 22.6562 C 53.3203 22.6562 54.6875 21.2402 54.6875 19.4336 L 54.6875 -90.1367 C 54.6875 -91.9434 53.3203 -93.2617 51.5137 -93.2617 C 49.707 -93.2617 48.3398 -91.9434 48.3398 -90.1367 L 48.3398 19.4336 C 48.3398 21.2402 49.707 22.6562 51.5137 22.6562 Z M 83.8379 22.6562 C 85.5957 22.6562 86.9629 21.2402 86.9629 19.4336 L 86.9629 -90.1367 C 86.9629 -91.9434 85.5957 -93.2617 83.8379 -93.2617 C 82.0312 -93.2617 80.6641 -91.9434 80.6641 -90.1367 L 80.6641 19.4336 C 80.6641 21.2402 82.0312 22.6562 83.8379 22.6562 Z M 119.678 -18.0664 L 138.33 -30.5664 C 141.699 -32.8125 141.602 -37.5488 138.33 -39.7949 L 119.678 -52.4902 C 115.381 -55.4199 110.84 -53.8574 110.84 -48.6328 L 110.84 -21.875 C 110.84 -16.8457 115.576 -15.332 119.678 -18.0664 Z"/>
  </g>
  <g id="Thin-L" transform="matrix(1 0 0 1 779.762 1556)">
   <path d="M 18.0176 22.1191 C 19.1406 22.1191 19.9219 21.3379 19.9219 20.166 L 19.9219 -90.6738 C 19.9219 -91.8457 19.1406 -92.627 18.0176 -92.627 C 16.8457 -92.627 16.0645 -91.8457 16.0645 -90.6738 L 16.0645 20.166 C 16.0645 21.3379 16.8457 22.1191 18.0176 22.1191 Z M 50.9766 22.1191 C 52.0996 22.1191 52.8809 21.3379 52.8809 20.166 L 52.8809 -90.6738 C 52.8809 -91.8457 52.0996 -92.627 50.9766 -92.627 C 49.8047 -92.627 49.0234 -91.8457 49.0234 -90.6738 L 49.0234 20.166 C 49.0234 21.3379 49.8047 22.1191 50.9766 22.1191 Z M 83.9355 22.1191 C 85.0586 22.1191 85.8398 21.3379 85.8398 20.166 L 85.8398 -90.6738 C 85.8398 -91.8457 85.0586 -92.627 83.9355 -92.627 C 82.7637 -92.627 81.9824 -91.8457 81.9824 -90.6738 L 81.9824 20.166 C 81.9824 21.3379 82.7637 22.1191 83.9355 22.1191 Z M 118.018 -19.5312 L 135.01 -30.9082 C 138.037 -32.959 137.988 -37.2559 135.01 -39.3555 L 118.018 -50.8789 C 114.111 -53.5645 109.961 -52.1484 109.961 -47.3633 L 109.961 -22.998 C 109.961 -18.457 114.258 -17.041 118.018 -19.5312 Z"/>
  </g>
  <g id="Ultralight-L" transform="matrix(1 0 0 1 483.954 1556)">
   <path d="M 17.3828 21.875 C 18.1641 21.875 18.7012 21.3867 18.7012 20.5566 L 18.7012 -90.9668 C 18.7012 -91.7969 18.1641 -92.2852 17.3828 -92.2852 C 16.5527 -92.2852 16.0645 -91.7969 16.0645 -90.9668 L 16.0645 20.5566 C 16.0645 21.3867 16.5527 21.875 17.3828 21.875 Z M 50.6836 21.875 C 51.4648 21.875 51.9531 21.3867 51.9531 20.5566 L 51.9531 -90.9668 C 51.9531 -91.7969 51.4648 -92.2852 50.6836 -92.2852 C 49.8535 -92.2852 49.3652 -91.7969 49.3652 -90.9668 L 49.3652 20.5566 C 49.3652 21.3867 49.8535 21.875 50.6836 21.875 Z M 83.9844 21.875 C 84.7656 21.875 85.2539 21.3867 85.2539 20.5566 L 85.2539 -90.9668 C 85.2539 -91.7969 84.7656 -92.2852 83.9844 -92.2852 C 83.1543 -92.2852 82.666 -91.7969 82.666 -90.9668 L 82.666 20.5566 C 82.666 21.3867 83.1543 21.875 83.9844 21.875 Z M 117.139 -20.2637 L 133.301 -31.1035 C 136.182 -33.0566 136.133 -37.1094 133.301 -39.1113 L 117.139 -50.0488 C 113.477 -52.5879 109.521 -51.2695 109.521 -46.6797 L 109.521 -23.584 C 109.521 -19.2383 113.623 -17.9199 117.139 -20.2637 Z"/>
  </g>
  <g id="Black-M" transform="matrix(1 0 0 1 2862.6 1126)">
   <path d="M 20.7031 13.2324 C 25.1465 13.2324 28.9062 9.81445 28.9062 5.37109 L 28.9062 -75.8301 C 28.9062 -80.2246 25.0488 -83.6914 20.7031 -83.6914 C 16.5527 -83.6914 12.5 -80.1758 12.5 -75.8301 L 12.5 5.37109 C 12.5 9.76562 16.4062 13.2324 20.7031 13.2324 Z M 46.4355 13.2324 C 50.8789 13.2324 54.5898 9.81445 54.5898 5.37109 L 54.5898 -75.8301 C 54.5898 -80.2246 50.7812 -83.6914 46.4355 -83.6914 C 42.2363 -83.6914 38.2324 -80.1758 38.2324 -75.8301 L 38.2324 5.37109 C 38.2324 9.76562 42.1387 13.2324 46.4355 13.2324 Z M 72.0703 13.2324 C 76.5625 13.2324 80.2734 9.81445 80.2734 5.37109 L 80.2734 -75.8301 C 80.2734 -80.2246 76.416 -83.6914 72.0703 -83.6914 C 67.9199 -83.6914 63.8672 -80.1758 63.8672 -75.8301 L 63.8672 5.37109 C 63.8672 9.76562 67.7734 13.2324 72.0703 13.2324 Z M 105.615 -16.0645 L 126.318 -29.8828 C 130.127 -32.4219 129.932 -37.7441 126.318 -40.1855 L 105.615 -54.3457 C 100.83 -57.6172 95.8008 -55.7617 95.8008 -50.0977 L 95.8008 -20.2148 C 95.8008 -14.6484 101.025 -12.9883 105.615 -16.0645 Z"/>
  </g>
  <g id="Heavy-M" transform="matrix(1 0 0 1 2567.82 1126)">
   <path d="M 19.6289 12.5 C 23.5352 12.5 26.7578 9.52148 26.7578 5.61523 L 26.7578 -76.123 C 26.7578 -79.9805 23.4375 -83.0078 19.6289 -83.0078 C 15.9668 -83.0078 12.5 -79.9316 12.5 -76.123 L 12.5 5.61523 C 12.5 9.47266 15.8691 12.5 19.6289 12.5 Z M 45.0195 12.5 C 48.9258 12.5 52.1484 9.52148 52.1484 5.61523 L 52.1484 -76.123 C 52.1484 -79.9805 48.8281 -83.0078 45.0195 -83.0078 C 41.3574 -83.0078 37.8906 -79.9316 37.8906 -76.123 L 37.8906 5.61523 C 37.8906 9.47266 41.2598 12.5 45.0195 12.5 Z M 70.3613 12.5 C 74.2676 12.5 77.4902 9.52148 77.4902 5.61523 L 77.4902 -76.123 C 77.4902 -79.9805 74.1699 -83.0078 70.3613 -83.0078 C 66.6992 -83.0078 63.2324 -79.9316 63.2324 -76.123 L 63.2324 5.61523 C 63.2324 9.47266 66.6016 12.5 70.3613 12.5 Z M 102.979 -17.0898 L 122.607 -30.1758 C 126.221 -32.6172 126.025 -37.6465 122.607 -39.9902 L 102.979 -53.3691 C 98.4375 -56.4453 93.6523 -54.7363 93.6523 -49.3164 L 93.6523 -21.0449 C 93.6523 -15.7715 98.6328 -14.1602 102.979 -17.0898 Z"/>
  </g>
  <g id="Bold-M" transform="matrix(1 0 0 1 2273.28 1126)">
   <path d="M 18.4082 11.6699 C 21.6797 11.6699 24.3652 9.13086 24.3652 5.85938 L 24.3652 -76.5137 C 24.3652 -79.7363 21.6309 -82.2754 18.4082 -82.2754 C 15.2832 -82.2754 12.5 -79.6875 12.5 -76.5137 L 12.5 5.85938 C 12.5 9.13086 15.2344 11.6699 18.4082 11.6699 Z M 43.457 11.6699 C 46.7285 11.6699 49.4141 9.13086 49.4141 5.85938 L 49.4141 -76.5137 C 49.4141 -79.7363 46.6797 -82.2754 43.457 -82.2754 C 40.332 -82.2754 37.5 -79.6875 37.5 -76.5137 L 37.5 5.85938 C 37.5 9.13086 40.2832 11.6699 43.457 11.6699 Z M 68.457 11.6699 C 71.7285 11.6699 74.4141 9.13086 74.4141 5.85938 L 74.4141 -76.5137 C 74.4141 -79.7363 71.6797 -82.2754 68.457 -82.2754 C 65.332 -82.2754 62.5 -79.6875 62.5 -76.5137 L 62.5 5.85938 C 62.5 9.13086 65.2832 11.6699 68.457 11.6699 Z M 100 -18.2129 L 118.457 -30.5664 C 121.826 -32.8125 121.68 -37.5488 118.457 -39.6973 L 100 -52.2949 C 95.8008 -55.1758 91.2598 -53.5645 91.2598 -48.4863 L 91.2598 -21.9727 C 91.2598 -17.041 95.9473 -15.5273 100 -18.2129 Z"/>
  </g>
  <g id="Semibold-M" transform="matrix(1 0 0 1 1978.06 1126)">
   <path d="M 17.5781 11.1328 C 20.4102 11.1328 22.7051 8.88672 22.7051 6.05469 L 22.7051 -76.7578 C 22.7051 -79.5898 20.3613 -81.7871 17.5781 -81.7871 C 14.8438 -81.7871 12.4512 -79.541 12.4512 -76.7578 L 12.4512 6.05469 C 12.4512 8.88672 14.7949 11.1328 17.5781 11.1328 Z M 42.3828 11.1328 C 45.2148 11.1328 47.5098 8.88672 47.5098 6.05469 L 47.5098 -76.7578 C 47.5098 -79.5898 45.166 -81.7871 42.3828 -81.7871 C 39.6484 -81.7871 37.2559 -79.541 37.2559 -76.7578 L 37.2559 6.05469 C 37.2559 8.88672 39.5996 11.1328 42.3828 11.1328 Z M 67.1387 11.1328 C 69.9707 11.1328 72.2656 8.88672 72.2656 6.05469 L 72.2656 -76.7578 C 72.2656 -79.5898 69.9219 -81.7871 67.1387 -81.7871 C 64.4043 -81.7871 62.0117 -79.541 62.0117 -76.7578 L 62.0117 6.05469 C 62.0117 8.88672 64.3555 11.1328 67.1387 11.1328 Z M 97.998 -19.043 L 115.576 -30.8105 C 118.799 -32.959 118.652 -37.4512 115.576 -39.5508 L 97.998 -51.5625 C 93.9453 -54.2969 89.6484 -52.7832 89.6484 -47.9004 L 89.6484 -22.6074 C 89.6484 -17.8711 94.0918 -16.4551 97.998 -19.043 Z"/>
  </g>
  <g id="Medium-M" transform="matrix(1 0 0 1 1682.47 1126)">
   <path d="M 16.9434 10.6934 C 19.4336 10.6934 21.4355 8.69141 21.4355 6.20117 L 21.4355 -76.9531 C 21.4355 -79.4434 19.4336 -81.3965 16.9434 -81.3965 C 14.502 -81.3965 12.4512 -79.4434 12.4512 -76.9531 L 12.4512 6.20117 C 12.4512 8.69141 14.502 10.6934 16.9434 10.6934 Z M 41.5527 10.6934 C 44.043 10.6934 46.0449 8.69141 46.0449 6.20117 L 46.0449 -76.9531 C 46.0449 -79.4434 44.043 -81.3965 41.5527 -81.3965 C 39.1113 -81.3965 37.0605 -79.4434 37.0605 -76.9531 L 37.0605 6.20117 C 37.0605 8.69141 39.1113 10.6934 41.5527 10.6934 Z M 66.1621 10.6934 C 68.6523 10.6934 70.6543 8.69141 70.6543 6.20117 L 70.6543 -76.9531 C 70.6543 -79.4434 68.6523 -81.3965 66.1621 -81.3965 C 63.7207 -81.3965 61.6699 -79.4434 61.6699 -76.9531 L 61.6699 6.20117 C 61.6699 8.69141 63.6719 10.6934 66.1621 10.6934 Z M 96.4355 -19.6289 L 113.428 -31.0059 C 116.504 -33.0566 116.406 -37.3535 113.428 -39.4043 L 96.4355 -50.9766 C 92.5293 -53.6621 88.3789 -52.1973 88.3789 -47.4609 L 88.3789 -23.0957 C 88.3789 -18.5059 92.7246 -17.1387 96.4355 -19.6289 Z"/>
  </g>
  <g id="Regular-M" transform="matrix(1 0 0 1 1387.25 1126)">
   <path d="M 16.1133 10.1562 C 18.2129 10.1562 19.8242 8.44727 19.8242 6.39648 L 19.8242 -77.1973 C 19.8242 -79.248 18.2129 -80.9082 16.1133 -80.9082 C 14.0625 -80.9082 12.4512 -79.248 12.4512 -77.1973 L 12.4512 6.39648 C 12.4512 8.44727 14.0625 10.1562 16.1133 10.1562 Z M 40.4785 10.1562 C 42.5781 10.1562 44.1895 8.44727 44.1895 6.39648 L 44.1895 -77.1973 C 44.1895 -79.248 42.5781 -80.9082 40.4785 -80.9082 C 38.4277 -80.9082 36.8164 -79.248 36.8164 -77.1973 L 36.8164 6.39648 C 36.8164 8.44727 38.4277 10.1562 40.4785 10.1562 Z M 64.8438 10.1562 C 66.9434 10.1562 68.5547 8.44727 68.5547 6.39648 L 68.5547 -77.1973 C 68.5547 -79.248 66.9434 -80.9082 64.8438 -80.9082 C 62.793 -80.9082 61.1816 -79.248 61.1816 -77.1973 L 61.1816 6.39648 C 61.1816 8.44727 62.793 10.1562 64.8438 10.1562 Z M 94.4336 -20.4102 L 110.596 -31.2012 C 113.525 -33.1543 113.428 -37.3047 110.596 -39.2578 L 94.4336 -50.2441 C 90.7227 -52.7832 86.7676 -51.3672 86.7676 -46.875 L 86.7676 -23.7305 C 86.7676 -19.3848 90.8691 -18.0664 94.4336 -20.4102 Z"/>
  </g>
  <g id="Light-M" transform="matrix(1 0 0 1 1091.73 1126)">
   <path d="M 15.332 9.81445 C 16.9434 9.81445 18.1641 8.49609 18.1641 6.88477 L 18.1641 -77.5879 C 18.1641 -79.1992 16.9434 -80.4199 15.332 -80.4199 C 13.6719 -80.4199 12.4512 -79.1992 12.4512 -77.5879 L 12.4512 6.88477 C 12.4512 8.49609 13.6719 9.81445 15.332 9.81445 Z M 40.1367 9.81445 C 41.748 9.81445 42.9688 8.49609 42.9688 6.88477 L 42.9688 -77.5879 C 42.9688 -79.1992 41.748 -80.4199 40.1367 -80.4199 C 38.4766 -80.4199 37.2559 -79.1992 37.2559 -77.5879 L 37.2559 6.88477 C 37.2559 8.49609 38.4766 9.81445 40.1367 9.81445 Z M 64.9414 9.81445 C 66.5527 9.81445 67.7734 8.49609 67.7734 6.88477 L 67.7734 -77.5879 C 67.7734 -79.1992 66.5527 -80.4199 64.9414 -80.4199 C 63.3301 -80.4199 62.0605 -79.1992 62.0605 -77.5879 L 62.0605 6.88477 C 62.0605 8.49609 63.3301 9.81445 64.9414 9.81445 Z M 93.3105 -21.4355 L 108.35 -31.4941 C 111.035 -33.3008 110.938 -37.1094 108.35 -38.916 L 93.3105 -49.1699 C 89.8438 -51.5137 86.1816 -50.2441 86.1816 -46.0449 L 86.1816 -24.5117 C 86.1816 -20.459 89.9902 -19.2383 93.3105 -21.4355 Z"/>
  </g>
  <g id="Thin-M" transform="matrix(1 0 0 1 796.632 1126)">
   <path d="M 14.209 9.32617 C 15.2344 9.32617 15.9668 8.59375 15.9668 7.56836 L 15.9668 -78.0762 C 15.9668 -79.1016 15.2344 -79.834 14.209 -79.834 C 13.1836 -79.834 12.4512 -79.1016 12.4512 -78.0762 L 12.4512 7.56836 C 12.4512 8.59375 13.1836 9.32617 14.209 9.32617 Z M 39.5996 9.32617 C 40.625 9.32617 41.3574 8.59375 41.3574 7.56836 L 41.3574 -78.0762 C 41.3574 -79.1016 40.625 -79.834 39.5996 -79.834 C 38.5742 -79.834 37.8418 -79.1016 37.8418 -78.0762 L 37.8418 7.56836 C 37.8418 8.59375 38.5742 9.32617 39.5996 9.32617 Z M 64.9902 9.32617 C 66.0156 9.32617 66.7969 8.59375 66.7969 7.56836 L 66.7969 -78.0762 C 66.7969 -79.1016 66.0156 -79.834 64.9902 -79.834 C 63.9648 -79.834 63.2324 -79.1016 63.2324 -78.0762 L 63.2324 7.56836 C 63.2324 8.59375 63.9648 9.32617 64.9902 9.32617 Z M 91.7969 -22.7539 L 105.322 -31.7871 C 107.764 -33.4473 107.715 -36.8652 105.322 -38.5254 L 91.7969 -47.7051 C 88.7207 -49.8047 85.4004 -48.6816 85.4004 -44.873 L 85.4004 -25.4883 C 85.4004 -21.875 88.8672 -20.752 91.7969 -22.7539 Z"/>
  </g>
  <g id="Ultralight-M" transform="matrix(1 0 0 1 500.727 1126)">
   <path d="M 13.6719 9.08203 C 14.3555 9.08203 14.8438 8.64258 14.8438 7.91016 L 14.8438 -78.3691 C 14.8438 -79.0527 14.3555 -79.541 13.6719 -79.541 C 12.9395 -79.541 12.4512 -79.0527 12.4512 -78.3691 L 12.4512 7.91016 C 12.4512 8.64258 12.9395 9.08203 13.6719 9.08203 Z M 39.3555 9.08203 C 40.0879 9.08203 40.5762 8.64258 40.5762 7.91016 L 40.5762 -78.3691 C 40.5762 -79.0527 40.0879 -79.541 39.3555 -79.541 C 38.623 -79.541 38.1348 -79.0527 38.1348 -78.3691 L 38.1348 7.91016 C 38.1348 8.64258 38.623 9.08203 39.3555 9.08203 Z M 65.0391 9.08203 C 65.7715 9.08203 66.2598 8.64258 66.2598 7.91016 L 66.2598 -78.3691 C 66.2598 -79.0527 65.7715 -79.541 65.0391 -79.541 C 64.3555 -79.541 63.8672 -79.0527 63.8672 -78.3691 L 63.8672 7.91016 C 63.8672 8.64258 64.3555 9.08203 65.0391 9.08203 Z M 91.0645 -23.3887 L 103.809 -31.9824 C 106.104 -33.5449 106.055 -36.7676 103.809 -38.2812 L 91.0645 -46.9727 C 88.1348 -48.9746 85.0098 -47.9004 85.0098 -44.3359 L 85.0098 -26.0254 C 85.0098 -22.6074 88.2324 -21.5332 91.0645 -23.3887 Z"/>
  </g>
  <g id="Black-S" transform="matrix(1 0 0 1 2878.08 696)">
   <path d="M 16.1133 2.68555 C 19.5801 2.68555 22.4609 0.0488281 22.4609 -3.41797 L 22.4609 -67.041 C 22.4609 -70.459 19.4824 -73.1445 16.1133 -73.1445 C 12.8906 -73.1445 9.76562 -70.4102 9.76562 -67.041 L 9.76562 -3.41797 C 9.76562 0 12.793 2.68555 16.1133 2.68555 Z M 36.2305 2.68555 C 39.6973 2.68555 42.5781 0.0488281 42.5781 -3.41797 L 42.5781 -67.041 C 42.5781 -70.459 39.5996 -73.1445 36.2305 -73.1445 C 33.0078 -73.1445 29.8828 -70.4102 29.8828 -67.041 L 29.8828 -3.41797 C 29.8828 0 32.9102 2.68555 36.2305 2.68555 Z M 56.2988 2.68555 C 59.7656 2.68555 62.6465 0.0488281 62.6465 -3.41797 L 62.6465 -67.041 C 62.6465 -70.459 59.668 -73.1445 56.2988 -73.1445 C 53.0762 -73.1445 49.9512 -70.4102 49.9512 -67.041 L 49.9512 -3.41797 C 49.9512 0 52.9785 2.68555 56.2988 2.68555 Z M 82.5195 -20.2637 L 98.6816 -31.0547 C 101.66 -33.0566 101.514 -37.207 98.6816 -39.1113 L 82.5195 -50.1465 C 78.8086 -52.6855 74.8535 -51.2695 74.8535 -46.8262 L 74.8535 -23.5352 C 74.8535 -19.1895 78.9551 -17.8711 82.5195 -20.2637 Z"/>
  </g>
  <g id="Heavy-S" transform="matrix(1 0 0 1 2582.71 696)">
   <path d="M 15.3809 2.14844 C 18.457 2.14844 20.9961 -0.195312 20.9961 -3.27148 L 20.9961 -67.2363 C 20.9961 -70.3125 18.4082 -72.7051 15.3809 -72.7051 C 12.5 -72.7051 9.76562 -70.2637 9.76562 -67.2363 L 9.76562 -3.27148 C 9.76562 -0.244141 12.4023 2.14844 15.3809 2.14844 Z M 35.2051 2.14844 C 38.2812 2.14844 40.8203 -0.195312 40.8203 -3.27148 L 40.8203 -67.2363 C 40.8203 -70.3125 38.2324 -72.7051 35.2051 -72.7051 C 32.3242 -72.7051 29.5898 -70.2637 29.5898 -67.2363 L 29.5898 -3.27148 C 29.5898 -0.244141 32.2266 2.14844 35.2051 2.14844 Z M 54.9805 2.14844 C 58.0566 2.14844 60.6445 -0.195312 60.6445 -3.27148 L 60.6445 -67.2363 C 60.6445 -70.3125 58.0078 -72.7051 54.9805 -72.7051 C 52.0996 -72.7051 49.3652 -70.2637 49.3652 -67.2363 L 49.3652 -3.27148 C 49.3652 -0.244141 52.0508 2.14844 54.9805 2.14844 Z M 80.6152 -20.9473 L 96.0938 -31.25 C 98.9258 -33.1543 98.8281 -37.1582 96.0938 -38.9648 L 80.6152 -49.5117 C 77.0996 -51.9531 73.291 -50.5859 73.291 -46.3379 L 73.291 -24.0723 C 73.291 -19.9219 77.2461 -18.6523 80.6152 -20.9473 Z"/>
  </g>
  <g id="Bold-S" transform="matrix(1 0 0 1 2287.51 696)">
   <path d="M 14.5996 1.5625 C 17.2363 1.5625 19.3848 -0.488281 19.3848 -3.125 L 19.3848 -67.4805 C 19.3848 -70.1172 17.1875 -72.168 14.5996 -72.168 C 12.0605 -72.168 9.76562 -70.0684 9.76562 -67.4805 L 9.76562 -3.125 C 9.76562 -0.488281 12.0117 1.5625 14.5996 1.5625 Z M 34.082 1.5625 C 36.7188 1.5625 38.916 -0.488281 38.916 -3.125 L 38.916 -67.4805 C 38.916 -70.1172 36.6699 -72.168 34.082 -72.168 C 31.543 -72.168 29.248 -70.0684 29.248 -67.4805 L 29.248 -3.125 C 29.248 -0.488281 31.4941 1.5625 34.082 1.5625 Z M 53.5645 1.5625 C 56.2012 1.5625 58.3496 -0.488281 58.3496 -3.125 L 58.3496 -67.4805 C 58.3496 -70.1172 56.1523 -72.168 53.5645 -72.168 C 51.0254 -72.168 48.7305 -70.0684 48.7305 -67.4805 L 48.7305 -3.125 C 48.7305 -0.488281 50.9766 1.5625 53.5645 1.5625 Z M 78.5156 -21.7285 L 93.2129 -31.4941 C 95.8984 -33.3008 95.8008 -37.0605 93.2129 -38.8184 L 78.5156 -48.8281 C 75.1465 -51.123 71.582 -49.8535 71.582 -45.8008 L 71.582 -24.707 C 71.582 -20.752 75.293 -19.5312 78.5156 -21.7285 Z"/>
  </g>
  <g id="Semibold-S" transform="matrix(1 0 0 1 1991.83 696)">
   <path d="M 14.0137 1.17188 C 16.3574 1.17188 18.3105 -0.683594 18.3105 -3.02734 L 18.3105 -67.627 C 18.3105 -69.9707 16.3574 -71.8262 14.0137 -71.8262 C 11.7676 -71.8262 9.76562 -69.9707 9.76562 -67.627 L 9.76562 -3.02734 C 9.76562 -0.683594 11.7188 1.17188 14.0137 1.17188 Z M 33.3008 1.17188 C 35.6445 1.17188 37.5488 -0.683594 37.5488 -3.02734 L 37.5488 -67.627 C 37.5488 -69.9707 35.5957 -71.8262 33.3008 -71.8262 C 31.0059 -71.8262 29.0527 -69.9707 29.0527 -67.627 L 29.0527 -3.02734 C 29.0527 -0.683594 31.0059 1.17188 33.3008 1.17188 Z M 52.5391 1.17188 C 54.8828 1.17188 56.7871 -0.683594 56.7871 -3.02734 L 56.7871 -67.627 C 56.7871 -69.9707 54.8828 -71.8262 52.5391 -71.8262 C 50.2441 -71.8262 48.291 -69.9707 48.291 -67.627 L 48.291 -3.02734 C 48.291 -0.683594 50.2441 1.17188 52.5391 1.17188 Z M 77.0508 -22.2168 L 91.2109 -31.6895 C 93.7988 -33.3984 93.7012 -37.0117 91.2109 -38.7207 L 77.0508 -48.3887 C 73.8281 -50.5859 70.3613 -49.3652 70.3613 -45.459 L 70.3613 -25.0977 C 70.3613 -21.2891 73.9746 -20.166 77.0508 -22.2168 Z"/>
  </g>
  <g id="Medium-S" transform="matrix(1 0 0 1 1695.9 696)">
   <path d="M 13.623 0.878906 C 15.7227 0.878906 17.4316 -0.830078 17.4316 -2.97852 L 17.4316 -67.7734 C 17.4316 -69.873 15.7227 -71.582 13.623 -71.582 C 11.5234 -71.582 9.76562 -69.873 9.76562 -67.7734 L 9.76562 -2.97852 C 9.76562 -0.830078 11.5234 0.878906 13.623 0.878906 Z M 32.7148 0.878906 C 34.8145 0.878906 36.5234 -0.830078 36.5234 -2.97852 L 36.5234 -67.7734 C 36.5234 -69.873 34.8145 -71.582 32.7148 -71.582 C 30.6152 -71.582 28.8574 -69.873 28.8574 -67.7734 L 28.8574 -2.97852 C 28.8574 -0.830078 30.6152 0.878906 32.7148 0.878906 Z M 51.8066 0.878906 C 53.9062 0.878906 55.6152 -0.830078 55.6152 -2.97852 L 55.6152 -67.7734 C 55.6152 -69.873 53.9062 -71.582 51.8066 -71.582 C 49.707 -71.582 47.9492 -69.873 47.9492 -67.7734 L 47.9492 -2.97852 C 47.9492 -0.830078 49.6582 0.878906 51.8066 0.878906 Z M 75.9766 -22.6562 L 89.6973 -31.7871 C 92.2363 -33.4961 92.0898 -36.9629 89.6973 -38.623 L 75.9766 -47.998 C 72.8027 -50.1465 69.4336 -48.9746 69.4336 -45.166 L 69.4336 -25.4395 C 69.4336 -21.7285 72.9492 -20.6055 75.9766 -22.6562 Z"/>
  </g>
  <g id="Regular-S" transform="matrix(1 0 0 1 1400.21 696)">
   <path d="M 13.0371 0.488281 C 14.8926 0.488281 16.3574 -1.02539 16.3574 -2.83203 L 16.3574 -67.9199 C 16.3574 -69.7754 14.8926 -71.2402 13.0371 -71.2402 C 11.2305 -71.2402 9.76562 -69.7754 9.76562 -67.9199 L 9.76562 -2.83203 C 9.76562 -1.02539 11.2305 0.488281 13.0371 0.488281 Z M 31.9336 0.488281 C 33.7402 0.488281 35.2051 -1.02539 35.2051 -2.83203 L 35.2051 -67.9199 C 35.2051 -69.7754 33.7402 -71.2402 31.9336 -71.2402 C 30.0781 -71.2402 28.6133 -69.7754 28.6133 -67.9199 L 28.6133 -2.83203 C 28.6133 -1.02539 30.0781 0.488281 31.9336 0.488281 Z M 50.7812 0.488281 C 52.6367 0.488281 54.1016 -1.02539 54.1016 -2.83203 L 54.1016 -67.9199 C 54.1016 -69.7754 52.6367 -71.2402 50.7812 -71.2402 C 48.9746 -71.2402 47.5098 -69.7754 47.5098 -67.9199 L 47.5098 -2.83203 C 47.5098 -1.02539 48.9746 0.488281 50.7812 0.488281 Z M 74.5117 -23.1445 L 87.7441 -31.9824 C 90.1367 -33.5449 90.0391 -36.9141 87.7441 -38.5254 L 74.5117 -47.5586 C 71.4844 -49.6094 68.2617 -48.4375 68.2617 -44.7754 L 68.2617 -25.8301 C 68.2617 -22.2656 71.6309 -21.2402 74.5117 -23.1445 Z"/>
  </g>
  <g id="Light-S" transform="matrix(1 0 0 1 1104.57 696)">
   <path d="M 12.3047 0.195312 C 13.7695 0.195312 14.8926 -0.976562 14.8926 -2.39258 L 14.8926 -68.2617 C 14.8926 -69.7266 13.7695 -70.8008 12.3047 -70.8008 C 10.8887 -70.8008 9.76562 -69.7266 9.76562 -68.2617 L 9.76562 -2.39258 C 9.76562 -0.976562 10.8887 0.195312 12.3047 0.195312 Z M 31.5918 0.195312 C 33.0078 0.195312 34.1309 -0.976562 34.1309 -2.39258 L 34.1309 -68.2617 C 34.1309 -69.7266 33.0078 -70.8008 31.5918 -70.8008 C 30.127 -70.8008 29.0527 -69.7266 29.0527 -68.2617 L 29.0527 -2.39258 C 29.0527 -0.976562 30.127 0.195312 31.5918 0.195312 Z M 50.8301 0.195312 C 52.2949 0.195312 53.418 -0.976562 53.418 -2.39258 L 53.418 -68.2617 C 53.418 -69.7266 52.2949 -70.8008 50.8301 -70.8008 C 49.4141 -70.8008 48.291 -69.7266 48.291 -68.2617 L 48.291 -2.39258 C 48.291 -0.976562 49.4141 0.195312 50.8301 0.195312 Z M 73.5352 -24.0234 L 85.7422 -32.1777 C 87.9395 -33.6426 87.8906 -36.7676 85.7422 -38.2324 L 73.5352 -46.582 C 70.752 -48.4863 67.7734 -47.4121 67.7734 -44.043 L 67.7734 -26.5137 C 67.7734 -23.2422 70.8496 -22.2656 73.5352 -24.0234 Z"/>
  </g>
  <g id="Thin-S" transform="matrix(1 0 0 1 809.254 696)">
   <path d="M 11.377 -0.244141 C 12.2559 -0.244141 12.9395 -0.927734 12.9395 -1.85547 L 12.9395 -68.7012 C 12.9395 -69.6289 12.2559 -70.3125 11.377 -70.3125 C 10.4492 -70.3125 9.76562 -69.6289 9.76562 -68.7012 L 9.76562 -1.85547 C 9.76562 -0.927734 10.4492 -0.244141 11.377 -0.244141 Z M 31.1523 -0.244141 C 32.0801 -0.244141 32.7148 -0.927734 32.7148 -1.85547 L 32.7148 -68.7012 C 32.7148 -69.6289 32.0801 -70.3125 31.1523 -70.3125 C 30.2246 -70.3125 29.541 -69.6289 29.541 -68.7012 L 29.541 -1.85547 C 29.541 -0.927734 30.2246 -0.244141 31.1523 -0.244141 Z M 50.9277 -0.244141 C 51.8555 -0.244141 52.5391 -0.927734 52.5391 -1.85547 L 52.5391 -68.7012 C 52.5391 -69.6289 51.8555 -70.3125 50.9277 -70.3125 C 50 -70.3125 49.3164 -69.6289 49.3164 -68.7012 L 49.3164 -1.85547 C 49.3164 -0.927734 50 -0.244141 50.9277 -0.244141 Z M 72.2168 -25.1953 L 83.1055 -32.4707 C 85.0586 -33.7891 85.0098 -36.5723 83.1055 -37.8906 L 72.2168 -45.3125 C 69.7266 -46.9727 67.0898 -46.0938 67.0898 -43.0176 L 67.0898 -27.3926 C 67.0898 -24.5117 69.8242 -23.584 72.2168 -25.1953 Z"/>
  </g>
  <g id="Ultralight-S" transform="matrix(1 0 0 1 513.276 696)">
   <path d="M 10.8398 -0.439453 C 11.5234 -0.439453 11.9629 -0.878906 11.9629 -1.51367 L 11.9629 -68.9453 C 11.9629 -69.5801 11.5234 -70.0195 10.8398 -70.0195 C 10.2051 -70.0195 9.76562 -69.5801 9.76562 -68.9453 L 9.76562 -1.51367 C 9.76562 -0.878906 10.2051 -0.439453 10.8398 -0.439453 Z M 30.9082 -0.439453 C 31.543 -0.439453 31.9824 -0.878906 31.9824 -1.51367 L 31.9824 -68.9453 C 31.9824 -69.5801 31.543 -70.0195 30.9082 -70.0195 C 30.2734 -70.0195 29.834 -69.5801 29.834 -68.9453 L 29.834 -1.51367 C 29.834 -0.878906 30.2734 -0.439453 30.9082 -0.439453 Z M 50.9766 -0.439453 C 51.6113 -0.439453 52.0508 -0.878906 52.0508 -1.51367 L 52.0508 -68.9453 C 52.0508 -69.5801 51.6113 -70.0195 50.9766 -70.0195 C 50.3418 -70.0195 49.8535 -69.5801 49.8535 -68.9453 L 49.8535 -1.51367 C 49.8535 -0.878906 50.3418 -0.439453 50.9766 -0.439453 Z M 71.5332 -25.7812 L 81.7383 -32.6172 C 83.5938 -33.8867 83.5449 -36.4746 81.7383 -37.6953 L 71.5332 -44.6289 C 69.1895 -46.2402 66.748 -45.3613 66.748 -42.4805 L 66.748 -27.8809 C 66.748 -25.1465 69.2871 -24.3164 71.5332 -25.7812 Z"/>
  </g>
 </g>
</svg>
