<?xml version="1.0" encoding="UTF-8"?>
<!--Generator: Apple Native CoreSVG 123-->
<!DOCTYPE svg
PUBLIC "-//W3C//DTD SVG 1.1//EN"
       "http://www.w3.org/Graphics/SVG/1.1/DTD/svg11.dtd">
<svg version="1.1" xmlns="http://www.w3.org/2000/svg" xmlns:xlink="http://www.w3.org/1999/xlink" width="3300" height="2200">
 <!--glyph: "uni10014C.medium", point size: 100.000000, font version: "Version 15.0d7e11", template writer version: "5"-->
 <g id="Notes">
  <rect height="2200" id="artboard" style="fill:white;opacity:1" width="3300" x="0" y="0"/>
  <line id="" style="fill:none;stroke:black;opacity:1;stroke-width:0.5;" x1="263" x2="3036" y1="292" y2="292"/>
  <text style="stroke:none;fill:black;font-family:-apple-system,&quot;SF Pro Display&quot;,&quot;SF Pro Text&quot;,Helvetica,sans-serif;font-weight:bold;" transform="matrix(1 0 0 1 263 322)">Weight/Scale Variations</text>
  <text style="stroke:none;fill:black;font-family:-apple-system,&quot;SF Pro Display&quot;,&quot;SF Pro Text&quot;,Helvetica,sans-serif;text-anchor:middle;" transform="matrix(1 0 0 1 559.711 322)">Ultralight</text>
  <text style="stroke:none;fill:black;font-family:-apple-system,&quot;SF Pro Display&quot;,&quot;SF Pro Text&quot;,Helvetica,sans-serif;text-anchor:middle;" transform="matrix(1 0 0 1 856.422 322)">Thin</text>
  <text style="stroke:none;fill:black;font-family:-apple-system,&quot;SF Pro Display&quot;,&quot;SF Pro Text&quot;,Helvetica,sans-serif;text-anchor:middle;" transform="matrix(1 0 0 1 1153.13 322)">Light</text>
  <text style="stroke:none;fill:black;font-family:-apple-system,&quot;SF Pro Display&quot;,&quot;SF Pro Text&quot;,Helvetica,sans-serif;text-anchor:middle;" transform="matrix(1 0 0 1 1449.84 322)">Regular</text>
  <text style="stroke:none;fill:black;font-family:-apple-system,&quot;SF Pro Display&quot;,&quot;SF Pro Text&quot;,Helvetica,sans-serif;text-anchor:middle;" transform="matrix(1 0 0 1 1746.56 322)">Medium</text>
  <text style="stroke:none;fill:black;font-family:-apple-system,&quot;SF Pro Display&quot;,&quot;SF Pro Text&quot;,Helvetica,sans-serif;text-anchor:middle;" transform="matrix(1 0 0 1 2043.27 322)">Semibold</text>
  <text style="stroke:none;fill:black;font-family:-apple-system,&quot;SF Pro Display&quot;,&quot;SF Pro Text&quot;,Helvetica,sans-serif;text-anchor:middle;" transform="matrix(1 0 0 1 2339.98 322)">Bold</text>
  <text style="stroke:none;fill:black;font-family:-apple-system,&quot;SF Pro Display&quot;,&quot;SF Pro Text&quot;,Helvetica,sans-serif;text-anchor:middle;" transform="matrix(1 0 0 1 2636.69 322)">Heavy</text>
  <text style="stroke:none;fill:black;font-family:-apple-system,&quot;SF Pro Display&quot;,&quot;SF Pro Text&quot;,Helvetica,sans-serif;text-anchor:middle;" transform="matrix(1 0 0 1 2933.4 322)">Black</text>
  <line id="" style="fill:none;stroke:black;opacity:1;stroke-width:0.5;" x1="263" x2="3036" y1="1903" y2="1903"/>
  <g id="" transform="matrix(1 0 0 1 263 1933)">
   <path d="M 9.24805 0.830078 C 13.5547 0.830078 17.1387 -2.74414 17.1387 -7.05078 C 17.1387 -11.3574 13.5449 -14.9316 9.23828 -14.9316 C 4.94141 -14.9316 1.36719 -11.3574 1.36719 -7.05078 C 1.36719 -2.74414 4.95117 0.830078 9.24805 0.830078 Z M 9.24805 -0.654297 C 5.70312 -0.654297 2.87109 -3.49609 2.87109 -7.05078 C 2.87109 -10.6055 5.69336 -13.4473 9.23828 -13.4473 C 12.793 -13.4473 15.6348 -10.6055 15.6445 -7.05078 C 15.6543 -3.49609 12.8027 -0.654297 9.24805 -0.654297 Z M 9.22852 -3.42773 C 9.69727 -3.42773 9.9707 -3.74023 9.9707 -4.25781 L 9.9707 -6.31836 L 12.1973 -6.31836 C 12.6953 -6.31836 13.0371 -6.57227 13.0371 -7.04102 C 13.0371 -7.51953 12.7148 -7.7832 12.1973 -7.7832 L 9.9707 -7.7832 L 9.9707 -10.0098 C 9.9707 -10.5273 9.69727 -10.8496 9.22852 -10.8496 C 8.75977 -10.8496 8.50586 -10.5078 8.50586 -10.0098 L 8.50586 -7.7832 L 6.29883 -7.7832 C 5.78125 -7.7832 5.44922 -7.51953 5.44922 -7.04102 C 5.44922 -6.57227 5.80078 -6.31836 6.29883 -6.31836 L 8.50586 -6.31836 L 8.50586 -4.25781 C 8.50586 -3.75977 8.75977 -3.42773 9.22852 -3.42773 Z"/>
  </g>
  <g id="" transform="matrix(1 0 0 1 281.506 1933)">
   <path d="M 11.709 2.91016 C 17.1582 2.91016 21.6699 -1.60156 21.6699 -7.05078 C 21.6699 -12.4902 17.1484 -17.0117 11.6992 -17.0117 C 6.25977 -17.0117 1.74805 -12.4902 1.74805 -7.05078 C 1.74805 -1.60156 6.26953 2.91016 11.709 2.91016 Z M 11.709 1.25 C 7.09961 1.25 3.41797 -2.44141 3.41797 -7.05078 C 3.41797 -11.6504 7.08984 -15.3516 11.6992 -15.3516 C 16.3086 -15.3516 20 -11.6504 20.0098 -7.05078 C 20.0195 -2.44141 16.3184 1.25 11.709 1.25 Z M 11.6895 -2.41211 C 12.207 -2.41211 12.5195 -2.77344 12.5195 -3.33984 L 12.5195 -6.23047 L 15.5762 -6.23047 C 16.123 -6.23047 16.5039 -6.51367 16.5039 -7.03125 C 16.5039 -7.55859 16.1426 -7.86133 15.5762 -7.86133 L 12.5195 -7.86133 L 12.5195 -10.9277 C 12.5195 -11.5039 12.207 -11.8555 11.6895 -11.8555 C 11.1719 -11.8555 10.8789 -11.4844 10.8789 -10.9277 L 10.8789 -7.86133 L 7.83203 -7.86133 C 7.26562 -7.86133 6.89453 -7.55859 6.89453 -7.03125 C 6.89453 -6.51367 7.28516 -6.23047 7.83203 -6.23047 L 10.8789 -6.23047 L 10.8789 -3.33984 C 10.8789 -2.79297 11.1719 -2.41211 11.6895 -2.41211 Z"/>
  </g>
  <g id="" transform="matrix(1 0 0 1 304.924 1933)">
   <path d="M 14.9707 5.67383 C 21.9336 5.67383 27.6953 -0.078125 27.6953 -7.04102 C 27.6953 -14.0039 21.9238 -19.7559 14.9609 -19.7559 C 8.00781 -19.7559 2.25586 -14.0039 2.25586 -7.04102 C 2.25586 -0.078125 8.01758 5.67383 14.9707 5.67383 Z M 14.9707 3.85742 C 8.93555 3.85742 4.08203 -1.00586 4.08203 -7.04102 C 4.08203 -13.0762 8.92578 -17.9395 14.9609 -17.9395 C 21.0059 -17.9395 25.8594 -13.0762 25.8691 -7.04102 C 25.8789 -1.00586 21.0156 3.85742 14.9707 3.85742 Z M 14.9512 -1.06445 C 15.5176 -1.06445 15.8691 -1.45508 15.8691 -2.06055 L 15.8691 -6.13281 L 20.1074 -6.13281 C 20.6934 -6.13281 21.1133 -6.46484 21.1133 -7.02148 C 21.1133 -7.59766 20.7227 -7.93945 20.1074 -7.93945 L 15.8691 -7.93945 L 15.8691 -12.1875 C 15.8691 -12.8027 15.5176 -13.1934 14.9512 -13.1934 C 14.3848 -13.1934 14.0625 -12.7832 14.0625 -12.1875 L 14.0625 -7.93945 L 9.83398 -7.93945 C 9.21875 -7.93945 8.80859 -7.59766 8.80859 -7.02148 C 8.80859 -6.46484 9.23828 -6.13281 9.83398 -6.13281 L 14.0625 -6.13281 L 14.0625 -2.06055 C 14.0625 -1.47461 14.3848 -1.06445 14.9512 -1.06445 Z"/>
  </g>
  <text style="stroke:none;fill:black;font-family:-apple-system,&quot;SF Pro Display&quot;,&quot;SF Pro Text&quot;,Helvetica,sans-serif;font-weight:bold;" transform="matrix(1 0 0 1 263 1953)">Design Variations</text>
  <text style="stroke:none;fill:black;font-family:-apple-system,&quot;SF Pro Display&quot;,&quot;SF Pro Text&quot;,Helvetica,sans-serif;" transform="matrix(1 0 0 1 263 1971)">Symbols are supported in up to nine weights and three scales.</text>
  <text style="stroke:none;fill:black;font-family:-apple-system,&quot;SF Pro Display&quot;,&quot;SF Pro Text&quot;,Helvetica,sans-serif;" transform="matrix(1 0 0 1 263 1989)">For optimal layout with text and other symbols, vertically align</text>
  <text style="stroke:none;fill:black;font-family:-apple-system,&quot;SF Pro Display&quot;,&quot;SF Pro Text&quot;,Helvetica,sans-serif;" transform="matrix(1 0 0 1 263 2007)">symbols with the adjacent text.</text>
  <rect height="14" id="" style="fill:#00AEEF;stroke:none;opacity:0.4;" width="3" x="776" y="1919"/>
  <g id="" transform="matrix(1 0 0 1 779 1933)">
   <path d="M 10.5273 0 L 12.373 0 L 7.17773 -14.0918 L 5.43945 -14.0918 L 0.244141 0 L 2.08984 0 L 3.50586 -4.0332 L 9.11133 -4.0332 Z M 6.2793 -11.9531 L 6.33789 -11.9531 L 8.59375 -5.52734 L 4.02344 -5.52734 Z"/>
  </g>
  <rect height="14" id="" style="fill:#00AEEF;stroke:none;opacity:0.4;" width="3" x="791.617" y="1919"/>
  <text style="stroke:none;fill:black;font-family:-apple-system,&quot;SF Pro Display&quot;,&quot;SF Pro Text&quot;,Helvetica,sans-serif;font-weight:bold;" transform="matrix(1 0 0 1 776 1953)">Margins</text>
  <text style="stroke:none;fill:black;font-family:-apple-system,&quot;SF Pro Display&quot;,&quot;SF Pro Text&quot;,Helvetica,sans-serif;" transform="matrix(1 0 0 1 776 1971)">Leading and trailing margins on the left and right side of each symbol</text>
  <text style="stroke:none;fill:black;font-family:-apple-system,&quot;SF Pro Display&quot;,&quot;SF Pro Text&quot;,Helvetica,sans-serif;" transform="matrix(1 0 0 1 776 1989)">can be adjusted by modifying the width of the blue rectangles.</text>
  <text style="stroke:none;fill:black;font-family:-apple-system,&quot;SF Pro Display&quot;,&quot;SF Pro Text&quot;,Helvetica,sans-serif;" transform="matrix(1 0 0 1 776 2007)">Modifications are automatically applied proportionally to all</text>
  <text style="stroke:none;fill:black;font-family:-apple-system,&quot;SF Pro Display&quot;,&quot;SF Pro Text&quot;,Helvetica,sans-serif;" transform="matrix(1 0 0 1 776 2025)">scales and weights.</text>
  <g id="" transform="matrix(1 0 0 1 1289 1933)">
   <path d="M 2.83203 3.11523 L 4.375 4.6582 C 5.22461 5.48828 6.19141 5.41992 7.06055 4.46289 L 17.2754 -6.66016 C 17.7051 -6.36719 18.0957 -6.37695 18.5645 -6.47461 L 19.6094 -6.68945 L 20.3027 -5.99609 L 20.2539 -5.47852 C 20.1855 -4.95117 20.3516 -4.53125 20.8496 -4.0332 L 21.6602 -3.22266 C 22.168 -2.71484 22.8223 -2.68555 23.3008 -3.16406 L 26.5527 -6.41602 C 27.0312 -6.89453 27.0117 -7.54883 26.5039 -8.05664 L 25.6836 -8.87695 C 25.1855 -9.375 24.7754 -9.55078 24.2383 -9.47266 L 23.7109 -9.41406 L 23.0566 -10.0781 L 23.3398 -11.2207 C 23.4863 -11.7871 23.3398 -12.2559 22.7148 -12.8613 L 20.3027 -15.2539 C 16.7578 -18.7793 12.2266 -18.6719 9.11133 -15.5371 C 8.69141 -15.1074 8.64258 -14.5215 8.91602 -14.0918 C 9.15039 -13.7207 9.62891 -13.4961 10.2734 -13.6621 C 11.7871 -14.043 13.3008 -13.9258 14.7852 -12.9199 L 14.1602 -11.3379 C 13.9258 -10.752 13.9453 -10.2734 14.1797 -9.83398 L 3.01758 0.439453 C 2.08008 1.30859 1.97266 2.25586 2.83203 3.11523 Z M 10.6738 -15.1465 C 13.3398 -17.1387 16.6504 -16.8262 19.0527 -14.4141 L 21.6797 -11.8066 C 21.9141 -11.5723 21.9434 -11.3867 21.8848 -11.0938 L 21.5039 -9.53125 L 23.0762 -7.95898 L 24.043 -8.04688 C 24.3262 -8.07617 24.4141 -8.05664 24.6387 -7.83203 L 25.2637 -7.20703 L 22.5098 -4.46289 L 21.8848 -5.07812 C 21.6602 -5.30273 21.6406 -5.40039 21.6699 -5.68359 L 21.7578 -6.64062 L 20.1953 -8.20312 L 18.5742 -7.89062 C 18.291 -7.83203 18.1445 -7.83203 17.9102 -8.07617 L 15.7324 -10.2539 C 15.5078 -10.4883 15.4785 -10.625 15.6055 -10.9473 L 16.5527 -13.2227 C 14.9512 -14.7559 12.8418 -15.6055 10.8008 -14.9512 C 10.7129 -14.9219 10.6445 -14.9414 10.6152 -14.9805 C 10.5859 -15.0293 10.5859 -15.0781 10.6738 -15.1465 Z M 4.10156 2.41211 C 3.61328 1.91406 3.78906 1.61133 4.12109 1.30859 L 15.0781 -8.80859 L 16.3086 -7.57812 L 6.15234 3.34961 C 5.84961 3.68164 5.46875 3.7793 5.06836 3.37891 Z"/>
  </g>
  <text style="stroke:none;fill:black;font-family:-apple-system,&quot;SF Pro Display&quot;,&quot;SF Pro Text&quot;,Helvetica,sans-serif;font-weight:bold;" transform="matrix(1 0 0 1 1289 1953)">Exporting</text>
  <text style="stroke:none;fill:black;font-family:-apple-system,&quot;SF Pro Display&quot;,&quot;SF Pro Text&quot;,Helvetica,sans-serif;" transform="matrix(1 0 0 1 1289 1971)">Symbols should be outlined when exporting to ensure the</text>
  <text style="stroke:none;fill:black;font-family:-apple-system,&quot;SF Pro Display&quot;,&quot;SF Pro Text&quot;,Helvetica,sans-serif;" transform="matrix(1 0 0 1 1289 1989)">design is preserved when submitting to Xcode.</text>
  <text id="template-version" style="stroke:none;fill:black;font-family:-apple-system,&quot;SF Pro Display&quot;,&quot;SF Pro Text&quot;,Helvetica,sans-serif;text-anchor:end;" transform="matrix(1 0 0 1 3036 1933)">Template v.1.0</text>
  <text style="stroke:none;fill:black;font-family:-apple-system,&quot;SF Pro Display&quot;,&quot;SF Pro Text&quot;,Helvetica,sans-serif;text-anchor:end;" transform="matrix(1 0 0 1 3036 1951)">Generated from arrow.2.squarepath</text>
  <text style="stroke:none;fill:black;font-family:-apple-system,&quot;SF Pro Display&quot;,&quot;SF Pro Text&quot;,Helvetica,sans-serif;text-anchor:end;" transform="matrix(1 0 0 1 3036 1969)">Typeset at 100 points</text>
  <text style="stroke:none;fill:black;font-family:-apple-system,&quot;SF Pro Display&quot;,&quot;SF Pro Text&quot;,Helvetica,sans-serif;" transform="matrix(1 0 0 1 263 726)">Small</text>
  <text style="stroke:none;fill:black;font-family:-apple-system,&quot;SF Pro Display&quot;,&quot;SF Pro Text&quot;,Helvetica,sans-serif;" transform="matrix(1 0 0 1 263 1156)">Medium</text>
  <text style="stroke:none;fill:black;font-family:-apple-system,&quot;SF Pro Display&quot;,&quot;SF Pro Text&quot;,Helvetica,sans-serif;" transform="matrix(1 0 0 1 263 1586)">Large</text>
 </g>
 <g id="Guides">
  <g id="H-reference" style="fill:#27AAE1;stroke:none;" transform="matrix(1 0 0 1 339 696)">
   <path d="M 54.9316 0 L 57.666 0 L 30.5664 -70.459 L 28.0762 -70.459 L 0.976562 0 L 3.66211 0 L 12.9395 -24.4629 L 45.7031 -24.4629 Z M 29.1992 -67.0898 L 29.4434 -67.0898 L 44.8242 -26.709 L 13.8184 -26.709 Z"/>
  </g>
  <line id="Baseline-S" style="fill:none;stroke:#27AAE1;opacity:1;stroke-width:0.577;" x1="263" x2="3036" y1="696" y2="696"/>
  <line id="Capline-S" style="fill:none;stroke:#27AAE1;opacity:1;stroke-width:0.577;" x1="263" x2="3036" y1="625.541" y2="625.541"/>
  <g id="H-reference" style="fill:#27AAE1;stroke:none;" transform="matrix(1 0 0 1 339 1126)">
   <path d="M 54.9316 0 L 57.666 0 L 30.5664 -70.459 L 28.0762 -70.459 L 0.976562 0 L 3.66211 0 L 12.9395 -24.4629 L 45.7031 -24.4629 Z M 29.1992 -67.0898 L 29.4434 -67.0898 L 44.8242 -26.709 L 13.8184 -26.709 Z"/>
  </g>
  <line id="Baseline-M" style="fill:none;stroke:#27AAE1;opacity:1;stroke-width:0.577;" x1="263" x2="3036" y1="1126" y2="1126"/>
  <line id="Capline-M" style="fill:none;stroke:#27AAE1;opacity:1;stroke-width:0.577;" x1="263" x2="3036" y1="1055.54" y2="1055.54"/>
  <g id="H-reference" style="fill:#27AAE1;stroke:none;" transform="matrix(1 0 0 1 339 1556)">
   <path d="M 54.9316 0 L 57.666 0 L 30.5664 -70.459 L 28.0762 -70.459 L 0.976562 0 L 3.66211 0 L 12.9395 -24.4629 L 45.7031 -24.4629 Z M 29.1992 -67.0898 L 29.4434 -67.0898 L 44.8242 -26.709 L 13.8184 -26.709 Z"/>
  </g>
  <line id="Baseline-L" style="fill:none;stroke:#27AAE1;opacity:1;stroke-width:0.577;" x1="263" x2="3036" y1="1556" y2="1556"/>
  <line id="Capline-L" style="fill:none;stroke:#27AAE1;opacity:1;stroke-width:0.577;" x1="263" x2="3036" y1="1485.54" y2="1485.54"/>
  <rect height="119.336" id="left-margin" style="fill:#00AEEF;stroke:none;opacity:0.4;" width="12.4989" x="1376.9" y="1030.79"/>
  <rect height="119.336" id="right-margin" style="fill:#00AEEF;stroke:none;opacity:0.4;" width="12.4989" x="1510.29" y="1030.79"/>
 </g>
 <g id="Symbols">
  <g id="Black-L" transform="matrix(1 0 0 1 2832.74 1556)">
   <path d="M 135.01 -96.875 L 93.3105 -96.875 C 87.1582 -96.875 82.8613 -92.7246 82.8613 -86.7676 C 82.8613 -80.8105 87.1582 -76.6602 93.3105 -76.6602 L 132.275 -76.6602 C 136.475 -76.6602 138.672 -74.7559 138.672 -70.2148 L 138.672 -13.7207 L 131.689 -22.1191 L 129.785 -23.9746 C 125.537 -28.2227 119.58 -28.2715 115.43 -24.0234 C 111.279 -19.873 111.23 -13.916 115.479 -9.66797 L 137.695 12.5 C 144.678 19.4824 152.881 19.4336 159.863 12.5 L 182.031 -9.66797 C 186.328 -13.916 186.23 -19.873 182.08 -24.0234 C 177.93 -28.2715 172.021 -28.2227 167.725 -23.9746 L 165.869 -22.1191 L 158.887 -13.7695 L 158.887 -73.0957 C 158.887 -88.2812 150.244 -96.875 135.01 -96.875 Z M 19.2383 -46.3379 C 23.3887 -42.1387 29.3457 -42.1387 33.5938 -46.3867 L 35.498 -48.2422 L 42.4316 -56.5918 L 42.4316 2.68555 C 42.4316 17.8711 51.123 26.5137 66.3574 26.5137 L 108.057 26.5137 C 114.209 26.5137 118.506 22.3633 118.457 16.4062 C 118.457 10.4492 114.209 6.29883 108.057 6.29883 L 69.0918 6.29883 C 64.8438 6.29883 62.6953 4.39453 62.6953 -0.146484 L 62.6953 -56.6406 L 69.6777 -48.2422 L 71.5332 -46.3867 C 75.8301 -42.1387 81.7383 -42.1387 85.8887 -46.3379 C 90.0391 -50.5371 90.1367 -56.4453 85.8398 -60.6934 L 63.6719 -82.8613 C 56.6406 -89.8438 48.4375 -89.7949 41.5039 -82.8613 L 19.2871 -60.6934 C 15.0391 -56.4453 15.0879 -50.5371 19.2383 -46.3379 Z"/>
  </g>
  <g id="Heavy-L" transform="matrix(1 0 0 1 2537.64 1556)">
   <path d="M 133.35 -95.8496 L 88.8672 -95.8496 C 83.4473 -95.8496 79.7363 -92.334 79.7363 -87.1094 C 79.7852 -81.9336 83.4473 -78.3691 88.8672 -78.3691 L 131.201 -78.3691 C 136.035 -78.3691 138.574 -76.0742 138.574 -70.9473 L 138.574 -11.4258 L 130.811 -20.3613 L 127.783 -23.3887 C 124.072 -27.002 118.945 -27.0996 115.332 -23.4375 C 111.768 -19.8242 111.719 -14.6484 115.43 -10.9863 L 137.549 11.1328 C 143.75 17.2852 150.928 17.2363 157.08 11.1328 L 179.199 -10.9863 C 182.91 -14.6484 182.861 -19.8242 179.248 -23.4375 C 175.684 -27.0996 170.508 -27.0508 166.846 -23.3887 L 163.818 -20.3613 L 156.055 -11.4258 L 156.055 -73.2422 C 156.055 -87.793 147.949 -95.8496 133.35 -95.8496 Z M 18.7988 -46.9238 C 22.4121 -43.2617 27.5391 -43.3105 31.25 -46.9727 L 34.2773 -50 L 41.9922 -58.9355 L 41.9922 2.88086 C 41.9922 17.4316 50.1465 25.4883 64.7461 25.4883 L 109.229 25.4883 C 114.648 25.4883 118.359 21.9727 118.311 16.748 C 118.311 11.5723 114.648 8.00781 109.229 8.00781 L 66.8945 8.00781 C 62.0605 8.00781 59.5215 5.71289 59.5215 0.585938 L 59.5215 -58.9355 L 67.2852 -50 L 70.3125 -46.9727 C 73.9746 -43.3594 79.1504 -43.2617 82.7148 -46.9238 C 86.3281 -50.5371 86.377 -55.7129 82.666 -59.375 L 60.5469 -81.4941 C 54.3457 -87.6465 47.168 -87.5977 41.0156 -81.4941 L 18.8965 -59.375 C 15.1855 -55.7129 15.2344 -50.5371 18.7988 -46.9238 Z"/>
  </g>
  <g id="Bold-L" transform="matrix(1 0 0 1 2242.76 1556)">
   <path d="M 131.445 -94.7266 L 83.8867 -94.7266 C 79.2969 -94.7266 76.2207 -91.8457 76.2695 -87.5 C 76.3184 -83.1543 79.2969 -80.2734 83.8867 -80.2734 L 130.029 -80.2734 C 135.547 -80.2734 138.477 -77.5391 138.477 -71.7285 L 138.477 -8.78906 L 129.834 -18.457 L 125.537 -22.6562 C 122.51 -25.6836 118.262 -25.7812 115.234 -22.7539 C 112.256 -19.7754 112.256 -15.4785 115.332 -12.4512 L 137.402 9.57031 C 142.627 14.7949 148.73 14.7461 153.955 9.57031 L 176.025 -12.4512 C 179.053 -15.4785 179.102 -19.7754 176.074 -22.7539 C 173.096 -25.7812 168.848 -25.6836 165.82 -22.6562 L 161.523 -18.457 L 152.93 -8.83789 L 152.93 -73.3887 C 152.93 -87.2559 145.361 -94.7266 131.445 -94.7266 Z M 18.3594 -47.5586 C 21.3379 -44.5801 25.5859 -44.6289 28.6133 -47.6562 L 32.9102 -51.9043 L 41.5039 -61.5234 L 41.5039 3.07617 C 41.5039 16.8945 49.0723 24.3652 62.9883 24.3652 L 110.547 24.3652 C 115.137 24.3652 118.213 21.4844 118.164 17.1387 C 118.115 12.793 115.137 9.91211 110.547 9.91211 L 64.4043 9.91211 C 58.8867 9.91211 55.957 7.17773 55.957 1.41602 L 55.957 -61.5723 L 64.5996 -51.9043 L 68.8965 -47.6562 C 71.9238 -44.6777 76.1719 -44.5312 79.1992 -47.5586 C 82.1777 -50.5859 82.1777 -54.8828 79.1016 -57.9102 L 57.0312 -79.8828 C 51.8066 -85.1074 45.7031 -85.1074 40.4785 -79.8828 L 18.4082 -57.9102 C 15.3809 -54.8828 15.332 -50.5859 18.3594 -47.5586 Z"/>
  </g>
  <g id="Semibold-L" transform="matrix(1 0 0 1 1947.3 1556)">
   <path d="M 130.176 -93.9453 L 80.4199 -93.9453 C 76.416 -93.9453 73.8281 -91.5039 73.877 -87.7441 C 73.9258 -84.0332 76.416 -81.5918 80.4199 -81.5918 L 129.199 -81.5918 C 135.205 -81.5918 138.428 -78.5156 138.428 -72.3145 L 138.428 -6.98242 L 129.15 -17.0898 L 123.975 -22.168 C 121.387 -24.707 117.773 -24.9023 115.186 -22.3145 C 112.598 -19.7266 112.646 -16.0645 115.283 -13.4766 L 137.305 8.49609 C 141.895 13.0859 147.217 13.0371 151.807 8.49609 L 173.828 -13.4766 C 176.416 -16.0645 176.465 -19.7266 173.926 -22.3145 C 171.338 -24.9023 167.725 -24.7559 165.088 -22.168 L 159.961 -17.0898 L 150.732 -7.03125 L 150.732 -73.5352 C 150.732 -86.8652 143.604 -93.9453 130.176 -93.9453 Z M 18.0176 -48.0469 C 20.5566 -45.459 24.2188 -45.5566 26.8066 -48.1445 L 31.9824 -53.2227 L 41.1621 -63.2812 L 41.1621 3.17383 C 41.1621 16.5527 48.291 23.584 61.7676 23.584 L 111.475 23.584 C 115.479 23.584 118.115 21.1914 118.066 17.4316 C 118.018 13.6719 115.479 11.2793 111.475 11.2793 L 62.7441 11.2793 C 56.7383 11.2793 53.5156 8.20312 53.5156 1.95312 L 53.5156 -63.3301 L 62.793 -53.2227 L 67.9199 -48.1445 C 70.5566 -45.6055 74.1699 -45.4102 76.7578 -48.0469 C 79.2969 -50.6348 79.248 -54.2969 76.6602 -56.8848 L 54.6387 -78.8086 C 50 -83.3984 44.7266 -83.3984 40.0879 -78.8086 L 18.1152 -56.8848 C 15.4785 -54.2969 15.4297 -50.6348 18.0176 -48.0469 Z"/>
  </g>
  <g id="Medium-L" transform="matrix(1 0 0 1 1651.54 1556)">
   <path d="M 129.199 -93.3105 L 77.832 -93.3105 C 74.2676 -93.3105 71.9727 -91.2598 72.0215 -87.9395 C 72.0703 -84.668 74.2676 -82.6172 77.832 -82.6172 L 128.564 -82.6172 C 134.912 -82.6172 138.379 -79.2969 138.379 -72.7051 L 138.379 -5.61523 L 128.613 -16.0645 L 122.803 -21.8262 C 120.557 -24.0234 117.383 -24.2188 115.137 -21.9727 C 112.891 -19.6777 112.939 -16.5039 115.234 -14.2578 L 137.207 7.66602 C 141.357 11.7676 146.045 11.7676 150.195 7.66602 L 172.168 -14.2578 C 174.414 -16.5039 174.512 -19.6777 172.266 -21.9727 C 170.02 -24.2188 166.846 -24.0723 164.551 -21.8262 L 158.74 -16.0645 L 149.121 -5.66406 L 149.121 -73.6328 C 149.121 -86.5723 142.285 -93.3105 129.199 -93.3105 Z M 17.7734 -48.3887 C 20.0195 -46.0938 23.1445 -46.2402 25.4395 -48.5352 L 31.25 -54.248 L 40.918 -64.6484 L 40.918 3.27148 C 40.918 16.2598 47.7539 22.998 60.791 22.998 L 112.207 22.998 C 115.771 22.998 118.018 20.9473 117.969 17.627 C 117.92 14.3555 115.771 12.2559 112.207 12.2559 L 61.4258 12.2559 C 55.0781 12.2559 51.6602 8.98438 51.6602 2.39258 L 51.6602 -64.6973 L 61.377 -54.248 L 67.1875 -48.5352 C 69.4824 -46.3379 72.6074 -46.0938 74.9023 -48.3887 C 77.1484 -50.6348 77.0508 -53.8574 74.7559 -56.1035 L 52.832 -78.0273 C 48.6816 -82.0801 43.9453 -82.0801 39.8438 -78.0273 L 17.8711 -56.1035 C 15.5762 -53.8574 15.5273 -50.6348 17.7734 -48.3887 Z"/>
  </g>
  <g id="Regular-L" transform="matrix(1 0 0 1 1356.07 1556)">
   <path d="M 127.93 -92.5293 L 74.4141 -92.5293 C 71.4355 -92.5293 69.6289 -90.918 69.6777 -88.2324 C 69.7266 -85.498 71.4355 -83.8867 74.4141 -83.8867 L 127.783 -83.8867 C 134.57 -83.8867 138.281 -80.2734 138.281 -73.291 L 138.281 -3.85742 L 127.93 -14.7461 L 121.289 -21.3379 C 119.482 -23.0957 116.943 -23.3398 115.039 -21.4844 C 113.232 -19.6777 113.33 -17.041 115.186 -15.2344 L 137.109 6.64062 C 140.576 10.0586 144.58 10.0586 148.047 6.64062 L 169.971 -15.2344 C 171.826 -17.041 171.924 -19.6777 170.117 -21.4844 C 168.262 -23.3398 165.723 -23.1445 163.867 -21.3379 L 157.227 -14.7461 L 146.924 -3.90625 L 146.924 -73.7305 C 146.924 -86.2305 140.527 -92.5293 127.93 -92.5293 Z M 17.4316 -48.8281 C 19.2871 -46.9727 21.8262 -47.168 23.6816 -48.9746 L 30.3223 -55.5664 L 40.5762 -66.4062 L 40.5762 3.41797 C 40.5762 15.918 47.0215 22.2168 59.6191 22.2168 L 113.086 22.2168 C 116.113 22.2168 117.92 20.6055 117.871 17.9199 C 117.822 15.1855 116.113 13.5742 113.086 13.5742 L 59.7656 13.5742 C 52.9297 13.5742 49.2188 9.96094 49.2188 2.97852 L 49.2188 -66.5039 L 59.5703 -55.5664 L 66.2598 -48.9746 C 68.0664 -47.2168 70.6055 -46.9727 72.4609 -48.8281 C 74.3164 -50.6836 74.2188 -53.2715 72.3633 -55.0781 L 50.4395 -76.9531 C 46.9238 -80.3711 42.9688 -80.3711 39.4531 -76.9531 L 17.5781 -55.0781 C 15.7227 -53.2715 15.5762 -50.6836 17.4316 -48.8281 Z"/>
  </g>
  <g id="Light-L" transform="matrix(1 0 0 1 1059.85 1556)">
   <path d="M 127.637 -91.6992 L 71.0938 -91.6992 C 68.8965 -91.6992 67.4805 -90.4297 67.5293 -88.3789 C 67.5293 -86.377 68.8965 -85.0586 71.0938 -85.0586 L 127.49 -85.0586 C 135.01 -85.0586 139.014 -81.1523 139.014 -73.4863 L 139.014 -2.63672 L 127.393 -14.7461 L 119.873 -22.168 C 118.506 -23.4863 116.553 -23.7793 115.088 -22.3633 C 113.672 -20.8984 113.77 -18.9453 115.234 -17.5293 L 138.037 5.27344 C 140.723 7.91016 143.799 7.91016 146.484 5.27344 L 169.336 -17.5293 C 170.752 -18.9453 170.898 -20.8984 169.434 -22.3633 C 168.066 -23.7305 166.113 -23.584 164.648 -22.168 L 157.178 -14.7461 L 145.605 -2.63672 L 145.605 -73.8281 C 145.605 -85.6445 139.502 -91.6992 127.637 -91.6992 Z M 17.1387 -47.9492 C 18.5059 -46.5332 20.459 -46.6797 21.9238 -48.0957 L 29.4434 -55.5176 L 40.9668 -67.627 L 40.9668 3.56445 C 40.9668 15.3809 47.0703 21.4355 58.9355 21.4355 L 115.479 21.4355 C 117.676 21.4355 119.092 20.1172 119.043 18.1152 C 119.043 16.0645 117.676 14.7949 115.479 14.7949 L 59.082 14.7949 C 51.6113 14.7949 47.5586 10.8398 47.5586 3.22266 L 47.5586 -67.6758 L 59.1797 -55.5176 L 66.6992 -48.0957 C 68.0664 -46.7773 70.0195 -46.4844 71.4844 -47.9492 C 72.9492 -49.3652 72.8027 -51.3672 71.3867 -52.7344 L 48.5352 -75.5371 C 45.8496 -78.1738 42.7734 -78.1738 40.0879 -75.5371 L 17.2363 -52.7344 C 15.8203 -51.3672 15.6738 -49.3652 17.1387 -47.9492 Z"/>
  </g>
  <g id="Thin-L" transform="matrix(1 0 0 1 763.771 1556)">
   <path d="M 127.246 -90.5762 L 66.6992 -90.5762 C 65.5273 -90.5762 64.6973 -89.7461 64.6973 -88.623 C 64.6973 -87.5 65.5273 -86.6699 66.6992 -86.6699 L 127.1 -86.6699 C 135.547 -86.6699 139.941 -82.2754 139.941 -73.7793 L 139.941 -1.02539 L 126.611 -14.7461 L 118.018 -23.291 C 117.188 -24.0234 116.016 -24.3652 115.137 -23.4863 C 114.209 -22.5098 114.355 -21.4355 115.234 -20.5566 L 139.258 3.4668 C 140.869 5.07812 142.871 5.07812 144.434 3.4668 L 168.457 -20.5566 C 169.336 -21.4355 169.482 -22.5098 168.555 -23.4863 C 167.773 -24.2676 166.602 -24.1699 165.723 -23.291 L 157.08 -14.7461 L 143.848 -1.02539 L 143.848 -73.9746 C 143.848 -84.8633 138.135 -90.5762 127.246 -90.5762 Z M 16.748 -46.7773 C 17.5293 -45.9473 18.7012 -46.0449 19.5801 -46.9238 L 28.2227 -55.4688 L 41.4551 -69.1895 L 41.4551 3.75977 C 41.4551 14.6484 47.168 20.3613 58.0566 20.3613 L 118.604 20.3613 C 119.775 20.3613 120.605 19.4824 120.605 18.3594 C 120.605 17.2363 119.775 16.4062 118.604 16.4062 L 58.2031 16.4062 C 49.7559 16.4062 45.3613 12.0117 45.3613 3.56445 L 45.3613 -69.1895 L 58.6914 -55.4688 L 67.334 -46.9238 C 68.1152 -46.1914 69.2871 -45.8984 70.166 -46.7773 C 71.0938 -47.7051 70.9473 -48.8281 70.0684 -49.6582 L 46.0449 -73.7305 C 44.4336 -75.293 42.4805 -75.293 40.8691 -73.7305 L 16.8457 -49.6582 C 15.9668 -48.8281 15.8203 -47.7051 16.748 -46.7773 Z"/>
  </g>
  <g id="Ultralight-L" transform="matrix(1 0 0 1 467.377 1556)">
   <path d="M 127.051 -89.9902 L 64.4531 -89.9902 C 63.8184 -89.9902 63.2324 -89.4043 63.2324 -88.7207 C 63.2324 -88.0859 63.8184 -87.4512 64.4531 -87.4512 L 126.904 -87.4512 C 135.791 -87.4512 140.43 -82.8125 140.43 -73.9258 L 140.43 -0.292969 L 142.969 -0.292969 L 142.969 -74.0723 C 142.969 -84.4727 137.402 -89.9902 127.051 -89.9902 Z M 16.5527 -46.1426 C 17.041 -45.6543 17.8223 -45.752 18.4082 -46.3379 L 27.6367 -55.4199 L 41.6504 -69.9707 L 44.2871 -69.9707 L 58.3984 -55.4199 L 67.627 -46.3379 C 68.1152 -45.8984 68.8965 -45.5566 69.4824 -46.1426 C 70.166 -46.8262 69.9707 -47.5098 69.3848 -48.0957 L 44.7266 -72.7539 C 43.7012 -73.7793 42.334 -73.7793 41.3086 -72.7539 L 16.6504 -48.0957 C 16.0645 -47.5098 15.8691 -46.8262 16.5527 -46.1426 Z M 57.6172 19.7754 L 120.215 19.7754 C 120.85 19.7754 121.436 19.1895 121.436 18.5059 C 121.436 17.8711 120.85 17.2363 120.215 17.2363 L 57.7637 17.2363 C 48.877 17.2363 44.2383 12.6465 44.2383 3.75977 L 44.2383 -69.9219 L 41.6992 -69.9219 L 41.6992 3.85742 C 41.6992 14.2578 47.2168 19.7754 57.6172 19.7754 Z M 168.115 -24.0234 C 167.627 -24.5605 166.846 -24.4629 166.26 -23.877 L 157.031 -14.7461 L 143.018 -0.244141 L 140.381 -0.244141 L 126.221 -14.7461 L 117.041 -23.877 C 116.553 -24.3164 115.771 -24.6094 115.186 -24.0234 C 114.502 -23.3887 114.648 -22.7051 115.234 -22.1191 L 139.941 2.58789 C 140.918 3.61328 142.334 3.61328 143.359 2.58789 L 168.018 -22.1191 C 168.604 -22.7051 168.799 -23.3887 168.115 -24.0234 Z"/>
  </g>
  <g id="Black-M" transform="matrix(1 0 0 1 2853.47 1126)">
   <path d="M 106.689 -83.9355 L 76.5137 -83.9355 C 71.1426 -83.9355 67.2363 -80.0781 67.2363 -74.8047 C 67.2363 -69.5312 71.1426 -65.6738 76.5137 -65.6738 L 103.76 -65.6738 C 106.543 -65.6738 107.91 -64.5508 107.91 -61.4746 L 107.91 -21.0938 L 102.881 -27.3926 L 102.49 -27.832 C 98.6328 -31.6895 93.2617 -31.5918 89.5508 -27.832 C 85.8398 -24.0234 85.6934 -18.75 89.5508 -14.8926 L 107.373 2.92969 C 113.477 9.0332 120.703 8.93555 126.758 2.92969 L 144.531 -14.8926 C 148.389 -18.75 148.291 -24.0234 144.531 -27.832 C 140.82 -31.5918 135.449 -31.6895 131.641 -27.832 L 131.201 -27.3926 L 126.221 -21.0938 L 126.221 -64.4043 C 126.221 -76.6602 118.945 -83.9355 106.689 -83.9355 Z M 15.2832 -42.5781 C 18.9941 -38.7695 24.3652 -38.7207 28.2227 -42.5781 L 28.6133 -42.9688 L 33.6426 -49.3164 L 33.6426 -5.95703 C 33.6426 6.29883 40.918 13.5742 53.1738 13.5742 L 83.3496 13.5742 C 88.6719 13.5742 92.627 9.7168 92.627 4.39453 C 92.627 -0.878906 88.6719 -4.73633 83.3496 -4.73633 L 56.1035 -4.73633 C 53.2715 -4.73633 51.9531 -5.81055 51.9531 -8.88672 L 51.9531 -49.3164 L 56.9336 -42.9688 L 57.373 -42.5781 C 61.1816 -38.7207 66.5527 -38.7695 70.2637 -42.5781 C 74.0234 -46.3379 74.1211 -51.6602 70.2637 -55.5176 L 52.4902 -73.291 C 46.3867 -79.3945 39.1113 -79.3457 33.1055 -73.291 L 15.2832 -55.5176 C 11.4258 -51.6602 11.5723 -46.3379 15.2832 -42.5781 Z"/>
  </g>
  <g id="Heavy-M" transform="matrix(1 0 0 1 2558.42 1126)">
   <path d="M 104.932 -83.0566 L 72.5098 -83.0566 C 67.7734 -83.0566 64.4043 -79.7852 64.4043 -75.1465 C 64.4043 -70.5078 67.7734 -67.2363 72.5098 -67.2363 L 102.686 -67.2363 C 105.957 -67.2363 107.666 -65.7715 107.666 -62.207 L 107.666 -18.8477 L 102.1 -25.5371 L 100.684 -26.9043 C 97.3633 -30.2246 92.7246 -30.2246 89.4531 -26.9531 C 86.2305 -23.6816 86.1328 -19.043 89.502 -15.7227 L 106.982 1.75781 C 112.402 7.12891 118.75 7.08008 124.121 1.75781 L 141.602 -15.7227 C 144.971 -19.043 144.873 -23.6816 141.65 -26.9531 C 138.428 -30.2246 133.789 -30.2246 130.42 -26.9043 L 129.004 -25.5371 L 123.486 -18.8477 L 123.486 -64.5508 C 123.486 -76.3184 116.699 -83.0566 104.932 -83.0566 Z M 14.8926 -43.457 C 18.1641 -40.1855 22.8027 -40.1367 26.123 -43.457 L 27.5391 -44.873 L 33.0566 -51.5625 L 33.0566 -5.81055 C 33.0566 5.9082 39.8438 12.6465 51.6113 12.6465 L 84.0332 12.6465 C 88.7695 12.6465 92.1875 9.375 92.1387 4.73633 C 92.1387 0.0976562 88.7695 -3.17383 84.0332 -3.17383 L 53.9062 -3.17383 C 50.5859 -3.17383 48.9258 -4.63867 48.9258 -8.1543 L 48.9258 -51.5625 L 54.4434 -44.873 L 55.8594 -43.457 C 59.2285 -40.1367 63.8672 -40.1367 67.0898 -43.457 C 70.3125 -46.7285 70.4102 -51.3184 67.041 -54.6387 L 49.5605 -72.1191 C 44.1406 -77.5391 37.793 -77.4902 32.4219 -72.1191 L 14.9414 -54.6387 C 11.6211 -51.3184 11.6699 -46.7285 14.8926 -43.457 Z"/>
  </g>
  <g id="Bold-M" transform="matrix(1 0 0 1 2263.54 1126)">
   <path d="M 102.979 -82.0312 L 68.0664 -82.0312 C 63.9648 -82.0312 61.1816 -79.3945 61.2305 -75.4883 C 61.2305 -71.6309 63.9648 -68.9453 68.0664 -68.9453 L 101.465 -68.9453 C 105.322 -68.9453 107.373 -67.1387 107.373 -63.0371 L 107.373 -16.3574 L 101.221 -23.3887 L 98.6328 -25.8789 C 95.8984 -28.6133 92.041 -28.7109 89.3555 -25.9766 C 86.6699 -23.2422 86.6699 -19.3848 89.4043 -16.6504 L 106.543 0.439453 C 111.182 5.07812 116.602 5.0293 121.191 0.439453 L 138.33 -16.6504 C 141.113 -19.3848 141.064 -23.2422 138.379 -25.9766 C 135.693 -28.7109 131.836 -28.6621 129.102 -25.8789 L 126.562 -23.3887 L 120.41 -16.3574 L 120.41 -64.6973 C 120.41 -75.8789 114.209 -82.0312 102.979 -82.0312 Z M 14.502 -44.4336 C 17.1875 -41.6992 21.0449 -41.748 23.7793 -44.4824 L 26.3184 -46.9727 L 32.4707 -54.0039 L 32.4707 -5.66406 C 32.4707 5.51758 38.6719 11.6699 49.8535 11.6699 L 84.8145 11.6699 C 88.916 11.6699 91.6504 9.0332 91.6504 5.12695 C 91.6016 1.2207 88.916 -1.41602 84.8145 -1.41602 L 51.416 -1.41602 C 47.5586 -1.41602 45.5078 -3.27148 45.5078 -7.32422 L 45.5078 -54.0527 L 51.6602 -46.9727 L 54.1992 -44.4824 C 56.9824 -41.748 60.791 -41.6992 63.5254 -44.4336 C 66.2109 -47.1191 66.2109 -50.9766 63.4766 -53.7109 L 46.3379 -70.8008 C 41.6992 -75.4395 36.2793 -75.4395 31.6895 -70.8008 L 14.5508 -53.7109 C 11.7676 -50.9766 11.8164 -47.1191 14.502 -44.4336 Z"/>
  </g>
  <g id="Semibold-M" transform="matrix(1 0 0 1 1968.1 1126)">
   <path d="M 101.66 -81.3477 L 64.9902 -81.3477 C 61.377 -81.3477 59.0332 -79.1504 59.0332 -75.7812 C 59.082 -72.3633 61.377 -70.166 64.9902 -70.166 L 100.635 -70.166 C 104.883 -70.166 107.129 -68.0664 107.129 -63.623 L 107.129 -14.5996 L 100.586 -21.9238 L 97.2656 -25.1953 C 94.9219 -27.5391 91.6016 -27.6367 89.3066 -25.293 C 86.9629 -22.9492 87.0117 -19.6289 89.3555 -17.2852 L 106.25 -0.439453 C 110.352 3.61328 115.088 3.61328 119.189 -0.439453 L 136.084 -17.2852 C 138.428 -19.6289 138.428 -22.9492 136.133 -25.293 C 133.838 -27.6367 130.518 -27.5391 128.174 -25.1953 L 124.854 -21.9238 L 118.311 -14.6484 L 118.311 -64.8438 C 118.311 -75.5859 112.5 -81.3477 101.66 -81.3477 Z M 14.209 -45.0684 C 16.5039 -42.7734 19.8242 -42.8223 22.168 -45.166 L 25.4883 -48.4375 L 32.0312 -55.7129 L 32.0312 -5.56641 C 32.0312 5.22461 37.8418 10.9863 48.6816 10.9863 L 85.3516 10.9863 C 88.9648 10.9863 91.3086 8.74023 91.3086 5.37109 C 91.2598 2.00195 88.9648 -0.195312 85.3516 -0.195312 L 49.707 -0.195312 C 45.459 -0.195312 43.2129 -2.34375 43.2129 -6.78711 L 43.2129 -55.7617 L 49.7559 -48.4375 L 53.0762 -45.166 C 55.4199 -42.8711 58.7402 -42.7246 61.0352 -45.0684 C 63.3789 -47.4121 63.3301 -50.7324 60.9863 -53.0762 L 44.0918 -69.9219 C 39.9902 -74.0234 35.2539 -73.9746 31.1523 -69.9219 L 14.2578 -53.0762 C 11.9141 -50.7324 11.9141 -47.4121 14.209 -45.0684 Z"/>
  </g>
  <g id="Medium-M" transform="matrix(1 0 0 1 1672.34 1126)">
   <path d="M 100.635 -80.8105 L 62.6465 -80.8105 C 59.375 -80.8105 57.3242 -78.9551 57.373 -75.9766 C 57.4219 -72.9492 59.375 -71.0938 62.6465 -71.0938 L 100 -71.0938 C 104.541 -71.0938 106.982 -68.75 106.982 -64.0137 L 106.982 -13.2812 L 100.098 -20.8008 L 96.1914 -24.6582 C 94.1406 -26.6602 91.2598 -26.8555 89.2578 -24.7559 C 87.207 -22.7539 87.2559 -19.8242 89.3066 -17.7734 L 106.006 -1.12305 C 109.717 2.53906 113.965 2.53906 117.676 -1.12305 L 134.326 -17.7734 C 136.426 -19.8242 136.475 -22.7539 134.424 -24.7559 C 132.373 -26.8066 129.541 -26.709 127.441 -24.6582 L 123.535 -20.8008 L 116.748 -13.3301 L 116.748 -64.8926 C 116.748 -75.3906 111.182 -80.8105 100.635 -80.8105 Z M 13.9648 -45.6055 C 16.0156 -43.5547 18.8965 -43.6523 20.9473 -45.7031 L 24.8535 -49.5605 L 31.6895 -57.0312 L 31.6895 -5.46875 C 31.6895 4.98047 37.207 10.4492 47.7539 10.4492 L 85.791 10.4492 C 89.0137 10.4492 91.0645 8.59375 91.0156 5.56641 C 91.0156 2.58789 89.0137 0.732422 85.791 0.732422 L 48.3887 0.732422 C 43.8965 0.732422 41.4062 -1.61133 41.4062 -6.34766 L 41.4062 -57.0801 L 48.291 -49.5605 L 52.1973 -45.7031 C 54.2969 -43.7012 57.1289 -43.5547 59.1797 -45.6055 C 61.1816 -47.6562 61.1816 -50.5371 59.082 -52.5879 L 42.3828 -69.2383 C 38.6719 -72.9004 34.4727 -72.9004 30.7617 -69.2383 L 14.0625 -52.5879 C 12.0117 -50.5371 11.9629 -47.6562 13.9648 -45.6055 Z"/>
  </g>
  <g id="Regular-M" transform="matrix(1 0 0 1 1376.9 1126)">
   <path d="M 99.3164 -80.127 L 59.5703 -80.127 C 56.7871 -80.127 55.1758 -78.7109 55.2246 -76.2207 C 55.2734 -73.7305 56.7871 -72.2656 59.5703 -72.2656 L 99.2188 -72.2656 C 104.102 -72.2656 106.787 -69.6777 106.787 -64.5996 L 106.787 -11.5723 L 99.5117 -19.3848 L 94.8242 -23.9746 C 93.1641 -25.5859 90.8691 -25.7812 89.1602 -24.1211 C 87.5 -22.4609 87.5977 -20.0684 89.2578 -18.4082 L 105.713 -2.05078 C 108.936 1.12305 112.451 1.12305 115.674 -2.05078 L 132.08 -18.4082 C 133.789 -20.0684 133.838 -22.4609 132.227 -24.1211 C 130.566 -25.7812 128.223 -25.6348 126.562 -23.9746 L 121.875 -19.3848 L 114.648 -11.6211 L 114.648 -64.9902 C 114.648 -75.0977 109.521 -80.127 99.3164 -80.127 Z M 46.582 9.76562 L 86.3281 9.76562 C 89.1113 9.76562 90.7227 8.34961 90.6738 5.85938 C 90.625 3.32031 89.1113 1.9043 86.3281 1.9043 L 46.7285 1.9043 C 41.8457 1.9043 39.1113 -0.683594 39.1113 -5.76172 L 39.1113 -58.7891 L 46.3867 -51.0254 L 51.0742 -46.3867 C 52.7344 -44.7754 55.0781 -44.5801 56.7383 -46.2891 C 58.3984 -47.9004 58.3008 -50.293 56.6406 -51.9531 L 40.1855 -68.3594 C 37.0117 -71.4844 33.4473 -71.4844 30.2734 -68.3594 L 13.8184 -51.9531 C 12.1094 -50.293 12.0605 -47.9004 13.6719 -46.2891 C 15.3809 -44.5801 17.6758 -44.7754 19.3359 -46.3867 L 24.0234 -51.0254 L 31.25 -58.7402 L 31.25 -5.37109 C 31.25 4.73633 36.4258 9.76562 46.582 9.76562 Z"/>
  </g>
  <g id="Light-M" transform="matrix(1 0 0 1 1080.6 1126)">
   <path d="M 99.0723 -79.3945 L 56.5918 -79.3945 C 54.541 -79.3945 53.2715 -78.2227 53.3203 -76.3672 C 53.3203 -74.4629 54.541 -73.3398 56.5918 -73.3398 L 98.9258 -73.3398 C 104.443 -73.3398 107.422 -70.4102 107.422 -64.7949 L 107.422 -10.498 L 98.9746 -19.3848 L 93.5547 -24.7559 C 92.2852 -25.9277 90.4785 -26.1719 89.209 -24.8535 C 87.8906 -23.584 87.9883 -21.7285 89.3066 -20.459 L 106.543 -3.22266 C 109.033 -0.830078 111.816 -0.830078 114.258 -3.22266 L 131.543 -20.459 C 132.812 -21.7285 132.91 -23.584 131.641 -24.8535 C 130.322 -26.123 128.564 -26.0254 127.246 -24.7559 L 121.826 -19.3848 L 113.477 -10.5469 L 113.477 -65.0879 C 113.477 -74.5605 108.594 -79.3945 99.0723 -79.3945 Z M 45.9961 9.0332 L 88.4277 9.0332 C 90.5273 9.0332 91.7969 7.91016 91.748 6.00586 C 91.6992 4.15039 90.5273 2.97852 88.4277 2.97852 L 46.0938 2.97852 C 40.625 2.97852 37.6465 0.0976562 37.6465 -5.56641 L 37.6465 -59.8145 L 46.0449 -50.9766 L 51.5137 -45.6055 C 52.7832 -44.3848 54.541 -44.1895 55.8594 -45.459 C 57.1289 -46.7773 57.0801 -48.584 55.7617 -49.8535 L 38.4766 -67.0898 C 36.0352 -69.5312 33.252 -69.5312 30.8105 -67.0898 L 13.5254 -49.8535 C 12.207 -48.584 12.1094 -46.7773 13.4277 -45.459 C 14.6973 -44.1895 16.5039 -44.3359 17.7734 -45.6055 L 23.2422 -50.9766 L 31.5918 -59.8145 L 31.5918 -5.22461 C 31.5918 4.19922 36.4746 9.0332 45.9961 9.0332 Z"/>
  </g>
  <g id="Thin-M" transform="matrix(1 0 0 1 784.474 1126)">
   <path d="M 98.7305 -78.3691 L 52.6855 -78.3691 C 51.5137 -78.3691 50.7324 -77.6367 50.7812 -76.5625 C 50.7812 -75.4883 51.5137 -74.7559 52.6855 -74.7559 L 98.584 -74.7559 C 104.932 -74.7559 108.252 -71.4355 108.252 -65.0391 L 108.252 -9.08203 L 98.291 -19.3848 L 91.8457 -25.7324 C 91.1133 -26.416 90.0391 -26.6602 89.2578 -25.8789 C 88.3789 -25.0488 88.5254 -23.9746 89.3066 -23.1934 L 107.666 -4.83398 C 109.131 -3.36914 110.938 -3.36914 112.402 -4.83398 L 130.762 -23.1934 C 131.543 -23.9746 131.689 -25.0488 130.811 -25.8789 C 130.078 -26.6113 129.004 -26.5137 128.223 -25.7324 L 121.777 -19.3848 L 111.865 -9.08203 L 111.865 -65.2344 C 111.865 -73.877 107.373 -78.3691 98.7305 -78.3691 Z M 45.2148 8.05664 L 91.2598 8.05664 C 92.3828 8.05664 93.1641 7.32422 93.1641 6.25 C 93.1641 5.17578 92.3828 4.44336 91.2598 4.44336 L 45.3125 4.44336 C 38.9648 4.44336 35.6445 1.12305 35.6445 -5.22461 L 35.6445 -61.2305 L 45.6055 -50.9277 L 52.0508 -44.5312 C 52.7832 -43.8477 53.8574 -43.6035 54.6875 -44.4336 C 55.5176 -45.2637 55.3711 -46.2891 54.5898 -47.0703 L 36.2305 -65.4297 C 34.7656 -66.8945 32.959 -66.8945 31.543 -65.4297 L 13.1348 -47.0703 C 12.3535 -46.2891 12.2559 -45.2637 13.0859 -44.4336 C 13.8184 -43.6523 14.8926 -43.75 15.7227 -44.5312 L 22.168 -50.9277 L 32.0312 -61.2305 L 32.0312 -5.0293 C 32.0312 3.56445 36.5723 8.05664 45.2148 8.05664 Z"/>
  </g>
  <g id="Ultralight-M" transform="matrix(1 0 0 1 488.056 1126)">
   <path d="M 98.5352 -77.832 L 50.6348 -77.832 C 50 -77.832 49.4629 -77.2949 49.4629 -76.6602 C 49.4629 -75.9766 50 -75.4395 50.6348 -75.4395 L 98.3887 -75.4395 C 105.176 -75.4395 108.691 -71.9727 108.691 -65.1855 L 108.691 -8.34961 L 111.084 -8.34961 L 111.084 -65.2832 C 111.084 -73.4863 106.738 -77.832 98.5352 -77.832 Z M 12.8906 -43.8965 C 13.3789 -43.4082 14.1113 -43.457 14.6484 -43.9941 L 21.582 -50.8789 L 32.2266 -61.9141 L 34.668 -61.9141 L 45.3613 -50.8789 L 52.3438 -43.9941 C 52.7832 -43.6035 53.5156 -43.3594 54.0527 -43.8965 C 54.6875 -44.4824 54.541 -45.1172 54.0039 -45.6543 L 35.0586 -64.5996 C 34.1309 -65.5762 32.8613 -65.5762 31.8848 -64.5996 L 12.9395 -45.6543 C 12.4023 -45.1172 12.3047 -44.4824 12.8906 -43.8965 Z M 44.7754 7.56836 L 92.6758 7.56836 C 93.3105 7.56836 93.8477 7.03125 93.8477 6.39648 C 93.8965 5.71289 93.3105 5.17578 92.6758 5.17578 L 44.9219 5.17578 C 38.1348 5.17578 34.668 1.66016 34.668 -5.07812 L 34.668 -61.9141 L 32.2754 -61.9141 L 32.2754 -4.98047 C 32.2754 3.22266 36.6211 7.56836 44.7754 7.56836 Z M 130.42 -26.3672 C 129.932 -26.8555 129.248 -26.8066 128.711 -26.2695 L 121.729 -19.3848 L 111.084 -8.34961 L 108.691 -8.34961 L 97.9492 -19.3848 L 91.0156 -26.2695 C 90.5273 -26.6602 89.7949 -26.9531 89.2578 -26.3672 C 88.6719 -25.7812 88.7695 -25.1465 89.3066 -24.6094 L 108.252 -5.66406 C 109.229 -4.6875 110.498 -4.6875 111.426 -5.66406 L 130.371 -24.6094 C 130.908 -25.1465 131.055 -25.7812 130.42 -26.3672 Z"/>
  </g>
  <g id="Black-S" transform="matrix(1 0 0 1 2870.9 696)">
   <path d="M 83.4473 -73.3398 L 59.668 -73.3398 C 55.5176 -73.3398 52.4902 -70.3613 52.4902 -66.2598 C 52.4902 -62.1582 55.5176 -59.1797 59.668 -59.1797 L 81.2012 -59.1797 C 83.4473 -59.1797 84.5215 -58.3008 84.5215 -55.8594 L 84.5215 -23.9746 L 80.5664 -28.9551 L 80.1758 -29.3457 C 77.1973 -32.3242 73.0469 -32.2754 70.166 -29.3457 C 67.2852 -26.416 67.1875 -22.3145 70.166 -19.3359 L 84.082 -5.41992 C 88.8184 -0.683594 94.4336 -0.732422 99.1211 -5.41992 L 113.037 -19.3359 C 116.016 -22.3145 115.918 -26.416 113.037 -29.3457 C 110.156 -32.2754 106.006 -32.3242 103.027 -29.3457 L 102.637 -28.9551 L 98.6816 -23.9746 L 98.6816 -58.1055 C 98.6816 -67.6758 93.0176 -73.3398 83.4473 -73.3398 Z M 41.5527 2.92969 L 65.332 2.92969 C 69.4824 2.92969 72.5098 -0.0488281 72.5098 -4.15039 C 72.5098 -8.25195 69.4824 -11.2305 65.332 -11.2305 L 43.7988 -11.2305 C 41.5527 -11.2305 40.4785 -12.1094 40.4785 -14.5508 L 40.4785 -46.4355 L 44.4336 -41.4551 L 44.8242 -41.0645 C 47.8027 -38.0859 51.9531 -38.1348 54.834 -41.0645 C 57.7148 -43.9941 57.8125 -48.0957 54.834 -51.0742 L 40.918 -64.9902 C 36.1816 -69.7266 30.5664 -69.6777 25.8789 -64.9902 L 11.9629 -51.0742 C 8.98438 -48.0957 9.08203 -43.9941 11.9629 -41.0645 C 14.8438 -38.1348 18.9941 -38.0859 21.9727 -41.0645 L 22.3633 -41.4551 L 26.3184 -46.4355 L 26.3184 -12.3047 C 26.3184 -2.73438 31.9824 2.92969 41.5527 2.92969 Z"/>
  </g>
  <g id="Heavy-S" transform="matrix(1 0 0 1 2575.41 696)">
   <path d="M 82.1289 -72.7539 L 56.9336 -72.7539 C 53.1738 -72.7539 50.5371 -70.166 50.5371 -66.5039 C 50.5371 -62.8418 53.1738 -60.2539 56.9336 -60.2539 L 80.4199 -60.2539 C 82.959 -60.2539 84.2285 -59.1309 84.2285 -56.3965 L 84.2285 -22.4121 L 79.9805 -27.4902 L 78.9062 -28.5645 C 76.3184 -31.2012 72.6562 -31.2012 70.0684 -28.6133 C 67.5293 -26.0254 67.4805 -22.3633 70.1172 -19.7266 L 83.6914 -6.20117 C 87.9883 -1.9043 93.0176 -1.95312 97.2656 -6.20117 L 110.84 -19.7266 C 113.477 -22.3633 113.428 -26.0254 110.889 -28.6133 C 108.301 -31.2012 104.639 -31.2012 102.002 -28.5645 L 100.928 -27.4902 L 96.7285 -22.4121 L 96.7285 -58.2031 C 96.7285 -67.4316 91.4062 -72.7539 82.1289 -72.7539 Z M 40.4297 2.34375 L 65.625 2.34375 C 69.3848 2.34375 72.0703 -0.244141 72.0215 -3.90625 C 72.0215 -7.56836 69.3848 -10.1562 65.625 -10.1562 L 42.1387 -10.1562 C 39.5996 -10.1562 38.3301 -11.2793 38.3301 -14.0137 L 38.3301 -47.998 L 42.5781 -42.9199 L 43.6523 -41.8457 C 46.2891 -39.209 49.9023 -39.209 52.4902 -41.7969 C 55.0293 -44.3848 55.0781 -48.0469 52.4414 -50.6836 L 38.8672 -64.209 C 34.5703 -68.5059 29.541 -68.457 25.293 -64.209 L 11.7188 -50.6836 C 9.08203 -48.0469 9.13086 -44.3848 11.7188 -41.7969 C 14.2578 -39.209 17.9199 -39.209 20.5566 -41.8457 L 21.6309 -42.9199 L 25.8301 -47.998 L 25.8301 -12.207 C 25.8301 -2.97852 31.1523 2.34375 40.4297 2.34375 Z"/>
  </g>
  <g id="Bold-S" transform="matrix(1 0 0 1 2280.07 696)">
   <path d="M 80.6641 -72.0703 L 53.9062 -72.0703 C 50.5371 -72.0703 48.291 -69.9219 48.3398 -66.748 C 48.3398 -63.5742 50.5371 -61.4746 53.9062 -61.4746 L 79.4922 -61.4746 C 82.373 -61.4746 83.9355 -60.0586 83.9355 -56.9824 L 83.9355 -20.6055 L 79.3945 -25.8789 L 77.5391 -27.6855 C 75.293 -29.9316 72.168 -29.9805 69.9707 -27.7344 C 67.8223 -25.5371 67.7734 -22.4121 70.0195 -20.2148 L 83.252 -7.03125 C 87.0117 -3.27148 91.4062 -3.27148 95.2148 -7.03125 L 108.398 -20.2148 C 110.645 -22.4121 110.596 -25.5371 108.447 -27.7344 C 106.25 -29.9805 103.125 -29.9316 100.879 -27.6855 L 99.0723 -25.8789 L 94.5312 -20.6543 L 94.5312 -58.3008 C 94.5312 -67.1875 89.5996 -72.0703 80.6641 -72.0703 Z M 39.1602 1.66016 L 65.9668 1.66016 C 69.2871 1.66016 71.5332 -0.488281 71.5332 -3.66211 C 71.4844 -6.83594 69.2871 -8.93555 65.9668 -8.93555 L 40.332 -8.93555 C 37.4512 -8.93555 35.8887 -10.3516 35.8887 -13.4277 L 35.8887 -49.8047 L 40.4785 -44.5312 L 42.2852 -42.7246 C 44.5312 -40.4785 47.6562 -40.4297 49.8535 -42.6758 C 52.002 -44.873 52.0508 -47.998 49.8047 -50.1953 L 36.6211 -63.3789 C 32.8125 -67.1387 28.418 -67.1387 24.6582 -63.3789 L 11.4258 -50.1953 C 9.17969 -47.998 9.22852 -44.873 11.377 -42.6758 C 13.5742 -40.4297 16.6992 -40.4785 18.9453 -42.7246 L 20.8008 -44.5312 L 25.293 -49.7559 L 25.293 -12.1094 C 25.293 -3.22266 30.2246 1.66016 39.1602 1.66016 Z"/>
  </g>
  <g id="Semibold-S" transform="matrix(1 0 0 1 1984.28 696)">
   <path d="M 79.6875 -71.582 L 51.7578 -71.582 C 48.7305 -71.582 46.7773 -69.7754 46.8262 -66.9434 C 46.8262 -64.1113 48.7305 -62.3047 51.7578 -62.3047 L 78.9062 -62.3047 C 82.0312 -62.3047 83.6914 -60.6934 83.6914 -57.4219 L 83.6914 -19.3848 L 78.9551 -24.7559 L 76.5625 -27.0996 C 74.6094 -29.0527 71.875 -29.1016 69.9219 -27.1484 C 68.0176 -25.2441 68.0176 -22.4609 69.9707 -20.5078 L 82.9102 -7.61719 C 86.377 -4.19922 90.332 -4.19922 93.75 -7.61719 L 106.689 -20.5078 C 108.691 -22.4609 108.691 -25.2441 106.787 -27.1484 C 104.834 -29.1016 102.1 -29.0527 100.146 -27.0996 L 97.7539 -24.7559 L 93.0176 -19.4336 L 93.0176 -58.3984 C 93.0176 -67.041 88.3789 -71.582 79.6875 -71.582 Z M 38.2812 1.17188 L 66.1621 1.17188 C 69.2383 1.17188 71.1914 -0.634766 71.1426 -3.4668 C 71.0938 -6.29883 69.2383 -8.10547 66.1621 -8.10547 L 39.0625 -8.10547 C 35.9375 -8.10547 34.2285 -9.7168 34.2285 -12.9883 L 34.2285 -51.0254 L 39.0137 -45.6543 L 41.4062 -43.3105 C 43.3594 -41.3574 46.0938 -41.3086 48.0469 -43.2617 C 49.9512 -45.166 49.9512 -47.9492 47.9492 -49.9023 L 35.0098 -62.793 C 31.5918 -66.2109 27.6367 -66.2109 24.1699 -62.793 L 11.2793 -49.9023 C 9.27734 -47.9492 9.27734 -45.166 11.1816 -43.2617 C 13.1348 -41.3086 15.8691 -41.3574 17.8223 -43.3105 L 20.2148 -45.6543 L 24.9512 -50.9766 L 24.9512 -12.0117 C 24.9512 -3.36914 29.5898 1.17188 38.2812 1.17188 Z"/>
  </g>
  <g id="Medium-S" transform="matrix(1 0 0 1 1688.28 696)">
   <path d="M 78.9062 -71.2402 L 50.1953 -71.2402 C 47.3633 -71.2402 45.6055 -69.6777 45.6543 -67.0898 C 45.7031 -64.502 47.3633 -62.9395 50.1953 -62.9395 L 78.418 -62.9395 C 81.7383 -62.9395 83.5449 -61.1816 83.5449 -57.7148 L 83.5449 -18.457 L 78.6133 -23.9258 L 75.8301 -26.6602 C 74.0723 -28.3691 71.6309 -28.4668 69.873 -26.709 C 68.1641 -25 68.1641 -22.5098 69.9707 -20.752 L 82.7148 -8.05664 C 85.8887 -4.88281 89.502 -4.88281 92.6758 -8.05664 L 105.42 -20.752 C 107.178 -22.5098 107.227 -25 105.518 -26.709 C 103.76 -28.4668 101.318 -28.3691 99.5605 -26.6602 L 96.7773 -23.9258 L 91.8457 -18.5059 L 91.8457 -58.4473 C 91.8457 -66.8945 87.4512 -71.2402 78.9062 -71.2402 Z M 37.5977 0.830078 L 66.3574 0.830078 C 69.1895 0.830078 70.8984 -0.732422 70.8496 -3.32031 C 70.8496 -5.9082 69.1895 -7.4707 66.3574 -7.4707 L 38.0859 -7.4707 C 34.8145 -7.4707 33.0078 -9.22852 33.0078 -12.6953 L 33.0078 -51.9531 L 37.9395 -46.4844 L 40.7227 -43.75 C 42.4805 -42.041 44.9219 -41.9434 46.6797 -43.7012 C 48.3887 -45.4102 48.3398 -47.9004 46.582 -49.6582 L 33.8379 -62.3535 C 30.6641 -65.5273 27.0508 -65.5273 23.8281 -62.3535 L 11.1328 -49.6582 C 9.32617 -47.9004 9.32617 -45.4102 11.0352 -43.7012 C 12.793 -41.9434 15.2344 -42.041 16.9922 -43.75 L 19.7754 -46.4844 L 24.6582 -51.9043 L 24.6582 -11.9629 C 24.6582 -3.51562 29.1016 0.830078 37.5977 0.830078 Z"/>
  </g>
  <g id="Regular-S" transform="matrix(1 0 0 1 1392.5 696)">
   <path d="M 77.9297 -70.8008 L 48.0957 -70.8008 C 45.5566 -70.8008 44.1406 -69.5312 44.1895 -67.2363 C 44.1895 -64.9902 45.5566 -63.7207 48.0957 -63.7207 L 77.832 -63.7207 C 81.3477 -63.7207 83.3496 -61.8164 83.3496 -58.1543 L 83.3496 -17.2363 L 78.1738 -22.8027 L 74.9023 -26.0254 C 73.3887 -27.4902 71.3379 -27.6367 69.8242 -26.123 C 68.3594 -24.707 68.4082 -22.5098 69.9219 -21.0938 L 82.373 -8.64258 C 85.2539 -5.81055 88.4277 -5.81055 91.2598 -8.64258 L 103.76 -21.0938 C 105.273 -22.5098 105.322 -24.707 103.857 -26.123 C 102.344 -27.6367 100.293 -27.4902 98.7793 -26.0254 L 95.459 -22.8027 L 90.3809 -17.2852 L 90.3809 -58.4961 C 90.3809 -66.6992 86.2305 -70.8008 77.9297 -70.8008 Z M 36.7676 0.390625 L 66.5527 0.390625 C 69.0918 0.390625 70.5566 -0.878906 70.5078 -3.125 C 70.459 -5.37109 69.0918 -6.68945 66.5527 -6.68945 L 36.8652 -6.68945 C 33.3496 -6.68945 31.3477 -8.54492 31.3477 -12.2559 L 31.3477 -53.1738 L 36.5234 -47.6074 L 39.7949 -44.3359 C 41.3086 -42.9199 43.3594 -42.7734 44.873 -44.2383 C 46.3379 -45.7031 46.2891 -47.9004 44.7754 -49.3164 L 32.2754 -61.7676 C 29.4434 -64.5996 26.2695 -64.5996 23.3887 -61.7676 L 10.9375 -49.3164 C 9.42383 -47.9004 9.375 -45.7031 10.8398 -44.2383 C 12.3535 -42.7734 14.4043 -42.9199 15.918 -44.3359 L 19.1895 -47.6074 L 24.3164 -53.125 L 24.3164 -11.9141 C 24.3164 -3.71094 28.4668 0.390625 36.7676 0.390625 Z"/>
  </g>
  <g id="Light-S" transform="matrix(1 0 0 1 1096.18 696)">
   <path d="M 77.6855 -70.1172 L 45.459 -70.1172 C 43.5547 -70.1172 42.4316 -69.0918 42.4805 -67.3828 C 42.4805 -65.6738 43.5547 -64.6973 45.459 -64.6973 L 77.5879 -64.6973 C 81.6406 -64.6973 83.8867 -62.5 83.8867 -58.3008 L 83.8867 -16.2598 L 77.7344 -22.8027 L 73.7305 -26.709 C 72.6074 -27.832 70.9961 -27.9785 69.8242 -26.8066 C 68.7012 -25.6836 68.75 -24.0234 69.9219 -22.9004 L 83.1543 -9.7168 C 85.3516 -7.51953 87.8418 -7.51953 90.0391 -9.7168 L 103.223 -22.9004 C 104.395 -24.0234 104.492 -25.6836 103.32 -26.8066 C 102.148 -27.9785 100.586 -27.832 99.4141 -26.709 L 95.459 -22.8027 L 89.3066 -16.3086 L 89.3066 -58.5938 C 89.3066 -66.2598 85.4004 -70.1172 77.6855 -70.1172 Z M 36.2305 -0.292969 L 68.457 -0.292969 C 70.3613 -0.292969 71.4844 -1.26953 71.4355 -2.97852 C 71.4355 -4.6875 70.3613 -5.71289 68.457 -5.71289 L 36.3281 -5.71289 C 32.2754 -5.71289 30.0293 -7.86133 30.0293 -12.0605 L 30.0293 -54.1016 L 36.1816 -47.5586 L 40.1367 -43.6523 C 41.3086 -42.5781 42.9199 -42.3828 44.0918 -43.5547 C 45.2148 -44.7266 45.166 -46.3379 43.9941 -47.5098 L 30.7617 -60.6934 C 28.5645 -62.8418 26.0742 -62.8418 23.877 -60.6934 L 10.6934 -47.5098 C 9.52148 -46.3379 9.42383 -44.7266 10.5957 -43.5547 C 11.7676 -42.4316 13.3301 -42.5293 14.502 -43.6523 L 18.457 -47.5586 L 24.6094 -54.0527 L 24.6094 -11.7676 C 24.6094 -4.15039 28.5156 -0.292969 36.2305 -0.292969 Z"/>
  </g>
  <g id="Thin-S" transform="matrix(1 0 0 1 799.977 696)">
   <path d="M 77.3926 -69.2383 L 41.9922 -69.2383 C 40.918 -69.2383 40.1855 -68.5547 40.2344 -67.5781 C 40.2344 -66.5527 40.918 -65.918 41.9922 -65.918 L 77.2949 -65.918 C 82.0801 -65.918 84.6191 -63.3789 84.6191 -58.5449 L 84.6191 -14.9902 L 77.0996 -22.8027 L 72.2656 -27.5879 C 71.582 -28.2227 70.6055 -28.418 69.873 -27.6855 C 69.1406 -26.9531 69.2383 -25.9766 69.9219 -25.293 L 84.1309 -11.1328 C 85.4492 -9.81445 87.0605 -9.81445 88.3789 -11.1328 L 102.539 -25.293 C 103.271 -25.9766 103.369 -26.9531 102.637 -27.6855 C 101.953 -28.3691 100.977 -28.3203 100.244 -27.5879 L 95.3613 -22.8027 L 87.9395 -15.0391 L 87.9395 -58.6914 C 87.9395 -65.625 84.3262 -69.2383 77.3926 -69.2383 Z M 35.5469 -1.12305 L 70.9473 -1.12305 C 71.9727 -1.12305 72.7051 -1.75781 72.7051 -2.7832 C 72.6562 -3.75977 71.9727 -4.44336 70.9473 -4.44336 L 35.6445 -4.44336 C 30.8105 -4.44336 28.2715 -6.93359 28.2715 -11.8164 L 28.2715 -55.3223 L 35.791 -47.5586 L 40.625 -42.7246 C 41.3086 -42.0898 42.2852 -41.8945 43.0176 -42.627 C 43.75 -43.3594 43.7012 -44.3359 42.9688 -45.0684 L 28.7598 -59.2285 C 27.4414 -60.5469 25.8789 -60.5469 24.5117 -59.2285 L 10.3516 -45.0684 C 9.61914 -44.3359 9.52148 -43.3594 10.3027 -42.627 C 10.9863 -41.9434 11.9629 -42.041 12.6465 -42.7246 L 17.5293 -47.5586 L 25 -55.3223 L 25 -11.6211 C 25 -4.6875 28.6133 -1.12305 35.5469 -1.12305 Z"/>
  </g>
  <g id="Ultralight-S" transform="matrix(1 0 0 1 503.51 696)">
   <path d="M 77.1973 -68.75 L 40.1855 -68.75 C 39.5508 -68.75 39.0625 -68.2617 39.0625 -67.6758 C 39.0625 -67.041 39.5508 -66.5527 40.1855 -66.5527 L 77.0996 -66.5527 C 82.3242 -66.5527 85.0098 -63.8672 85.0098 -58.6426 L 85.0098 -14.3555 L 76.8066 -22.8027 L 71.4844 -28.0762 C 71.0449 -28.4668 70.4102 -28.6621 69.9219 -28.1738 C 69.3848 -27.6367 69.4824 -27.002 69.9707 -26.5137 L 84.6191 -11.8652 C 85.498 -10.9863 86.6699 -10.9863 87.5488 -11.8652 L 102.197 -26.5137 C 102.686 -27.002 102.783 -27.6367 102.246 -28.1738 C 101.807 -28.6133 101.172 -28.5645 100.684 -28.0762 L 95.3613 -22.8027 L 87.207 -14.3555 L 87.207 -58.7891 C 87.207 -65.2832 83.7402 -68.75 77.1973 -68.75 Z M 35.1562 -1.5625 L 72.2168 -1.5625 C 72.8516 -1.5625 73.3398 -2.05078 73.3398 -2.68555 C 73.3398 -3.27148 72.8516 -3.75977 72.2168 -3.75977 L 35.2539 -3.75977 C 30.0781 -3.75977 27.3926 -6.44531 27.3926 -11.6699 L 27.3926 -55.957 L 35.5957 -47.5098 L 40.918 -42.2363 C 41.3574 -41.8457 41.9922 -41.6504 42.4805 -42.1387 C 43.0176 -42.6758 42.9199 -43.3105 42.4316 -43.7988 L 27.7344 -58.4961 C 26.8555 -59.375 25.7324 -59.375 24.8535 -58.4961 L 10.1562 -43.7988 C 9.66797 -43.3105 9.57031 -42.6758 10.1074 -42.1387 C 10.5957 -41.6992 11.2305 -41.748 11.7188 -42.2363 L 17.041 -47.5098 L 25.1953 -55.957 L 25.1953 -11.5234 C 25.1953 -5.0293 28.6133 -1.5625 35.1562 -1.5625 Z"/>
  </g>
 </g>
</svg>
